<?xml version="1.0" encoding="utf-8" standalone="no"?>
<!DOCTYPE svg PUBLIC "-//W3C//DTD SVG 1.1//EN"
  "http://www.w3.org/Graphics/SVG/1.1/DTD/svg11.dtd">
<svg xmlns:xlink="http://www.w3.org/1999/xlink" width="720pt" height="360pt" viewBox="0 0 720 360" xmlns="http://www.w3.org/2000/svg" version="1.1">
 <metadata>
  <rdf:RDF xmlns:dc="http://purl.org/dc/elements/1.1/" xmlns:cc="http://creativecommons.org/ns#" xmlns:rdf="http://www.w3.org/1999/02/22-rdf-syntax-ns#">
   <cc:Work>
    <dc:type rdf:resource="http://purl.org/dc/dcmitype/StillImage"/>
    <dc:date>2022-02-26T19:18:53.954856</dc:date>
    <dc:format>image/svg+xml</dc:format>
    <dc:creator>
     <cc:Agent>
      <dc:title>Matplotlib v3.5.0, https://matplotlib.org/</dc:title>
     </cc:Agent>
    </dc:creator>
   </cc:Work>
  </rdf:RDF>
 </metadata>
 <defs>
  <style type="text/css">*{stroke-linejoin: round; stroke-linecap: butt}</style>
 </defs>
 <g id="figure_1">
  <g id="patch_1">
   <path d="M 0 360 
L 720 360 
L 720 0 
L 0 0 
z
" style="fill: #ffffff"/>
  </g>
  <g id="axes_1">
   <g id="patch_2">
    <path d="M 90 315 
L 343.636364 315 
L 343.636364 43.2 
L 90 43.2 
z
" style="fill: #e5e5e5"/>
   </g>
   <g id="matplotlib.axis_1">
    <g id="xtick_1">
     <g id="line2d_1">
      <path d="M 101.528926 315 
L 101.528926 43.2 
" clip-path="url(#p5641dccff8)" style="fill: none; stroke: #ffffff; stroke-width: 0.8; stroke-linecap: square"/>
     </g>
     <g id="line2d_2">
      <defs>
       <path id="m81e9bc1a22" d="M 0 0 
L 0 3.5 
" style="stroke: #555555; stroke-width: 0.8"/>
      </defs>
      <g>
       <use xlink:href="#m81e9bc1a22" x="101.528926" y="315" style="fill: #555555; stroke: #555555; stroke-width: 0.8"/>
      </g>
     </g>
     <g id="text_1">
      <!-- 0 -->
      <g style="fill: #555555" transform="translate(99.028926 328.94375)scale(0.1 -0.1)">
       <defs>
        <path id="TimesNewRomanPSMT-30" d="M 231 2094 
Q 231 2819 450 3342 
Q 669 3866 1031 4122 
Q 1313 4325 1613 4325 
Q 2100 4325 2488 3828 
Q 2972 3213 2972 2159 
Q 2972 1422 2759 906 
Q 2547 391 2217 158 
Q 1888 -75 1581 -75 
Q 975 -75 572 641 
Q 231 1244 231 2094 
z
M 844 2016 
Q 844 1141 1059 588 
Q 1238 122 1591 122 
Q 1759 122 1940 273 
Q 2122 425 2216 781 
Q 2359 1319 2359 2297 
Q 2359 3022 2209 3506 
Q 2097 3866 1919 4016 
Q 1791 4119 1609 4119 
Q 1397 4119 1231 3928 
Q 1006 3669 925 3112 
Q 844 2556 844 2016 
z
" transform="scale(0.015625)"/>
       </defs>
       <use xlink:href="#TimesNewRomanPSMT-30"/>
      </g>
     </g>
    </g>
    <g id="xtick_2">
     <g id="line2d_3">
      <path d="M 140.610029 315 
L 140.610029 43.2 
" clip-path="url(#p5641dccff8)" style="fill: none; stroke: #ffffff; stroke-width: 0.8; stroke-linecap: square"/>
     </g>
     <g id="line2d_4">
      <g>
       <use xlink:href="#m81e9bc1a22" x="140.610029" y="315" style="fill: #555555; stroke: #555555; stroke-width: 0.8"/>
      </g>
     </g>
     <g id="text_2">
      <!-- 10 -->
      <g style="fill: #555555" transform="translate(135.610029 328.94375)scale(0.1 -0.1)">
       <defs>
        <path id="TimesNewRomanPSMT-31" d="M 750 3822 
L 1781 4325 
L 1884 4325 
L 1884 747 
Q 1884 391 1914 303 
Q 1944 216 2037 169 
Q 2131 122 2419 116 
L 2419 0 
L 825 0 
L 825 116 
Q 1125 122 1212 167 
Q 1300 213 1334 289 
Q 1369 366 1369 747 
L 1369 3034 
Q 1369 3497 1338 3628 
Q 1316 3728 1258 3775 
Q 1200 3822 1119 3822 
Q 1003 3822 797 3725 
L 750 3822 
z
" transform="scale(0.015625)"/>
       </defs>
       <use xlink:href="#TimesNewRomanPSMT-31"/>
       <use xlink:href="#TimesNewRomanPSMT-30" x="50"/>
      </g>
     </g>
    </g>
    <g id="xtick_3">
     <g id="line2d_5">
      <path d="M 179.691133 315 
L 179.691133 43.2 
" clip-path="url(#p5641dccff8)" style="fill: none; stroke: #ffffff; stroke-width: 0.8; stroke-linecap: square"/>
     </g>
     <g id="line2d_6">
      <g>
       <use xlink:href="#m81e9bc1a22" x="179.691133" y="315" style="fill: #555555; stroke: #555555; stroke-width: 0.8"/>
      </g>
     </g>
     <g id="text_3">
      <!-- 20 -->
      <g style="fill: #555555" transform="translate(174.691133 328.94375)scale(0.1 -0.1)">
       <defs>
        <path id="TimesNewRomanPSMT-32" d="M 2934 816 
L 2638 0 
L 138 0 
L 138 116 
Q 1241 1122 1691 1759 
Q 2141 2397 2141 2925 
Q 2141 3328 1894 3587 
Q 1647 3847 1303 3847 
Q 991 3847 742 3664 
Q 494 3481 375 3128 
L 259 3128 
Q 338 3706 661 4015 
Q 984 4325 1469 4325 
Q 1984 4325 2329 3994 
Q 2675 3663 2675 3213 
Q 2675 2891 2525 2569 
Q 2294 2063 1775 1497 
Q 997 647 803 472 
L 1909 472 
Q 2247 472 2383 497 
Q 2519 522 2628 598 
Q 2738 675 2819 816 
L 2934 816 
z
" transform="scale(0.015625)"/>
       </defs>
       <use xlink:href="#TimesNewRomanPSMT-32"/>
       <use xlink:href="#TimesNewRomanPSMT-30" x="50"/>
      </g>
     </g>
    </g>
    <g id="xtick_4">
     <g id="line2d_7">
      <path d="M 218.772237 315 
L 218.772237 43.2 
" clip-path="url(#p5641dccff8)" style="fill: none; stroke: #ffffff; stroke-width: 0.8; stroke-linecap: square"/>
     </g>
     <g id="line2d_8">
      <g>
       <use xlink:href="#m81e9bc1a22" x="218.772237" y="315" style="fill: #555555; stroke: #555555; stroke-width: 0.8"/>
      </g>
     </g>
     <g id="text_4">
      <!-- 30 -->
      <g style="fill: #555555" transform="translate(213.772237 328.94375)scale(0.1 -0.1)">
       <defs>
        <path id="TimesNewRomanPSMT-33" d="M 325 3431 
Q 506 3859 782 4092 
Q 1059 4325 1472 4325 
Q 1981 4325 2253 3994 
Q 2459 3747 2459 3466 
Q 2459 3003 1878 2509 
Q 2269 2356 2469 2072 
Q 2669 1788 2669 1403 
Q 2669 853 2319 450 
Q 1863 -75 997 -75 
Q 569 -75 414 31 
Q 259 138 259 259 
Q 259 350 332 419 
Q 406 488 509 488 
Q 588 488 669 463 
Q 722 447 909 348 
Q 1097 250 1169 231 
Q 1284 197 1416 197 
Q 1734 197 1970 444 
Q 2206 691 2206 1028 
Q 2206 1275 2097 1509 
Q 2016 1684 1919 1775 
Q 1784 1900 1550 2001 
Q 1316 2103 1072 2103 
L 972 2103 
L 972 2197 
Q 1219 2228 1467 2375 
Q 1716 2522 1828 2728 
Q 1941 2934 1941 3181 
Q 1941 3503 1739 3701 
Q 1538 3900 1238 3900 
Q 753 3900 428 3381 
L 325 3431 
z
" transform="scale(0.015625)"/>
       </defs>
       <use xlink:href="#TimesNewRomanPSMT-33"/>
       <use xlink:href="#TimesNewRomanPSMT-30" x="50"/>
      </g>
     </g>
    </g>
    <g id="xtick_5">
     <g id="line2d_9">
      <path d="M 257.853341 315 
L 257.853341 43.2 
" clip-path="url(#p5641dccff8)" style="fill: none; stroke: #ffffff; stroke-width: 0.8; stroke-linecap: square"/>
     </g>
     <g id="line2d_10">
      <g>
       <use xlink:href="#m81e9bc1a22" x="257.853341" y="315" style="fill: #555555; stroke: #555555; stroke-width: 0.8"/>
      </g>
     </g>
     <g id="text_5">
      <!-- 40 -->
      <g style="fill: #555555" transform="translate(252.853341 328.94375)scale(0.1 -0.1)">
       <defs>
        <path id="TimesNewRomanPSMT-34" d="M 2978 1563 
L 2978 1119 
L 2409 1119 
L 2409 0 
L 1894 0 
L 1894 1119 
L 100 1119 
L 100 1519 
L 2066 4325 
L 2409 4325 
L 2409 1563 
L 2978 1563 
z
M 1894 1563 
L 1894 3666 
L 406 1563 
L 1894 1563 
z
" transform="scale(0.015625)"/>
       </defs>
       <use xlink:href="#TimesNewRomanPSMT-34"/>
       <use xlink:href="#TimesNewRomanPSMT-30" x="50"/>
      </g>
     </g>
    </g>
    <g id="xtick_6">
     <g id="line2d_11">
      <path d="M 296.934445 315 
L 296.934445 43.2 
" clip-path="url(#p5641dccff8)" style="fill: none; stroke: #ffffff; stroke-width: 0.8; stroke-linecap: square"/>
     </g>
     <g id="line2d_12">
      <g>
       <use xlink:href="#m81e9bc1a22" x="296.934445" y="315" style="fill: #555555; stroke: #555555; stroke-width: 0.8"/>
      </g>
     </g>
     <g id="text_6">
      <!-- 50 -->
      <g style="fill: #555555" transform="translate(291.934445 328.94375)scale(0.1 -0.1)">
       <defs>
        <path id="TimesNewRomanPSMT-35" d="M 2778 4238 
L 2534 3706 
L 1259 3706 
L 981 3138 
Q 1809 3016 2294 2522 
Q 2709 2097 2709 1522 
Q 2709 1188 2573 903 
Q 2438 619 2231 419 
Q 2025 219 1772 97 
Q 1413 -75 1034 -75 
Q 653 -75 479 54 
Q 306 184 306 341 
Q 306 428 378 495 
Q 450 563 559 563 
Q 641 563 702 538 
Q 763 513 909 409 
Q 1144 247 1384 247 
Q 1750 247 2026 523 
Q 2303 800 2303 1197 
Q 2303 1581 2056 1914 
Q 1809 2247 1375 2428 
Q 1034 2569 447 2591 
L 1259 4238 
L 2778 4238 
z
" transform="scale(0.015625)"/>
       </defs>
       <use xlink:href="#TimesNewRomanPSMT-35"/>
       <use xlink:href="#TimesNewRomanPSMT-30" x="50"/>
      </g>
     </g>
    </g>
    <g id="xtick_7">
     <g id="line2d_13">
      <path d="M 336.015548 315 
L 336.015548 43.2 
" clip-path="url(#p5641dccff8)" style="fill: none; stroke: #ffffff; stroke-width: 0.8; stroke-linecap: square"/>
     </g>
     <g id="line2d_14">
      <g>
       <use xlink:href="#m81e9bc1a22" x="336.015548" y="315" style="fill: #555555; stroke: #555555; stroke-width: 0.8"/>
      </g>
     </g>
     <g id="text_7">
      <!-- 60 -->
      <g style="fill: #555555" transform="translate(331.015548 328.94375)scale(0.1 -0.1)">
       <defs>
        <path id="TimesNewRomanPSMT-36" d="M 2869 4325 
L 2869 4209 
Q 2456 4169 2195 4045 
Q 1934 3922 1679 3669 
Q 1425 3416 1258 3105 
Q 1091 2794 978 2366 
Q 1428 2675 1881 2675 
Q 2316 2675 2634 2325 
Q 2953 1975 2953 1425 
Q 2953 894 2631 456 
Q 2244 -75 1606 -75 
Q 1172 -75 869 213 
Q 275 772 275 1663 
Q 275 2231 503 2743 
Q 731 3256 1154 3653 
Q 1578 4050 1965 4187 
Q 2353 4325 2688 4325 
L 2869 4325 
z
M 925 2138 
Q 869 1716 869 1456 
Q 869 1156 980 804 
Q 1091 453 1309 247 
Q 1469 100 1697 100 
Q 1969 100 2183 356 
Q 2397 613 2397 1088 
Q 2397 1622 2184 2012 
Q 1972 2403 1581 2403 
Q 1463 2403 1327 2353 
Q 1191 2303 925 2138 
z
" transform="scale(0.015625)"/>
       </defs>
       <use xlink:href="#TimesNewRomanPSMT-36"/>
       <use xlink:href="#TimesNewRomanPSMT-30" x="50"/>
      </g>
     </g>
    </g>
   </g>
   <g id="matplotlib.axis_2">
    <g id="ytick_1">
     <g id="line2d_15">
      <path d="M 90 302.645455 
L 343.636364 302.645455 
" clip-path="url(#p5641dccff8)" style="fill: none; stroke: #ffffff; stroke-width: 0.8; stroke-linecap: square"/>
     </g>
     <g id="line2d_16">
      <defs>
       <path id="ma3086903fa" d="M 0 0 
L -3.5 0 
" style="stroke: #555555; stroke-width: 0.8"/>
      </defs>
      <g>
       <use xlink:href="#ma3086903fa" x="90" y="302.645455" style="fill: #555555; stroke: #555555; stroke-width: 0.8"/>
      </g>
     </g>
     <g id="text_8">
      <!-- 0.0 -->
      <g style="fill: #555555" transform="translate(70.5 306.11733)scale(0.1 -0.1)">
       <defs>
        <path id="TimesNewRomanPSMT-2e" d="M 800 606 
Q 947 606 1047 504 
Q 1147 403 1147 259 
Q 1147 116 1045 14 
Q 944 -88 800 -88 
Q 656 -88 554 14 
Q 453 116 453 259 
Q 453 406 554 506 
Q 656 606 800 606 
z
" transform="scale(0.015625)"/>
       </defs>
       <use xlink:href="#TimesNewRomanPSMT-30"/>
       <use xlink:href="#TimesNewRomanPSMT-2e" x="50"/>
       <use xlink:href="#TimesNewRomanPSMT-30" x="75"/>
      </g>
     </g>
    </g>
    <g id="ytick_2">
     <g id="line2d_17">
      <path d="M 90 253.227273 
L 343.636364 253.227273 
" clip-path="url(#p5641dccff8)" style="fill: none; stroke: #ffffff; stroke-width: 0.8; stroke-linecap: square"/>
     </g>
     <g id="line2d_18">
      <g>
       <use xlink:href="#ma3086903fa" x="90" y="253.227273" style="fill: #555555; stroke: #555555; stroke-width: 0.8"/>
      </g>
     </g>
     <g id="text_9">
      <!-- 0.2 -->
      <g style="fill: #555555" transform="translate(70.5 256.699148)scale(0.1 -0.1)">
       <use xlink:href="#TimesNewRomanPSMT-30"/>
       <use xlink:href="#TimesNewRomanPSMT-2e" x="50"/>
       <use xlink:href="#TimesNewRomanPSMT-32" x="75"/>
      </g>
     </g>
    </g>
    <g id="ytick_3">
     <g id="line2d_19">
      <path d="M 90 203.809091 
L 343.636364 203.809091 
" clip-path="url(#p5641dccff8)" style="fill: none; stroke: #ffffff; stroke-width: 0.8; stroke-linecap: square"/>
     </g>
     <g id="line2d_20">
      <g>
       <use xlink:href="#ma3086903fa" x="90" y="203.809091" style="fill: #555555; stroke: #555555; stroke-width: 0.8"/>
      </g>
     </g>
     <g id="text_10">
      <!-- 0.4 -->
      <g style="fill: #555555" transform="translate(70.5 207.280966)scale(0.1 -0.1)">
       <use xlink:href="#TimesNewRomanPSMT-30"/>
       <use xlink:href="#TimesNewRomanPSMT-2e" x="50"/>
       <use xlink:href="#TimesNewRomanPSMT-34" x="75"/>
      </g>
     </g>
    </g>
    <g id="ytick_4">
     <g id="line2d_21">
      <path d="M 90 154.390909 
L 343.636364 154.390909 
" clip-path="url(#p5641dccff8)" style="fill: none; stroke: #ffffff; stroke-width: 0.8; stroke-linecap: square"/>
     </g>
     <g id="line2d_22">
      <g>
       <use xlink:href="#ma3086903fa" x="90" y="154.390909" style="fill: #555555; stroke: #555555; stroke-width: 0.8"/>
      </g>
     </g>
     <g id="text_11">
      <!-- 0.6 -->
      <g style="fill: #555555" transform="translate(70.5 157.862784)scale(0.1 -0.1)">
       <use xlink:href="#TimesNewRomanPSMT-30"/>
       <use xlink:href="#TimesNewRomanPSMT-2e" x="50"/>
       <use xlink:href="#TimesNewRomanPSMT-36" x="75"/>
      </g>
     </g>
    </g>
    <g id="ytick_5">
     <g id="line2d_23">
      <path d="M 90 104.972727 
L 343.636364 104.972727 
" clip-path="url(#p5641dccff8)" style="fill: none; stroke: #ffffff; stroke-width: 0.8; stroke-linecap: square"/>
     </g>
     <g id="line2d_24">
      <g>
       <use xlink:href="#ma3086903fa" x="90" y="104.972727" style="fill: #555555; stroke: #555555; stroke-width: 0.8"/>
      </g>
     </g>
     <g id="text_12">
      <!-- 0.8 -->
      <g style="fill: #555555" transform="translate(70.5 108.444602)scale(0.1 -0.1)">
       <defs>
        <path id="TimesNewRomanPSMT-38" d="M 1228 2134 
Q 725 2547 579 2797 
Q 434 3047 434 3316 
Q 434 3728 753 4026 
Q 1072 4325 1600 4325 
Q 2113 4325 2425 4047 
Q 2738 3769 2738 3413 
Q 2738 3175 2569 2928 
Q 2400 2681 1866 2347 
Q 2416 1922 2594 1678 
Q 2831 1359 2831 1006 
Q 2831 559 2490 242 
Q 2150 -75 1597 -75 
Q 994 -75 656 303 
Q 388 606 388 966 
Q 388 1247 577 1523 
Q 766 1800 1228 2134 
z
M 1719 2469 
Q 2094 2806 2194 3001 
Q 2294 3197 2294 3444 
Q 2294 3772 2109 3958 
Q 1925 4144 1606 4144 
Q 1288 4144 1088 3959 
Q 888 3775 888 3528 
Q 888 3366 970 3203 
Q 1053 3041 1206 2894 
L 1719 2469 
z
M 1375 2016 
Q 1116 1797 991 1539 
Q 866 1281 866 981 
Q 866 578 1086 336 
Q 1306 94 1647 94 
Q 1984 94 2187 284 
Q 2391 475 2391 747 
Q 2391 972 2272 1150 
Q 2050 1481 1375 2016 
z
" transform="scale(0.015625)"/>
       </defs>
       <use xlink:href="#TimesNewRomanPSMT-30"/>
       <use xlink:href="#TimesNewRomanPSMT-2e" x="50"/>
       <use xlink:href="#TimesNewRomanPSMT-38" x="75"/>
      </g>
     </g>
    </g>
    <g id="ytick_6">
     <g id="line2d_25">
      <path d="M 90 55.554545 
L 343.636364 55.554545 
" clip-path="url(#p5641dccff8)" style="fill: none; stroke: #ffffff; stroke-width: 0.8; stroke-linecap: square"/>
     </g>
     <g id="line2d_26">
      <g>
       <use xlink:href="#ma3086903fa" x="90" y="55.554545" style="fill: #555555; stroke: #555555; stroke-width: 0.8"/>
      </g>
     </g>
     <g id="text_13">
      <!-- 1.0 -->
      <g style="fill: #555555" transform="translate(70.5 59.02642)scale(0.1 -0.1)">
       <use xlink:href="#TimesNewRomanPSMT-31"/>
       <use xlink:href="#TimesNewRomanPSMT-2e" x="50"/>
       <use xlink:href="#TimesNewRomanPSMT-30" x="75"/>
      </g>
     </g>
    </g>
   </g>
   <g id="line2d_27">
    <path d="M 101.528926 55.554545 
L 105.437036 123.823908 
L 109.345146 123.669292 
L 113.253257 87.062462 
L 117.161367 97.395905 
L 121.069478 156.562581 
L 124.977588 87.628835 
L 128.885698 148.6939 
L 132.793809 81.110876 
L 136.701919 111.01535 
L 140.610029 106.004117 
L 144.51814 148.151651 
L 148.42625 160.144879 
L 152.334361 100.266097 
L 156.242471 122.812105 
L 160.150581 131.048355 
L 164.058692 65.540652 
L 167.966802 97.772396 
L 171.874912 130.171698 
L 175.783023 119.256774 
L 179.691133 107.634649 
L 183.599244 106.94802 
L 187.507354 105.723839 
L 191.415464 170.445473 
L 195.323575 223.357385 
L 199.231685 215.93675 
L 203.139795 269.412981 
L 207.047906 275.349953 
L 210.956016 219.478862 
L 214.864127 277.201722 
L 218.772237 263.06043 
L 222.680347 178.885798 
L 226.588458 219.815401 
L 230.496568 214.779189 
L 234.404679 236.019055 
L 238.312789 149.156499 
L 242.220899 109.002751 
L 246.12901 98.080757 
L 250.03712 80.541725 
L 253.94523 113.426155 
L 257.853341 94.123634 
L 261.761451 98.322435 
L 265.669562 100.344779 
L 269.577672 124.121116 
L 273.485782 152.098425 
L 277.393893 154.00607 
L 281.302003 165.068359 
L 285.210113 159.690542 
L 289.118224 236.486607 
L 293.026334 181.714895 
L 296.934445 219.069406 
L 300.842555 225.693071 
L 304.750665 230.250277 
L 308.658776 240.778263 
L 312.566886 302.645455 
L 316.474996 264.632048 
L 320.383107 224.948969 
L 324.291217 197.154106 
L 328.199328 201.227046 
L 332.107438 252.024728 
" clip-path="url(#p5641dccff8)" style="fill: none; stroke: #000000; stroke-opacity: 0.2; stroke-width: 1.5; stroke-linecap: square"/>
   </g>
   <g id="line2d_28">
    <path d="M 101.528926 186.22799 
L 105.437036 196.584613 
L 109.345146 205.943177 
L 113.253257 176.338532 
L 117.161367 158.562024 
L 121.069478 160.375555 
L 124.977588 152.956533 
L 128.885698 162.104454 
L 132.793809 136.545624 
L 136.701919 178.618096 
L 140.610029 167.663618 
L 144.51814 138.040139 
L 148.42625 131.946366 
L 152.334361 91.581187 
L 156.242471 84.609063 
L 160.150581 156.452789 
L 164.058692 167.496884 
L 167.966802 164.702136 
L 171.874912 142.833843 
L 175.783023 146.202737 
L 179.691133 132.889044 
L 183.599244 110.386549 
L 187.507354 133.180088 
L 191.415464 112.015 
L 195.323575 117.168644 
L 199.231685 90.22264 
L 203.139795 88.491979 
L 207.047906 91.730302 
L 210.956016 55.554545 
L 214.864127 65.543066 
L 218.772237 106.203784 
L 222.680347 135.543783 
L 226.588458 230.746527 
L 230.496568 272.8935 
L 234.404679 239.042439 
L 238.312789 270.407319 
L 242.220899 205.229072 
L 246.12901 133.253797 
L 250.03712 174.00328 
L 253.94523 210.430478 
L 257.853341 268.396338 
L 261.761451 229.365945 
L 265.669562 297.556495 
L 269.577672 276.156967 
L 273.485782 302.645455 
L 277.393893 280.352765 
L 281.302003 256.671777 
L 285.210113 260.909977 
L 289.118224 249.08641 
L 293.026334 279.29649 
L 296.934445 256.279625 
L 300.842555 250.767632 
L 304.750665 248.72686 
L 308.658776 246.405422 
L 312.566886 224.672899 
L 316.474996 120.734566 
L 320.383107 135.559203 
L 324.291217 135.90578 
L 328.199328 129.313761 
L 332.107438 136.212345 
" clip-path="url(#p5641dccff8)" style="fill: none; stroke: #000000; stroke-opacity: 0.2; stroke-width: 1.5; stroke-linecap: square"/>
   </g>
   <g id="line2d_29">
    <path d="M 101.528926 168.213891 
L 105.437036 167.504902 
L 109.345146 173.597378 
L 113.253257 168.434034 
L 117.161367 195.507773 
L 121.069478 212.931568 
L 124.977588 173.508749 
L 128.885698 171.319513 
L 132.793809 136.228539 
L 136.701919 55.554545 
L 140.610029 148.633025 
L 144.51814 146.949401 
L 148.42625 132.761904 
L 152.334361 140.136648 
L 156.242471 195.112569 
L 160.150581 162.38192 
L 164.058692 173.388757 
L 167.966802 194.569047 
L 171.874912 189.070471 
L 175.783023 218.072008 
L 179.691133 198.346929 
L 183.599244 202.404326 
L 187.507354 211.974121 
L 191.415464 254.695974 
L 195.323575 225.292102 
L 199.231685 236.764466 
L 203.139795 253.63297 
L 207.047906 271.532669 
L 210.956016 252.594563 
L 214.864127 237.096354 
L 218.772237 254.45658 
L 222.680347 271.776461 
L 226.588458 259.353659 
L 230.496568 276.119662 
L 234.404679 275.146033 
L 238.312789 273.378004 
L 242.220899 244.700025 
L 246.12901 254.755156 
L 250.03712 243.201926 
L 253.94523 264.200831 
L 257.853341 224.998213 
L 261.761451 256.670421 
L 265.669562 276.50125 
L 269.577672 268.853696 
L 273.485782 258.697995 
L 277.393893 274.116537 
L 281.302003 286.720878 
L 285.210113 270.348762 
L 289.118224 275.608339 
L 293.026334 284.036495 
L 296.934445 283.158231 
L 300.842555 284.327275 
L 304.750665 302.645455 
L 308.658776 295.191169 
L 312.566886 268.116746 
L 316.474996 289.881345 
L 320.383107 266.829535 
L 324.291217 268.295194 
L 328.199328 268.18838 
L 332.107438 294.87822 
" clip-path="url(#p5641dccff8)" style="fill: none; stroke: #000000; stroke-opacity: 0.2; stroke-width: 1.5; stroke-linecap: square"/>
   </g>
   <g id="line2d_30">
    <path d="M 101.528926 110.670085 
L 105.437036 164.854213 
L 109.345146 99.21881 
L 113.253257 177.681267 
L 117.161367 141.386586 
L 121.069478 108.03424 
L 124.977588 96.008527 
L 128.885698 121.950214 
L 132.793809 175.621279 
L 136.701919 118.751635 
L 140.610029 134.180407 
L 144.51814 129.405906 
L 148.42625 188.329281 
L 152.334361 193.78958 
L 156.242471 126.119361 
L 160.150581 128.856559 
L 164.058692 122.285168 
L 167.966802 178.03146 
L 171.874912 189.135789 
L 175.783023 163.404902 
L 179.691133 202.312459 
L 183.599244 148.664373 
L 187.507354 154.551804 
L 191.415464 202.979637 
L 195.323575 165.821032 
L 199.231685 142.05636 
L 203.139795 190.6275 
L 207.047906 188.649384 
L 210.956016 210.430672 
L 214.864127 242.475631 
L 218.772237 265.192595 
L 222.680347 302.645455 
L 226.588458 292.221524 
L 230.496568 301.082511 
L 234.404679 302.057474 
L 238.312789 266.98818 
L 242.220899 220.028684 
L 246.12901 227.782539 
L 250.03712 212.66495 
L 253.94523 238.246037 
L 257.853341 188.978775 
L 261.761451 141.429713 
L 265.669562 120.752737 
L 269.577672 132.54774 
L 273.485782 121.09367 
L 277.393893 125.843697 
L 281.302003 120.578814 
L 285.210113 123.727714 
L 289.118224 127.380852 
L 293.026334 77.770076 
L 296.934445 83.026799 
L 300.842555 55.554545 
L 304.750665 78.757767 
L 308.658776 80.1385 
L 312.566886 89.419041 
L 316.474996 133.441005 
L 320.383107 155.68546 
L 324.291217 155.832897 
L 328.199328 186.312538 
L 332.107438 178.773986 
" clip-path="url(#p5641dccff8)" style="fill: none; stroke: #000000; stroke-opacity: 0.2; stroke-width: 1.5; stroke-linecap: square"/>
   </g>
   <g id="line2d_31">
    <path d="M 101.528926 142.14137 
L 105.437036 150.43623 
L 109.345146 109.614019 
L 113.253257 112.090431 
L 117.161367 90.311369 
L 121.069478 76.674881 
L 124.977588 83.237611 
L 128.885698 55.554545 
L 132.793809 59.664494 
L 136.701919 81.629036 
L 140.610029 90.483532 
L 144.51814 98.46472 
L 148.42625 107.866128 
L 152.334361 111.30228 
L 156.242471 78.129482 
L 160.150581 89.388043 
L 164.058692 131.059723 
L 167.966802 156.750841 
L 171.874912 113.334935 
L 175.783023 112.296028 
L 179.691133 113.32851 
L 183.599244 88.675896 
L 187.507354 109.991381 
L 191.415464 140.539237 
L 195.323575 121.175093 
L 199.231685 86.924462 
L 203.139795 75.644823 
L 207.047906 80.565815 
L 210.956016 144.940586 
L 214.864127 185.141348 
L 218.772237 224.105423 
L 222.680347 245.318892 
L 226.588458 201.871097 
L 230.496568 207.827984 
L 234.404679 216.633744 
L 238.312789 233.721414 
L 242.220899 276.163811 
L 246.12901 290.350271 
L 250.03712 290.700101 
L 253.94523 273.717806 
L 257.853341 302.645455 
L 261.761451 256.826264 
L 265.669562 254.729433 
L 269.577672 279.775809 
L 273.485782 224.400712 
L 277.393893 175.587133 
L 281.302003 196.564351 
L 285.210113 198.619864 
L 289.118224 224.599182 
L 293.026334 215.80555 
L 296.934445 184.02672 
L 300.842555 244.217044 
L 304.750665 237.253488 
L 308.658776 224.016415 
L 312.566886 181.116083 
L 316.474996 168.36932 
L 320.383107 204.498899 
L 324.291217 177.776654 
L 328.199328 148.938973 
L 332.107438 143.16585 
" clip-path="url(#p5641dccff8)" style="fill: none; stroke: #000000; stroke-opacity: 0.2; stroke-width: 1.5; stroke-linecap: square"/>
   </g>
   <g id="line2d_32">
    <path d="M 101.528926 136.744287 
L 105.437036 106.859557 
L 109.345146 140.936825 
L 113.253257 167.354507 
L 117.161367 176.948593 
L 121.069478 134.468803 
L 124.977588 148.24576 
L 128.885698 133.117024 
L 132.793809 133.633772 
L 136.701919 113.234968 
L 140.610029 106.628567 
L 144.51814 104.866886 
L 148.42625 108.937299 
L 152.334361 92.60556 
L 156.242471 145.515002 
L 160.150581 156.166459 
L 164.058692 124.131069 
L 167.966802 154.35279 
L 171.874912 140.628435 
L 175.783023 115.491505 
L 179.691133 114.531499 
L 183.599244 126.982498 
L 187.507354 147.478642 
L 191.415464 122.386574 
L 195.323575 116.129771 
L 199.231685 113.009468 
L 203.139795 89.8621 
L 207.047906 113.486045 
L 210.956016 87.616605 
L 214.864127 84.29443 
L 218.772237 72.816271 
L 222.680347 66.493926 
L 226.588458 71.835111 
L 230.496568 70.757716 
L 234.404679 68.581901 
L 238.312789 81.867918 
L 242.220899 115.051491 
L 246.12901 85.990386 
L 250.03712 100.460938 
L 253.94523 55.554545 
L 257.853341 77.294435 
L 261.761451 94.78756 
L 265.669562 112.817736 
L 269.577672 82.167494 
L 273.485782 91.505174 
L 277.393893 83.860848 
L 281.302003 65.097059 
L 285.210113 84.029752 
L 289.118224 99.03596 
L 293.026334 67.227475 
L 296.934445 121.568157 
L 300.842555 132.116948 
L 304.750665 139.237289 
L 308.658776 222.977351 
L 312.566886 253.402936 
L 316.474996 271.245186 
L 320.383107 302.645455 
L 324.291217 239.057928 
L 328.199328 257.227232 
L 332.107438 233.236322 
" clip-path="url(#p5641dccff8)" style="fill: none; stroke: #000000; stroke-opacity: 0.2; stroke-width: 1.5; stroke-linecap: square"/>
   </g>
   <g id="line2d_33">
    <path d="M 101.528926 222.453535 
L 105.437036 200.518433 
L 109.345146 213.831701 
L 113.253257 213.087439 
L 117.161367 223.54717 
L 121.069478 223.785771 
L 124.977588 253.708951 
L 128.885698 199.768032 
L 132.793809 179.422006 
L 136.701919 202.796233 
L 140.610029 177.959305 
L 144.51814 170.628598 
L 148.42625 100.647854 
L 152.334361 113.236535 
L 156.242471 55.554545 
L 160.150581 69.721048 
L 164.058692 138.205599 
L 167.966802 134.141525 
L 171.874912 186.202892 
L 175.783023 186.694242 
L 179.691133 208.70849 
L 183.599244 181.205834 
L 187.507354 219.183961 
L 191.415464 168.229341 
L 195.323575 160.639811 
L 199.231685 165.038907 
L 203.139795 159.787944 
L 207.047906 194.158884 
L 210.956016 200.196601 
L 214.864127 167.603512 
L 218.772237 113.950175 
L 222.680347 105.437668 
L 226.588458 137.825129 
L 230.496568 136.206393 
L 234.404679 162.524935 
L 238.312789 191.596358 
L 242.220899 189.942678 
L 246.12901 208.801038 
L 250.03712 203.751984 
L 253.94523 167.601869 
L 257.853341 189.066477 
L 261.761451 204.401783 
L 265.669562 180.4988 
L 269.577672 157.31811 
L 273.485782 118.893878 
L 277.393893 108.52414 
L 281.302003 151.061669 
L 285.210113 152.939481 
L 289.118224 149.792587 
L 293.026334 219.955157 
L 296.934445 199.54797 
L 300.842555 207.04129 
L 304.750665 231.92544 
L 308.658776 250.051254 
L 312.566886 293.015317 
L 316.474996 267.675457 
L 320.383107 302.645455 
L 324.291217 260.973562 
L 328.199328 293.66277 
L 332.107438 298.091294 
" clip-path="url(#p5641dccff8)" style="fill: none; stroke: #000000; stroke-opacity: 0.2; stroke-width: 1.5; stroke-linecap: square"/>
   </g>
   <g id="line2d_34">
    <path d="M 101.528926 169.732231 
L 105.437036 180.750091 
L 109.345146 160.976197 
L 113.253257 177.38351 
L 117.161367 176.670485 
L 121.069478 198.399547 
L 124.977588 176.286444 
L 128.885698 128.035001 
L 132.793809 110.666546 
L 136.701919 134.996753 
L 140.610029 149.277438 
L 144.51814 110.553295 
L 148.42625 164.776312 
L 152.334361 216.172354 
L 156.242471 206.287225 
L 160.150581 123.264466 
L 164.058692 92.044598 
L 167.966802 55.554545 
L 171.874912 55.702821 
L 175.783023 81.432317 
L 179.691133 125.089215 
L 183.599244 98.336274 
L 187.507354 122.03556 
L 191.415464 82.857954 
L 195.323575 97.454775 
L 199.231685 83.677053 
L 203.139795 145.294958 
L 207.047906 165.884522 
L 210.956016 104.436332 
L 214.864127 106.455161 
L 218.772237 115.891691 
L 222.680347 210.615454 
L 226.588458 175.987417 
L 230.496568 220.493579 
L 234.404679 195.378589 
L 238.312789 141.465809 
L 242.220899 124.521618 
L 246.12901 148.090547 
L 250.03712 142.900939 
L 253.94523 136.522748 
L 257.853341 173.529708 
L 261.761451 174.402635 
L 265.669562 221.483951 
L 269.577672 232.221831 
L 273.485782 302.645455 
L 277.393893 284.597729 
L 281.302003 263.892269 
L 285.210113 245.664401 
L 289.118224 244.055832 
L 293.026334 210.044335 
L 296.934445 199.649527 
L 300.842555 229.746766 
L 304.750665 217.011589 
L 308.658776 247.832286 
L 312.566886 257.510892 
L 316.474996 244.228053 
L 320.383107 236.24962 
L 324.291217 217.105466 
L 328.199328 235.193989 
L 332.107438 247.106572 
" clip-path="url(#p5641dccff8)" style="fill: none; stroke: #000000; stroke-opacity: 0.2; stroke-width: 1.5; stroke-linecap: square"/>
   </g>
   <g id="line2d_35">
    <path d="M 101.528926 67.146712 
L 105.437036 58.490061 
L 109.345146 55.554545 
L 113.253257 112.15053 
L 117.161367 99.850012 
L 121.069478 79.143344 
L 124.977588 76.45008 
L 128.885698 74.81068 
L 132.793809 71.045612 
L 136.701919 104.490572 
L 140.610029 72.455962 
L 144.51814 89.258325 
L 148.42625 85.248786 
L 152.334361 76.241778 
L 156.242471 63.412391 
L 160.150581 80.869964 
L 164.058692 86.41493 
L 167.966802 109.931413 
L 171.874912 127.317896 
L 175.783023 96.39381 
L 179.691133 107.864319 
L 183.599244 92.844865 
L 187.507354 111.616543 
L 191.415464 98.723572 
L 195.323575 109.229539 
L 199.231685 151.245962 
L 203.139795 116.123995 
L 207.047906 118.170411 
L 210.956016 131.696891 
L 214.864127 127.383468 
L 218.772237 109.07937 
L 222.680347 95.28034 
L 226.588458 108.233122 
L 230.496568 132.166711 
L 234.404679 132.391189 
L 238.312789 128.284567 
L 242.220899 241.301051 
L 246.12901 174.720122 
L 250.03712 204.834277 
L 253.94523 187.833137 
L 257.853341 192.486149 
L 261.761451 202.227392 
L 265.669562 238.653936 
L 269.577672 214.996407 
L 273.485782 254.828849 
L 277.393893 258.200732 
L 281.302003 281.730259 
L 285.210113 298.979847 
L 289.118224 286.358312 
L 293.026334 270.634073 
L 296.934445 302.645455 
L 300.842555 255.101671 
L 304.750665 274.761814 
L 308.658776 240.582374 
L 312.566886 261.454123 
L 316.474996 256.721832 
L 320.383107 270.630129 
L 324.291217 282.08366 
L 328.199328 267.508723 
L 332.107438 277.702694 
" clip-path="url(#p5641dccff8)" style="fill: none; stroke: #000000; stroke-opacity: 0.2; stroke-width: 1.5; stroke-linecap: square"/>
   </g>
   <g id="line2d_36">
    <path d="M 101.528926 216.191193 
L 105.437036 221.237774 
L 109.345146 131.526337 
L 113.253257 149.126242 
L 117.161367 150.108258 
L 121.069478 153.370463 
L 124.977588 149.804451 
L 128.885698 157.273469 
L 132.793809 115.314306 
L 136.701919 108.973423 
L 140.610029 110.747685 
L 144.51814 113.647389 
L 148.42625 95.749301 
L 152.334361 97.792303 
L 156.242471 144.175961 
L 160.150581 111.776689 
L 164.058692 100.317598 
L 167.966802 103.328812 
L 171.874912 61.341419 
L 175.783023 74.875227 
L 179.691133 70.066935 
L 183.599244 79.48707 
L 187.507354 102.52254 
L 191.415464 175.239509 
L 195.323575 129.526036 
L 199.231685 131.827268 
L 203.139795 158.669487 
L 207.047906 148.85206 
L 210.956016 156.712996 
L 214.864127 109.015987 
L 218.772237 55.554545 
L 222.680347 78.674837 
L 226.588458 115.91152 
L 230.496568 120.351187 
L 234.404679 177.209907 
L 238.312789 193.570157 
L 242.220899 172.753565 
L 246.12901 232.448609 
L 250.03712 274.441828 
L 253.94523 229.659101 
L 257.853341 249.040154 
L 261.761451 246.899544 
L 265.669562 179.587133 
L 269.577672 183.30867 
L 273.485782 128.925334 
L 277.393893 101.806278 
L 281.302003 141.0542 
L 285.210113 154.495072 
L 289.118224 239.598095 
L 293.026334 219.907068 
L 296.934445 283.024576 
L 300.842555 228.928789 
L 304.750665 276.219481 
L 308.658776 245.907671 
L 312.566886 222.041647 
L 316.474996 220.417925 
L 320.383107 186.373695 
L 324.291217 191.648651 
L 328.199328 247.795753 
L 332.107438 302.645455 
" clip-path="url(#p5641dccff8)" style="fill: none; stroke: #000000; stroke-opacity: 0.2; stroke-width: 1.5; stroke-linecap: square"/>
   </g>
   <g id="line2d_37">
    <path d="M 101.528926 91.575865 
L 105.437036 172.724309 
L 109.345146 119.715714 
L 113.253257 141.913585 
L 117.161367 96.739484 
L 121.069478 114.207008 
L 124.977588 76.853736 
L 128.885698 105.545128 
L 132.793809 99.688643 
L 136.701919 101.457148 
L 140.610029 101.369389 
L 144.51814 101.369389 
L 148.42625 101.369389 
L 152.334361 101.369389 
L 156.242471 101.791358 
L 160.150581 101.613966 
L 164.058692 98.089757 
L 167.966802 116.800709 
L 171.874912 99.970298 
L 175.783023 102.892232 
L 179.691133 103.446005 
L 183.599244 101.959572 
L 187.507354 104.40339 
L 191.415464 81.92146 
L 195.323575 107.336741 
L 199.231685 134.722127 
L 203.139795 171.044172 
L 207.047906 156.920591 
L 210.956016 196.249041 
L 214.864127 127.277282 
L 218.772237 164.281552 
L 222.680347 146.679339 
L 226.588458 148.743877 
L 230.496568 178.125961 
L 234.404679 223.381968 
L 238.312789 200.987241 
L 242.220899 244.523237 
L 246.12901 248.163929 
L 250.03712 236.576429 
L 253.94523 238.968836 
L 257.853341 242.393871 
L 261.761451 231.982353 
L 265.669562 269.671876 
L 269.577672 238.901014 
L 273.485782 241.58383 
L 277.393893 234.786398 
L 281.302003 244.863138 
L 285.210113 240.077903 
L 289.118224 241.417191 
L 293.026334 241.458185 
L 296.934445 241.469326 
L 300.842555 241.313357 
L 304.750665 241.334806 
L 308.658776 241.450429 
L 312.566886 239.851933 
L 316.474996 268.165662 
L 320.383107 204.565843 
L 324.291217 139.16146 
L 328.199328 203.415166 
L 332.107438 260.242954 
" clip-path="url(#p5641dccff8)" style="fill: none; stroke: #ff0000; stroke-width: 2; stroke-linecap: square"/>
   </g>
   <g id="patch_3">
    <path d="M 90 315 
L 90 43.2 
" style="fill: none; stroke: #ffffff; stroke-linejoin: miter; stroke-linecap: square"/>
   </g>
   <g id="patch_4">
    <path d="M 343.636364 315 
L 343.636364 43.2 
" style="fill: none; stroke: #ffffff; stroke-linejoin: miter; stroke-linecap: square"/>
   </g>
   <g id="patch_5">
    <path d="M 90 315 
L 343.636364 315 
" style="fill: none; stroke: #ffffff; stroke-linejoin: miter; stroke-linecap: square"/>
   </g>
   <g id="patch_6">
    <path d="M 90 43.2 
L 343.636364 43.2 
" style="fill: none; stroke: #ffffff; stroke-linejoin: miter; stroke-linecap: square"/>
   </g>
   <g id="text_14">
    <!-- CL1 Template 1 -->
    <g transform="translate(184.486932 37.2)scale(0.1 -0.1)">
     <defs>
      <path id="TimesNewRomanPSMT-43" d="M 3853 4334 
L 3950 2894 
L 3853 2894 
Q 3659 3541 3300 3825 
Q 2941 4109 2438 4109 
Q 2016 4109 1675 3895 
Q 1334 3681 1139 3212 
Q 944 2744 944 2047 
Q 944 1472 1128 1050 
Q 1313 628 1683 403 
Q 2053 178 2528 178 
Q 2941 178 3256 354 
Q 3572 531 3950 1056 
L 4047 994 
Q 3728 428 3303 165 
Q 2878 -97 2294 -97 
Q 1241 -97 663 684 
Q 231 1266 231 2053 
Q 231 2688 515 3219 
Q 800 3750 1298 4042 
Q 1797 4334 2388 4334 
Q 2847 4334 3294 4109 
Q 3425 4041 3481 4041 
Q 3566 4041 3628 4100 
Q 3709 4184 3744 4334 
L 3853 4334 
z
" transform="scale(0.015625)"/>
      <path id="TimesNewRomanPSMT-4c" d="M 3669 1172 
L 3772 1150 
L 3409 0 
L 128 0 
L 128 116 
L 288 116 
Q 556 116 672 291 
Q 738 391 738 753 
L 738 3488 
Q 738 3884 650 3984 
Q 528 4122 288 4122 
L 128 4122 
L 128 4238 
L 2047 4238 
L 2047 4122 
Q 1709 4125 1573 4059 
Q 1438 3994 1388 3894 
Q 1338 3794 1338 3416 
L 1338 753 
Q 1338 494 1388 397 
Q 1425 331 1503 300 
Q 1581 269 1991 269 
L 2300 269 
Q 2788 269 2984 341 
Q 3181 413 3343 595 
Q 3506 778 3669 1172 
z
" transform="scale(0.015625)"/>
      <path id="TimesNewRomanPSMT-20" transform="scale(0.015625)"/>
      <path id="TimesNewRomanPSMT-54" d="M 3703 4238 
L 3750 3244 
L 3631 3244 
Q 3597 3506 3538 3619 
Q 3441 3800 3280 3886 
Q 3119 3972 2856 3972 
L 2259 3972 
L 2259 734 
Q 2259 344 2344 247 
Q 2463 116 2709 116 
L 2856 116 
L 2856 0 
L 1059 0 
L 1059 116 
L 1209 116 
Q 1478 116 1591 278 
Q 1659 378 1659 734 
L 1659 3972 
L 1150 3972 
Q 853 3972 728 3928 
Q 566 3869 450 3700 
Q 334 3531 313 3244 
L 194 3244 
L 244 4238 
L 3703 4238 
z
" transform="scale(0.015625)"/>
      <path id="TimesNewRomanPSMT-65" d="M 681 1784 
Q 678 1147 991 784 
Q 1303 422 1725 422 
Q 2006 422 2214 576 
Q 2422 731 2563 1106 
L 2659 1044 
Q 2594 616 2278 264 
Q 1963 -88 1488 -88 
Q 972 -88 605 314 
Q 238 716 238 1394 
Q 238 2128 614 2539 
Q 991 2950 1559 2950 
Q 2041 2950 2350 2633 
Q 2659 2316 2659 1784 
L 681 1784 
z
M 681 1966 
L 2006 1966 
Q 1991 2241 1941 2353 
Q 1863 2528 1708 2628 
Q 1553 2728 1384 2728 
Q 1125 2728 920 2526 
Q 716 2325 681 1966 
z
" transform="scale(0.015625)"/>
      <path id="TimesNewRomanPSMT-6d" d="M 1050 2338 
Q 1363 2650 1419 2697 
Q 1559 2816 1721 2881 
Q 1884 2947 2044 2947 
Q 2313 2947 2506 2790 
Q 2700 2634 2766 2338 
Q 3088 2713 3309 2830 
Q 3531 2947 3766 2947 
Q 3994 2947 4170 2830 
Q 4347 2713 4450 2447 
Q 4519 2266 4519 1878 
L 4519 647 
Q 4519 378 4559 278 
Q 4591 209 4675 161 
Q 4759 113 4950 113 
L 4950 0 
L 3538 0 
L 3538 113 
L 3597 113 
Q 3781 113 3884 184 
Q 3956 234 3988 344 
Q 4000 397 4000 647 
L 4000 1878 
Q 4000 2228 3916 2372 
Q 3794 2572 3525 2572 
Q 3359 2572 3192 2489 
Q 3025 2406 2788 2181 
L 2781 2147 
L 2788 2013 
L 2788 647 
Q 2788 353 2820 281 
Q 2853 209 2943 161 
Q 3034 113 3253 113 
L 3253 0 
L 1806 0 
L 1806 113 
Q 2044 113 2133 169 
Q 2222 225 2256 338 
Q 2272 391 2272 647 
L 2272 1878 
Q 2272 2228 2169 2381 
Q 2031 2581 1784 2581 
Q 1616 2581 1450 2491 
Q 1191 2353 1050 2181 
L 1050 647 
Q 1050 366 1089 281 
Q 1128 197 1204 155 
Q 1281 113 1516 113 
L 1516 0 
L 100 0 
L 100 113 
Q 297 113 375 155 
Q 453 197 493 289 
Q 534 381 534 647 
L 534 1741 
Q 534 2213 506 2350 
Q 484 2453 437 2492 
Q 391 2531 309 2531 
Q 222 2531 100 2484 
L 53 2597 
L 916 2947 
L 1050 2947 
L 1050 2338 
z
" transform="scale(0.015625)"/>
      <path id="TimesNewRomanPSMT-70" d="M -6 2578 
L 875 2934 
L 994 2934 
L 994 2266 
Q 1216 2644 1439 2795 
Q 1663 2947 1909 2947 
Q 2341 2947 2628 2609 
Q 2981 2197 2981 1534 
Q 2981 794 2556 309 
Q 2206 -88 1675 -88 
Q 1444 -88 1275 -22 
Q 1150 25 994 166 
L 994 -706 
Q 994 -1000 1030 -1079 
Q 1066 -1159 1155 -1206 
Q 1244 -1253 1478 -1253 
L 1478 -1369 
L -22 -1369 
L -22 -1253 
L 56 -1253 
Q 228 -1256 350 -1188 
Q 409 -1153 442 -1076 
Q 475 -1000 475 -688 
L 475 2019 
Q 475 2297 450 2372 
Q 425 2447 370 2484 
Q 316 2522 222 2522 
Q 147 2522 31 2478 
L -6 2578 
z
M 994 2081 
L 994 1013 
Q 994 666 1022 556 
Q 1066 375 1236 237 
Q 1406 100 1666 100 
Q 1978 100 2172 344 
Q 2425 663 2425 1241 
Q 2425 1897 2138 2250 
Q 1938 2494 1663 2494 
Q 1513 2494 1366 2419 
Q 1253 2363 994 2081 
z
" transform="scale(0.015625)"/>
      <path id="TimesNewRomanPSMT-6c" d="M 1184 4444 
L 1184 647 
Q 1184 378 1223 290 
Q 1263 203 1344 158 
Q 1425 113 1647 113 
L 1647 0 
L 244 0 
L 244 113 
Q 441 113 512 153 
Q 584 194 625 287 
Q 666 381 666 647 
L 666 3247 
Q 666 3731 644 3842 
Q 622 3953 573 3993 
Q 525 4034 450 4034 
Q 369 4034 244 3984 
L 191 4094 
L 1044 4444 
L 1184 4444 
z
" transform="scale(0.015625)"/>
      <path id="TimesNewRomanPSMT-61" d="M 1822 413 
Q 1381 72 1269 19 
Q 1100 -59 909 -59 
Q 613 -59 420 144 
Q 228 347 228 678 
Q 228 888 322 1041 
Q 450 1253 767 1440 
Q 1084 1628 1822 1897 
L 1822 2009 
Q 1822 2438 1686 2597 
Q 1550 2756 1291 2756 
Q 1094 2756 978 2650 
Q 859 2544 859 2406 
L 866 2225 
Q 866 2081 792 2003 
Q 719 1925 600 1925 
Q 484 1925 411 2006 
Q 338 2088 338 2228 
Q 338 2497 613 2722 
Q 888 2947 1384 2947 
Q 1766 2947 2009 2819 
Q 2194 2722 2281 2516 
Q 2338 2381 2338 1966 
L 2338 994 
Q 2338 584 2353 492 
Q 2369 400 2405 369 
Q 2441 338 2488 338 
Q 2538 338 2575 359 
Q 2641 400 2828 588 
L 2828 413 
Q 2478 -56 2159 -56 
Q 2006 -56 1915 50 
Q 1825 156 1822 413 
z
M 1822 616 
L 1822 1706 
Q 1350 1519 1213 1441 
Q 966 1303 859 1153 
Q 753 1003 753 825 
Q 753 600 887 451 
Q 1022 303 1197 303 
Q 1434 303 1822 616 
z
" transform="scale(0.015625)"/>
      <path id="TimesNewRomanPSMT-74" d="M 1031 3803 
L 1031 2863 
L 1700 2863 
L 1700 2644 
L 1031 2644 
L 1031 788 
Q 1031 509 1111 412 
Q 1191 316 1316 316 
Q 1419 316 1516 380 
Q 1613 444 1666 569 
L 1788 569 
Q 1678 263 1478 108 
Q 1278 -47 1066 -47 
Q 922 -47 784 33 
Q 647 113 581 261 
Q 516 409 516 719 
L 516 2644 
L 63 2644 
L 63 2747 
Q 234 2816 414 2980 
Q 594 3144 734 3369 
Q 806 3488 934 3803 
L 1031 3803 
z
" transform="scale(0.015625)"/>
     </defs>
     <use xlink:href="#TimesNewRomanPSMT-43"/>
     <use xlink:href="#TimesNewRomanPSMT-4c" x="66.699219"/>
     <use xlink:href="#TimesNewRomanPSMT-31" x="127.783203"/>
     <use xlink:href="#TimesNewRomanPSMT-20" x="177.783203"/>
     <use xlink:href="#TimesNewRomanPSMT-54" x="201.033203"/>
     <use xlink:href="#TimesNewRomanPSMT-65" x="255.117188"/>
     <use xlink:href="#TimesNewRomanPSMT-6d" x="299.501953"/>
     <use xlink:href="#TimesNewRomanPSMT-70" x="377.285156"/>
     <use xlink:href="#TimesNewRomanPSMT-6c" x="427.285156"/>
     <use xlink:href="#TimesNewRomanPSMT-61" x="455.068359"/>
     <use xlink:href="#TimesNewRomanPSMT-74" x="499.453125"/>
     <use xlink:href="#TimesNewRomanPSMT-65" x="527.236328"/>
     <use xlink:href="#TimesNewRomanPSMT-20" x="571.621094"/>
     <use xlink:href="#TimesNewRomanPSMT-31" x="596.621094"/>
    </g>
   </g>
  </g>
  <g id="axes_2">
   <g id="patch_7">
    <path d="M 394.363636 315 
L 648 315 
L 648 43.2 
L 394.363636 43.2 
z
" style="fill: #e5e5e5"/>
   </g>
   <g id="matplotlib.axis_3">
    <g id="xtick_8">
     <g id="line2d_38">
      <path d="M 405.892562 315 
L 405.892562 43.2 
" clip-path="url(#p37e02209d6)" style="fill: none; stroke: #ffffff; stroke-width: 0.8; stroke-linecap: square"/>
     </g>
     <g id="line2d_39">
      <g>
       <use xlink:href="#m81e9bc1a22" x="405.892562" y="315" style="fill: #555555; stroke: #555555; stroke-width: 0.8"/>
      </g>
     </g>
     <g id="text_15">
      <!-- 0 -->
      <g style="fill: #555555" transform="translate(403.392562 328.94375)scale(0.1 -0.1)">
       <use xlink:href="#TimesNewRomanPSMT-30"/>
      </g>
     </g>
    </g>
    <g id="xtick_9">
     <g id="line2d_40">
      <path d="M 444.973666 315 
L 444.973666 43.2 
" clip-path="url(#p37e02209d6)" style="fill: none; stroke: #ffffff; stroke-width: 0.8; stroke-linecap: square"/>
     </g>
     <g id="line2d_41">
      <g>
       <use xlink:href="#m81e9bc1a22" x="444.973666" y="315" style="fill: #555555; stroke: #555555; stroke-width: 0.8"/>
      </g>
     </g>
     <g id="text_16">
      <!-- 10 -->
      <g style="fill: #555555" transform="translate(439.973666 328.94375)scale(0.1 -0.1)">
       <use xlink:href="#TimesNewRomanPSMT-31"/>
       <use xlink:href="#TimesNewRomanPSMT-30" x="50"/>
      </g>
     </g>
    </g>
    <g id="xtick_10">
     <g id="line2d_42">
      <path d="M 484.05477 315 
L 484.05477 43.2 
" clip-path="url(#p37e02209d6)" style="fill: none; stroke: #ffffff; stroke-width: 0.8; stroke-linecap: square"/>
     </g>
     <g id="line2d_43">
      <g>
       <use xlink:href="#m81e9bc1a22" x="484.05477" y="315" style="fill: #555555; stroke: #555555; stroke-width: 0.8"/>
      </g>
     </g>
     <g id="text_17">
      <!-- 20 -->
      <g style="fill: #555555" transform="translate(479.05477 328.94375)scale(0.1 -0.1)">
       <use xlink:href="#TimesNewRomanPSMT-32"/>
       <use xlink:href="#TimesNewRomanPSMT-30" x="50"/>
      </g>
     </g>
    </g>
    <g id="xtick_11">
     <g id="line2d_44">
      <path d="M 523.135873 315 
L 523.135873 43.2 
" clip-path="url(#p37e02209d6)" style="fill: none; stroke: #ffffff; stroke-width: 0.8; stroke-linecap: square"/>
     </g>
     <g id="line2d_45">
      <g>
       <use xlink:href="#m81e9bc1a22" x="523.135873" y="315" style="fill: #555555; stroke: #555555; stroke-width: 0.8"/>
      </g>
     </g>
     <g id="text_18">
      <!-- 30 -->
      <g style="fill: #555555" transform="translate(518.135873 328.94375)scale(0.1 -0.1)">
       <use xlink:href="#TimesNewRomanPSMT-33"/>
       <use xlink:href="#TimesNewRomanPSMT-30" x="50"/>
      </g>
     </g>
    </g>
    <g id="xtick_12">
     <g id="line2d_46">
      <path d="M 562.216977 315 
L 562.216977 43.2 
" clip-path="url(#p37e02209d6)" style="fill: none; stroke: #ffffff; stroke-width: 0.8; stroke-linecap: square"/>
     </g>
     <g id="line2d_47">
      <g>
       <use xlink:href="#m81e9bc1a22" x="562.216977" y="315" style="fill: #555555; stroke: #555555; stroke-width: 0.8"/>
      </g>
     </g>
     <g id="text_19">
      <!-- 40 -->
      <g style="fill: #555555" transform="translate(557.216977 328.94375)scale(0.1 -0.1)">
       <use xlink:href="#TimesNewRomanPSMT-34"/>
       <use xlink:href="#TimesNewRomanPSMT-30" x="50"/>
      </g>
     </g>
    </g>
    <g id="xtick_13">
     <g id="line2d_48">
      <path d="M 601.298081 315 
L 601.298081 43.2 
" clip-path="url(#p37e02209d6)" style="fill: none; stroke: #ffffff; stroke-width: 0.8; stroke-linecap: square"/>
     </g>
     <g id="line2d_49">
      <g>
       <use xlink:href="#m81e9bc1a22" x="601.298081" y="315" style="fill: #555555; stroke: #555555; stroke-width: 0.8"/>
      </g>
     </g>
     <g id="text_20">
      <!-- 50 -->
      <g style="fill: #555555" transform="translate(596.298081 328.94375)scale(0.1 -0.1)">
       <use xlink:href="#TimesNewRomanPSMT-35"/>
       <use xlink:href="#TimesNewRomanPSMT-30" x="50"/>
      </g>
     </g>
    </g>
    <g id="xtick_14">
     <g id="line2d_50">
      <path d="M 640.379185 315 
L 640.379185 43.2 
" clip-path="url(#p37e02209d6)" style="fill: none; stroke: #ffffff; stroke-width: 0.8; stroke-linecap: square"/>
     </g>
     <g id="line2d_51">
      <g>
       <use xlink:href="#m81e9bc1a22" x="640.379185" y="315" style="fill: #555555; stroke: #555555; stroke-width: 0.8"/>
      </g>
     </g>
     <g id="text_21">
      <!-- 60 -->
      <g style="fill: #555555" transform="translate(635.379185 328.94375)scale(0.1 -0.1)">
       <use xlink:href="#TimesNewRomanPSMT-36"/>
       <use xlink:href="#TimesNewRomanPSMT-30" x="50"/>
      </g>
     </g>
    </g>
   </g>
   <g id="matplotlib.axis_4">
    <g id="ytick_7">
     <g id="line2d_52">
      <path d="M 394.363636 302.645455 
L 648 302.645455 
" clip-path="url(#p37e02209d6)" style="fill: none; stroke: #ffffff; stroke-width: 0.8; stroke-linecap: square"/>
     </g>
     <g id="line2d_53">
      <g>
       <use xlink:href="#ma3086903fa" x="394.363636" y="302.645455" style="fill: #555555; stroke: #555555; stroke-width: 0.8"/>
      </g>
     </g>
     <g id="text_22">
      <!-- 0.0 -->
      <g style="fill: #555555" transform="translate(374.863636 306.11733)scale(0.1 -0.1)">
       <use xlink:href="#TimesNewRomanPSMT-30"/>
       <use xlink:href="#TimesNewRomanPSMT-2e" x="50"/>
       <use xlink:href="#TimesNewRomanPSMT-30" x="75"/>
      </g>
     </g>
    </g>
    <g id="ytick_8">
     <g id="line2d_54">
      <path d="M 394.363636 253.227273 
L 648 253.227273 
" clip-path="url(#p37e02209d6)" style="fill: none; stroke: #ffffff; stroke-width: 0.8; stroke-linecap: square"/>
     </g>
     <g id="line2d_55">
      <g>
       <use xlink:href="#ma3086903fa" x="394.363636" y="253.227273" style="fill: #555555; stroke: #555555; stroke-width: 0.8"/>
      </g>
     </g>
     <g id="text_23">
      <!-- 0.2 -->
      <g style="fill: #555555" transform="translate(374.863636 256.699148)scale(0.1 -0.1)">
       <use xlink:href="#TimesNewRomanPSMT-30"/>
       <use xlink:href="#TimesNewRomanPSMT-2e" x="50"/>
       <use xlink:href="#TimesNewRomanPSMT-32" x="75"/>
      </g>
     </g>
    </g>
    <g id="ytick_9">
     <g id="line2d_56">
      <path d="M 394.363636 203.809091 
L 648 203.809091 
" clip-path="url(#p37e02209d6)" style="fill: none; stroke: #ffffff; stroke-width: 0.8; stroke-linecap: square"/>
     </g>
     <g id="line2d_57">
      <g>
       <use xlink:href="#ma3086903fa" x="394.363636" y="203.809091" style="fill: #555555; stroke: #555555; stroke-width: 0.8"/>
      </g>
     </g>
     <g id="text_24">
      <!-- 0.4 -->
      <g style="fill: #555555" transform="translate(374.863636 207.280966)scale(0.1 -0.1)">
       <use xlink:href="#TimesNewRomanPSMT-30"/>
       <use xlink:href="#TimesNewRomanPSMT-2e" x="50"/>
       <use xlink:href="#TimesNewRomanPSMT-34" x="75"/>
      </g>
     </g>
    </g>
    <g id="ytick_10">
     <g id="line2d_58">
      <path d="M 394.363636 154.390909 
L 648 154.390909 
" clip-path="url(#p37e02209d6)" style="fill: none; stroke: #ffffff; stroke-width: 0.8; stroke-linecap: square"/>
     </g>
     <g id="line2d_59">
      <g>
       <use xlink:href="#ma3086903fa" x="394.363636" y="154.390909" style="fill: #555555; stroke: #555555; stroke-width: 0.8"/>
      </g>
     </g>
     <g id="text_25">
      <!-- 0.6 -->
      <g style="fill: #555555" transform="translate(374.863636 157.862784)scale(0.1 -0.1)">
       <use xlink:href="#TimesNewRomanPSMT-30"/>
       <use xlink:href="#TimesNewRomanPSMT-2e" x="50"/>
       <use xlink:href="#TimesNewRomanPSMT-36" x="75"/>
      </g>
     </g>
    </g>
    <g id="ytick_11">
     <g id="line2d_60">
      <path d="M 394.363636 104.972727 
L 648 104.972727 
" clip-path="url(#p37e02209d6)" style="fill: none; stroke: #ffffff; stroke-width: 0.8; stroke-linecap: square"/>
     </g>
     <g id="line2d_61">
      <g>
       <use xlink:href="#ma3086903fa" x="394.363636" y="104.972727" style="fill: #555555; stroke: #555555; stroke-width: 0.8"/>
      </g>
     </g>
     <g id="text_26">
      <!-- 0.8 -->
      <g style="fill: #555555" transform="translate(374.863636 108.444602)scale(0.1 -0.1)">
       <use xlink:href="#TimesNewRomanPSMT-30"/>
       <use xlink:href="#TimesNewRomanPSMT-2e" x="50"/>
       <use xlink:href="#TimesNewRomanPSMT-38" x="75"/>
      </g>
     </g>
    </g>
    <g id="ytick_12">
     <g id="line2d_62">
      <path d="M 394.363636 55.554545 
L 648 55.554545 
" clip-path="url(#p37e02209d6)" style="fill: none; stroke: #ffffff; stroke-width: 0.8; stroke-linecap: square"/>
     </g>
     <g id="line2d_63">
      <g>
       <use xlink:href="#ma3086903fa" x="394.363636" y="55.554545" style="fill: #555555; stroke: #555555; stroke-width: 0.8"/>
      </g>
     </g>
     <g id="text_27">
      <!-- 1.0 -->
      <g style="fill: #555555" transform="translate(374.863636 59.02642)scale(0.1 -0.1)">
       <use xlink:href="#TimesNewRomanPSMT-31"/>
       <use xlink:href="#TimesNewRomanPSMT-2e" x="50"/>
       <use xlink:href="#TimesNewRomanPSMT-30" x="75"/>
      </g>
     </g>
    </g>
   </g>
   <g id="line2d_64">
    <path d="M 405.892562 240.085712 
L 409.800672 238.961124 
L 413.708783 273.721896 
L 417.616893 272.123606 
L 421.525004 302.645455 
L 425.433114 269.165026 
L 429.341224 250.28022 
L 433.249335 279.888376 
L 437.157445 281.172947 
L 441.065555 243.151244 
L 444.973666 214.231789 
L 448.881776 221.345912 
L 452.789887 237.236088 
L 456.697997 217.721589 
L 460.606107 185.558325 
L 464.514218 201.753541 
L 468.422328 219.050747 
L 472.330438 261.229115 
L 476.238549 220.21364 
L 480.146659 184.616484 
L 484.05477 152.764506 
L 487.96288 164.807153 
L 491.87099 258.99074 
L 495.779101 266.812581 
L 499.687211 256.652807 
L 503.595321 229.147467 
L 507.503432 232.695408 
L 511.411542 209.414242 
L 515.319653 223.544489 
L 519.227763 222.754554 
L 523.135873 233.856154 
L 527.043984 234.109397 
L 530.952094 265.868834 
L 534.860205 208.617792 
L 538.768315 187.023218 
L 542.676425 211.831821 
L 546.584536 185.470758 
L 550.492646 177.690197 
L 554.400756 103.415036 
L 558.308867 116.776231 
L 562.216977 55.554545 
L 566.125088 70.590386 
L 570.033198 143.277539 
L 573.941308 138.964069 
L 577.849419 194.220219 
L 581.757529 194.741721 
L 585.665639 218.106888 
L 589.57375 188.916513 
L 593.48186 229.225194 
L 597.389971 175.143708 
L 601.298081 167.088442 
L 605.206191 171.757491 
L 609.114302 166.184299 
L 613.022412 202.664435 
L 616.930522 209.072661 
L 620.838633 174.479475 
L 624.746743 117.533663 
L 628.654854 108.49878 
L 632.562964 142.873721 
L 636.471074 141.155649 
" clip-path="url(#p37e02209d6)" style="fill: none; stroke: #000000; stroke-opacity: 0.2; stroke-width: 1.5; stroke-linecap: square"/>
   </g>
   <g id="line2d_65">
    <path d="M 405.892562 74.862476 
L 409.800672 100.180826 
L 413.708783 224.687623 
L 417.616893 279.597304 
L 421.525004 281.124198 
L 425.433114 250.295413 
L 429.341224 296.912792 
L 433.249335 265.603698 
L 437.157445 240.147055 
L 441.065555 302.645455 
L 444.973666 278.681274 
L 448.881776 245.581241 
L 452.789887 164.247505 
L 456.697997 178.172879 
L 460.606107 109.669949 
L 464.514218 147.169576 
L 468.422328 145.518341 
L 472.330438 201.341029 
L 476.238549 195.87725 
L 480.146659 193.015684 
L 484.05477 290.946289 
L 487.96288 256.505425 
L 491.87099 186.350307 
L 495.779101 200.83527 
L 499.687211 201.581483 
L 503.595321 247.951712 
L 507.503432 177.327003 
L 511.411542 202.958451 
L 515.319653 126.557571 
L 519.227763 144.355516 
L 523.135873 152.337378 
L 527.043984 142.347667 
L 530.952094 122.244528 
L 534.860205 70.718856 
L 538.768315 72.678445 
L 542.676425 81.373004 
L 546.584536 86.581917 
L 550.492646 119.178611 
L 554.400756 139.160181 
L 558.308867 79.141567 
L 562.216977 78.643661 
L 566.125088 55.554545 
L 570.033198 94.006269 
L 573.941308 91.155916 
L 577.849419 150.294103 
L 581.757529 105.883763 
L 585.665639 146.84401 
L 589.57375 156.266331 
L 593.48186 160.016313 
L 597.389971 155.434298 
L 601.298081 195.529245 
L 605.206191 182.815941 
L 609.114302 177.699414 
L 613.022412 119.038151 
L 616.930522 125.890274 
L 620.838633 119.714686 
L 624.746743 129.613363 
L 628.654854 93.257024 
L 632.562964 128.272766 
L 636.471074 98.664923 
" clip-path="url(#p37e02209d6)" style="fill: none; stroke: #000000; stroke-opacity: 0.2; stroke-width: 1.5; stroke-linecap: square"/>
   </g>
   <g id="line2d_66">
    <path d="M 405.892562 193.301061 
L 409.800672 201.062859 
L 413.708783 153.880477 
L 417.616893 190.232365 
L 421.525004 171.821112 
L 425.433114 199.456467 
L 429.341224 252.006524 
L 433.249335 234.012184 
L 437.157445 211.931429 
L 441.065555 177.860589 
L 444.973666 158.087398 
L 448.881776 171.810568 
L 452.789887 186.935162 
L 456.697997 203.867743 
L 460.606107 246.683263 
L 464.514218 217.101748 
L 468.422328 218.209812 
L 472.330438 191.526905 
L 476.238549 167.946757 
L 480.146659 195.90309 
L 484.05477 246.832359 
L 487.96288 238.694251 
L 491.87099 236.004751 
L 495.779101 237.665527 
L 499.687211 273.946495 
L 503.595321 274.267162 
L 507.503432 302.645455 
L 511.411542 268.062812 
L 515.319653 204.478828 
L 519.227763 185.62954 
L 523.135873 171.126118 
L 527.043984 102.149348 
L 530.952094 120.869675 
L 534.860205 81.257098 
L 538.768315 55.554545 
L 542.676425 63.829373 
L 546.584536 159.267294 
L 550.492646 172.369149 
L 554.400756 141.135176 
L 558.308867 170.585634 
L 562.216977 198.399193 
L 566.125088 198.570386 
L 570.033198 171.087765 
L 573.941308 140.411041 
L 577.849419 187.086115 
L 581.757529 155.421188 
L 585.665639 113.729171 
L 589.57375 145.914852 
L 593.48186 172.222981 
L 597.389971 125.619473 
L 601.298081 94.724038 
L 605.206191 104.73685 
L 609.114302 62.851831 
L 613.022412 86.352888 
L 616.930522 91.456351 
L 620.838633 129.71567 
L 624.746743 123.720982 
L 628.654854 124.417756 
L 632.562964 119.049773 
L 636.471074 134.870803 
" clip-path="url(#p37e02209d6)" style="fill: none; stroke: #000000; stroke-opacity: 0.2; stroke-width: 1.5; stroke-linecap: square"/>
   </g>
   <g id="line2d_67">
    <path d="M 405.892562 134.858872 
L 409.800672 95.195441 
L 413.708783 113.129948 
L 417.616893 168.605387 
L 421.525004 103.873011 
L 425.433114 157.356258 
L 429.341224 151.924276 
L 433.249335 162.907834 
L 437.157445 183.629185 
L 441.065555 150.291891 
L 444.973666 172.171872 
L 448.881776 90.099867 
L 452.789887 94.356771 
L 456.697997 88.941002 
L 460.606107 75.892396 
L 464.514218 81.294321 
L 468.422328 84.088747 
L 472.330438 74.862476 
L 476.238549 100.180826 
L 480.146659 224.687623 
L 484.05477 279.597304 
L 487.96288 281.124198 
L 491.87099 250.295413 
L 495.779101 296.912792 
L 499.687211 265.603698 
L 503.595321 240.147055 
L 507.503432 302.645455 
L 511.411542 278.681274 
L 515.319653 245.581241 
L 519.227763 164.247505 
L 523.135873 178.172879 
L 527.043984 109.669949 
L 530.952094 147.169576 
L 534.860205 145.518341 
L 538.768315 201.341029 
L 542.676425 195.87725 
L 546.584536 193.015684 
L 550.492646 290.946289 
L 554.400756 256.505425 
L 558.308867 186.350307 
L 562.216977 200.83527 
L 566.125088 201.581483 
L 570.033198 247.951712 
L 573.941308 177.327003 
L 577.849419 202.958451 
L 581.757529 126.557571 
L 585.665639 144.355516 
L 589.57375 152.337378 
L 593.48186 142.347667 
L 597.389971 122.244528 
L 601.298081 70.718856 
L 605.206191 72.678445 
L 609.114302 81.373004 
L 613.022412 86.581917 
L 616.930522 119.178611 
L 620.838633 139.160181 
L 624.746743 79.141567 
L 628.654854 78.643661 
L 632.562964 55.554545 
L 636.471074 94.006269 
" clip-path="url(#p37e02209d6)" style="fill: none; stroke: #000000; stroke-opacity: 0.2; stroke-width: 1.5; stroke-linecap: square"/>
   </g>
   <g id="line2d_68">
    <path d="M 405.892562 302.645455 
L 409.800672 246.600428 
L 413.708783 248.706252 
L 417.616893 258.238628 
L 421.525004 207.877486 
L 425.433114 209.217842 
L 429.341224 197.263736 
L 433.249335 220.041394 
L 437.157445 219.174447 
L 441.065555 236.529111 
L 444.973666 212.805634 
L 448.881776 193.631601 
L 452.789887 216.33874 
L 456.697997 179.667239 
L 460.606107 181.521328 
L 464.514218 197.291416 
L 468.422328 179.533032 
L 472.330438 185.193131 
L 476.238549 158.271213 
L 480.146659 139.68645 
L 484.05477 125.906925 
L 487.96288 141.457599 
L 491.87099 55.554545 
L 495.779101 127.134504 
L 499.687211 140.228857 
L 503.595321 167.516452 
L 507.503432 191.621638 
L 511.411542 161.374108 
L 515.319653 113.757734 
L 519.227763 99.171626 
L 523.135873 174.359327 
L 527.043984 233.744764 
L 530.952094 214.092813 
L 534.860205 222.594152 
L 538.768315 192.918901 
L 542.676425 155.363672 
L 546.584536 130.155696 
L 550.492646 175.658275 
L 554.400756 247.778422 
L 558.308867 231.755386 
L 562.216977 251.413381 
L 566.125088 223.762364 
L 570.033198 250.445942 
L 573.941308 225.92095 
L 577.849419 156.301992 
L 581.757529 222.512416 
L 585.665639 177.172731 
L 589.57375 182.37631 
L 593.48186 185.528305 
L 597.389971 169.040412 
L 601.298081 194.678676 
L 605.206191 220.229156 
L 609.114302 159.984426 
L 613.022412 161.119792 
L 616.930522 168.89284 
L 620.838633 218.417487 
L 624.746743 225.027555 
L 628.654854 184.839685 
L 632.562964 225.218147 
L 636.471074 271.089491 
" clip-path="url(#p37e02209d6)" style="fill: none; stroke: #000000; stroke-opacity: 0.2; stroke-width: 1.5; stroke-linecap: square"/>
   </g>
   <g id="line2d_69">
    <path d="M 405.892562 190.232365 
L 409.800672 171.821112 
L 413.708783 199.456467 
L 417.616893 252.006524 
L 421.525004 234.012184 
L 425.433114 211.931429 
L 429.341224 177.860589 
L 433.249335 158.087398 
L 437.157445 171.810568 
L 441.065555 186.935162 
L 444.973666 203.867743 
L 448.881776 246.683263 
L 452.789887 217.101748 
L 456.697997 218.209812 
L 460.606107 191.526905 
L 464.514218 167.946757 
L 468.422328 195.90309 
L 472.330438 246.832359 
L 476.238549 238.694251 
L 480.146659 236.004751 
L 484.05477 237.665527 
L 487.96288 273.946495 
L 491.87099 274.267162 
L 495.779101 302.645455 
L 499.687211 268.062812 
L 503.595321 204.478828 
L 507.503432 185.62954 
L 511.411542 171.126118 
L 515.319653 102.149348 
L 519.227763 120.869675 
L 523.135873 81.257098 
L 527.043984 55.554545 
L 530.952094 63.829373 
L 534.860205 159.267294 
L 538.768315 172.369149 
L 542.676425 141.135176 
L 546.584536 170.585634 
L 550.492646 198.399193 
L 554.400756 198.570386 
L 558.308867 171.087765 
L 562.216977 140.411041 
L 566.125088 187.086115 
L 570.033198 155.421188 
L 573.941308 113.729171 
L 577.849419 145.914852 
L 581.757529 172.222981 
L 585.665639 125.619473 
L 589.57375 94.724038 
L 593.48186 104.73685 
L 597.389971 62.851831 
L 601.298081 86.352888 
L 605.206191 91.456351 
L 609.114302 129.71567 
L 613.022412 123.720982 
L 616.930522 124.417756 
L 620.838633 119.049773 
L 624.746743 134.870803 
L 628.654854 100.197711 
L 632.562964 84.57473 
L 636.471074 104.750602 
" clip-path="url(#p37e02209d6)" style="fill: none; stroke: #000000; stroke-opacity: 0.2; stroke-width: 1.5; stroke-linecap: square"/>
   </g>
   <g id="line2d_70">
    <path d="M 405.892562 136.694751 
L 409.800672 110.482303 
L 413.708783 138.36396 
L 417.616893 127.048245 
L 421.525004 112.937905 
L 425.433114 109.125498 
L 429.341224 136.87922 
L 433.249335 128.27051 
L 437.157445 148.476659 
L 441.065555 109.663694 
L 444.973666 122.711095 
L 448.881776 133.0559 
L 452.789887 148.175929 
L 456.697997 128.838933 
L 460.606107 141.593048 
L 464.514218 140.49162 
L 468.422328 181.194506 
L 472.330438 190.917312 
L 476.238549 195.374802 
L 480.146659 233.328908 
L 484.05477 302.645455 
L 487.96288 265.843113 
L 491.87099 208.937896 
L 495.779101 176.138796 
L 499.687211 214.992439 
L 503.595321 193.759325 
L 507.503432 211.202143 
L 511.411542 225.353493 
L 515.319653 223.140681 
L 519.227763 200.898396 
L 523.135873 161.298922 
L 527.043984 174.992772 
L 530.952094 185.864733 
L 534.860205 199.985358 
L 538.768315 261.086732 
L 542.676425 246.017083 
L 546.584536 203.658264 
L 550.492646 214.295435 
L 554.400756 205.85863 
L 558.308867 178.197444 
L 562.216977 191.276563 
L 566.125088 178.962524 
L 570.033198 144.107119 
L 573.941308 130.672391 
L 577.849419 145.952555 
L 581.757529 119.763895 
L 585.665639 116.490509 
L 589.57375 93.903992 
L 593.48186 57.441589 
L 597.389971 111.160599 
L 601.298081 72.455446 
L 605.206191 55.554545 
L 609.114302 96.985489 
L 613.022412 75.060766 
L 616.930522 80.771927 
L 620.838633 84.321119 
L 624.746743 133.191168 
L 628.654854 196.63682 
L 632.562964 162.165947 
L 636.471074 119.170067 
" clip-path="url(#p37e02209d6)" style="fill: none; stroke: #000000; stroke-opacity: 0.2; stroke-width: 1.5; stroke-linecap: square"/>
   </g>
   <g id="line2d_71">
    <path d="M 405.892562 212.769385 
L 409.800672 252.486021 
L 413.708783 197.706089 
L 417.616893 218.541274 
L 421.525004 217.849001 
L 425.433114 259.506641 
L 429.341224 190.270602 
L 433.249335 195.190103 
L 437.157445 268.307083 
L 441.065555 218.926396 
L 444.973666 258.016642 
L 448.881776 253.952296 
L 452.789887 207.087463 
L 456.697997 214.574209 
L 460.606107 260.361122 
L 464.514218 189.526004 
L 468.422328 170.737764 
L 472.330438 173.534003 
L 476.238549 170.951521 
L 480.146659 173.512326 
L 484.05477 166.247355 
L 487.96288 163.791852 
L 491.87099 179.39248 
L 495.779101 230.776964 
L 499.687211 202.587698 
L 503.595321 166.864167 
L 507.503432 179.501928 
L 511.411542 232.940645 
L 515.319653 262.074602 
L 519.227763 284.540798 
L 523.135873 267.262286 
L 527.043984 283.580545 
L 530.952094 291.724404 
L 534.860205 302.645455 
L 538.768315 291.623212 
L 542.676425 195.264282 
L 546.584536 142.229948 
L 550.492646 140.206254 
L 554.400756 130.765824 
L 558.308867 139.806823 
L 562.216977 108.160247 
L 566.125088 55.554545 
L 570.033198 77.899627 
L 573.941308 83.439866 
L 577.849419 131.654685 
L 581.757529 137.02654 
L 585.665639 139.288332 
L 589.57375 139.249847 
L 593.48186 229.80938 
L 597.389971 202.160298 
L 601.298081 194.758605 
L 605.206191 133.53181 
L 609.114302 150.278517 
L 613.022412 153.267472 
L 616.930522 171.30762 
L 620.838633 168.507796 
L 624.746743 210.581145 
L 628.654854 152.827459 
L 632.562964 77.546789 
L 636.471074 136.808686 
" clip-path="url(#p37e02209d6)" style="fill: none; stroke: #000000; stroke-opacity: 0.2; stroke-width: 1.5; stroke-linecap: square"/>
   </g>
   <g id="line2d_72">
    <path d="M 405.892562 105.214695 
L 409.800672 135.474087 
L 413.708783 82.234622 
L 417.616893 127.463035 
L 421.525004 138.332817 
L 425.433114 193.77364 
L 429.341224 183.157886 
L 433.249335 238.78445 
L 437.157445 250.776819 
L 441.065555 302.645455 
L 444.973666 280.031264 
L 448.881776 284.491229 
L 452.789887 281.871947 
L 456.697997 280.263266 
L 460.606107 230.799584 
L 464.514218 224.957609 
L 468.422328 193.301473 
L 472.330438 190.754781 
L 476.238549 178.534214 
L 480.146659 168.398763 
L 484.05477 134.363145 
L 487.96288 124.252995 
L 491.87099 125.123986 
L 495.779101 156.555288 
L 499.687211 242.004877 
L 503.595321 147.306904 
L 507.503432 100.399459 
L 511.411542 65.991229 
L 515.319653 83.919617 
L 519.227763 78.239322 
L 523.135873 85.688609 
L 527.043984 112.437594 
L 530.952094 119.029169 
L 534.860205 144.344911 
L 538.768315 124.646309 
L 542.676425 118.510209 
L 546.584536 187.955368 
L 550.492646 194.230121 
L 554.400756 133.022015 
L 558.308867 67.590697 
L 562.216977 79.871511 
L 566.125088 56.672945 
L 570.033198 55.554545 
L 573.941308 114.335277 
L 577.849419 123.291241 
L 581.757529 96.711634 
L 585.665639 94.732938 
L 589.57375 159.375685 
L 593.48186 192.481581 
L 597.389971 181.610408 
L 601.298081 178.860615 
L 605.206191 174.332508 
L 609.114302 172.515562 
L 613.022412 102.556285 
L 616.930522 109.182465 
L 620.838633 100.239087 
L 624.746743 164.545506 
L 628.654854 166.384457 
L 632.562964 116.210758 
L 636.471074 87.502356 
" clip-path="url(#p37e02209d6)" style="fill: none; stroke: #000000; stroke-opacity: 0.2; stroke-width: 1.5; stroke-linecap: square"/>
   </g>
   <g id="line2d_73">
    <path d="M 405.892562 202.626471 
L 409.800672 203.893853 
L 413.708783 211.24331 
L 417.616893 207.670448 
L 421.525004 258.691478 
L 425.433114 222.302776 
L 429.341224 247.120005 
L 433.249335 251.520572 
L 437.157445 254.548245 
L 441.065555 261.542726 
L 444.973666 302.645455 
L 448.881776 277.390474 
L 452.789887 251.026213 
L 456.697997 232.56013 
L 460.606107 235.26607 
L 464.514218 269.014544 
L 468.422328 291.535383 
L 472.330438 283.357046 
L 476.238549 221.460633 
L 480.146659 133.132324 
L 484.05477 154.56004 
L 487.96288 159.48943 
L 491.87099 77.614597 
L 495.779101 113.407287 
L 499.687211 112.952861 
L 503.595321 153.834429 
L 507.503432 158.995469 
L 511.411542 114.923922 
L 515.319653 132.948464 
L 519.227763 149.507978 
L 523.135873 151.796556 
L 527.043984 136.345392 
L 530.952094 129.984246 
L 534.860205 165.358299 
L 538.768315 161.249849 
L 542.676425 211.992789 
L 546.584536 225.246056 
L 550.492646 206.677322 
L 554.400756 181.369715 
L 558.308867 137.456974 
L 562.216977 92.901833 
L 566.125088 99.917154 
L 570.033198 97.448465 
L 573.941308 104.241263 
L 577.849419 107.491622 
L 581.757529 124.904222 
L 585.665639 122.946242 
L 589.57375 55.554545 
L 593.48186 84.661531 
L 597.389971 112.843213 
L 601.298081 114.228808 
L 605.206191 147.190142 
L 609.114302 171.431187 
L 613.022412 145.583764 
L 616.930522 160.71001 
L 620.838633 160.957395 
L 624.746743 154.198071 
L 628.654854 139.957736 
L 632.562964 166.161265 
L 636.471074 226.990154 
" clip-path="url(#p37e02209d6)" style="fill: none; stroke: #000000; stroke-opacity: 0.2; stroke-width: 1.5; stroke-linecap: square"/>
   </g>
   <g id="line2d_74">
    <path d="M 405.892562 171.369366 
L 409.800672 226.681419 
L 413.708783 259.538282 
L 417.616893 267.482132 
L 421.525004 250.658895 
L 425.433114 285.209868 
L 429.341224 232.500997 
L 433.249335 224.012789 
L 437.157445 229.734592 
L 441.065555 228.759811 
L 444.973666 242.249282 
L 448.881776 208.430646 
L 452.789887 199.331583 
L 456.697997 165.95018 
L 460.606107 210.504976 
L 464.514218 252.985667 
L 468.422328 197.424809 
L 472.330438 172.8426 
L 476.238549 149.346778 
L 480.146659 176.644046 
L 484.05477 171.647991 
L 487.96288 173.3965 
L 491.87099 172.004932 
L 495.779101 191.79109 
L 499.687211 135.376301 
L 503.595321 125.399683 
L 507.503432 127.784737 
L 511.411542 127.551073 
L 515.319653 127.640222 
L 519.227763 126.276563 
L 523.135873 145.781714 
L 527.043984 121.964908 
L 530.952094 88.449599 
L 534.860205 124.23065 
L 538.768315 116.047205 
L 542.676425 107.421064 
L 546.584536 129.643169 
L 550.492646 115.679588 
L 554.400756 116.555997 
L 558.308867 113.611564 
L 562.216977 80.341395 
L 566.125088 108.107615 
L 570.033198 151.926377 
L 573.941308 138.990992 
L 577.849419 130.914251 
L 581.757529 148.165091 
L 585.665639 184.501307 
L 589.57375 232.08281 
L 593.48186 182.874433 
L 597.389971 162.068399 
L 601.298081 167.929528 
L 605.206191 165.731597 
L 609.114302 124.684922 
L 613.022412 165.277819 
L 616.930522 159.603675 
L 620.838633 162.368562 
L 624.746743 192.051607 
L 628.654854 172.918242 
L 632.562964 144.257942 
L 636.471074 97.343887 
" clip-path="url(#p37e02209d6)" style="fill: none; stroke: #ff0000; stroke-width: 2; stroke-linecap: square"/>
   </g>
   <g id="patch_8">
    <path d="M 394.363636 315 
L 394.363636 43.2 
" style="fill: none; stroke: #ffffff; stroke-linejoin: miter; stroke-linecap: square"/>
   </g>
   <g id="patch_9">
    <path d="M 648 315 
L 648 43.2 
" style="fill: none; stroke: #ffffff; stroke-linejoin: miter; stroke-linecap: square"/>
   </g>
   <g id="patch_10">
    <path d="M 394.363636 315 
L 648 315 
" style="fill: none; stroke: #ffffff; stroke-linejoin: miter; stroke-linecap: square"/>
   </g>
   <g id="patch_11">
    <path d="M 394.363636 43.2 
L 648 43.2 
" style="fill: none; stroke: #ffffff; stroke-linejoin: miter; stroke-linecap: square"/>
   </g>
   <g id="text_28">
    <!-- CL1 Template 2 -->
    <g transform="translate(488.850568 37.2)scale(0.1 -0.1)">
     <use xlink:href="#TimesNewRomanPSMT-43"/>
     <use xlink:href="#TimesNewRomanPSMT-4c" x="66.699219"/>
     <use xlink:href="#TimesNewRomanPSMT-31" x="127.783203"/>
     <use xlink:href="#TimesNewRomanPSMT-20" x="177.783203"/>
     <use xlink:href="#TimesNewRomanPSMT-54" x="201.033203"/>
     <use xlink:href="#TimesNewRomanPSMT-65" x="255.117188"/>
     <use xlink:href="#TimesNewRomanPSMT-6d" x="299.501953"/>
     <use xlink:href="#TimesNewRomanPSMT-70" x="377.285156"/>
     <use xlink:href="#TimesNewRomanPSMT-6c" x="427.285156"/>
     <use xlink:href="#TimesNewRomanPSMT-61" x="455.068359"/>
     <use xlink:href="#TimesNewRomanPSMT-74" x="499.453125"/>
     <use xlink:href="#TimesNewRomanPSMT-65" x="527.236328"/>
     <use xlink:href="#TimesNewRomanPSMT-20" x="571.621094"/>
     <use xlink:href="#TimesNewRomanPSMT-32" x="596.621094"/>
    </g>
   </g>
  </g>
 </g>
 <defs>
  <clipPath id="p5641dccff8">
   <rect x="90" y="43.2" width="253.636364" height="271.8"/>
  </clipPath>
  <clipPath id="p37e02209d6">
   <rect x="394.363636" y="43.2" width="253.636364" height="271.8"/>
  </clipPath>
 </defs>
</svg>
