<?xml version="1.0" encoding="utf-8" standalone="no"?>
<!DOCTYPE svg PUBLIC "-//W3C//DTD SVG 1.1//EN"
  "http://www.w3.org/Graphics/SVG/1.1/DTD/svg11.dtd">
<svg xmlns:xlink="http://www.w3.org/1999/xlink" width="720pt" height="360pt" viewBox="0 0 720 360" xmlns="http://www.w3.org/2000/svg" version="1.1">
 <metadata>
  <rdf:RDF xmlns:dc="http://purl.org/dc/elements/1.1/" xmlns:cc="http://creativecommons.org/ns#" xmlns:rdf="http://www.w3.org/1999/02/22-rdf-syntax-ns#">
   <cc:Work>
    <dc:type rdf:resource="http://purl.org/dc/dcmitype/StillImage"/>
    <dc:date>2022-02-26T19:19:36.862418</dc:date>
    <dc:format>image/svg+xml</dc:format>
    <dc:creator>
     <cc:Agent>
      <dc:title>Matplotlib v3.5.0, https://matplotlib.org/</dc:title>
     </cc:Agent>
    </dc:creator>
   </cc:Work>
  </rdf:RDF>
 </metadata>
 <defs>
  <style type="text/css">*{stroke-linejoin: round; stroke-linecap: butt}</style>
 </defs>
 <g id="figure_1">
  <g id="patch_1">
   <path d="M 0 360 
L 720 360 
L 720 0 
L 0 0 
z
" style="fill: #ffffff"/>
  </g>
  <g id="axes_1">
   <g id="patch_2">
    <path d="M 90 315 
L 343.636364 315 
L 343.636364 43.2 
L 90 43.2 
z
" style="fill: #e5e5e5"/>
   </g>
   <g id="matplotlib.axis_1">
    <g id="xtick_1">
     <g id="line2d_1">
      <path d="M 101.528926 315 
L 101.528926 43.2 
" clip-path="url(#pc1695a1f0f)" style="fill: none; stroke: #ffffff; stroke-width: 0.8; stroke-linecap: square"/>
     </g>
     <g id="line2d_2">
      <defs>
       <path id="mfbba4a8140" d="M 0 0 
L 0 3.5 
" style="stroke: #555555; stroke-width: 0.8"/>
      </defs>
      <g>
       <use xlink:href="#mfbba4a8140" x="101.528926" y="315" style="fill: #555555; stroke: #555555; stroke-width: 0.8"/>
      </g>
     </g>
     <g id="text_1">
      <!-- 0 -->
      <g style="fill: #555555" transform="translate(99.028926 328.94375)scale(0.1 -0.1)">
       <defs>
        <path id="TimesNewRomanPSMT-30" d="M 231 2094 
Q 231 2819 450 3342 
Q 669 3866 1031 4122 
Q 1313 4325 1613 4325 
Q 2100 4325 2488 3828 
Q 2972 3213 2972 2159 
Q 2972 1422 2759 906 
Q 2547 391 2217 158 
Q 1888 -75 1581 -75 
Q 975 -75 572 641 
Q 231 1244 231 2094 
z
M 844 2016 
Q 844 1141 1059 588 
Q 1238 122 1591 122 
Q 1759 122 1940 273 
Q 2122 425 2216 781 
Q 2359 1319 2359 2297 
Q 2359 3022 2209 3506 
Q 2097 3866 1919 4016 
Q 1791 4119 1609 4119 
Q 1397 4119 1231 3928 
Q 1006 3669 925 3112 
Q 844 2556 844 2016 
z
" transform="scale(0.015625)"/>
       </defs>
       <use xlink:href="#TimesNewRomanPSMT-30"/>
      </g>
     </g>
    </g>
    <g id="xtick_2">
     <g id="line2d_3">
      <path d="M 140.610029 315 
L 140.610029 43.2 
" clip-path="url(#pc1695a1f0f)" style="fill: none; stroke: #ffffff; stroke-width: 0.8; stroke-linecap: square"/>
     </g>
     <g id="line2d_4">
      <g>
       <use xlink:href="#mfbba4a8140" x="140.610029" y="315" style="fill: #555555; stroke: #555555; stroke-width: 0.8"/>
      </g>
     </g>
     <g id="text_2">
      <!-- 10 -->
      <g style="fill: #555555" transform="translate(135.610029 328.94375)scale(0.1 -0.1)">
       <defs>
        <path id="TimesNewRomanPSMT-31" d="M 750 3822 
L 1781 4325 
L 1884 4325 
L 1884 747 
Q 1884 391 1914 303 
Q 1944 216 2037 169 
Q 2131 122 2419 116 
L 2419 0 
L 825 0 
L 825 116 
Q 1125 122 1212 167 
Q 1300 213 1334 289 
Q 1369 366 1369 747 
L 1369 3034 
Q 1369 3497 1338 3628 
Q 1316 3728 1258 3775 
Q 1200 3822 1119 3822 
Q 1003 3822 797 3725 
L 750 3822 
z
" transform="scale(0.015625)"/>
       </defs>
       <use xlink:href="#TimesNewRomanPSMT-31"/>
       <use xlink:href="#TimesNewRomanPSMT-30" x="50"/>
      </g>
     </g>
    </g>
    <g id="xtick_3">
     <g id="line2d_5">
      <path d="M 179.691133 315 
L 179.691133 43.2 
" clip-path="url(#pc1695a1f0f)" style="fill: none; stroke: #ffffff; stroke-width: 0.8; stroke-linecap: square"/>
     </g>
     <g id="line2d_6">
      <g>
       <use xlink:href="#mfbba4a8140" x="179.691133" y="315" style="fill: #555555; stroke: #555555; stroke-width: 0.8"/>
      </g>
     </g>
     <g id="text_3">
      <!-- 20 -->
      <g style="fill: #555555" transform="translate(174.691133 328.94375)scale(0.1 -0.1)">
       <defs>
        <path id="TimesNewRomanPSMT-32" d="M 2934 816 
L 2638 0 
L 138 0 
L 138 116 
Q 1241 1122 1691 1759 
Q 2141 2397 2141 2925 
Q 2141 3328 1894 3587 
Q 1647 3847 1303 3847 
Q 991 3847 742 3664 
Q 494 3481 375 3128 
L 259 3128 
Q 338 3706 661 4015 
Q 984 4325 1469 4325 
Q 1984 4325 2329 3994 
Q 2675 3663 2675 3213 
Q 2675 2891 2525 2569 
Q 2294 2063 1775 1497 
Q 997 647 803 472 
L 1909 472 
Q 2247 472 2383 497 
Q 2519 522 2628 598 
Q 2738 675 2819 816 
L 2934 816 
z
" transform="scale(0.015625)"/>
       </defs>
       <use xlink:href="#TimesNewRomanPSMT-32"/>
       <use xlink:href="#TimesNewRomanPSMT-30" x="50"/>
      </g>
     </g>
    </g>
    <g id="xtick_4">
     <g id="line2d_7">
      <path d="M 218.772237 315 
L 218.772237 43.2 
" clip-path="url(#pc1695a1f0f)" style="fill: none; stroke: #ffffff; stroke-width: 0.8; stroke-linecap: square"/>
     </g>
     <g id="line2d_8">
      <g>
       <use xlink:href="#mfbba4a8140" x="218.772237" y="315" style="fill: #555555; stroke: #555555; stroke-width: 0.8"/>
      </g>
     </g>
     <g id="text_4">
      <!-- 30 -->
      <g style="fill: #555555" transform="translate(213.772237 328.94375)scale(0.1 -0.1)">
       <defs>
        <path id="TimesNewRomanPSMT-33" d="M 325 3431 
Q 506 3859 782 4092 
Q 1059 4325 1472 4325 
Q 1981 4325 2253 3994 
Q 2459 3747 2459 3466 
Q 2459 3003 1878 2509 
Q 2269 2356 2469 2072 
Q 2669 1788 2669 1403 
Q 2669 853 2319 450 
Q 1863 -75 997 -75 
Q 569 -75 414 31 
Q 259 138 259 259 
Q 259 350 332 419 
Q 406 488 509 488 
Q 588 488 669 463 
Q 722 447 909 348 
Q 1097 250 1169 231 
Q 1284 197 1416 197 
Q 1734 197 1970 444 
Q 2206 691 2206 1028 
Q 2206 1275 2097 1509 
Q 2016 1684 1919 1775 
Q 1784 1900 1550 2001 
Q 1316 2103 1072 2103 
L 972 2103 
L 972 2197 
Q 1219 2228 1467 2375 
Q 1716 2522 1828 2728 
Q 1941 2934 1941 3181 
Q 1941 3503 1739 3701 
Q 1538 3900 1238 3900 
Q 753 3900 428 3381 
L 325 3431 
z
" transform="scale(0.015625)"/>
       </defs>
       <use xlink:href="#TimesNewRomanPSMT-33"/>
       <use xlink:href="#TimesNewRomanPSMT-30" x="50"/>
      </g>
     </g>
    </g>
    <g id="xtick_5">
     <g id="line2d_9">
      <path d="M 257.853341 315 
L 257.853341 43.2 
" clip-path="url(#pc1695a1f0f)" style="fill: none; stroke: #ffffff; stroke-width: 0.8; stroke-linecap: square"/>
     </g>
     <g id="line2d_10">
      <g>
       <use xlink:href="#mfbba4a8140" x="257.853341" y="315" style="fill: #555555; stroke: #555555; stroke-width: 0.8"/>
      </g>
     </g>
     <g id="text_5">
      <!-- 40 -->
      <g style="fill: #555555" transform="translate(252.853341 328.94375)scale(0.1 -0.1)">
       <defs>
        <path id="TimesNewRomanPSMT-34" d="M 2978 1563 
L 2978 1119 
L 2409 1119 
L 2409 0 
L 1894 0 
L 1894 1119 
L 100 1119 
L 100 1519 
L 2066 4325 
L 2409 4325 
L 2409 1563 
L 2978 1563 
z
M 1894 1563 
L 1894 3666 
L 406 1563 
L 1894 1563 
z
" transform="scale(0.015625)"/>
       </defs>
       <use xlink:href="#TimesNewRomanPSMT-34"/>
       <use xlink:href="#TimesNewRomanPSMT-30" x="50"/>
      </g>
     </g>
    </g>
    <g id="xtick_6">
     <g id="line2d_11">
      <path d="M 296.934445 315 
L 296.934445 43.2 
" clip-path="url(#pc1695a1f0f)" style="fill: none; stroke: #ffffff; stroke-width: 0.8; stroke-linecap: square"/>
     </g>
     <g id="line2d_12">
      <g>
       <use xlink:href="#mfbba4a8140" x="296.934445" y="315" style="fill: #555555; stroke: #555555; stroke-width: 0.8"/>
      </g>
     </g>
     <g id="text_6">
      <!-- 50 -->
      <g style="fill: #555555" transform="translate(291.934445 328.94375)scale(0.1 -0.1)">
       <defs>
        <path id="TimesNewRomanPSMT-35" d="M 2778 4238 
L 2534 3706 
L 1259 3706 
L 981 3138 
Q 1809 3016 2294 2522 
Q 2709 2097 2709 1522 
Q 2709 1188 2573 903 
Q 2438 619 2231 419 
Q 2025 219 1772 97 
Q 1413 -75 1034 -75 
Q 653 -75 479 54 
Q 306 184 306 341 
Q 306 428 378 495 
Q 450 563 559 563 
Q 641 563 702 538 
Q 763 513 909 409 
Q 1144 247 1384 247 
Q 1750 247 2026 523 
Q 2303 800 2303 1197 
Q 2303 1581 2056 1914 
Q 1809 2247 1375 2428 
Q 1034 2569 447 2591 
L 1259 4238 
L 2778 4238 
z
" transform="scale(0.015625)"/>
       </defs>
       <use xlink:href="#TimesNewRomanPSMT-35"/>
       <use xlink:href="#TimesNewRomanPSMT-30" x="50"/>
      </g>
     </g>
    </g>
    <g id="xtick_7">
     <g id="line2d_13">
      <path d="M 336.015548 315 
L 336.015548 43.2 
" clip-path="url(#pc1695a1f0f)" style="fill: none; stroke: #ffffff; stroke-width: 0.8; stroke-linecap: square"/>
     </g>
     <g id="line2d_14">
      <g>
       <use xlink:href="#mfbba4a8140" x="336.015548" y="315" style="fill: #555555; stroke: #555555; stroke-width: 0.8"/>
      </g>
     </g>
     <g id="text_7">
      <!-- 60 -->
      <g style="fill: #555555" transform="translate(331.015548 328.94375)scale(0.1 -0.1)">
       <defs>
        <path id="TimesNewRomanPSMT-36" d="M 2869 4325 
L 2869 4209 
Q 2456 4169 2195 4045 
Q 1934 3922 1679 3669 
Q 1425 3416 1258 3105 
Q 1091 2794 978 2366 
Q 1428 2675 1881 2675 
Q 2316 2675 2634 2325 
Q 2953 1975 2953 1425 
Q 2953 894 2631 456 
Q 2244 -75 1606 -75 
Q 1172 -75 869 213 
Q 275 772 275 1663 
Q 275 2231 503 2743 
Q 731 3256 1154 3653 
Q 1578 4050 1965 4187 
Q 2353 4325 2688 4325 
L 2869 4325 
z
M 925 2138 
Q 869 1716 869 1456 
Q 869 1156 980 804 
Q 1091 453 1309 247 
Q 1469 100 1697 100 
Q 1969 100 2183 356 
Q 2397 613 2397 1088 
Q 2397 1622 2184 2012 
Q 1972 2403 1581 2403 
Q 1463 2403 1327 2353 
Q 1191 2303 925 2138 
z
" transform="scale(0.015625)"/>
       </defs>
       <use xlink:href="#TimesNewRomanPSMT-36"/>
       <use xlink:href="#TimesNewRomanPSMT-30" x="50"/>
      </g>
     </g>
    </g>
   </g>
   <g id="matplotlib.axis_2">
    <g id="ytick_1">
     <g id="line2d_15">
      <path d="M 90 302.645455 
L 343.636364 302.645455 
" clip-path="url(#pc1695a1f0f)" style="fill: none; stroke: #ffffff; stroke-width: 0.8; stroke-linecap: square"/>
     </g>
     <g id="line2d_16">
      <defs>
       <path id="me450e54076" d="M 0 0 
L -3.5 0 
" style="stroke: #555555; stroke-width: 0.8"/>
      </defs>
      <g>
       <use xlink:href="#me450e54076" x="90" y="302.645455" style="fill: #555555; stroke: #555555; stroke-width: 0.8"/>
      </g>
     </g>
     <g id="text_8">
      <!-- 0.0 -->
      <g style="fill: #555555" transform="translate(70.5 306.11733)scale(0.1 -0.1)">
       <defs>
        <path id="TimesNewRomanPSMT-2e" d="M 800 606 
Q 947 606 1047 504 
Q 1147 403 1147 259 
Q 1147 116 1045 14 
Q 944 -88 800 -88 
Q 656 -88 554 14 
Q 453 116 453 259 
Q 453 406 554 506 
Q 656 606 800 606 
z
" transform="scale(0.015625)"/>
       </defs>
       <use xlink:href="#TimesNewRomanPSMT-30"/>
       <use xlink:href="#TimesNewRomanPSMT-2e" x="50"/>
       <use xlink:href="#TimesNewRomanPSMT-30" x="75"/>
      </g>
     </g>
    </g>
    <g id="ytick_2">
     <g id="line2d_17">
      <path d="M 90 253.227273 
L 343.636364 253.227273 
" clip-path="url(#pc1695a1f0f)" style="fill: none; stroke: #ffffff; stroke-width: 0.8; stroke-linecap: square"/>
     </g>
     <g id="line2d_18">
      <g>
       <use xlink:href="#me450e54076" x="90" y="253.227273" style="fill: #555555; stroke: #555555; stroke-width: 0.8"/>
      </g>
     </g>
     <g id="text_9">
      <!-- 0.2 -->
      <g style="fill: #555555" transform="translate(70.5 256.699148)scale(0.1 -0.1)">
       <use xlink:href="#TimesNewRomanPSMT-30"/>
       <use xlink:href="#TimesNewRomanPSMT-2e" x="50"/>
       <use xlink:href="#TimesNewRomanPSMT-32" x="75"/>
      </g>
     </g>
    </g>
    <g id="ytick_3">
     <g id="line2d_19">
      <path d="M 90 203.809091 
L 343.636364 203.809091 
" clip-path="url(#pc1695a1f0f)" style="fill: none; stroke: #ffffff; stroke-width: 0.8; stroke-linecap: square"/>
     </g>
     <g id="line2d_20">
      <g>
       <use xlink:href="#me450e54076" x="90" y="203.809091" style="fill: #555555; stroke: #555555; stroke-width: 0.8"/>
      </g>
     </g>
     <g id="text_10">
      <!-- 0.4 -->
      <g style="fill: #555555" transform="translate(70.5 207.280966)scale(0.1 -0.1)">
       <use xlink:href="#TimesNewRomanPSMT-30"/>
       <use xlink:href="#TimesNewRomanPSMT-2e" x="50"/>
       <use xlink:href="#TimesNewRomanPSMT-34" x="75"/>
      </g>
     </g>
    </g>
    <g id="ytick_4">
     <g id="line2d_21">
      <path d="M 90 154.390909 
L 343.636364 154.390909 
" clip-path="url(#pc1695a1f0f)" style="fill: none; stroke: #ffffff; stroke-width: 0.8; stroke-linecap: square"/>
     </g>
     <g id="line2d_22">
      <g>
       <use xlink:href="#me450e54076" x="90" y="154.390909" style="fill: #555555; stroke: #555555; stroke-width: 0.8"/>
      </g>
     </g>
     <g id="text_11">
      <!-- 0.6 -->
      <g style="fill: #555555" transform="translate(70.5 157.862784)scale(0.1 -0.1)">
       <use xlink:href="#TimesNewRomanPSMT-30"/>
       <use xlink:href="#TimesNewRomanPSMT-2e" x="50"/>
       <use xlink:href="#TimesNewRomanPSMT-36" x="75"/>
      </g>
     </g>
    </g>
    <g id="ytick_5">
     <g id="line2d_23">
      <path d="M 90 104.972727 
L 343.636364 104.972727 
" clip-path="url(#pc1695a1f0f)" style="fill: none; stroke: #ffffff; stroke-width: 0.8; stroke-linecap: square"/>
     </g>
     <g id="line2d_24">
      <g>
       <use xlink:href="#me450e54076" x="90" y="104.972727" style="fill: #555555; stroke: #555555; stroke-width: 0.8"/>
      </g>
     </g>
     <g id="text_12">
      <!-- 0.8 -->
      <g style="fill: #555555" transform="translate(70.5 108.444602)scale(0.1 -0.1)">
       <defs>
        <path id="TimesNewRomanPSMT-38" d="M 1228 2134 
Q 725 2547 579 2797 
Q 434 3047 434 3316 
Q 434 3728 753 4026 
Q 1072 4325 1600 4325 
Q 2113 4325 2425 4047 
Q 2738 3769 2738 3413 
Q 2738 3175 2569 2928 
Q 2400 2681 1866 2347 
Q 2416 1922 2594 1678 
Q 2831 1359 2831 1006 
Q 2831 559 2490 242 
Q 2150 -75 1597 -75 
Q 994 -75 656 303 
Q 388 606 388 966 
Q 388 1247 577 1523 
Q 766 1800 1228 2134 
z
M 1719 2469 
Q 2094 2806 2194 3001 
Q 2294 3197 2294 3444 
Q 2294 3772 2109 3958 
Q 1925 4144 1606 4144 
Q 1288 4144 1088 3959 
Q 888 3775 888 3528 
Q 888 3366 970 3203 
Q 1053 3041 1206 2894 
L 1719 2469 
z
M 1375 2016 
Q 1116 1797 991 1539 
Q 866 1281 866 981 
Q 866 578 1086 336 
Q 1306 94 1647 94 
Q 1984 94 2187 284 
Q 2391 475 2391 747 
Q 2391 972 2272 1150 
Q 2050 1481 1375 2016 
z
" transform="scale(0.015625)"/>
       </defs>
       <use xlink:href="#TimesNewRomanPSMT-30"/>
       <use xlink:href="#TimesNewRomanPSMT-2e" x="50"/>
       <use xlink:href="#TimesNewRomanPSMT-38" x="75"/>
      </g>
     </g>
    </g>
    <g id="ytick_6">
     <g id="line2d_25">
      <path d="M 90 55.554545 
L 343.636364 55.554545 
" clip-path="url(#pc1695a1f0f)" style="fill: none; stroke: #ffffff; stroke-width: 0.8; stroke-linecap: square"/>
     </g>
     <g id="line2d_26">
      <g>
       <use xlink:href="#me450e54076" x="90" y="55.554545" style="fill: #555555; stroke: #555555; stroke-width: 0.8"/>
      </g>
     </g>
     <g id="text_13">
      <!-- 1.0 -->
      <g style="fill: #555555" transform="translate(70.5 59.02642)scale(0.1 -0.1)">
       <use xlink:href="#TimesNewRomanPSMT-31"/>
       <use xlink:href="#TimesNewRomanPSMT-2e" x="50"/>
       <use xlink:href="#TimesNewRomanPSMT-30" x="75"/>
      </g>
     </g>
    </g>
   </g>
   <g id="line2d_27">
    <path d="M 101.528926 72.659346 
L 105.437036 94.477864 
L 109.345146 63.140827 
L 113.253257 55.554545 
L 117.161367 70.274027 
L 121.069478 87.226622 
L 124.977588 103.521618 
L 128.885698 116.09865 
L 132.793809 112.319505 
L 136.701919 82.969014 
L 140.610029 64.374981 
L 144.51814 77.775688 
L 148.42625 75.289936 
L 152.334361 96.34906 
L 156.242471 132.119977 
L 160.150581 136.133032 
L 164.058692 131.773142 
L 167.966802 144.76511 
L 171.874912 163.063852 
L 175.783023 134.172594 
L 179.691133 138.600225 
L 183.599244 122.823671 
L 187.507354 110.286338 
L 191.415464 96.383284 
L 195.323575 111.104798 
L 199.231685 103.347846 
L 203.139795 114.889029 
L 207.047906 114.43232 
L 210.956016 145.882239 
L 214.864127 142.045909 
L 218.772237 130.414249 
L 222.680347 147.470942 
L 226.588458 154.336953 
L 230.496568 143.730113 
L 234.404679 167.008985 
L 238.312789 180.836805 
L 242.220899 190.478417 
L 246.12901 198.115712 
L 250.03712 234.518374 
L 253.94523 210.340007 
L 257.853341 189.260972 
L 261.761451 162.832757 
L 265.669562 181.863267 
L 269.577672 185.856478 
L 273.485782 195.680413 
L 277.393893 183.887667 
L 281.302003 164.632124 
L 285.210113 170.340994 
L 289.118224 170.266497 
L 293.026334 179.75081 
L 296.934445 177.888634 
L 300.842555 198.829624 
L 304.750665 201.653353 
L 308.658776 200.678729 
L 312.566886 236.683118 
L 316.474996 231.38822 
L 320.383107 255.237018 
L 324.291217 292.634567 
L 328.199328 302.645455 
L 332.107438 300.418279 
" clip-path="url(#pc1695a1f0f)" style="fill: none; stroke: #000000; stroke-opacity: 0.2; stroke-width: 1.5; stroke-linecap: square"/>
   </g>
   <g id="line2d_28">
    <path d="M 101.528926 100.677681 
L 105.437036 100.513557 
L 109.345146 75.164377 
L 113.253257 83.687604 
L 117.161367 113.085359 
L 121.069478 111.886891 
L 124.977588 124.348715 
L 128.885698 86.452411 
L 132.793809 116.120078 
L 136.701919 157.451893 
L 140.610029 157.274032 
L 144.51814 153.987714 
L 148.42625 156.405597 
L 152.334361 137.973835 
L 156.242471 136.042968 
L 160.150581 172.266562 
L 164.058692 179.034974 
L 167.966802 221.34957 
L 171.874912 297.972842 
L 175.783023 264.045459 
L 179.691133 245.906435 
L 183.599244 210.028756 
L 187.507354 244.968656 
L 191.415464 228.056885 
L 195.323575 283.773641 
L 199.231685 302.645455 
L 203.139795 283.624323 
L 207.047906 258.008828 
L 210.956016 222.450375 
L 214.864127 237.1264 
L 218.772237 187.518872 
L 222.680347 189.085532 
L 226.588458 157.624257 
L 230.496568 170.266855 
L 234.404679 147.160003 
L 238.312789 189.216035 
L 242.220899 157.161119 
L 246.12901 180.936607 
L 250.03712 202.650112 
L 253.94523 168.776288 
L 257.853341 123.603204 
L 261.761451 150.386167 
L 265.669562 128.327208 
L 269.577672 55.554545 
L 273.485782 70.835078 
L 277.393893 120.438342 
L 281.302003 149.357568 
L 285.210113 110.773492 
L 289.118224 99.218797 
L 293.026334 108.503876 
L 296.934445 98.132782 
L 300.842555 84.090584 
L 304.750665 159.668219 
L 308.658776 148.787906 
L 312.566886 119.048254 
L 316.474996 136.711443 
L 320.383107 128.607589 
L 324.291217 161.691827 
L 328.199328 190.350929 
L 332.107438 183.449396 
" clip-path="url(#pc1695a1f0f)" style="fill: none; stroke: #000000; stroke-opacity: 0.2; stroke-width: 1.5; stroke-linecap: square"/>
   </g>
   <g id="line2d_29">
    <path d="M 101.528926 85.720385 
L 105.437036 76.709066 
L 109.345146 61.481257 
L 113.253257 55.554545 
L 117.161367 55.948068 
L 121.069478 68.073292 
L 124.977588 94.321631 
L 128.885698 119.443867 
L 132.793809 141.173626 
L 136.701919 134.620066 
L 140.610029 166.626109 
L 144.51814 182.237075 
L 148.42625 160.837157 
L 152.334361 204.047553 
L 156.242471 211.14131 
L 160.150581 215.393063 
L 164.058692 177.289441 
L 167.966802 180.839021 
L 171.874912 180.822085 
L 175.783023 219.33124 
L 179.691133 202.850341 
L 183.599244 184.658689 
L 187.507354 176.056243 
L 191.415464 214.759057 
L 195.323575 219.385435 
L 199.231685 237.058689 
L 203.139795 250.314277 
L 207.047906 259.314443 
L 210.956016 287.878961 
L 214.864127 302.645455 
L 218.772237 278.40945 
L 222.680347 232.294426 
L 226.588458 238.689036 
L 230.496568 269.640823 
L 234.404679 258.381584 
L 238.312789 232.0421 
L 242.220899 247.900428 
L 246.12901 248.861382 
L 250.03712 248.555518 
L 253.94523 263.679718 
L 257.853341 237.684339 
L 261.761451 189.442541 
L 265.669562 191.147676 
L 269.577672 173.055783 
L 273.485782 174.798661 
L 277.393893 203.527784 
L 281.302003 185.167791 
L 285.210113 202.680726 
L 289.118224 195.288604 
L 293.026334 191.368171 
L 296.934445 211.281211 
L 300.842555 244.497325 
L 304.750665 238.327918 
L 308.658776 250.607279 
L 312.566886 238.085639 
L 316.474996 186.971083 
L 320.383107 214.50263 
L 324.291217 230.795685 
L 328.199328 192.371545 
L 332.107438 191.550371 
" clip-path="url(#pc1695a1f0f)" style="fill: none; stroke: #000000; stroke-opacity: 0.2; stroke-width: 1.5; stroke-linecap: square"/>
   </g>
   <g id="line2d_30">
    <path d="M 101.528926 135.920829 
L 105.437036 129.327184 
L 109.345146 120.758328 
L 113.253257 121.717095 
L 117.161367 127.304092 
L 121.069478 137.848317 
L 124.977588 120.010502 
L 128.885698 105.977898 
L 132.793809 118.169377 
L 136.701919 136.683469 
L 140.610029 131.163695 
L 144.51814 121.651247 
L 148.42625 143.192223 
L 152.334361 146.299961 
L 156.242471 139.270561 
L 160.150581 114.647469 
L 164.058692 110.685213 
L 167.966802 107.591853 
L 171.874912 71.577466 
L 175.783023 74.041113 
L 179.691133 62.317146 
L 183.599244 59.617004 
L 187.507354 73.726235 
L 191.415464 68.960265 
L 195.323575 60.747638 
L 199.231685 73.60081 
L 203.139795 76.827053 
L 207.047906 55.554545 
L 210.956016 65.028272 
L 214.864127 108.504758 
L 218.772237 112.555313 
L 222.680347 94.89712 
L 226.588458 100.069887 
L 230.496568 94.009378 
L 234.404679 86.666865 
L 238.312789 87.312335 
L 242.220899 139.653121 
L 246.12901 125.462938 
L 250.03712 101.930955 
L 253.94523 119.983157 
L 257.853341 111.794086 
L 261.761451 177.244858 
L 265.669562 198.657531 
L 269.577672 250.445836 
L 273.485782 239.529583 
L 277.393893 145.128388 
L 281.302003 173.186612 
L 285.210113 156.226455 
L 289.118224 169.784325 
L 293.026334 197.374951 
L 296.934445 203.93014 
L 300.842555 230.431418 
L 304.750665 240.717903 
L 308.658776 302.645455 
L 312.566886 258.864595 
L 316.474996 271.616011 
L 320.383107 283.707116 
L 324.291217 282.739518 
L 328.199328 207.316204 
L 332.107438 231.647928 
" clip-path="url(#pc1695a1f0f)" style="fill: none; stroke: #000000; stroke-opacity: 0.2; stroke-width: 1.5; stroke-linecap: square"/>
   </g>
   <g id="line2d_31">
    <path d="M 101.528926 55.554545 
L 105.437036 95.604347 
L 109.345146 205.160584 
L 113.253257 171.12839 
L 117.161367 188.17664 
L 121.069478 144.986138 
L 124.977588 194.649917 
L 128.885698 251.78324 
L 132.793809 232.628733 
L 136.701919 284.635253 
L 140.610029 292.412384 
L 144.51814 171.423722 
L 148.42625 213.741978 
L 152.334361 139.961759 
L 156.242471 147.902567 
L 160.150581 153.969106 
L 164.058692 99.163175 
L 167.966802 184.934036 
L 171.874912 210.573066 
L 175.783023 163.687391 
L 179.691133 158.717606 
L 183.599244 195.621058 
L 187.507354 234.66948 
L 191.415464 160.299875 
L 195.323575 218.055797 
L 199.231685 224.294324 
L 203.139795 230.03325 
L 207.047906 272.57671 
L 210.956016 302.645455 
L 214.864127 236.328556 
L 218.772237 206.849088 
L 222.680347 217.969232 
L 226.588458 178.121786 
L 230.496568 179.678716 
L 234.404679 190.854104 
L 238.312789 242.999358 
L 242.220899 208.926122 
L 246.12901 204.653605 
L 250.03712 227.069782 
L 253.94523 195.635267 
L 257.853341 161.967898 
L 261.761451 171.491506 
L 265.669562 138.186149 
L 269.577672 155.16167 
L 273.485782 147.083377 
L 277.393893 155.399292 
L 281.302003 108.839245 
L 285.210113 122.001711 
L 289.118224 136.012311 
L 293.026334 133.532916 
L 296.934445 156.136409 
L 300.842555 167.837642 
L 304.750665 162.584469 
L 308.658776 162.085737 
L 312.566886 163.562589 
L 316.474996 164.050263 
L 320.383107 148.404442 
L 324.291217 140.96186 
L 328.199328 141.394831 
L 332.107438 113.218502 
" clip-path="url(#pc1695a1f0f)" style="fill: none; stroke: #000000; stroke-opacity: 0.2; stroke-width: 1.5; stroke-linecap: square"/>
   </g>
   <g id="line2d_32">
    <path d="M 101.528926 167.340644 
L 105.437036 190.732476 
L 109.345146 178.087097 
L 113.253257 188.868169 
L 117.161367 179.195996 
L 121.069478 172.922903 
L 124.977588 193.878338 
L 128.885698 172.402061 
L 132.793809 167.649004 
L 136.701919 170.091333 
L 140.610029 138.895685 
L 144.51814 134.044318 
L 148.42625 123.582122 
L 152.334361 131.068092 
L 156.242471 149.478425 
L 160.150581 153.1726 
L 164.058692 162.814004 
L 167.966802 155.912073 
L 171.874912 150.778099 
L 175.783023 151.260951 
L 179.691133 138.053272 
L 183.599244 100.648231 
L 187.507354 95.816376 
L 191.415464 101.832073 
L 195.323575 93.407155 
L 199.231685 110.462435 
L 203.139795 126.935098 
L 207.047906 103.346485 
L 210.956016 123.354182 
L 214.864127 111.588449 
L 218.772237 112.600955 
L 222.680347 92.054142 
L 226.588458 92.135368 
L 230.496568 81.207728 
L 234.404679 62.741615 
L 238.312789 55.554545 
L 242.220899 56.031753 
L 246.12901 70.735494 
L 250.03712 102.565731 
L 253.94523 133.030392 
L 257.853341 159.381141 
L 261.761451 151.433919 
L 265.669562 190.246278 
L 269.577672 209.177028 
L 273.485782 183.226264 
L 277.393893 235.625663 
L 281.302003 244.227957 
L 285.210113 249.383877 
L 289.118224 203.177245 
L 293.026334 207.481669 
L 296.934445 207.46113 
L 300.842555 254.159535 
L 304.750665 234.173855 
L 308.658776 212.113617 
L 312.566886 201.681798 
L 316.474996 248.615045 
L 320.383107 254.225255 
L 324.291217 275.656854 
L 328.199328 291.731338 
L 332.107438 302.645455 
" clip-path="url(#pc1695a1f0f)" style="fill: none; stroke: #000000; stroke-opacity: 0.2; stroke-width: 1.5; stroke-linecap: square"/>
   </g>
   <g id="line2d_33">
    <path d="M 101.528926 83.584153 
L 105.437036 55.554545 
L 109.345146 138.575719 
L 113.253257 207.051321 
L 117.161367 250.152781 
L 121.069478 208.006606 
L 124.977588 206.770741 
L 128.885698 246.969682 
L 132.793809 233.497648 
L 136.701919 200.544824 
L 140.610029 226.045898 
L 144.51814 184.189653 
L 148.42625 193.377833 
L 152.334361 214.974158 
L 156.242471 180.756397 
L 160.150581 148.258488 
L 164.058692 144.837538 
L 167.966802 237.9602 
L 171.874912 260.417974 
L 175.783023 230.2628 
L 179.691133 232.846321 
L 183.599244 212.012426 
L 187.507354 185.966325 
L 191.415464 149.818473 
L 195.323575 173.985293 
L 199.231685 161.999806 
L 203.139795 162.734156 
L 207.047906 141.023252 
L 210.956016 128.098487 
L 214.864127 153.704597 
L 218.772237 130.477859 
L 222.680347 99.504631 
L 226.588458 78.52008 
L 230.496568 65.854862 
L 234.404679 87.286167 
L 238.312789 158.273038 
L 242.220899 146.026753 
L 246.12901 185.152028 
L 250.03712 147.589306 
L 253.94523 206.783419 
L 257.853341 226.762743 
L 261.761451 252.801297 
L 265.669562 142.310924 
L 269.577672 177.604619 
L 273.485782 192.606066 
L 277.393893 250.647988 
L 281.302003 286.850857 
L 285.210113 201.955076 
L 289.118224 302.645455 
L 293.026334 272.096408 
L 296.934445 271.152138 
L 300.842555 210.013476 
L 304.750665 187.192956 
L 308.658776 202.619095 
L 312.566886 210.808461 
L 316.474996 213.556992 
L 320.383107 203.710469 
L 324.291217 141.062529 
L 328.199328 143.004669 
L 332.107438 123.992056 
" clip-path="url(#pc1695a1f0f)" style="fill: none; stroke: #000000; stroke-opacity: 0.2; stroke-width: 1.5; stroke-linecap: square"/>
   </g>
   <g id="line2d_34">
    <path d="M 101.528926 102.193698 
L 105.437036 113.828017 
L 109.345146 106.32665 
L 113.253257 90.282466 
L 117.161367 111.188864 
L 121.069478 84.555503 
L 124.977588 129.433908 
L 128.885698 130.908512 
L 132.793809 112.318174 
L 136.701919 98.497495 
L 140.610029 99.055568 
L 144.51814 119.548618 
L 148.42625 81.946525 
L 152.334361 72.819252 
L 156.242471 55.554545 
L 160.150581 57.007081 
L 164.058692 151.077437 
L 167.966802 151.011389 
L 171.874912 171.0753 
L 175.783023 158.865262 
L 179.691133 165.519906 
L 183.599244 176.57114 
L 187.507354 134.45025 
L 191.415464 163.4346 
L 195.323575 137.268331 
L 199.231685 138.447707 
L 203.139795 151.301259 
L 207.047906 162.242509 
L 210.956016 161.269561 
L 214.864127 164.177874 
L 218.772237 132.761406 
L 222.680347 191.400396 
L 226.588458 248.756096 
L 230.496568 253.272739 
L 234.404679 236.64571 
L 238.312789 267.542803 
L 242.220899 244.582895 
L 246.12901 240.475139 
L 250.03712 302.645455 
L 253.94523 255.263678 
L 257.853341 263.469251 
L 261.761451 216.630184 
L 265.669562 205.368517 
L 269.577672 231.400661 
L 273.485782 182.288619 
L 277.393893 183.666389 
L 281.302003 182.150665 
L 285.210113 154.794438 
L 289.118224 156.495252 
L 293.026334 178.848505 
L 296.934445 194.00355 
L 300.842555 184.946125 
L 304.750665 169.226557 
L 308.658776 169.920473 
L 312.566886 196.358456 
L 316.474996 193.457275 
L 320.383107 149.998377 
L 324.291217 167.53314 
L 328.199328 208.21658 
L 332.107438 167.909242 
" clip-path="url(#pc1695a1f0f)" style="fill: none; stroke: #000000; stroke-opacity: 0.2; stroke-width: 1.5; stroke-linecap: square"/>
   </g>
   <g id="line2d_35">
    <path d="M 101.528926 236.494222 
L 105.437036 212.589183 
L 109.345146 201.999649 
L 113.253257 224.775109 
L 117.161367 199.085879 
L 121.069478 179.547232 
L 124.977588 150.741901 
L 128.885698 151.88307 
L 132.793809 151.743395 
L 136.701919 164.44344 
L 140.610029 147.811699 
L 144.51814 167.172961 
L 148.42625 177.367248 
L 152.334361 188.803965 
L 156.242471 169.737316 
L 160.150581 169.803411 
L 164.058692 165.334121 
L 167.966802 138.677687 
L 171.874912 129.469196 
L 175.783023 131.034305 
L 179.691133 125.872395 
L 183.599244 102.993211 
L 187.507354 91.205029 
L 191.415464 121.526468 
L 195.323575 109.652942 
L 199.231685 79.39364 
L 203.139795 64.148508 
L 207.047906 81.070807 
L 210.956016 82.07921 
L 214.864127 100.635424 
L 218.772237 86.663414 
L 222.680347 97.044386 
L 226.588458 55.554545 
L 230.496568 108.700822 
L 234.404679 99.29515 
L 238.312789 168.55457 
L 242.220899 187.379186 
L 246.12901 140.788286 
L 250.03712 170.20522 
L 253.94523 174.356125 
L 257.853341 158.503324 
L 261.761451 218.04038 
L 265.669562 191.65669 
L 269.577672 181.448255 
L 273.485782 136.334664 
L 277.393893 196.161084 
L 281.302003 217.427948 
L 285.210113 202.569316 
L 289.118224 236.500521 
L 293.026334 285.175976 
L 296.934445 302.645455 
L 300.842555 261.057946 
L 304.750665 258.569995 
L 308.658776 262.893256 
L 312.566886 208.237881 
L 316.474996 203.744472 
L 320.383107 173.543515 
L 324.291217 169.549125 
L 328.199328 226.028173 
L 332.107438 172.721622 
" clip-path="url(#pc1695a1f0f)" style="fill: none; stroke: #000000; stroke-opacity: 0.2; stroke-width: 1.5; stroke-linecap: square"/>
   </g>
   <g id="line2d_36">
    <path d="M 101.528926 116.63057 
L 105.437036 96.111205 
L 109.345146 67.434002 
L 113.253257 55.554545 
L 117.161367 66.298977 
L 121.069478 102.570833 
L 124.977588 131.523239 
L 128.885698 163.485138 
L 132.793809 127.970805 
L 136.701919 64.120129 
L 140.610029 96.224613 
L 144.51814 87.173569 
L 148.42625 88.277015 
L 152.334361 93.844856 
L 156.242471 119.387974 
L 160.150581 153.894749 
L 164.058692 185.255606 
L 167.966802 158.292281 
L 171.874912 177.856658 
L 175.783023 148.642992 
L 179.691133 160.352333 
L 183.599244 260.458438 
L 187.507354 222.86838 
L 191.415464 146.890515 
L 195.323575 173.638636 
L 199.231685 177.728255 
L 203.139795 178.518128 
L 207.047906 174.271494 
L 210.956016 173.153898 
L 214.864127 245.889519 
L 218.772237 271.560103 
L 222.680347 231.575482 
L 226.588458 246.982139 
L 230.496568 239.842534 
L 234.404679 213.740284 
L 238.312789 203.836053 
L 242.220899 185.710589 
L 246.12901 187.058893 
L 250.03712 288.063833 
L 253.94523 280.73913 
L 257.853341 271.461654 
L 261.761451 234.02827 
L 265.669562 216.866785 
L 269.577672 249.953422 
L 273.485782 206.881652 
L 277.393893 146.695818 
L 281.302003 147.624074 
L 285.210113 194.070882 
L 289.118224 151.154783 
L 293.026334 147.08344 
L 296.934445 242.694866 
L 300.842555 207.05982 
L 304.750665 188.841217 
L 308.658776 241.85079 
L 312.566886 302.645455 
L 316.474996 261.231702 
L 320.383107 255.580725 
L 324.291217 196.561237 
L 328.199328 189.544878 
L 332.107438 149.795986 
" clip-path="url(#pc1695a1f0f)" style="fill: none; stroke: #000000; stroke-opacity: 0.2; stroke-width: 1.5; stroke-linecap: square"/>
   </g>
   <g id="line2d_37">
    <path d="M 101.528926 101.802961 
L 105.437036 156.893074 
L 109.345146 103.663409 
L 113.253257 72.75402 
L 117.161367 94.38403 
L 121.069478 96.881661 
L 124.977588 122.264034 
L 128.885698 91.863991 
L 132.793809 91.070563 
L 136.701919 89.538428 
L 140.610029 92.947273 
L 144.51814 92.853588 
L 148.42625 92.853588 
L 152.334361 93.442622 
L 156.242471 92.90509 
L 160.150581 93.44712 
L 164.058692 76.436183 
L 167.966802 86.751702 
L 171.874912 110.112093 
L 175.783023 119.219529 
L 179.691133 129.796452 
L 183.599244 148.659079 
L 187.507354 171.175246 
L 191.415464 119.197298 
L 195.323575 138.905054 
L 199.231685 129.55355 
L 203.139795 163.030263 
L 207.047906 186.533331 
L 210.956016 198.106315 
L 214.864127 189.327487 
L 218.772237 224.66274 
L 222.680347 225.671758 
L 226.588458 251.430477 
L 230.496568 244.899133 
L 234.404679 287.067155 
L 238.312789 255.072354 
L 242.220899 261.052767 
L 246.12901 232.536155 
L 250.03712 237.539441 
L 253.94523 211.141551 
L 257.853341 239.757462 
L 261.761451 247.592964 
L 265.669562 242.863055 
L 269.577672 242.939205 
L 273.485782 242.039654 
L 277.393893 268.504323 
L 281.302003 242.066141 
L 285.210113 242.267106 
L 289.118224 242.300332 
L 293.026334 242.340974 
L 296.934445 242.395761 
L 300.842555 242.209932 
L 304.750665 242.09844 
L 308.658776 241.419499 
L 312.566886 243.105599 
L 316.474996 214.503494 
L 320.383107 182.823516 
L 324.291217 217.643786 
L 328.199328 150.643438 
L 332.107438 246.154947 
" clip-path="url(#pc1695a1f0f)" style="fill: none; stroke: #ff0000; stroke-width: 2; stroke-linecap: square"/>
   </g>
   <g id="patch_3">
    <path d="M 90 315 
L 90 43.2 
" style="fill: none; stroke: #ffffff; stroke-linejoin: miter; stroke-linecap: square"/>
   </g>
   <g id="patch_4">
    <path d="M 343.636364 315 
L 343.636364 43.2 
" style="fill: none; stroke: #ffffff; stroke-linejoin: miter; stroke-linecap: square"/>
   </g>
   <g id="patch_5">
    <path d="M 90 315 
L 343.636364 315 
" style="fill: none; stroke: #ffffff; stroke-linejoin: miter; stroke-linecap: square"/>
   </g>
   <g id="patch_6">
    <path d="M 90 43.2 
L 343.636364 43.2 
" style="fill: none; stroke: #ffffff; stroke-linejoin: miter; stroke-linecap: square"/>
   </g>
   <g id="text_14">
    <!-- EEM Template 1 -->
    <g transform="translate(182.822088 37.2)scale(0.1 -0.1)">
     <defs>
      <path id="TimesNewRomanPSMT-45" d="M 1338 4006 
L 1338 2331 
L 2269 2331 
Q 2631 2331 2753 2441 
Q 2916 2584 2934 2947 
L 3050 2947 
L 3050 1472 
L 2934 1472 
Q 2891 1781 2847 1869 
Q 2791 1978 2662 2040 
Q 2534 2103 2269 2103 
L 1338 2103 
L 1338 706 
Q 1338 425 1363 364 
Q 1388 303 1450 267 
Q 1513 231 1688 231 
L 2406 231 
Q 2766 231 2928 281 
Q 3091 331 3241 478 
Q 3434 672 3638 1063 
L 3763 1063 
L 3397 0 
L 131 0 
L 131 116 
L 281 116 
Q 431 116 566 188 
Q 666 238 702 338 
Q 738 438 738 747 
L 738 3500 
Q 738 3903 656 3997 
Q 544 4122 281 4122 
L 131 4122 
L 131 4238 
L 3397 4238 
L 3444 3309 
L 3322 3309 
Q 3256 3644 3176 3769 
Q 3097 3894 2941 3959 
Q 2816 4006 2500 4006 
L 1338 4006 
z
" transform="scale(0.015625)"/>
      <path id="TimesNewRomanPSMT-4d" d="M 2619 0 
L 981 3566 
L 981 734 
Q 981 344 1066 247 
Q 1181 116 1431 116 
L 1581 116 
L 1581 0 
L 106 0 
L 106 116 
L 256 116 
Q 525 116 638 278 
Q 706 378 706 734 
L 706 3503 
Q 706 3784 644 3909 
Q 600 4000 483 4061 
Q 366 4122 106 4122 
L 106 4238 
L 1306 4238 
L 2844 922 
L 4356 4238 
L 5556 4238 
L 5556 4122 
L 5409 4122 
Q 5138 4122 5025 3959 
Q 4956 3859 4956 3503 
L 4956 734 
Q 4956 344 5044 247 
Q 5159 116 5409 116 
L 5556 116 
L 5556 0 
L 3756 0 
L 3756 116 
L 3906 116 
Q 4178 116 4288 278 
Q 4356 378 4356 734 
L 4356 3566 
L 2722 0 
L 2619 0 
z
" transform="scale(0.015625)"/>
      <path id="TimesNewRomanPSMT-20" transform="scale(0.015625)"/>
      <path id="TimesNewRomanPSMT-54" d="M 3703 4238 
L 3750 3244 
L 3631 3244 
Q 3597 3506 3538 3619 
Q 3441 3800 3280 3886 
Q 3119 3972 2856 3972 
L 2259 3972 
L 2259 734 
Q 2259 344 2344 247 
Q 2463 116 2709 116 
L 2856 116 
L 2856 0 
L 1059 0 
L 1059 116 
L 1209 116 
Q 1478 116 1591 278 
Q 1659 378 1659 734 
L 1659 3972 
L 1150 3972 
Q 853 3972 728 3928 
Q 566 3869 450 3700 
Q 334 3531 313 3244 
L 194 3244 
L 244 4238 
L 3703 4238 
z
" transform="scale(0.015625)"/>
      <path id="TimesNewRomanPSMT-65" d="M 681 1784 
Q 678 1147 991 784 
Q 1303 422 1725 422 
Q 2006 422 2214 576 
Q 2422 731 2563 1106 
L 2659 1044 
Q 2594 616 2278 264 
Q 1963 -88 1488 -88 
Q 972 -88 605 314 
Q 238 716 238 1394 
Q 238 2128 614 2539 
Q 991 2950 1559 2950 
Q 2041 2950 2350 2633 
Q 2659 2316 2659 1784 
L 681 1784 
z
M 681 1966 
L 2006 1966 
Q 1991 2241 1941 2353 
Q 1863 2528 1708 2628 
Q 1553 2728 1384 2728 
Q 1125 2728 920 2526 
Q 716 2325 681 1966 
z
" transform="scale(0.015625)"/>
      <path id="TimesNewRomanPSMT-6d" d="M 1050 2338 
Q 1363 2650 1419 2697 
Q 1559 2816 1721 2881 
Q 1884 2947 2044 2947 
Q 2313 2947 2506 2790 
Q 2700 2634 2766 2338 
Q 3088 2713 3309 2830 
Q 3531 2947 3766 2947 
Q 3994 2947 4170 2830 
Q 4347 2713 4450 2447 
Q 4519 2266 4519 1878 
L 4519 647 
Q 4519 378 4559 278 
Q 4591 209 4675 161 
Q 4759 113 4950 113 
L 4950 0 
L 3538 0 
L 3538 113 
L 3597 113 
Q 3781 113 3884 184 
Q 3956 234 3988 344 
Q 4000 397 4000 647 
L 4000 1878 
Q 4000 2228 3916 2372 
Q 3794 2572 3525 2572 
Q 3359 2572 3192 2489 
Q 3025 2406 2788 2181 
L 2781 2147 
L 2788 2013 
L 2788 647 
Q 2788 353 2820 281 
Q 2853 209 2943 161 
Q 3034 113 3253 113 
L 3253 0 
L 1806 0 
L 1806 113 
Q 2044 113 2133 169 
Q 2222 225 2256 338 
Q 2272 391 2272 647 
L 2272 1878 
Q 2272 2228 2169 2381 
Q 2031 2581 1784 2581 
Q 1616 2581 1450 2491 
Q 1191 2353 1050 2181 
L 1050 647 
Q 1050 366 1089 281 
Q 1128 197 1204 155 
Q 1281 113 1516 113 
L 1516 0 
L 100 0 
L 100 113 
Q 297 113 375 155 
Q 453 197 493 289 
Q 534 381 534 647 
L 534 1741 
Q 534 2213 506 2350 
Q 484 2453 437 2492 
Q 391 2531 309 2531 
Q 222 2531 100 2484 
L 53 2597 
L 916 2947 
L 1050 2947 
L 1050 2338 
z
" transform="scale(0.015625)"/>
      <path id="TimesNewRomanPSMT-70" d="M -6 2578 
L 875 2934 
L 994 2934 
L 994 2266 
Q 1216 2644 1439 2795 
Q 1663 2947 1909 2947 
Q 2341 2947 2628 2609 
Q 2981 2197 2981 1534 
Q 2981 794 2556 309 
Q 2206 -88 1675 -88 
Q 1444 -88 1275 -22 
Q 1150 25 994 166 
L 994 -706 
Q 994 -1000 1030 -1079 
Q 1066 -1159 1155 -1206 
Q 1244 -1253 1478 -1253 
L 1478 -1369 
L -22 -1369 
L -22 -1253 
L 56 -1253 
Q 228 -1256 350 -1188 
Q 409 -1153 442 -1076 
Q 475 -1000 475 -688 
L 475 2019 
Q 475 2297 450 2372 
Q 425 2447 370 2484 
Q 316 2522 222 2522 
Q 147 2522 31 2478 
L -6 2578 
z
M 994 2081 
L 994 1013 
Q 994 666 1022 556 
Q 1066 375 1236 237 
Q 1406 100 1666 100 
Q 1978 100 2172 344 
Q 2425 663 2425 1241 
Q 2425 1897 2138 2250 
Q 1938 2494 1663 2494 
Q 1513 2494 1366 2419 
Q 1253 2363 994 2081 
z
" transform="scale(0.015625)"/>
      <path id="TimesNewRomanPSMT-6c" d="M 1184 4444 
L 1184 647 
Q 1184 378 1223 290 
Q 1263 203 1344 158 
Q 1425 113 1647 113 
L 1647 0 
L 244 0 
L 244 113 
Q 441 113 512 153 
Q 584 194 625 287 
Q 666 381 666 647 
L 666 3247 
Q 666 3731 644 3842 
Q 622 3953 573 3993 
Q 525 4034 450 4034 
Q 369 4034 244 3984 
L 191 4094 
L 1044 4444 
L 1184 4444 
z
" transform="scale(0.015625)"/>
      <path id="TimesNewRomanPSMT-61" d="M 1822 413 
Q 1381 72 1269 19 
Q 1100 -59 909 -59 
Q 613 -59 420 144 
Q 228 347 228 678 
Q 228 888 322 1041 
Q 450 1253 767 1440 
Q 1084 1628 1822 1897 
L 1822 2009 
Q 1822 2438 1686 2597 
Q 1550 2756 1291 2756 
Q 1094 2756 978 2650 
Q 859 2544 859 2406 
L 866 2225 
Q 866 2081 792 2003 
Q 719 1925 600 1925 
Q 484 1925 411 2006 
Q 338 2088 338 2228 
Q 338 2497 613 2722 
Q 888 2947 1384 2947 
Q 1766 2947 2009 2819 
Q 2194 2722 2281 2516 
Q 2338 2381 2338 1966 
L 2338 994 
Q 2338 584 2353 492 
Q 2369 400 2405 369 
Q 2441 338 2488 338 
Q 2538 338 2575 359 
Q 2641 400 2828 588 
L 2828 413 
Q 2478 -56 2159 -56 
Q 2006 -56 1915 50 
Q 1825 156 1822 413 
z
M 1822 616 
L 1822 1706 
Q 1350 1519 1213 1441 
Q 966 1303 859 1153 
Q 753 1003 753 825 
Q 753 600 887 451 
Q 1022 303 1197 303 
Q 1434 303 1822 616 
z
" transform="scale(0.015625)"/>
      <path id="TimesNewRomanPSMT-74" d="M 1031 3803 
L 1031 2863 
L 1700 2863 
L 1700 2644 
L 1031 2644 
L 1031 788 
Q 1031 509 1111 412 
Q 1191 316 1316 316 
Q 1419 316 1516 380 
Q 1613 444 1666 569 
L 1788 569 
Q 1678 263 1478 108 
Q 1278 -47 1066 -47 
Q 922 -47 784 33 
Q 647 113 581 261 
Q 516 409 516 719 
L 516 2644 
L 63 2644 
L 63 2747 
Q 234 2816 414 2980 
Q 594 3144 734 3369 
Q 806 3488 934 3803 
L 1031 3803 
z
" transform="scale(0.015625)"/>
     </defs>
     <use xlink:href="#TimesNewRomanPSMT-45"/>
     <use xlink:href="#TimesNewRomanPSMT-45" x="61.083984"/>
     <use xlink:href="#TimesNewRomanPSMT-4d" x="122.167969"/>
     <use xlink:href="#TimesNewRomanPSMT-20" x="211.083984"/>
     <use xlink:href="#TimesNewRomanPSMT-54" x="234.333984"/>
     <use xlink:href="#TimesNewRomanPSMT-65" x="288.417969"/>
     <use xlink:href="#TimesNewRomanPSMT-6d" x="332.802734"/>
     <use xlink:href="#TimesNewRomanPSMT-70" x="410.585938"/>
     <use xlink:href="#TimesNewRomanPSMT-6c" x="460.585938"/>
     <use xlink:href="#TimesNewRomanPSMT-61" x="488.369141"/>
     <use xlink:href="#TimesNewRomanPSMT-74" x="532.753906"/>
     <use xlink:href="#TimesNewRomanPSMT-65" x="560.537109"/>
     <use xlink:href="#TimesNewRomanPSMT-20" x="604.921875"/>
     <use xlink:href="#TimesNewRomanPSMT-31" x="629.921875"/>
    </g>
   </g>
  </g>
  <g id="axes_2">
   <g id="patch_7">
    <path d="M 394.363636 315 
L 648 315 
L 648 43.2 
L 394.363636 43.2 
z
" style="fill: #e5e5e5"/>
   </g>
   <g id="matplotlib.axis_3">
    <g id="xtick_8">
     <g id="line2d_38">
      <path d="M 405.892562 315 
L 405.892562 43.2 
" clip-path="url(#p799d43aef3)" style="fill: none; stroke: #ffffff; stroke-width: 0.8; stroke-linecap: square"/>
     </g>
     <g id="line2d_39">
      <g>
       <use xlink:href="#mfbba4a8140" x="405.892562" y="315" style="fill: #555555; stroke: #555555; stroke-width: 0.8"/>
      </g>
     </g>
     <g id="text_15">
      <!-- 0 -->
      <g style="fill: #555555" transform="translate(403.392562 328.94375)scale(0.1 -0.1)">
       <use xlink:href="#TimesNewRomanPSMT-30"/>
      </g>
     </g>
    </g>
    <g id="xtick_9">
     <g id="line2d_40">
      <path d="M 444.973666 315 
L 444.973666 43.2 
" clip-path="url(#p799d43aef3)" style="fill: none; stroke: #ffffff; stroke-width: 0.8; stroke-linecap: square"/>
     </g>
     <g id="line2d_41">
      <g>
       <use xlink:href="#mfbba4a8140" x="444.973666" y="315" style="fill: #555555; stroke: #555555; stroke-width: 0.8"/>
      </g>
     </g>
     <g id="text_16">
      <!-- 10 -->
      <g style="fill: #555555" transform="translate(439.973666 328.94375)scale(0.1 -0.1)">
       <use xlink:href="#TimesNewRomanPSMT-31"/>
       <use xlink:href="#TimesNewRomanPSMT-30" x="50"/>
      </g>
     </g>
    </g>
    <g id="xtick_10">
     <g id="line2d_42">
      <path d="M 484.05477 315 
L 484.05477 43.2 
" clip-path="url(#p799d43aef3)" style="fill: none; stroke: #ffffff; stroke-width: 0.8; stroke-linecap: square"/>
     </g>
     <g id="line2d_43">
      <g>
       <use xlink:href="#mfbba4a8140" x="484.05477" y="315" style="fill: #555555; stroke: #555555; stroke-width: 0.8"/>
      </g>
     </g>
     <g id="text_17">
      <!-- 20 -->
      <g style="fill: #555555" transform="translate(479.05477 328.94375)scale(0.1 -0.1)">
       <use xlink:href="#TimesNewRomanPSMT-32"/>
       <use xlink:href="#TimesNewRomanPSMT-30" x="50"/>
      </g>
     </g>
    </g>
    <g id="xtick_11">
     <g id="line2d_44">
      <path d="M 523.135873 315 
L 523.135873 43.2 
" clip-path="url(#p799d43aef3)" style="fill: none; stroke: #ffffff; stroke-width: 0.8; stroke-linecap: square"/>
     </g>
     <g id="line2d_45">
      <g>
       <use xlink:href="#mfbba4a8140" x="523.135873" y="315" style="fill: #555555; stroke: #555555; stroke-width: 0.8"/>
      </g>
     </g>
     <g id="text_18">
      <!-- 30 -->
      <g style="fill: #555555" transform="translate(518.135873 328.94375)scale(0.1 -0.1)">
       <use xlink:href="#TimesNewRomanPSMT-33"/>
       <use xlink:href="#TimesNewRomanPSMT-30" x="50"/>
      </g>
     </g>
    </g>
    <g id="xtick_12">
     <g id="line2d_46">
      <path d="M 562.216977 315 
L 562.216977 43.2 
" clip-path="url(#p799d43aef3)" style="fill: none; stroke: #ffffff; stroke-width: 0.8; stroke-linecap: square"/>
     </g>
     <g id="line2d_47">
      <g>
       <use xlink:href="#mfbba4a8140" x="562.216977" y="315" style="fill: #555555; stroke: #555555; stroke-width: 0.8"/>
      </g>
     </g>
     <g id="text_19">
      <!-- 40 -->
      <g style="fill: #555555" transform="translate(557.216977 328.94375)scale(0.1 -0.1)">
       <use xlink:href="#TimesNewRomanPSMT-34"/>
       <use xlink:href="#TimesNewRomanPSMT-30" x="50"/>
      </g>
     </g>
    </g>
    <g id="xtick_13">
     <g id="line2d_48">
      <path d="M 601.298081 315 
L 601.298081 43.2 
" clip-path="url(#p799d43aef3)" style="fill: none; stroke: #ffffff; stroke-width: 0.8; stroke-linecap: square"/>
     </g>
     <g id="line2d_49">
      <g>
       <use xlink:href="#mfbba4a8140" x="601.298081" y="315" style="fill: #555555; stroke: #555555; stroke-width: 0.8"/>
      </g>
     </g>
     <g id="text_20">
      <!-- 50 -->
      <g style="fill: #555555" transform="translate(596.298081 328.94375)scale(0.1 -0.1)">
       <use xlink:href="#TimesNewRomanPSMT-35"/>
       <use xlink:href="#TimesNewRomanPSMT-30" x="50"/>
      </g>
     </g>
    </g>
    <g id="xtick_14">
     <g id="line2d_50">
      <path d="M 640.379185 315 
L 640.379185 43.2 
" clip-path="url(#p799d43aef3)" style="fill: none; stroke: #ffffff; stroke-width: 0.8; stroke-linecap: square"/>
     </g>
     <g id="line2d_51">
      <g>
       <use xlink:href="#mfbba4a8140" x="640.379185" y="315" style="fill: #555555; stroke: #555555; stroke-width: 0.8"/>
      </g>
     </g>
     <g id="text_21">
      <!-- 60 -->
      <g style="fill: #555555" transform="translate(635.379185 328.94375)scale(0.1 -0.1)">
       <use xlink:href="#TimesNewRomanPSMT-36"/>
       <use xlink:href="#TimesNewRomanPSMT-30" x="50"/>
      </g>
     </g>
    </g>
   </g>
   <g id="matplotlib.axis_4">
    <g id="ytick_7">
     <g id="line2d_52">
      <path d="M 394.363636 302.645455 
L 648 302.645455 
" clip-path="url(#p799d43aef3)" style="fill: none; stroke: #ffffff; stroke-width: 0.8; stroke-linecap: square"/>
     </g>
     <g id="line2d_53">
      <g>
       <use xlink:href="#me450e54076" x="394.363636" y="302.645455" style="fill: #555555; stroke: #555555; stroke-width: 0.8"/>
      </g>
     </g>
     <g id="text_22">
      <!-- 0.0 -->
      <g style="fill: #555555" transform="translate(374.863636 306.11733)scale(0.1 -0.1)">
       <use xlink:href="#TimesNewRomanPSMT-30"/>
       <use xlink:href="#TimesNewRomanPSMT-2e" x="50"/>
       <use xlink:href="#TimesNewRomanPSMT-30" x="75"/>
      </g>
     </g>
    </g>
    <g id="ytick_8">
     <g id="line2d_54">
      <path d="M 394.363636 253.227273 
L 648 253.227273 
" clip-path="url(#p799d43aef3)" style="fill: none; stroke: #ffffff; stroke-width: 0.8; stroke-linecap: square"/>
     </g>
     <g id="line2d_55">
      <g>
       <use xlink:href="#me450e54076" x="394.363636" y="253.227273" style="fill: #555555; stroke: #555555; stroke-width: 0.8"/>
      </g>
     </g>
     <g id="text_23">
      <!-- 0.2 -->
      <g style="fill: #555555" transform="translate(374.863636 256.699148)scale(0.1 -0.1)">
       <use xlink:href="#TimesNewRomanPSMT-30"/>
       <use xlink:href="#TimesNewRomanPSMT-2e" x="50"/>
       <use xlink:href="#TimesNewRomanPSMT-32" x="75"/>
      </g>
     </g>
    </g>
    <g id="ytick_9">
     <g id="line2d_56">
      <path d="M 394.363636 203.809091 
L 648 203.809091 
" clip-path="url(#p799d43aef3)" style="fill: none; stroke: #ffffff; stroke-width: 0.8; stroke-linecap: square"/>
     </g>
     <g id="line2d_57">
      <g>
       <use xlink:href="#me450e54076" x="394.363636" y="203.809091" style="fill: #555555; stroke: #555555; stroke-width: 0.8"/>
      </g>
     </g>
     <g id="text_24">
      <!-- 0.4 -->
      <g style="fill: #555555" transform="translate(374.863636 207.280966)scale(0.1 -0.1)">
       <use xlink:href="#TimesNewRomanPSMT-30"/>
       <use xlink:href="#TimesNewRomanPSMT-2e" x="50"/>
       <use xlink:href="#TimesNewRomanPSMT-34" x="75"/>
      </g>
     </g>
    </g>
    <g id="ytick_10">
     <g id="line2d_58">
      <path d="M 394.363636 154.390909 
L 648 154.390909 
" clip-path="url(#p799d43aef3)" style="fill: none; stroke: #ffffff; stroke-width: 0.8; stroke-linecap: square"/>
     </g>
     <g id="line2d_59">
      <g>
       <use xlink:href="#me450e54076" x="394.363636" y="154.390909" style="fill: #555555; stroke: #555555; stroke-width: 0.8"/>
      </g>
     </g>
     <g id="text_25">
      <!-- 0.6 -->
      <g style="fill: #555555" transform="translate(374.863636 157.862784)scale(0.1 -0.1)">
       <use xlink:href="#TimesNewRomanPSMT-30"/>
       <use xlink:href="#TimesNewRomanPSMT-2e" x="50"/>
       <use xlink:href="#TimesNewRomanPSMT-36" x="75"/>
      </g>
     </g>
    </g>
    <g id="ytick_11">
     <g id="line2d_60">
      <path d="M 394.363636 104.972727 
L 648 104.972727 
" clip-path="url(#p799d43aef3)" style="fill: none; stroke: #ffffff; stroke-width: 0.8; stroke-linecap: square"/>
     </g>
     <g id="line2d_61">
      <g>
       <use xlink:href="#me450e54076" x="394.363636" y="104.972727" style="fill: #555555; stroke: #555555; stroke-width: 0.8"/>
      </g>
     </g>
     <g id="text_26">
      <!-- 0.8 -->
      <g style="fill: #555555" transform="translate(374.863636 108.444602)scale(0.1 -0.1)">
       <use xlink:href="#TimesNewRomanPSMT-30"/>
       <use xlink:href="#TimesNewRomanPSMT-2e" x="50"/>
       <use xlink:href="#TimesNewRomanPSMT-38" x="75"/>
      </g>
     </g>
    </g>
    <g id="ytick_12">
     <g id="line2d_62">
      <path d="M 394.363636 55.554545 
L 648 55.554545 
" clip-path="url(#p799d43aef3)" style="fill: none; stroke: #ffffff; stroke-width: 0.8; stroke-linecap: square"/>
     </g>
     <g id="line2d_63">
      <g>
       <use xlink:href="#me450e54076" x="394.363636" y="55.554545" style="fill: #555555; stroke: #555555; stroke-width: 0.8"/>
      </g>
     </g>
     <g id="text_27">
      <!-- 1.0 -->
      <g style="fill: #555555" transform="translate(374.863636 59.02642)scale(0.1 -0.1)">
       <use xlink:href="#TimesNewRomanPSMT-31"/>
       <use xlink:href="#TimesNewRomanPSMT-2e" x="50"/>
       <use xlink:href="#TimesNewRomanPSMT-30" x="75"/>
      </g>
     </g>
    </g>
   </g>
   <g id="line2d_64">
    <path d="M 405.892562 251.987421 
L 409.800672 242.000244 
L 413.708783 224.66705 
L 417.616893 225.432197 
L 421.525004 254.58406 
L 425.433114 251.38507 
L 429.341224 203.465082 
L 433.249335 222.799802 
L 437.157445 267.65943 
L 441.065555 223.214512 
L 444.973666 222.415816 
L 448.881776 186.982843 
L 452.789887 221.680693 
L 456.697997 238.321666 
L 460.606107 265.500254 
L 464.514218 258.491673 
L 468.422328 302.645455 
L 472.330438 286.407041 
L 476.238549 255.474653 
L 480.146659 221.653694 
L 484.05477 277.335434 
L 487.96288 264.523511 
L 491.87099 248.838204 
L 495.779101 224.947591 
L 499.687211 197.420814 
L 503.595321 193.665126 
L 507.503432 161.638477 
L 511.411542 143.584664 
L 515.319653 128.649623 
L 519.227763 100.172504 
L 523.135873 98.023919 
L 527.043984 110.335746 
L 530.952094 118.320585 
L 534.860205 107.644514 
L 538.768315 77.734924 
L 542.676425 59.618682 
L 546.584536 90.916432 
L 550.492646 91.035259 
L 554.400756 97.249504 
L 558.308867 137.943981 
L 562.216977 102.970429 
L 566.125088 79.705357 
L 570.033198 81.462193 
L 573.941308 99.114034 
L 577.849419 106.05662 
L 581.757529 125.125344 
L 585.665639 121.681182 
L 589.57375 157.39219 
L 593.48186 142.714516 
L 597.389971 117.503973 
L 601.298081 123.662377 
L 605.206191 120.635775 
L 609.114302 106.204863 
L 613.022412 121.882611 
L 616.930522 109.475629 
L 620.838633 95.99814 
L 624.746743 103.462828 
L 628.654854 108.226716 
L 632.562964 63.421492 
L 636.471074 55.554545 
" clip-path="url(#p799d43aef3)" style="fill: none; stroke: #000000; stroke-opacity: 0.2; stroke-width: 1.5; stroke-linecap: square"/>
   </g>
   <g id="line2d_65">
    <path d="M 405.892562 246.54192 
L 409.800672 288.505881 
L 413.708783 250.63023 
L 417.616893 218.782531 
L 421.525004 230.976717 
L 425.433114 232.438252 
L 429.341224 275.738725 
L 433.249335 246.294472 
L 437.157445 234.022906 
L 441.065555 302.645455 
L 444.973666 285.579189 
L 448.881776 258.315381 
L 452.789887 287.029834 
L 456.697997 235.312374 
L 460.606107 188.955767 
L 464.514218 174.532211 
L 468.422328 151.411858 
L 472.330438 171.726013 
L 476.238549 196.8632 
L 480.146659 194.630162 
L 484.05477 218.005613 
L 487.96288 216.39739 
L 491.87099 162.004342 
L 495.779101 193.446118 
L 499.687211 203.903049 
L 503.595321 214.154595 
L 507.503432 216.228793 
L 511.411542 244.667062 
L 515.319653 237.743687 
L 519.227763 226.234376 
L 523.135873 240.413272 
L 527.043984 193.449861 
L 530.952094 166.183521 
L 534.860205 139.266337 
L 538.768315 142.265045 
L 542.676425 147.489971 
L 546.584536 171.121344 
L 550.492646 142.886502 
L 554.400756 171.927504 
L 558.308867 177.35664 
L 562.216977 138.668081 
L 566.125088 144.227613 
L 570.033198 132.772586 
L 573.941308 228.582155 
L 577.849419 147.599663 
L 581.757529 133.016116 
L 585.665639 88.375146 
L 589.57375 87.341628 
L 593.48186 66.840403 
L 597.389971 90.017847 
L 601.298081 55.554545 
L 605.206191 88.930148 
L 609.114302 114.107278 
L 613.022412 202.126626 
L 616.930522 170.484738 
L 620.838633 123.412128 
L 624.746743 202.664471 
L 628.654854 234.365265 
L 632.562964 250.177778 
L 636.471074 203.413241 
" clip-path="url(#p799d43aef3)" style="fill: none; stroke: #000000; stroke-opacity: 0.2; stroke-width: 1.5; stroke-linecap: square"/>
   </g>
   <g id="line2d_66">
    <path d="M 405.892562 119.450623 
L 409.800672 118.643392 
L 413.708783 84.54451 
L 417.616893 127.14151 
L 421.525004 176.139319 
L 425.433114 208.946741 
L 429.341224 194.280031 
L 433.249335 226.211242 
L 437.157445 227.709752 
L 441.065555 236.841705 
L 444.973666 251.922361 
L 448.881776 209.036481 
L 452.789887 197.142374 
L 456.697997 206.994077 
L 460.606107 277.557196 
L 464.514218 290.575568 
L 468.422328 302.645455 
L 472.330438 252.566382 
L 476.238549 257.41005 
L 480.146659 217.392923 
L 484.05477 238.585794 
L 487.96288 238.260281 
L 491.87099 198.739387 
L 495.779101 195.018319 
L 499.687211 190.153368 
L 503.595321 204.628336 
L 507.503432 202.542864 
L 511.411542 238.943586 
L 515.319653 222.587677 
L 519.227763 235.350941 
L 523.135873 219.135933 
L 527.043984 193.307992 
L 530.952094 177.02151 
L 534.860205 176.472228 
L 538.768315 185.826405 
L 542.676425 144.68993 
L 546.584536 145.874579 
L 550.492646 138.069751 
L 554.400756 127.926887 
L 558.308867 129.061768 
L 562.216977 135.675038 
L 566.125088 148.156127 
L 570.033198 127.041693 
L 573.941308 110.431447 
L 577.849419 124.862372 
L 581.757529 146.777308 
L 585.665639 140.24361 
L 589.57375 128.983825 
L 593.48186 154.481652 
L 597.389971 158.160248 
L 601.298081 149.839621 
L 605.206191 120.693527 
L 609.114302 116.003446 
L 613.022412 112.341869 
L 616.930522 69.712018 
L 620.838633 72.628211 
L 624.746743 58.750674 
L 628.654854 55.554545 
L 632.562964 72.255493 
L 636.471074 66.614064 
" clip-path="url(#p799d43aef3)" style="fill: none; stroke: #000000; stroke-opacity: 0.2; stroke-width: 1.5; stroke-linecap: square"/>
   </g>
   <g id="line2d_67">
    <path d="M 405.892562 200.716633 
L 409.800672 183.817428 
L 413.708783 155.335449 
L 417.616893 180.138803 
L 421.525004 230.000564 
L 425.433114 248.07743 
L 429.341224 261.126248 
L 433.249335 263.27348 
L 437.157445 255.697282 
L 441.065555 302.645455 
L 444.973666 302.082767 
L 448.881776 273.147291 
L 452.789887 235.403317 
L 456.697997 230.303967 
L 460.606107 221.607802 
L 464.514218 236.304573 
L 468.422328 212.073727 
L 472.330438 250.410403 
L 476.238549 249.30718 
L 480.146659 251.832737 
L 484.05477 282.331927 
L 487.96288 295.432494 
L 491.87099 271.252387 
L 495.779101 286.746133 
L 499.687211 276.878862 
L 503.595321 262.892115 
L 507.503432 194.05542 
L 511.411542 195.255936 
L 515.319653 183.149552 
L 519.227763 135.734506 
L 523.135873 143.684376 
L 527.043984 148.590838 
L 530.952094 109.549485 
L 534.860205 119.544959 
L 538.768315 108.267037 
L 542.676425 116.653439 
L 546.584536 150.47123 
L 550.492646 114.404427 
L 554.400756 109.204788 
L 558.308867 55.554545 
L 562.216977 73.239731 
L 566.125088 87.372005 
L 570.033198 100.26361 
L 573.941308 85.589684 
L 577.849419 103.563799 
L 581.757529 131.461215 
L 585.665639 117.213447 
L 589.57375 92.102315 
L 593.48186 120.725681 
L 597.389971 177.713999 
L 601.298081 144.03817 
L 605.206191 140.639911 
L 609.114302 115.787771 
L 613.022412 94.962243 
L 616.930522 90.177373 
L 620.838633 94.791568 
L 624.746743 100.019252 
L 628.654854 103.266291 
L 632.562964 111.325772 
L 636.471074 140.401571 
" clip-path="url(#p799d43aef3)" style="fill: none; stroke: #000000; stroke-opacity: 0.2; stroke-width: 1.5; stroke-linecap: square"/>
   </g>
   <g id="line2d_68">
    <path d="M 405.892562 209.236263 
L 409.800672 206.999969 
L 413.708783 243.403192 
L 417.616893 249.300025 
L 421.525004 224.191236 
L 425.433114 243.400516 
L 429.341224 268.118745 
L 433.249335 245.121116 
L 437.157445 248.064028 
L 441.065555 226.785035 
L 444.973666 248.406816 
L 448.881776 207.665698 
L 452.789887 182.240625 
L 456.697997 166.854564 
L 460.606107 169.079774 
L 464.514218 145.13681 
L 468.422328 144.932 
L 472.330438 149.819643 
L 476.238549 120.709295 
L 480.146659 126.166968 
L 484.05477 150.837476 
L 487.96288 158.137007 
L 491.87099 146.259709 
L 495.779101 115.502582 
L 499.687211 120.793157 
L 503.595321 116.408721 
L 507.503432 97.896962 
L 511.411542 120.884045 
L 515.319653 122.903625 
L 519.227763 104.869309 
L 523.135873 120.259539 
L 527.043984 96.730991 
L 530.952094 61.164895 
L 534.860205 67.65604 
L 538.768315 55.554545 
L 542.676425 77.753631 
L 546.584536 143.236623 
L 550.492646 213.358573 
L 554.400756 159.208612 
L 558.308867 166.468768 
L 562.216977 157.218014 
L 566.125088 220.544373 
L 570.033198 229.916301 
L 573.941308 235.508714 
L 577.849419 212.193285 
L 581.757529 263.003621 
L 585.665639 222.312007 
L 589.57375 302.645455 
L 593.48186 247.966805 
L 597.389971 195.818179 
L 601.298081 237.849139 
L 605.206191 229.828431 
L 609.114302 276.718608 
L 613.022412 223.685977 
L 616.930522 189.612922 
L 620.838633 156.383766 
L 624.746743 127.58248 
L 628.654854 128.437014 
L 632.562964 134.684117 
L 636.471074 134.320773 
" clip-path="url(#p799d43aef3)" style="fill: none; stroke: #000000; stroke-opacity: 0.2; stroke-width: 1.5; stroke-linecap: square"/>
   </g>
   <g id="line2d_69">
    <path d="M 405.892562 222.713841 
L 409.800672 179.036863 
L 413.708783 188.624726 
L 417.616893 211.160484 
L 421.525004 175.454261 
L 425.433114 141.542703 
L 429.341224 137.972943 
L 433.249335 235.146412 
L 437.157445 258.581092 
L 441.065555 227.114177 
L 444.973666 229.810081 
L 448.881776 208.069918 
L 452.789887 180.890819 
L 456.697997 143.170547 
L 460.606107 168.388616 
L 464.514218 155.881765 
L 468.422328 156.648059 
L 472.330438 133.992737 
L 476.238549 120.505749 
L 480.146659 147.225716 
L 484.05477 122.988623 
L 487.96288 90.668069 
L 491.87099 68.770697 
L 495.779101 55.554545 
L 499.687211 77.918105 
L 503.595321 151.992883 
L 507.503432 139.213888 
L 511.411542 180.0411 
L 515.319653 140.844411 
L 519.227763 202.613451 
L 523.135873 223.461868 
L 527.043984 250.633092 
L 530.952094 135.336422 
L 534.860205 172.165382 
L 538.768315 187.819387 
L 542.676425 248.386114 
L 546.584536 286.163797 
L 550.492646 197.575076 
L 554.400756 302.645455 
L 558.308867 270.767534 
L 562.216977 269.782188 
L 566.125088 205.984014 
L 570.033198 182.170808 
L 573.941308 198.267979 
L 577.849419 206.813581 
L 581.757529 209.681671 
L 585.665639 199.406828 
L 589.57375 134.033722 
L 593.48186 136.060345 
L 597.389971 116.220689 
L 601.298081 125.636239 
L 605.206191 102.723221 
L 609.114302 114.664288 
L 613.022412 143.456831 
L 616.930522 117.203576 
L 620.838633 147.801186 
L 624.746743 151.181507 
L 628.654854 129.989292 
L 632.562964 77.862615 
L 636.471074 94.338248 
" clip-path="url(#p799d43aef3)" style="fill: none; stroke: #000000; stroke-opacity: 0.2; stroke-width: 1.5; stroke-linecap: square"/>
   </g>
   <g id="line2d_70">
    <path d="M 405.892562 224.515575 
L 409.800672 231.019716 
L 413.708783 209.609775 
L 417.616893 211.020176 
L 421.525004 201.076 
L 425.433114 259.028851 
L 429.341224 278.875185 
L 433.249335 261.495501 
L 437.157445 302.645455 
L 441.065555 268.344483 
L 444.973666 240.359117 
L 448.881776 257.791531 
L 452.789887 246.305108 
L 456.697997 225.195824 
L 460.606107 256.723039 
L 464.514218 216.532255 
L 468.422328 266.166937 
L 472.330438 288.989781 
L 476.238549 265.350804 
L 480.146659 243.102242 
L 484.05477 248.624144 
L 487.96288 233.385838 
L 491.87099 249.94826 
L 495.779101 252.931987 
L 499.687211 278.91827 
L 503.595321 226.812781 
L 507.503432 202.889031 
L 511.411542 210.045409 
L 515.319653 218.362096 
L 519.227763 200.96711 
L 523.135873 212.814006 
L 527.043984 165.040035 
L 530.952094 155.839477 
L 534.860205 152.343097 
L 538.768315 180.675409 
L 542.676425 160.771633 
L 546.584536 153.087163 
L 550.492646 163.945768 
L 554.400756 166.163791 
L 558.308867 155.020262 
L 562.216977 132.332543 
L 566.125088 129.237615 
L 570.033198 165.115752 
L 573.941308 171.371982 
L 577.849419 132.160909 
L 581.757529 154.83256 
L 585.665639 148.471329 
L 589.57375 142.695359 
L 593.48186 94.661511 
L 597.389971 106.647077 
L 601.298081 102.467229 
L 605.206191 96.540456 
L 609.114302 94.859194 
L 613.022412 88.802727 
L 616.930522 56.96089 
L 620.838633 55.554545 
L 624.746743 79.050805 
L 628.654854 81.654129 
L 632.562964 90.453213 
L 636.471074 56.680743 
" clip-path="url(#p799d43aef3)" style="fill: none; stroke: #000000; stroke-opacity: 0.2; stroke-width: 1.5; stroke-linecap: square"/>
   </g>
   <g id="line2d_71">
    <path d="M 405.892562 260.153634 
L 409.800672 245.396959 
L 413.708783 277.555561 
L 417.616893 251.801246 
L 421.525004 302.645455 
L 425.433114 268.038541 
L 429.341224 235.032916 
L 433.249335 261.634923 
L 437.157445 256.5585 
L 441.065555 286.235976 
L 444.973666 252.670852 
L 448.881776 231.105519 
L 452.789887 210.074302 
L 456.697997 191.845549 
L 460.606107 192.386396 
L 464.514218 196.340278 
L 468.422328 196.110312 
L 472.330438 209.122567 
L 476.238549 189.48522 
L 480.146659 188.554331 
L 484.05477 186.457544 
L 487.96288 190.707213 
L 491.87099 198.615344 
L 495.779101 187.392433 
L 499.687211 168.560589 
L 503.595321 166.324429 
L 507.503432 166.564907 
L 511.411542 167.976832 
L 515.319653 154.284015 
L 519.227763 155.502536 
L 523.135873 157.252769 
L 527.043984 166.491867 
L 530.952094 178.598952 
L 534.860205 175.051292 
L 538.768315 139.935398 
L 542.676425 143.488369 
L 546.584536 133.217359 
L 550.492646 121.668092 
L 554.400756 136.46834 
L 558.308867 147.212773 
L 562.216977 133.046877 
L 566.125088 125.941739 
L 570.033198 108.51044 
L 573.941308 119.584991 
L 577.849419 125.897321 
L 581.757529 130.984493 
L 585.665639 134.335509 
L 589.57375 122.424818 
L 593.48186 100.32313 
L 597.389971 101.697566 
L 601.298081 110.087741 
L 605.206191 110.488381 
L 609.114302 126.829764 
L 613.022412 122.637547 
L 616.930522 122.719093 
L 620.838633 123.772304 
L 624.746743 123.993401 
L 628.654854 71.325308 
L 632.562964 60.917895 
L 636.471074 55.554545 
" clip-path="url(#p799d43aef3)" style="fill: none; stroke: #000000; stroke-opacity: 0.2; stroke-width: 1.5; stroke-linecap: square"/>
   </g>
   <g id="line2d_72">
    <path d="M 405.892562 242.469521 
L 409.800672 203.726003 
L 413.708783 207.926943 
L 417.616893 208.984681 
L 421.525004 223.316732 
L 425.433114 215.038683 
L 429.341224 216.161056 
L 433.249335 213.675104 
L 437.157445 200.242201 
L 441.065555 241.724898 
L 444.973666 198.751793 
L 448.881776 199.244968 
L 452.789887 226.045911 
L 456.697997 248.800823 
L 460.606107 300.526125 
L 464.514218 288.874767 
L 468.422328 302.645455 
L 472.330438 270.872151 
L 476.238549 273.126834 
L 480.146659 227.295207 
L 484.05477 212.02562 
L 487.96288 227.714079 
L 491.87099 217.439317 
L 495.779101 209.760931 
L 499.687211 242.029431 
L 503.595321 224.585417 
L 507.503432 239.457662 
L 511.411542 226.115119 
L 515.319653 217.46153 
L 519.227763 246.369076 
L 523.135873 216.74304 
L 527.043984 210.186306 
L 530.952094 213.555443 
L 534.860205 170.521755 
L 538.768315 163.829405 
L 542.676425 149.397043 
L 546.584536 159.723768 
L 550.492646 185.120405 
L 554.400756 190.216436 
L 558.308867 203.516533 
L 562.216977 193.995476 
L 566.125088 186.913276 
L 570.033198 187.579358 
L 573.941308 169.359666 
L 577.849419 117.760261 
L 581.757529 111.094826 
L 585.665639 119.393343 
L 589.57375 107.771361 
L 593.48186 131.298732 
L 597.389971 154.022397 
L 601.298081 121.482441 
L 605.206191 149.082605 
L 609.114302 132.852044 
L 613.022412 134.248773 
L 616.930522 105.90491 
L 620.838633 106.01696 
L 624.746743 90.942528 
L 628.654854 65.468945 
L 632.562964 55.554545 
L 636.471074 56.212843 
" clip-path="url(#p799d43aef3)" style="fill: none; stroke: #000000; stroke-opacity: 0.2; stroke-width: 1.5; stroke-linecap: square"/>
   </g>
   <g id="line2d_73">
    <path d="M 405.892562 302.645455 
L 409.800672 290.426298 
L 413.708783 230.288921 
L 417.616893 231.337721 
L 421.525004 220.761294 
L 425.433114 179.33838 
L 429.341224 186.283576 
L 433.249335 190.569979 
L 437.157445 156.462521 
L 441.065555 165.194805 
L 444.973666 155.342145 
L 448.881776 162.668705 
L 452.789887 192.212734 
L 456.697997 160.703915 
L 460.606107 156.161386 
L 464.514218 109.291255 
L 468.422328 124.741455 
L 472.330438 137.087746 
L 476.238549 148.35016 
L 480.146659 135.530668 
L 484.05477 151.233284 
L 487.96288 175.605131 
L 491.87099 163.157941 
L 495.779101 141.220258 
L 499.687211 166.226313 
L 503.595321 216.012666 
L 507.503432 186.592659 
L 511.411542 183.623858 
L 515.319653 161.912437 
L 519.227763 143.718759 
L 523.135873 139.538582 
L 527.043984 143.569653 
L 530.952094 148.136683 
L 534.860205 150.973373 
L 538.768315 158.014328 
L 542.676425 183.41564 
L 546.584536 206.285962 
L 550.492646 191.352845 
L 554.400756 166.103986 
L 558.308867 142.428445 
L 562.216977 144.132227 
L 566.125088 118.105217 
L 570.033198 112.880525 
L 573.941308 96.763443 
L 577.849419 97.893063 
L 581.757529 104.116286 
L 585.665639 88.6212 
L 589.57375 55.604215 
L 593.48186 65.793877 
L 597.389971 63.030368 
L 601.298081 76.411123 
L 605.206191 55.554545 
L 609.114302 78.268008 
L 613.022412 105.468974 
L 616.930522 98.655929 
L 620.838633 81.06655 
L 624.746743 78.832631 
L 628.654854 70.897008 
L 632.562964 109.871157 
L 636.471074 108.242864 
" clip-path="url(#p799d43aef3)" style="fill: none; stroke: #000000; stroke-opacity: 0.2; stroke-width: 1.5; stroke-linecap: square"/>
   </g>
   <g id="line2d_74">
    <path d="M 405.892562 249.978602 
L 409.800672 197.726659 
L 413.708783 237.182181 
L 417.616893 267.240007 
L 421.525004 259.515691 
L 425.433114 262.3007 
L 429.341224 288.600875 
L 433.249335 273.894326 
L 437.157445 276.145497 
L 441.065555 284.26845 
L 444.973666 254.957814 
L 448.881776 232.854041 
L 452.789887 252.452853 
L 456.697997 244.290408 
L 460.606107 220.812566 
L 464.514218 203.003205 
L 468.422328 184.268999 
L 472.330438 196.911117 
L 476.238549 220.684065 
L 480.146659 189.850812 
L 484.05477 166.028422 
L 487.96288 136.332115 
L 491.87099 166.357042 
L 495.779101 180.181485 
L 499.687211 147.380653 
L 503.595321 175.323519 
L 507.503432 221.844977 
L 511.411542 177.415795 
L 515.319653 146.408699 
L 519.227763 126.624615 
L 523.135873 105.050266 
L 527.043984 122.470093 
L 530.952094 122.743443 
L 534.860205 135.679579 
L 538.768315 121.671445 
L 542.676425 121.693153 
L 546.584536 121.710139 
L 550.492646 121.675059 
L 554.400756 121.675059 
L 558.308867 121.492894 
L 562.216977 121.587528 
L 566.125088 123.980759 
L 570.033198 111.552542 
L 573.941308 86.077111 
L 577.849419 112.86247 
L 581.757529 113.10079 
L 585.665639 113.141511 
L 589.57375 115.937828 
L 593.48186 114.445493 
L 597.389971 109.687412 
L 601.298081 81.261252 
L 605.206191 107.405885 
L 609.114302 119.998795 
L 613.022412 117.983937 
L 616.930522 131.281638 
L 620.838633 121.586367 
L 624.746743 185.425557 
L 628.654854 136.390529 
L 632.562964 147.3714 
L 636.471074 87.086594 
" clip-path="url(#p799d43aef3)" style="fill: none; stroke: #ff0000; stroke-width: 2; stroke-linecap: square"/>
   </g>
   <g id="patch_8">
    <path d="M 394.363636 315 
L 394.363636 43.2 
" style="fill: none; stroke: #ffffff; stroke-linejoin: miter; stroke-linecap: square"/>
   </g>
   <g id="patch_9">
    <path d="M 648 315 
L 648 43.2 
" style="fill: none; stroke: #ffffff; stroke-linejoin: miter; stroke-linecap: square"/>
   </g>
   <g id="patch_10">
    <path d="M 394.363636 315 
L 648 315 
" style="fill: none; stroke: #ffffff; stroke-linejoin: miter; stroke-linecap: square"/>
   </g>
   <g id="patch_11">
    <path d="M 394.363636 43.2 
L 648 43.2 
" style="fill: none; stroke: #ffffff; stroke-linejoin: miter; stroke-linecap: square"/>
   </g>
   <g id="text_28">
    <!-- EEM Template 2 -->
    <g transform="translate(487.185724 37.2)scale(0.1 -0.1)">
     <use xlink:href="#TimesNewRomanPSMT-45"/>
     <use xlink:href="#TimesNewRomanPSMT-45" x="61.083984"/>
     <use xlink:href="#TimesNewRomanPSMT-4d" x="122.167969"/>
     <use xlink:href="#TimesNewRomanPSMT-20" x="211.083984"/>
     <use xlink:href="#TimesNewRomanPSMT-54" x="234.333984"/>
     <use xlink:href="#TimesNewRomanPSMT-65" x="288.417969"/>
     <use xlink:href="#TimesNewRomanPSMT-6d" x="332.802734"/>
     <use xlink:href="#TimesNewRomanPSMT-70" x="410.585938"/>
     <use xlink:href="#TimesNewRomanPSMT-6c" x="460.585938"/>
     <use xlink:href="#TimesNewRomanPSMT-61" x="488.369141"/>
     <use xlink:href="#TimesNewRomanPSMT-74" x="532.753906"/>
     <use xlink:href="#TimesNewRomanPSMT-65" x="560.537109"/>
     <use xlink:href="#TimesNewRomanPSMT-20" x="604.921875"/>
     <use xlink:href="#TimesNewRomanPSMT-32" x="629.921875"/>
    </g>
   </g>
  </g>
 </g>
 <defs>
  <clipPath id="pc1695a1f0f">
   <rect x="90" y="43.2" width="253.636364" height="271.8"/>
  </clipPath>
  <clipPath id="p799d43aef3">
   <rect x="394.363636" y="43.2" width="253.636364" height="271.8"/>
  </clipPath>
 </defs>
</svg>
