<?xml version="1.0" encoding="utf-8" standalone="no"?>
<!DOCTYPE svg PUBLIC "-//W3C//DTD SVG 1.1//EN"
  "http://www.w3.org/Graphics/SVG/1.1/DTD/svg11.dtd">
<svg xmlns:xlink="http://www.w3.org/1999/xlink" width="720pt" height="360pt" viewBox="0 0 720 360" xmlns="http://www.w3.org/2000/svg" version="1.1">
 <metadata>
  <rdf:RDF xmlns:dc="http://purl.org/dc/elements/1.1/" xmlns:cc="http://creativecommons.org/ns#" xmlns:rdf="http://www.w3.org/1999/02/22-rdf-syntax-ns#">
   <cc:Work>
    <dc:type rdf:resource="http://purl.org/dc/dcmitype/StillImage"/>
    <dc:date>2022-02-26T19:19:32.535726</dc:date>
    <dc:format>image/svg+xml</dc:format>
    <dc:creator>
     <cc:Agent>
      <dc:title>Matplotlib v3.5.0, https://matplotlib.org/</dc:title>
     </cc:Agent>
    </dc:creator>
   </cc:Work>
  </rdf:RDF>
 </metadata>
 <defs>
  <style type="text/css">*{stroke-linejoin: round; stroke-linecap: butt}</style>
 </defs>
 <g id="figure_1">
  <g id="patch_1">
   <path d="M 0 360 
L 720 360 
L 720 0 
L 0 0 
z
" style="fill: #ffffff"/>
  </g>
  <g id="axes_1">
   <g id="patch_2">
    <path d="M 90 315 
L 343.636364 315 
L 343.636364 43.2 
L 90 43.2 
z
" style="fill: #e5e5e5"/>
   </g>
   <g id="matplotlib.axis_1">
    <g id="xtick_1">
     <g id="line2d_1">
      <path d="M 101.528926 315 
L 101.528926 43.2 
" clip-path="url(#p5488c7ac9a)" style="fill: none; stroke: #ffffff; stroke-width: 0.8; stroke-linecap: square"/>
     </g>
     <g id="line2d_2">
      <defs>
       <path id="m2871638f44" d="M 0 0 
L 0 3.5 
" style="stroke: #555555; stroke-width: 0.8"/>
      </defs>
      <g>
       <use xlink:href="#m2871638f44" x="101.528926" y="315" style="fill: #555555; stroke: #555555; stroke-width: 0.8"/>
      </g>
     </g>
     <g id="text_1">
      <!-- 0 -->
      <g style="fill: #555555" transform="translate(99.028926 328.94375)scale(0.1 -0.1)">
       <defs>
        <path id="TimesNewRomanPSMT-30" d="M 231 2094 
Q 231 2819 450 3342 
Q 669 3866 1031 4122 
Q 1313 4325 1613 4325 
Q 2100 4325 2488 3828 
Q 2972 3213 2972 2159 
Q 2972 1422 2759 906 
Q 2547 391 2217 158 
Q 1888 -75 1581 -75 
Q 975 -75 572 641 
Q 231 1244 231 2094 
z
M 844 2016 
Q 844 1141 1059 588 
Q 1238 122 1591 122 
Q 1759 122 1940 273 
Q 2122 425 2216 781 
Q 2359 1319 2359 2297 
Q 2359 3022 2209 3506 
Q 2097 3866 1919 4016 
Q 1791 4119 1609 4119 
Q 1397 4119 1231 3928 
Q 1006 3669 925 3112 
Q 844 2556 844 2016 
z
" transform="scale(0.015625)"/>
       </defs>
       <use xlink:href="#TimesNewRomanPSMT-30"/>
      </g>
     </g>
    </g>
    <g id="xtick_2">
     <g id="line2d_3">
      <path d="M 140.610029 315 
L 140.610029 43.2 
" clip-path="url(#p5488c7ac9a)" style="fill: none; stroke: #ffffff; stroke-width: 0.8; stroke-linecap: square"/>
     </g>
     <g id="line2d_4">
      <g>
       <use xlink:href="#m2871638f44" x="140.610029" y="315" style="fill: #555555; stroke: #555555; stroke-width: 0.8"/>
      </g>
     </g>
     <g id="text_2">
      <!-- 10 -->
      <g style="fill: #555555" transform="translate(135.610029 328.94375)scale(0.1 -0.1)">
       <defs>
        <path id="TimesNewRomanPSMT-31" d="M 750 3822 
L 1781 4325 
L 1884 4325 
L 1884 747 
Q 1884 391 1914 303 
Q 1944 216 2037 169 
Q 2131 122 2419 116 
L 2419 0 
L 825 0 
L 825 116 
Q 1125 122 1212 167 
Q 1300 213 1334 289 
Q 1369 366 1369 747 
L 1369 3034 
Q 1369 3497 1338 3628 
Q 1316 3728 1258 3775 
Q 1200 3822 1119 3822 
Q 1003 3822 797 3725 
L 750 3822 
z
" transform="scale(0.015625)"/>
       </defs>
       <use xlink:href="#TimesNewRomanPSMT-31"/>
       <use xlink:href="#TimesNewRomanPSMT-30" x="50"/>
      </g>
     </g>
    </g>
    <g id="xtick_3">
     <g id="line2d_5">
      <path d="M 179.691133 315 
L 179.691133 43.2 
" clip-path="url(#p5488c7ac9a)" style="fill: none; stroke: #ffffff; stroke-width: 0.8; stroke-linecap: square"/>
     </g>
     <g id="line2d_6">
      <g>
       <use xlink:href="#m2871638f44" x="179.691133" y="315" style="fill: #555555; stroke: #555555; stroke-width: 0.8"/>
      </g>
     </g>
     <g id="text_3">
      <!-- 20 -->
      <g style="fill: #555555" transform="translate(174.691133 328.94375)scale(0.1 -0.1)">
       <defs>
        <path id="TimesNewRomanPSMT-32" d="M 2934 816 
L 2638 0 
L 138 0 
L 138 116 
Q 1241 1122 1691 1759 
Q 2141 2397 2141 2925 
Q 2141 3328 1894 3587 
Q 1647 3847 1303 3847 
Q 991 3847 742 3664 
Q 494 3481 375 3128 
L 259 3128 
Q 338 3706 661 4015 
Q 984 4325 1469 4325 
Q 1984 4325 2329 3994 
Q 2675 3663 2675 3213 
Q 2675 2891 2525 2569 
Q 2294 2063 1775 1497 
Q 997 647 803 472 
L 1909 472 
Q 2247 472 2383 497 
Q 2519 522 2628 598 
Q 2738 675 2819 816 
L 2934 816 
z
" transform="scale(0.015625)"/>
       </defs>
       <use xlink:href="#TimesNewRomanPSMT-32"/>
       <use xlink:href="#TimesNewRomanPSMT-30" x="50"/>
      </g>
     </g>
    </g>
    <g id="xtick_4">
     <g id="line2d_7">
      <path d="M 218.772237 315 
L 218.772237 43.2 
" clip-path="url(#p5488c7ac9a)" style="fill: none; stroke: #ffffff; stroke-width: 0.8; stroke-linecap: square"/>
     </g>
     <g id="line2d_8">
      <g>
       <use xlink:href="#m2871638f44" x="218.772237" y="315" style="fill: #555555; stroke: #555555; stroke-width: 0.8"/>
      </g>
     </g>
     <g id="text_4">
      <!-- 30 -->
      <g style="fill: #555555" transform="translate(213.772237 328.94375)scale(0.1 -0.1)">
       <defs>
        <path id="TimesNewRomanPSMT-33" d="M 325 3431 
Q 506 3859 782 4092 
Q 1059 4325 1472 4325 
Q 1981 4325 2253 3994 
Q 2459 3747 2459 3466 
Q 2459 3003 1878 2509 
Q 2269 2356 2469 2072 
Q 2669 1788 2669 1403 
Q 2669 853 2319 450 
Q 1863 -75 997 -75 
Q 569 -75 414 31 
Q 259 138 259 259 
Q 259 350 332 419 
Q 406 488 509 488 
Q 588 488 669 463 
Q 722 447 909 348 
Q 1097 250 1169 231 
Q 1284 197 1416 197 
Q 1734 197 1970 444 
Q 2206 691 2206 1028 
Q 2206 1275 2097 1509 
Q 2016 1684 1919 1775 
Q 1784 1900 1550 2001 
Q 1316 2103 1072 2103 
L 972 2103 
L 972 2197 
Q 1219 2228 1467 2375 
Q 1716 2522 1828 2728 
Q 1941 2934 1941 3181 
Q 1941 3503 1739 3701 
Q 1538 3900 1238 3900 
Q 753 3900 428 3381 
L 325 3431 
z
" transform="scale(0.015625)"/>
       </defs>
       <use xlink:href="#TimesNewRomanPSMT-33"/>
       <use xlink:href="#TimesNewRomanPSMT-30" x="50"/>
      </g>
     </g>
    </g>
    <g id="xtick_5">
     <g id="line2d_9">
      <path d="M 257.853341 315 
L 257.853341 43.2 
" clip-path="url(#p5488c7ac9a)" style="fill: none; stroke: #ffffff; stroke-width: 0.8; stroke-linecap: square"/>
     </g>
     <g id="line2d_10">
      <g>
       <use xlink:href="#m2871638f44" x="257.853341" y="315" style="fill: #555555; stroke: #555555; stroke-width: 0.8"/>
      </g>
     </g>
     <g id="text_5">
      <!-- 40 -->
      <g style="fill: #555555" transform="translate(252.853341 328.94375)scale(0.1 -0.1)">
       <defs>
        <path id="TimesNewRomanPSMT-34" d="M 2978 1563 
L 2978 1119 
L 2409 1119 
L 2409 0 
L 1894 0 
L 1894 1119 
L 100 1119 
L 100 1519 
L 2066 4325 
L 2409 4325 
L 2409 1563 
L 2978 1563 
z
M 1894 1563 
L 1894 3666 
L 406 1563 
L 1894 1563 
z
" transform="scale(0.015625)"/>
       </defs>
       <use xlink:href="#TimesNewRomanPSMT-34"/>
       <use xlink:href="#TimesNewRomanPSMT-30" x="50"/>
      </g>
     </g>
    </g>
    <g id="xtick_6">
     <g id="line2d_11">
      <path d="M 296.934445 315 
L 296.934445 43.2 
" clip-path="url(#p5488c7ac9a)" style="fill: none; stroke: #ffffff; stroke-width: 0.8; stroke-linecap: square"/>
     </g>
     <g id="line2d_12">
      <g>
       <use xlink:href="#m2871638f44" x="296.934445" y="315" style="fill: #555555; stroke: #555555; stroke-width: 0.8"/>
      </g>
     </g>
     <g id="text_6">
      <!-- 50 -->
      <g style="fill: #555555" transform="translate(291.934445 328.94375)scale(0.1 -0.1)">
       <defs>
        <path id="TimesNewRomanPSMT-35" d="M 2778 4238 
L 2534 3706 
L 1259 3706 
L 981 3138 
Q 1809 3016 2294 2522 
Q 2709 2097 2709 1522 
Q 2709 1188 2573 903 
Q 2438 619 2231 419 
Q 2025 219 1772 97 
Q 1413 -75 1034 -75 
Q 653 -75 479 54 
Q 306 184 306 341 
Q 306 428 378 495 
Q 450 563 559 563 
Q 641 563 702 538 
Q 763 513 909 409 
Q 1144 247 1384 247 
Q 1750 247 2026 523 
Q 2303 800 2303 1197 
Q 2303 1581 2056 1914 
Q 1809 2247 1375 2428 
Q 1034 2569 447 2591 
L 1259 4238 
L 2778 4238 
z
" transform="scale(0.015625)"/>
       </defs>
       <use xlink:href="#TimesNewRomanPSMT-35"/>
       <use xlink:href="#TimesNewRomanPSMT-30" x="50"/>
      </g>
     </g>
    </g>
    <g id="xtick_7">
     <g id="line2d_13">
      <path d="M 336.015548 315 
L 336.015548 43.2 
" clip-path="url(#p5488c7ac9a)" style="fill: none; stroke: #ffffff; stroke-width: 0.8; stroke-linecap: square"/>
     </g>
     <g id="line2d_14">
      <g>
       <use xlink:href="#m2871638f44" x="336.015548" y="315" style="fill: #555555; stroke: #555555; stroke-width: 0.8"/>
      </g>
     </g>
     <g id="text_7">
      <!-- 60 -->
      <g style="fill: #555555" transform="translate(331.015548 328.94375)scale(0.1 -0.1)">
       <defs>
        <path id="TimesNewRomanPSMT-36" d="M 2869 4325 
L 2869 4209 
Q 2456 4169 2195 4045 
Q 1934 3922 1679 3669 
Q 1425 3416 1258 3105 
Q 1091 2794 978 2366 
Q 1428 2675 1881 2675 
Q 2316 2675 2634 2325 
Q 2953 1975 2953 1425 
Q 2953 894 2631 456 
Q 2244 -75 1606 -75 
Q 1172 -75 869 213 
Q 275 772 275 1663 
Q 275 2231 503 2743 
Q 731 3256 1154 3653 
Q 1578 4050 1965 4187 
Q 2353 4325 2688 4325 
L 2869 4325 
z
M 925 2138 
Q 869 1716 869 1456 
Q 869 1156 980 804 
Q 1091 453 1309 247 
Q 1469 100 1697 100 
Q 1969 100 2183 356 
Q 2397 613 2397 1088 
Q 2397 1622 2184 2012 
Q 1972 2403 1581 2403 
Q 1463 2403 1327 2353 
Q 1191 2303 925 2138 
z
" transform="scale(0.015625)"/>
       </defs>
       <use xlink:href="#TimesNewRomanPSMT-36"/>
       <use xlink:href="#TimesNewRomanPSMT-30" x="50"/>
      </g>
     </g>
    </g>
   </g>
   <g id="matplotlib.axis_2">
    <g id="ytick_1">
     <g id="line2d_15">
      <path d="M 90 302.645455 
L 343.636364 302.645455 
" clip-path="url(#p5488c7ac9a)" style="fill: none; stroke: #ffffff; stroke-width: 0.8; stroke-linecap: square"/>
     </g>
     <g id="line2d_16">
      <defs>
       <path id="m125661f0d1" d="M 0 0 
L -3.5 0 
" style="stroke: #555555; stroke-width: 0.8"/>
      </defs>
      <g>
       <use xlink:href="#m125661f0d1" x="90" y="302.645455" style="fill: #555555; stroke: #555555; stroke-width: 0.8"/>
      </g>
     </g>
     <g id="text_8">
      <!-- 0.0 -->
      <g style="fill: #555555" transform="translate(70.5 306.11733)scale(0.1 -0.1)">
       <defs>
        <path id="TimesNewRomanPSMT-2e" d="M 800 606 
Q 947 606 1047 504 
Q 1147 403 1147 259 
Q 1147 116 1045 14 
Q 944 -88 800 -88 
Q 656 -88 554 14 
Q 453 116 453 259 
Q 453 406 554 506 
Q 656 606 800 606 
z
" transform="scale(0.015625)"/>
       </defs>
       <use xlink:href="#TimesNewRomanPSMT-30"/>
       <use xlink:href="#TimesNewRomanPSMT-2e" x="50"/>
       <use xlink:href="#TimesNewRomanPSMT-30" x="75"/>
      </g>
     </g>
    </g>
    <g id="ytick_2">
     <g id="line2d_17">
      <path d="M 90 253.227273 
L 343.636364 253.227273 
" clip-path="url(#p5488c7ac9a)" style="fill: none; stroke: #ffffff; stroke-width: 0.8; stroke-linecap: square"/>
     </g>
     <g id="line2d_18">
      <g>
       <use xlink:href="#m125661f0d1" x="90" y="253.227273" style="fill: #555555; stroke: #555555; stroke-width: 0.8"/>
      </g>
     </g>
     <g id="text_9">
      <!-- 0.2 -->
      <g style="fill: #555555" transform="translate(70.5 256.699148)scale(0.1 -0.1)">
       <use xlink:href="#TimesNewRomanPSMT-30"/>
       <use xlink:href="#TimesNewRomanPSMT-2e" x="50"/>
       <use xlink:href="#TimesNewRomanPSMT-32" x="75"/>
      </g>
     </g>
    </g>
    <g id="ytick_3">
     <g id="line2d_19">
      <path d="M 90 203.809091 
L 343.636364 203.809091 
" clip-path="url(#p5488c7ac9a)" style="fill: none; stroke: #ffffff; stroke-width: 0.8; stroke-linecap: square"/>
     </g>
     <g id="line2d_20">
      <g>
       <use xlink:href="#m125661f0d1" x="90" y="203.809091" style="fill: #555555; stroke: #555555; stroke-width: 0.8"/>
      </g>
     </g>
     <g id="text_10">
      <!-- 0.4 -->
      <g style="fill: #555555" transform="translate(70.5 207.280966)scale(0.1 -0.1)">
       <use xlink:href="#TimesNewRomanPSMT-30"/>
       <use xlink:href="#TimesNewRomanPSMT-2e" x="50"/>
       <use xlink:href="#TimesNewRomanPSMT-34" x="75"/>
      </g>
     </g>
    </g>
    <g id="ytick_4">
     <g id="line2d_21">
      <path d="M 90 154.390909 
L 343.636364 154.390909 
" clip-path="url(#p5488c7ac9a)" style="fill: none; stroke: #ffffff; stroke-width: 0.8; stroke-linecap: square"/>
     </g>
     <g id="line2d_22">
      <g>
       <use xlink:href="#m125661f0d1" x="90" y="154.390909" style="fill: #555555; stroke: #555555; stroke-width: 0.8"/>
      </g>
     </g>
     <g id="text_11">
      <!-- 0.6 -->
      <g style="fill: #555555" transform="translate(70.5 157.862784)scale(0.1 -0.1)">
       <use xlink:href="#TimesNewRomanPSMT-30"/>
       <use xlink:href="#TimesNewRomanPSMT-2e" x="50"/>
       <use xlink:href="#TimesNewRomanPSMT-36" x="75"/>
      </g>
     </g>
    </g>
    <g id="ytick_5">
     <g id="line2d_23">
      <path d="M 90 104.972727 
L 343.636364 104.972727 
" clip-path="url(#p5488c7ac9a)" style="fill: none; stroke: #ffffff; stroke-width: 0.8; stroke-linecap: square"/>
     </g>
     <g id="line2d_24">
      <g>
       <use xlink:href="#m125661f0d1" x="90" y="104.972727" style="fill: #555555; stroke: #555555; stroke-width: 0.8"/>
      </g>
     </g>
     <g id="text_12">
      <!-- 0.8 -->
      <g style="fill: #555555" transform="translate(70.5 108.444602)scale(0.1 -0.1)">
       <defs>
        <path id="TimesNewRomanPSMT-38" d="M 1228 2134 
Q 725 2547 579 2797 
Q 434 3047 434 3316 
Q 434 3728 753 4026 
Q 1072 4325 1600 4325 
Q 2113 4325 2425 4047 
Q 2738 3769 2738 3413 
Q 2738 3175 2569 2928 
Q 2400 2681 1866 2347 
Q 2416 1922 2594 1678 
Q 2831 1359 2831 1006 
Q 2831 559 2490 242 
Q 2150 -75 1597 -75 
Q 994 -75 656 303 
Q 388 606 388 966 
Q 388 1247 577 1523 
Q 766 1800 1228 2134 
z
M 1719 2469 
Q 2094 2806 2194 3001 
Q 2294 3197 2294 3444 
Q 2294 3772 2109 3958 
Q 1925 4144 1606 4144 
Q 1288 4144 1088 3959 
Q 888 3775 888 3528 
Q 888 3366 970 3203 
Q 1053 3041 1206 2894 
L 1719 2469 
z
M 1375 2016 
Q 1116 1797 991 1539 
Q 866 1281 866 981 
Q 866 578 1086 336 
Q 1306 94 1647 94 
Q 1984 94 2187 284 
Q 2391 475 2391 747 
Q 2391 972 2272 1150 
Q 2050 1481 1375 2016 
z
" transform="scale(0.015625)"/>
       </defs>
       <use xlink:href="#TimesNewRomanPSMT-30"/>
       <use xlink:href="#TimesNewRomanPSMT-2e" x="50"/>
       <use xlink:href="#TimesNewRomanPSMT-38" x="75"/>
      </g>
     </g>
    </g>
    <g id="ytick_6">
     <g id="line2d_25">
      <path d="M 90 55.554545 
L 343.636364 55.554545 
" clip-path="url(#p5488c7ac9a)" style="fill: none; stroke: #ffffff; stroke-width: 0.8; stroke-linecap: square"/>
     </g>
     <g id="line2d_26">
      <g>
       <use xlink:href="#m125661f0d1" x="90" y="55.554545" style="fill: #555555; stroke: #555555; stroke-width: 0.8"/>
      </g>
     </g>
     <g id="text_13">
      <!-- 1.0 -->
      <g style="fill: #555555" transform="translate(70.5 59.02642)scale(0.1 -0.1)">
       <use xlink:href="#TimesNewRomanPSMT-31"/>
       <use xlink:href="#TimesNewRomanPSMT-2e" x="50"/>
       <use xlink:href="#TimesNewRomanPSMT-30" x="75"/>
      </g>
     </g>
    </g>
   </g>
   <g id="line2d_27">
    <path d="M 101.528926 275.35565 
L 105.437036 302.645455 
L 109.345146 292.482776 
L 113.253257 291.241084 
L 117.161367 294.209623 
L 121.069478 252.566882 
L 124.977588 274.016746 
L 128.885698 273.636183 
L 132.793809 272.82658 
L 136.701919 268.986173 
L 140.610029 260.800748 
L 144.51814 260.987414 
L 148.42625 235.308537 
L 152.334361 243.607628 
L 156.242471 278.297209 
L 160.150581 269.508457 
L 164.058692 275.968119 
L 167.966802 276.150648 
L 171.874912 243.783953 
L 175.783023 252.106202 
L 179.691133 268.842817 
L 183.599244 262.819109 
L 187.507354 252.860648 
L 191.415464 233.205256 
L 195.323575 229.559212 
L 199.231685 226.776111 
L 203.139795 208.670758 
L 207.047906 205.17062 
L 210.956016 190.360599 
L 214.864127 161.665118 
L 218.772237 176.809388 
L 222.680347 193.357073 
L 226.588458 185.129984 
L 230.496568 173.359024 
L 234.404679 187.882773 
L 238.312789 190.453285 
L 242.220899 171.118004 
L 246.12901 160.625163 
L 250.03712 139.732412 
L 253.94523 155.360064 
L 257.853341 161.914538 
L 261.761451 165.626101 
L 265.669562 161.679002 
L 269.577672 145.620444 
L 273.485782 154.593958 
L 277.393893 153.850266 
L 281.302003 135.656005 
L 285.210113 157.280693 
L 289.118224 140.898882 
L 293.026334 136.358303 
L 296.934445 128.578325 
L 300.842555 105.093013 
L 304.750665 88.064117 
L 308.658776 85.408666 
L 312.566886 92.840683 
L 316.474996 95.702218 
L 320.383107 80.076815 
L 324.291217 103.027684 
L 328.199328 55.554545 
L 332.107438 72.821847 
" clip-path="url(#p5488c7ac9a)" style="fill: none; stroke: #000000; stroke-opacity: 0.2; stroke-width: 1.5; stroke-linecap: square"/>
   </g>
   <g id="line2d_28">
    <path d="M 101.528926 177.573633 
L 105.437036 165.999518 
L 109.345146 190.117583 
L 113.253257 186.777552 
L 117.161367 181.50546 
L 121.069478 193.770244 
L 124.977588 163.962284 
L 128.885698 159.483434 
L 132.793809 163.7208 
L 136.701919 168.193129 
L 140.610029 225.425235 
L 144.51814 207.638716 
L 148.42625 206.614478 
L 152.334361 218.228628 
L 156.242471 193.782294 
L 160.150581 224.101313 
L 164.058692 252.188241 
L 167.966802 237.674821 
L 171.874912 226.592588 
L 175.783023 245.427352 
L 179.691133 257.755883 
L 183.599244 233.305146 
L 187.507354 247.173014 
L 191.415464 204.283086 
L 195.323575 259.712143 
L 199.231685 253.189839 
L 203.139795 270.80212 
L 207.047906 292.207363 
L 210.956016 302.645455 
L 214.864127 300.333462 
L 218.772237 261.688873 
L 222.680347 265.282375 
L 226.588458 247.098935 
L 230.496568 248.460015 
L 234.404679 214.714799 
L 238.312789 227.241021 
L 242.220899 252.545422 
L 246.12901 267.378723 
L 250.03712 247.690381 
L 253.94523 259.085346 
L 257.853341 280.287605 
L 261.761451 269.002341 
L 265.669562 261.90845 
L 269.577672 247.918495 
L 273.485782 231.785285 
L 277.393893 226.061504 
L 281.302003 189.176995 
L 285.210113 196.568009 
L 289.118224 211.725663 
L 293.026334 221.637005 
L 296.934445 238.448391 
L 300.842555 204.972051 
L 304.750665 167.229285 
L 308.658776 124.881101 
L 312.566886 55.554545 
L 316.474996 100.053088 
L 320.383107 168.878843 
L 324.291217 186.851546 
L 328.199328 203.539092 
L 332.107438 191.743441 
" clip-path="url(#p5488c7ac9a)" style="fill: none; stroke: #000000; stroke-opacity: 0.2; stroke-width: 1.5; stroke-linecap: square"/>
   </g>
   <g id="line2d_29">
    <path d="M 101.528926 132.431225 
L 105.437036 109.916356 
L 109.345146 198.534464 
L 113.253257 224.555811 
L 117.161367 171.242039 
L 121.069478 177.679454 
L 124.977588 232.894223 
L 128.885698 302.645455 
L 132.793809 268.211397 
L 136.701919 295.235671 
L 140.610029 297.728547 
L 144.51814 270.20024 
L 148.42625 260.728602 
L 152.334361 247.732857 
L 156.242471 248.065288 
L 160.150581 245.785799 
L 164.058692 272.369201 
L 167.966802 220.247848 
L 171.874912 205.840117 
L 175.783023 246.760611 
L 179.691133 274.780016 
L 183.599244 217.278382 
L 187.507354 145.851282 
L 191.415464 200.654365 
L 195.323575 172.787045 
L 199.231685 187.59019 
L 203.139795 169.699306 
L 207.047906 151.913927 
L 210.956016 135.714607 
L 214.864127 165.141341 
L 218.772237 93.825507 
L 222.680347 152.692836 
L 226.588458 129.238668 
L 230.496568 106.494388 
L 234.404679 70.893899 
L 238.312789 97.750931 
L 242.220899 87.793616 
L 246.12901 131.187423 
L 250.03712 117.663162 
L 253.94523 120.336143 
L 257.853341 55.554545 
L 261.761451 80.154568 
L 265.669562 87.517913 
L 269.577672 72.876945 
L 273.485782 95.623995 
L 277.393893 136.74159 
L 281.302003 123.062613 
L 285.210113 149.173221 
L 289.118224 153.376354 
L 293.026334 179.184096 
L 296.934445 187.470615 
L 300.842555 169.503586 
L 304.750665 123.000499 
L 308.658776 163.015115 
L 312.566886 161.840323 
L 316.474996 209.543403 
L 320.383107 190.021982 
L 324.291217 173.495249 
L 328.199328 185.573248 
L 332.107438 168.878535 
" clip-path="url(#p5488c7ac9a)" style="fill: none; stroke: #000000; stroke-opacity: 0.2; stroke-width: 1.5; stroke-linecap: square"/>
   </g>
   <g id="line2d_30">
    <path d="M 101.528926 262.282906 
L 105.437036 271.997451 
L 109.345146 217.515469 
L 113.253257 227.34144 
L 117.161367 234.575171 
L 121.069478 236.731335 
L 124.977588 240.063204 
L 128.885698 179.462861 
L 132.793809 131.680774 
L 136.701919 149.626557 
L 140.610029 150.689415 
L 144.51814 163.061711 
L 148.42625 145.945074 
L 152.334361 150.004349 
L 156.242471 71.960734 
L 160.150581 83.081935 
L 164.058692 58.91014 
L 167.966802 70.048087 
L 171.874912 80.370147 
L 175.783023 76.74771 
L 179.691133 65.000205 
L 183.599244 68.082535 
L 187.507354 55.554545 
L 191.415464 72.583559 
L 195.323575 63.295256 
L 199.231685 132.925239 
L 203.139795 111.68789 
L 207.047906 185.700743 
L 210.956016 138.334014 
L 214.864127 148.247843 
L 218.772237 159.01324 
L 222.680347 133.932046 
L 226.588458 89.493922 
L 230.496568 81.832006 
L 234.404679 123.762136 
L 238.312789 81.422851 
L 242.220899 165.308188 
L 246.12901 149.752008 
L 250.03712 201.957497 
L 253.94523 249.332518 
L 257.853341 301.893462 
L 261.761451 302.645455 
L 265.669562 263.94509 
L 269.577672 263.950686 
L 273.485782 267.833106 
L 277.393893 214.980327 
L 281.302003 204.188456 
L 285.210113 133.959222 
L 289.118224 161.065363 
L 293.026334 192.414433 
L 296.934445 142.187419 
L 300.842555 181.625339 
L 304.750665 177.355653 
L 308.658776 181.84915 
L 312.566886 194.579385 
L 316.474996 166.474707 
L 320.383107 139.173351 
L 324.291217 92.360587 
L 328.199328 77.176593 
L 332.107438 58.795339 
" clip-path="url(#p5488c7ac9a)" style="fill: none; stroke: #000000; stroke-opacity: 0.2; stroke-width: 1.5; stroke-linecap: square"/>
   </g>
   <g id="line2d_31">
    <path d="M 101.528926 281.3528 
L 105.437036 299.213669 
L 109.345146 282.76848 
L 113.253257 302.645455 
L 117.161367 264.937252 
L 121.069478 255.432674 
L 124.977588 277.675919 
L 128.885698 237.344436 
L 132.793809 235.990983 
L 136.701919 251.5864 
L 140.610029 277.856464 
L 144.51814 220.955002 
L 148.42625 254.956117 
L 152.334361 249.190733 
L 156.242471 270.5287 
L 160.150581 275.985113 
L 164.058692 243.731848 
L 167.966802 248.705703 
L 171.874912 272.134905 
L 175.783023 229.692274 
L 179.691133 234.861568 
L 183.599244 174.551006 
L 187.507354 184.647577 
L 191.415464 163.43998 
L 195.323575 176.24951 
L 199.231685 162.838144 
L 203.139795 167.842558 
L 207.047906 232.384045 
L 210.956016 236.36224 
L 214.864127 219.992272 
L 218.772237 219.230264 
L 222.680347 229.037297 
L 226.588458 235.275056 
L 230.496568 231.080307 
L 234.404679 227.347853 
L 238.312789 223.163076 
L 242.220899 235.139554 
L 246.12901 148.917333 
L 250.03712 113.77437 
L 253.94523 125.125847 
L 257.853341 111.014906 
L 261.761451 142.104316 
L 265.669562 151.776567 
L 269.577672 124.441053 
L 273.485782 166.777244 
L 277.393893 118.987921 
L 281.302003 129.291473 
L 285.210113 139.444714 
L 289.118224 136.461494 
L 293.026334 143.944554 
L 296.934445 127.478163 
L 300.842555 55.554545 
L 304.750665 75.390408 
L 308.658776 94.906879 
L 312.566886 109.898704 
L 316.474996 157.724698 
L 320.383107 154.798216 
L 324.291217 124.535921 
L 328.199328 165.277196 
L 332.107438 150.862606 
" clip-path="url(#p5488c7ac9a)" style="fill: none; stroke: #000000; stroke-opacity: 0.2; stroke-width: 1.5; stroke-linecap: square"/>
   </g>
   <g id="line2d_32">
    <path d="M 101.528926 218.228628 
L 105.437036 193.782294 
L 109.345146 224.101313 
L 113.253257 252.188241 
L 117.161367 237.674821 
L 121.069478 226.592588 
L 124.977588 245.427352 
L 128.885698 257.755883 
L 132.793809 233.305146 
L 136.701919 247.173014 
L 140.610029 204.283086 
L 144.51814 259.712143 
L 148.42625 253.189839 
L 152.334361 270.80212 
L 156.242471 292.207363 
L 160.150581 302.645455 
L 164.058692 300.333462 
L 167.966802 261.688873 
L 171.874912 265.282375 
L 175.783023 247.098935 
L 179.691133 248.460015 
L 183.599244 214.714799 
L 187.507354 227.241021 
L 191.415464 252.545422 
L 195.323575 267.378723 
L 199.231685 247.690381 
L 203.139795 259.085346 
L 207.047906 280.287605 
L 210.956016 269.002341 
L 214.864127 261.90845 
L 218.772237 247.918495 
L 222.680347 231.785285 
L 226.588458 226.061504 
L 230.496568 189.176995 
L 234.404679 196.568009 
L 238.312789 211.725663 
L 242.220899 221.637005 
L 246.12901 238.448391 
L 250.03712 204.972051 
L 253.94523 167.229285 
L 257.853341 124.881101 
L 261.761451 55.554545 
L 265.669562 100.053088 
L 269.577672 168.878843 
L 273.485782 186.851546 
L 277.393893 203.539092 
L 281.302003 191.743441 
L 285.210113 157.004019 
L 289.118224 188.632093 
L 293.026334 220.903254 
L 296.934445 208.355588 
L 300.842555 200.439629 
L 304.750665 189.490955 
L 308.658776 188.916476 
L 312.566886 165.307572 
L 316.474996 148.775938 
L 320.383107 158.598661 
L 324.291217 175.094227 
L 328.199328 167.299882 
L 332.107438 120.325222 
" clip-path="url(#p5488c7ac9a)" style="fill: none; stroke: #000000; stroke-opacity: 0.2; stroke-width: 1.5; stroke-linecap: square"/>
   </g>
   <g id="line2d_33">
    <path d="M 101.528926 132.02648 
L 105.437036 119.852217 
L 109.345146 150.415369 
L 113.253257 176.36515 
L 117.161367 158.723541 
L 121.069478 121.851416 
L 124.977588 114.694895 
L 128.885698 130.302101 
L 132.793809 209.75728 
L 136.701919 211.199127 
L 140.610029 198.58445 
L 144.51814 232.889982 
L 148.42625 263.648027 
L 152.334361 300.871615 
L 156.242471 244.423799 
L 160.150581 222.861119 
L 164.058692 160.39041 
L 167.966802 199.135477 
L 171.874912 212.610351 
L 175.783023 210.496513 
L 179.691133 216.680561 
L 183.599244 219.287207 
L 187.507354 166.975259 
L 191.415464 175.195837 
L 195.323575 227.054219 
L 199.231685 213.353819 
L 203.139795 229.698859 
L 207.047906 244.806158 
L 210.956016 251.227594 
L 214.864127 248.462904 
L 218.772237 242.395332 
L 222.680347 239.036143 
L 226.588458 225.11858 
L 230.496568 241.239111 
L 234.404679 205.662382 
L 238.312789 187.768785 
L 242.220899 161.89685 
L 246.12901 173.169689 
L 250.03712 190.888569 
L 253.94523 239.387574 
L 257.853341 279.598696 
L 261.761451 302.645455 
L 265.669562 282.74929 
L 269.577672 273.449887 
L 273.485782 223.748807 
L 277.393893 155.362522 
L 281.302003 156.244588 
L 285.210113 189.708428 
L 289.118224 160.592896 
L 293.026334 137.29369 
L 296.934445 141.679548 
L 300.842555 98.319249 
L 304.750665 99.304203 
L 308.658776 89.875771 
L 312.566886 83.885595 
L 316.474996 80.931332 
L 320.383107 121.995522 
L 324.291217 94.701932 
L 328.199328 55.554545 
L 332.107438 66.818457 
" clip-path="url(#p5488c7ac9a)" style="fill: none; stroke: #000000; stroke-opacity: 0.2; stroke-width: 1.5; stroke-linecap: square"/>
   </g>
   <g id="line2d_34">
    <path d="M 101.528926 279.304404 
L 105.437036 297.477347 
L 109.345146 301.749475 
L 113.253257 301.28162 
L 117.161367 302.645455 
L 121.069478 299.560541 
L 124.977588 240.789791 
L 128.885698 211.090052 
L 132.793809 206.907501 
L 136.701919 230.570356 
L 140.610029 246.187378 
L 144.51814 268.44022 
L 148.42625 278.832585 
L 152.334361 271.949741 
L 156.242471 254.389025 
L 160.150581 226.393869 
L 164.058692 228.280045 
L 167.966802 236.890907 
L 171.874912 254.495173 
L 175.783023 243.98005 
L 179.691133 230.762087 
L 183.599244 257.388211 
L 187.507354 258.734983 
L 191.415464 237.653177 
L 195.323575 245.517714 
L 199.231685 228.567398 
L 203.139795 234.075186 
L 207.047906 225.360338 
L 210.956016 88.33519 
L 214.864127 76.266337 
L 218.772237 113.937915 
L 222.680347 91.317388 
L 226.588458 77.646178 
L 230.496568 107.959424 
L 234.404679 102.329103 
L 238.312789 60.503933 
L 242.220899 91.754923 
L 246.12901 90.718477 
L 250.03712 80.034745 
L 253.94523 55.554545 
L 257.853341 56.858297 
L 261.761451 82.5026 
L 265.669562 99.248288 
L 269.577672 114.508959 
L 273.485782 115.6271 
L 277.393893 118.933701 
L 281.302003 94.578074 
L 285.210113 81.416432 
L 289.118224 91.892183 
L 293.026334 121.094505 
L 296.934445 124.88511 
L 300.842555 163.14907 
L 304.750665 134.913854 
L 308.658776 138.621126 
L 312.566886 100.78491 
L 316.474996 170.179486 
L 320.383107 122.528913 
L 324.291217 124.830608 
L 328.199328 81.067272 
L 332.107438 79.528188 
" clip-path="url(#p5488c7ac9a)" style="fill: none; stroke: #000000; stroke-opacity: 0.2; stroke-width: 1.5; stroke-linecap: square"/>
   </g>
   <g id="line2d_35">
    <path d="M 101.528926 207.140118 
L 105.437036 191.247661 
L 109.345146 149.106099 
L 113.253257 198.396653 
L 117.161367 219.132744 
L 121.069478 208.412839 
L 124.977588 173.847614 
L 128.885698 283.586916 
L 132.793809 302.645455 
L 136.701919 267.690969 
L 140.610029 270.250742 
L 144.51814 286.59164 
L 148.42625 258.093081 
L 152.334361 291.916767 
L 156.242471 287.296618 
L 160.150581 300.902806 
L 164.058692 293.054323 
L 167.966802 261.139218 
L 171.874912 248.233369 
L 175.783023 249.108331 
L 179.691133 164.026267 
L 183.599244 177.86339 
L 187.507354 195.509244 
L 191.415464 183.521349 
L 195.323575 223.599017 
L 199.231685 218.254587 
L 203.139795 162.966017 
L 207.047906 149.606665 
L 210.956016 100.335754 
L 214.864127 131.495763 
L 218.772237 171.777173 
L 222.680347 165.463172 
L 226.588458 128.516521 
L 230.496568 138.214574 
L 234.404679 159.834282 
L 238.312789 185.72645 
L 242.220899 203.263972 
L 246.12901 215.843912 
L 250.03712 213.340191 
L 253.94523 214.83417 
L 257.853341 231.711433 
L 261.761451 174.202852 
L 265.669562 210.226955 
L 269.577672 227.975704 
L 273.485782 204.084315 
L 277.393893 167.19625 
L 281.302003 151.097941 
L 285.210113 153.20239 
L 289.118224 163.56557 
L 293.026334 159.219554 
L 296.934445 168.614895 
L 300.842555 149.208621 
L 304.750665 115.590111 
L 308.658776 79.92226 
L 312.566886 82.17597 
L 316.474996 55.554545 
L 320.383107 90.561623 
L 324.291217 56.518399 
L 328.199328 87.181405 
L 332.107438 128.45776 
" clip-path="url(#p5488c7ac9a)" style="fill: none; stroke: #000000; stroke-opacity: 0.2; stroke-width: 1.5; stroke-linecap: square"/>
   </g>
   <g id="line2d_36">
    <path d="M 101.528926 119.852217 
L 105.437036 150.415369 
L 109.345146 176.36515 
L 113.253257 158.723541 
L 117.161367 121.851416 
L 121.069478 114.694895 
L 124.977588 130.302101 
L 128.885698 209.75728 
L 132.793809 211.199127 
L 136.701919 198.58445 
L 140.610029 232.889982 
L 144.51814 263.648027 
L 148.42625 300.871615 
L 152.334361 244.423799 
L 156.242471 222.861119 
L 160.150581 160.39041 
L 164.058692 199.135477 
L 167.966802 212.610351 
L 171.874912 210.496513 
L 175.783023 216.680561 
L 179.691133 219.287207 
L 183.599244 166.975259 
L 187.507354 175.195837 
L 191.415464 227.054219 
L 195.323575 213.353819 
L 199.231685 229.698859 
L 203.139795 244.806158 
L 207.047906 251.227594 
L 210.956016 248.462904 
L 214.864127 242.395332 
L 218.772237 239.036143 
L 222.680347 225.11858 
L 226.588458 241.239111 
L 230.496568 205.662382 
L 234.404679 187.768785 
L 238.312789 161.89685 
L 242.220899 173.169689 
L 246.12901 190.888569 
L 250.03712 239.387574 
L 253.94523 279.598696 
L 257.853341 302.645455 
L 261.761451 282.74929 
L 265.669562 273.449887 
L 269.577672 223.748807 
L 273.485782 155.362522 
L 277.393893 156.244588 
L 281.302003 189.708428 
L 285.210113 160.592896 
L 289.118224 137.29369 
L 293.026334 141.679548 
L 296.934445 98.319249 
L 300.842555 99.304203 
L 304.750665 89.875771 
L 308.658776 83.885595 
L 312.566886 80.931332 
L 316.474996 121.995522 
L 320.383107 94.701932 
L 324.291217 55.554545 
L 328.199328 66.818457 
L 332.107438 124.056655 
" clip-path="url(#p5488c7ac9a)" style="fill: none; stroke: #000000; stroke-opacity: 0.2; stroke-width: 1.5; stroke-linecap: square"/>
   </g>
   <g id="line2d_37">
    <path d="M 101.528926 254.9469 
L 105.437036 179.40469 
L 109.345146 220.890676 
L 113.253257 243.705379 
L 117.161367 267.408126 
L 121.069478 258.600547 
L 124.977588 259.411993 
L 128.885698 256.99875 
L 132.793809 259.352155 
L 136.701919 259.354754 
L 140.610029 258.651499 
L 144.51814 261.12376 
L 148.42625 288.031415 
L 152.334361 262.577557 
L 156.242471 262.333867 
L 160.150581 266.54212 
L 164.058692 256.375024 
L 167.966802 219.861413 
L 171.874912 249.91657 
L 175.783023 237.486327 
L 179.691133 223.291771 
L 183.599244 171.569237 
L 187.507354 152.957819 
L 191.415464 174.402566 
L 195.323575 191.15239 
L 199.231685 172.855222 
L 203.139795 174.676161 
L 207.047906 174.388226 
L 210.956016 177.126582 
L 214.864127 157.430066 
L 218.772237 107.725356 
L 222.680347 155.840951 
L 226.588458 183.444267 
L 230.496568 202.934935 
L 234.404679 242.450641 
L 238.312789 194.240529 
L 242.220899 157.496807 
L 246.12901 112.667342 
L 250.03712 101.793976 
L 253.94523 129.922921 
L 257.853341 101.635099 
L 261.761451 75.855236 
L 265.669562 110.828543 
L 269.577672 104.753169 
L 273.485782 104.769442 
L 277.393893 104.769442 
L 281.302003 104.769442 
L 285.210113 104.769442 
L 289.118224 104.769442 
L 293.026334 104.769442 
L 296.934445 104.769442 
L 300.842555 104.812479 
L 304.750665 104.565457 
L 308.658776 105.086734 
L 312.566886 100.434334 
L 316.474996 124.347236 
L 320.383107 109.610163 
L 324.291217 110.792806 
L 328.199328 86.080182 
L 332.107438 164.72075 
" clip-path="url(#p5488c7ac9a)" style="fill: none; stroke: #ff0000; stroke-width: 2; stroke-linecap: square"/>
   </g>
   <g id="patch_3">
    <path d="M 90 315 
L 90 43.2 
" style="fill: none; stroke: #ffffff; stroke-linejoin: miter; stroke-linecap: square"/>
   </g>
   <g id="patch_4">
    <path d="M 343.636364 315 
L 343.636364 43.2 
" style="fill: none; stroke: #ffffff; stroke-linejoin: miter; stroke-linecap: square"/>
   </g>
   <g id="patch_5">
    <path d="M 90 315 
L 343.636364 315 
" style="fill: none; stroke: #ffffff; stroke-linejoin: miter; stroke-linecap: square"/>
   </g>
   <g id="patch_6">
    <path d="M 90 43.2 
L 343.636364 43.2 
" style="fill: none; stroke: #ffffff; stroke-linejoin: miter; stroke-linecap: square"/>
   </g>
   <g id="text_14">
    <!-- EURtoUSD Template 1 -->
    <g transform="translate(169.484588 37.2)scale(0.1 -0.1)">
     <defs>
      <path id="TimesNewRomanPSMT-45" d="M 1338 4006 
L 1338 2331 
L 2269 2331 
Q 2631 2331 2753 2441 
Q 2916 2584 2934 2947 
L 3050 2947 
L 3050 1472 
L 2934 1472 
Q 2891 1781 2847 1869 
Q 2791 1978 2662 2040 
Q 2534 2103 2269 2103 
L 1338 2103 
L 1338 706 
Q 1338 425 1363 364 
Q 1388 303 1450 267 
Q 1513 231 1688 231 
L 2406 231 
Q 2766 231 2928 281 
Q 3091 331 3241 478 
Q 3434 672 3638 1063 
L 3763 1063 
L 3397 0 
L 131 0 
L 131 116 
L 281 116 
Q 431 116 566 188 
Q 666 238 702 338 
Q 738 438 738 747 
L 738 3500 
Q 738 3903 656 3997 
Q 544 4122 281 4122 
L 131 4122 
L 131 4238 
L 3397 4238 
L 3444 3309 
L 3322 3309 
Q 3256 3644 3176 3769 
Q 3097 3894 2941 3959 
Q 2816 4006 2500 4006 
L 1338 4006 
z
" transform="scale(0.015625)"/>
      <path id="TimesNewRomanPSMT-55" d="M 3053 4122 
L 3053 4238 
L 4553 4238 
L 4553 4122 
L 4394 4122 
Q 4144 4122 4009 3913 
Q 3944 3816 3944 3463 
L 3944 1744 
Q 3944 1106 3817 754 
Q 3691 403 3320 151 
Q 2950 -100 2313 -100 
Q 1619 -100 1259 140 
Q 900 381 750 788 
Q 650 1066 650 1831 
L 650 3488 
Q 650 3878 542 4000 
Q 434 4122 194 4122 
L 34 4122 
L 34 4238 
L 1866 4238 
L 1866 4122 
L 1703 4122 
Q 1441 4122 1328 3956 
Q 1250 3844 1250 3488 
L 1250 1641 
Q 1250 1394 1295 1075 
Q 1341 756 1459 578 
Q 1578 400 1801 284 
Q 2025 169 2350 169 
Q 2766 169 3094 350 
Q 3422 531 3542 814 
Q 3663 1097 3663 1772 
L 3663 3488 
Q 3663 3884 3575 3984 
Q 3453 4122 3213 4122 
L 3053 4122 
z
" transform="scale(0.015625)"/>
      <path id="TimesNewRomanPSMT-52" d="M 4325 0 
L 3194 0 
L 1759 1981 
Q 1600 1975 1500 1975 
Q 1459 1975 1412 1976 
Q 1366 1978 1316 1981 
L 1316 750 
Q 1316 350 1403 253 
Q 1522 116 1759 116 
L 1925 116 
L 1925 0 
L 109 0 
L 109 116 
L 269 116 
Q 538 116 653 291 
Q 719 388 719 750 
L 719 3488 
Q 719 3888 631 3984 
Q 509 4122 269 4122 
L 109 4122 
L 109 4238 
L 1653 4238 
Q 2328 4238 2648 4139 
Q 2969 4041 3192 3777 
Q 3416 3513 3416 3147 
Q 3416 2756 3161 2468 
Q 2906 2181 2372 2063 
L 3247 847 
Q 3547 428 3762 290 
Q 3978 153 4325 116 
L 4325 0 
z
M 1316 2178 
Q 1375 2178 1419 2176 
Q 1463 2175 1491 2175 
Q 2097 2175 2405 2437 
Q 2713 2700 2713 3106 
Q 2713 3503 2464 3751 
Q 2216 4000 1806 4000 
Q 1625 4000 1316 3941 
L 1316 2178 
z
" transform="scale(0.015625)"/>
      <path id="TimesNewRomanPSMT-74" d="M 1031 3803 
L 1031 2863 
L 1700 2863 
L 1700 2644 
L 1031 2644 
L 1031 788 
Q 1031 509 1111 412 
Q 1191 316 1316 316 
Q 1419 316 1516 380 
Q 1613 444 1666 569 
L 1788 569 
Q 1678 263 1478 108 
Q 1278 -47 1066 -47 
Q 922 -47 784 33 
Q 647 113 581 261 
Q 516 409 516 719 
L 516 2644 
L 63 2644 
L 63 2747 
Q 234 2816 414 2980 
Q 594 3144 734 3369 
Q 806 3488 934 3803 
L 1031 3803 
z
" transform="scale(0.015625)"/>
      <path id="TimesNewRomanPSMT-6f" d="M 1600 2947 
Q 2250 2947 2644 2453 
Q 2978 2031 2978 1484 
Q 2978 1100 2793 706 
Q 2609 313 2286 112 
Q 1963 -88 1566 -88 
Q 919 -88 538 428 
Q 216 863 216 1403 
Q 216 1797 411 2186 
Q 606 2575 925 2761 
Q 1244 2947 1600 2947 
z
M 1503 2744 
Q 1338 2744 1170 2645 
Q 1003 2547 900 2300 
Q 797 2053 797 1666 
Q 797 1041 1045 587 
Q 1294 134 1700 134 
Q 2003 134 2200 384 
Q 2397 634 2397 1244 
Q 2397 2006 2069 2444 
Q 1847 2744 1503 2744 
z
" transform="scale(0.015625)"/>
      <path id="TimesNewRomanPSMT-53" d="M 2934 4334 
L 2934 2869 
L 2819 2869 
Q 2763 3291 2617 3541 
Q 2472 3791 2203 3937 
Q 1934 4084 1647 4084 
Q 1322 4084 1109 3886 
Q 897 3688 897 3434 
Q 897 3241 1031 3081 
Q 1225 2847 1953 2456 
Q 2547 2138 2764 1967 
Q 2981 1797 3098 1565 
Q 3216 1334 3216 1081 
Q 3216 600 2842 251 
Q 2469 -97 1881 -97 
Q 1697 -97 1534 -69 
Q 1438 -53 1133 45 
Q 828 144 747 144 
Q 669 144 623 97 
Q 578 50 556 -97 
L 441 -97 
L 441 1356 
L 556 1356 
Q 638 900 775 673 
Q 913 447 1195 297 
Q 1478 147 1816 147 
Q 2206 147 2432 353 
Q 2659 559 2659 841 
Q 2659 997 2573 1156 
Q 2488 1316 2306 1453 
Q 2184 1547 1640 1851 
Q 1097 2156 867 2337 
Q 638 2519 519 2737 
Q 400 2956 400 3219 
Q 400 3675 750 4004 
Q 1100 4334 1641 4334 
Q 1978 4334 2356 4169 
Q 2531 4091 2603 4091 
Q 2684 4091 2736 4139 
Q 2788 4188 2819 4334 
L 2934 4334 
z
" transform="scale(0.015625)"/>
      <path id="TimesNewRomanPSMT-44" d="M 109 0 
L 109 116 
L 269 116 
Q 538 116 650 288 
Q 719 391 719 750 
L 719 3488 
Q 719 3884 631 3984 
Q 509 4122 269 4122 
L 109 4122 
L 109 4238 
L 1834 4238 
Q 2784 4238 3279 4022 
Q 3775 3806 4076 3303 
Q 4378 2800 4378 2141 
Q 4378 1256 3841 663 
Q 3238 0 2003 0 
L 109 0 
z
M 1319 306 
Q 1716 219 1984 219 
Q 2709 219 3187 728 
Q 3666 1238 3666 2109 
Q 3666 2988 3187 3494 
Q 2709 4000 1959 4000 
Q 1678 4000 1319 3909 
L 1319 306 
z
" transform="scale(0.015625)"/>
      <path id="TimesNewRomanPSMT-20" transform="scale(0.015625)"/>
      <path id="TimesNewRomanPSMT-54" d="M 3703 4238 
L 3750 3244 
L 3631 3244 
Q 3597 3506 3538 3619 
Q 3441 3800 3280 3886 
Q 3119 3972 2856 3972 
L 2259 3972 
L 2259 734 
Q 2259 344 2344 247 
Q 2463 116 2709 116 
L 2856 116 
L 2856 0 
L 1059 0 
L 1059 116 
L 1209 116 
Q 1478 116 1591 278 
Q 1659 378 1659 734 
L 1659 3972 
L 1150 3972 
Q 853 3972 728 3928 
Q 566 3869 450 3700 
Q 334 3531 313 3244 
L 194 3244 
L 244 4238 
L 3703 4238 
z
" transform="scale(0.015625)"/>
      <path id="TimesNewRomanPSMT-65" d="M 681 1784 
Q 678 1147 991 784 
Q 1303 422 1725 422 
Q 2006 422 2214 576 
Q 2422 731 2563 1106 
L 2659 1044 
Q 2594 616 2278 264 
Q 1963 -88 1488 -88 
Q 972 -88 605 314 
Q 238 716 238 1394 
Q 238 2128 614 2539 
Q 991 2950 1559 2950 
Q 2041 2950 2350 2633 
Q 2659 2316 2659 1784 
L 681 1784 
z
M 681 1966 
L 2006 1966 
Q 1991 2241 1941 2353 
Q 1863 2528 1708 2628 
Q 1553 2728 1384 2728 
Q 1125 2728 920 2526 
Q 716 2325 681 1966 
z
" transform="scale(0.015625)"/>
      <path id="TimesNewRomanPSMT-6d" d="M 1050 2338 
Q 1363 2650 1419 2697 
Q 1559 2816 1721 2881 
Q 1884 2947 2044 2947 
Q 2313 2947 2506 2790 
Q 2700 2634 2766 2338 
Q 3088 2713 3309 2830 
Q 3531 2947 3766 2947 
Q 3994 2947 4170 2830 
Q 4347 2713 4450 2447 
Q 4519 2266 4519 1878 
L 4519 647 
Q 4519 378 4559 278 
Q 4591 209 4675 161 
Q 4759 113 4950 113 
L 4950 0 
L 3538 0 
L 3538 113 
L 3597 113 
Q 3781 113 3884 184 
Q 3956 234 3988 344 
Q 4000 397 4000 647 
L 4000 1878 
Q 4000 2228 3916 2372 
Q 3794 2572 3525 2572 
Q 3359 2572 3192 2489 
Q 3025 2406 2788 2181 
L 2781 2147 
L 2788 2013 
L 2788 647 
Q 2788 353 2820 281 
Q 2853 209 2943 161 
Q 3034 113 3253 113 
L 3253 0 
L 1806 0 
L 1806 113 
Q 2044 113 2133 169 
Q 2222 225 2256 338 
Q 2272 391 2272 647 
L 2272 1878 
Q 2272 2228 2169 2381 
Q 2031 2581 1784 2581 
Q 1616 2581 1450 2491 
Q 1191 2353 1050 2181 
L 1050 647 
Q 1050 366 1089 281 
Q 1128 197 1204 155 
Q 1281 113 1516 113 
L 1516 0 
L 100 0 
L 100 113 
Q 297 113 375 155 
Q 453 197 493 289 
Q 534 381 534 647 
L 534 1741 
Q 534 2213 506 2350 
Q 484 2453 437 2492 
Q 391 2531 309 2531 
Q 222 2531 100 2484 
L 53 2597 
L 916 2947 
L 1050 2947 
L 1050 2338 
z
" transform="scale(0.015625)"/>
      <path id="TimesNewRomanPSMT-70" d="M -6 2578 
L 875 2934 
L 994 2934 
L 994 2266 
Q 1216 2644 1439 2795 
Q 1663 2947 1909 2947 
Q 2341 2947 2628 2609 
Q 2981 2197 2981 1534 
Q 2981 794 2556 309 
Q 2206 -88 1675 -88 
Q 1444 -88 1275 -22 
Q 1150 25 994 166 
L 994 -706 
Q 994 -1000 1030 -1079 
Q 1066 -1159 1155 -1206 
Q 1244 -1253 1478 -1253 
L 1478 -1369 
L -22 -1369 
L -22 -1253 
L 56 -1253 
Q 228 -1256 350 -1188 
Q 409 -1153 442 -1076 
Q 475 -1000 475 -688 
L 475 2019 
Q 475 2297 450 2372 
Q 425 2447 370 2484 
Q 316 2522 222 2522 
Q 147 2522 31 2478 
L -6 2578 
z
M 994 2081 
L 994 1013 
Q 994 666 1022 556 
Q 1066 375 1236 237 
Q 1406 100 1666 100 
Q 1978 100 2172 344 
Q 2425 663 2425 1241 
Q 2425 1897 2138 2250 
Q 1938 2494 1663 2494 
Q 1513 2494 1366 2419 
Q 1253 2363 994 2081 
z
" transform="scale(0.015625)"/>
      <path id="TimesNewRomanPSMT-6c" d="M 1184 4444 
L 1184 647 
Q 1184 378 1223 290 
Q 1263 203 1344 158 
Q 1425 113 1647 113 
L 1647 0 
L 244 0 
L 244 113 
Q 441 113 512 153 
Q 584 194 625 287 
Q 666 381 666 647 
L 666 3247 
Q 666 3731 644 3842 
Q 622 3953 573 3993 
Q 525 4034 450 4034 
Q 369 4034 244 3984 
L 191 4094 
L 1044 4444 
L 1184 4444 
z
" transform="scale(0.015625)"/>
      <path id="TimesNewRomanPSMT-61" d="M 1822 413 
Q 1381 72 1269 19 
Q 1100 -59 909 -59 
Q 613 -59 420 144 
Q 228 347 228 678 
Q 228 888 322 1041 
Q 450 1253 767 1440 
Q 1084 1628 1822 1897 
L 1822 2009 
Q 1822 2438 1686 2597 
Q 1550 2756 1291 2756 
Q 1094 2756 978 2650 
Q 859 2544 859 2406 
L 866 2225 
Q 866 2081 792 2003 
Q 719 1925 600 1925 
Q 484 1925 411 2006 
Q 338 2088 338 2228 
Q 338 2497 613 2722 
Q 888 2947 1384 2947 
Q 1766 2947 2009 2819 
Q 2194 2722 2281 2516 
Q 2338 2381 2338 1966 
L 2338 994 
Q 2338 584 2353 492 
Q 2369 400 2405 369 
Q 2441 338 2488 338 
Q 2538 338 2575 359 
Q 2641 400 2828 588 
L 2828 413 
Q 2478 -56 2159 -56 
Q 2006 -56 1915 50 
Q 1825 156 1822 413 
z
M 1822 616 
L 1822 1706 
Q 1350 1519 1213 1441 
Q 966 1303 859 1153 
Q 753 1003 753 825 
Q 753 600 887 451 
Q 1022 303 1197 303 
Q 1434 303 1822 616 
z
" transform="scale(0.015625)"/>
     </defs>
     <use xlink:href="#TimesNewRomanPSMT-45"/>
     <use xlink:href="#TimesNewRomanPSMT-55" x="61.083984"/>
     <use xlink:href="#TimesNewRomanPSMT-52" x="133.300781"/>
     <use xlink:href="#TimesNewRomanPSMT-74" x="200"/>
     <use xlink:href="#TimesNewRomanPSMT-6f" x="227.783203"/>
     <use xlink:href="#TimesNewRomanPSMT-55" x="277.783203"/>
     <use xlink:href="#TimesNewRomanPSMT-53" x="350"/>
     <use xlink:href="#TimesNewRomanPSMT-44" x="405.615234"/>
     <use xlink:href="#TimesNewRomanPSMT-20" x="477.832031"/>
     <use xlink:href="#TimesNewRomanPSMT-54" x="501.082031"/>
     <use xlink:href="#TimesNewRomanPSMT-65" x="555.166016"/>
     <use xlink:href="#TimesNewRomanPSMT-6d" x="599.550781"/>
     <use xlink:href="#TimesNewRomanPSMT-70" x="677.333984"/>
     <use xlink:href="#TimesNewRomanPSMT-6c" x="727.333984"/>
     <use xlink:href="#TimesNewRomanPSMT-61" x="755.117188"/>
     <use xlink:href="#TimesNewRomanPSMT-74" x="799.501953"/>
     <use xlink:href="#TimesNewRomanPSMT-65" x="827.285156"/>
     <use xlink:href="#TimesNewRomanPSMT-20" x="871.669922"/>
     <use xlink:href="#TimesNewRomanPSMT-31" x="896.669922"/>
    </g>
   </g>
  </g>
  <g id="axes_2">
   <g id="patch_7">
    <path d="M 394.363636 315 
L 648 315 
L 648 43.2 
L 394.363636 43.2 
z
" style="fill: #e5e5e5"/>
   </g>
   <g id="matplotlib.axis_3">
    <g id="xtick_8">
     <g id="line2d_38">
      <path d="M 405.892562 315 
L 405.892562 43.2 
" clip-path="url(#p1024841505)" style="fill: none; stroke: #ffffff; stroke-width: 0.8; stroke-linecap: square"/>
     </g>
     <g id="line2d_39">
      <g>
       <use xlink:href="#m2871638f44" x="405.892562" y="315" style="fill: #555555; stroke: #555555; stroke-width: 0.8"/>
      </g>
     </g>
     <g id="text_15">
      <!-- 0 -->
      <g style="fill: #555555" transform="translate(403.392562 328.94375)scale(0.1 -0.1)">
       <use xlink:href="#TimesNewRomanPSMT-30"/>
      </g>
     </g>
    </g>
    <g id="xtick_9">
     <g id="line2d_40">
      <path d="M 444.973666 315 
L 444.973666 43.2 
" clip-path="url(#p1024841505)" style="fill: none; stroke: #ffffff; stroke-width: 0.8; stroke-linecap: square"/>
     </g>
     <g id="line2d_41">
      <g>
       <use xlink:href="#m2871638f44" x="444.973666" y="315" style="fill: #555555; stroke: #555555; stroke-width: 0.8"/>
      </g>
     </g>
     <g id="text_16">
      <!-- 10 -->
      <g style="fill: #555555" transform="translate(439.973666 328.94375)scale(0.1 -0.1)">
       <use xlink:href="#TimesNewRomanPSMT-31"/>
       <use xlink:href="#TimesNewRomanPSMT-30" x="50"/>
      </g>
     </g>
    </g>
    <g id="xtick_10">
     <g id="line2d_42">
      <path d="M 484.05477 315 
L 484.05477 43.2 
" clip-path="url(#p1024841505)" style="fill: none; stroke: #ffffff; stroke-width: 0.8; stroke-linecap: square"/>
     </g>
     <g id="line2d_43">
      <g>
       <use xlink:href="#m2871638f44" x="484.05477" y="315" style="fill: #555555; stroke: #555555; stroke-width: 0.8"/>
      </g>
     </g>
     <g id="text_17">
      <!-- 20 -->
      <g style="fill: #555555" transform="translate(479.05477 328.94375)scale(0.1 -0.1)">
       <use xlink:href="#TimesNewRomanPSMT-32"/>
       <use xlink:href="#TimesNewRomanPSMT-30" x="50"/>
      </g>
     </g>
    </g>
    <g id="xtick_11">
     <g id="line2d_44">
      <path d="M 523.135873 315 
L 523.135873 43.2 
" clip-path="url(#p1024841505)" style="fill: none; stroke: #ffffff; stroke-width: 0.8; stroke-linecap: square"/>
     </g>
     <g id="line2d_45">
      <g>
       <use xlink:href="#m2871638f44" x="523.135873" y="315" style="fill: #555555; stroke: #555555; stroke-width: 0.8"/>
      </g>
     </g>
     <g id="text_18">
      <!-- 30 -->
      <g style="fill: #555555" transform="translate(518.135873 328.94375)scale(0.1 -0.1)">
       <use xlink:href="#TimesNewRomanPSMT-33"/>
       <use xlink:href="#TimesNewRomanPSMT-30" x="50"/>
      </g>
     </g>
    </g>
    <g id="xtick_12">
     <g id="line2d_46">
      <path d="M 562.216977 315 
L 562.216977 43.2 
" clip-path="url(#p1024841505)" style="fill: none; stroke: #ffffff; stroke-width: 0.8; stroke-linecap: square"/>
     </g>
     <g id="line2d_47">
      <g>
       <use xlink:href="#m2871638f44" x="562.216977" y="315" style="fill: #555555; stroke: #555555; stroke-width: 0.8"/>
      </g>
     </g>
     <g id="text_19">
      <!-- 40 -->
      <g style="fill: #555555" transform="translate(557.216977 328.94375)scale(0.1 -0.1)">
       <use xlink:href="#TimesNewRomanPSMT-34"/>
       <use xlink:href="#TimesNewRomanPSMT-30" x="50"/>
      </g>
     </g>
    </g>
    <g id="xtick_13">
     <g id="line2d_48">
      <path d="M 601.298081 315 
L 601.298081 43.2 
" clip-path="url(#p1024841505)" style="fill: none; stroke: #ffffff; stroke-width: 0.8; stroke-linecap: square"/>
     </g>
     <g id="line2d_49">
      <g>
       <use xlink:href="#m2871638f44" x="601.298081" y="315" style="fill: #555555; stroke: #555555; stroke-width: 0.8"/>
      </g>
     </g>
     <g id="text_20">
      <!-- 50 -->
      <g style="fill: #555555" transform="translate(596.298081 328.94375)scale(0.1 -0.1)">
       <use xlink:href="#TimesNewRomanPSMT-35"/>
       <use xlink:href="#TimesNewRomanPSMT-30" x="50"/>
      </g>
     </g>
    </g>
    <g id="xtick_14">
     <g id="line2d_50">
      <path d="M 640.379185 315 
L 640.379185 43.2 
" clip-path="url(#p1024841505)" style="fill: none; stroke: #ffffff; stroke-width: 0.8; stroke-linecap: square"/>
     </g>
     <g id="line2d_51">
      <g>
       <use xlink:href="#m2871638f44" x="640.379185" y="315" style="fill: #555555; stroke: #555555; stroke-width: 0.8"/>
      </g>
     </g>
     <g id="text_21">
      <!-- 60 -->
      <g style="fill: #555555" transform="translate(635.379185 328.94375)scale(0.1 -0.1)">
       <use xlink:href="#TimesNewRomanPSMT-36"/>
       <use xlink:href="#TimesNewRomanPSMT-30" x="50"/>
      </g>
     </g>
    </g>
   </g>
   <g id="matplotlib.axis_4">
    <g id="ytick_7">
     <g id="line2d_52">
      <path d="M 394.363636 302.645455 
L 648 302.645455 
" clip-path="url(#p1024841505)" style="fill: none; stroke: #ffffff; stroke-width: 0.8; stroke-linecap: square"/>
     </g>
     <g id="line2d_53">
      <g>
       <use xlink:href="#m125661f0d1" x="394.363636" y="302.645455" style="fill: #555555; stroke: #555555; stroke-width: 0.8"/>
      </g>
     </g>
     <g id="text_22">
      <!-- 0.0 -->
      <g style="fill: #555555" transform="translate(374.863636 306.11733)scale(0.1 -0.1)">
       <use xlink:href="#TimesNewRomanPSMT-30"/>
       <use xlink:href="#TimesNewRomanPSMT-2e" x="50"/>
       <use xlink:href="#TimesNewRomanPSMT-30" x="75"/>
      </g>
     </g>
    </g>
    <g id="ytick_8">
     <g id="line2d_54">
      <path d="M 394.363636 253.227273 
L 648 253.227273 
" clip-path="url(#p1024841505)" style="fill: none; stroke: #ffffff; stroke-width: 0.8; stroke-linecap: square"/>
     </g>
     <g id="line2d_55">
      <g>
       <use xlink:href="#m125661f0d1" x="394.363636" y="253.227273" style="fill: #555555; stroke: #555555; stroke-width: 0.8"/>
      </g>
     </g>
     <g id="text_23">
      <!-- 0.2 -->
      <g style="fill: #555555" transform="translate(374.863636 256.699148)scale(0.1 -0.1)">
       <use xlink:href="#TimesNewRomanPSMT-30"/>
       <use xlink:href="#TimesNewRomanPSMT-2e" x="50"/>
       <use xlink:href="#TimesNewRomanPSMT-32" x="75"/>
      </g>
     </g>
    </g>
    <g id="ytick_9">
     <g id="line2d_56">
      <path d="M 394.363636 203.809091 
L 648 203.809091 
" clip-path="url(#p1024841505)" style="fill: none; stroke: #ffffff; stroke-width: 0.8; stroke-linecap: square"/>
     </g>
     <g id="line2d_57">
      <g>
       <use xlink:href="#m125661f0d1" x="394.363636" y="203.809091" style="fill: #555555; stroke: #555555; stroke-width: 0.8"/>
      </g>
     </g>
     <g id="text_24">
      <!-- 0.4 -->
      <g style="fill: #555555" transform="translate(374.863636 207.280966)scale(0.1 -0.1)">
       <use xlink:href="#TimesNewRomanPSMT-30"/>
       <use xlink:href="#TimesNewRomanPSMT-2e" x="50"/>
       <use xlink:href="#TimesNewRomanPSMT-34" x="75"/>
      </g>
     </g>
    </g>
    <g id="ytick_10">
     <g id="line2d_58">
      <path d="M 394.363636 154.390909 
L 648 154.390909 
" clip-path="url(#p1024841505)" style="fill: none; stroke: #ffffff; stroke-width: 0.8; stroke-linecap: square"/>
     </g>
     <g id="line2d_59">
      <g>
       <use xlink:href="#m125661f0d1" x="394.363636" y="154.390909" style="fill: #555555; stroke: #555555; stroke-width: 0.8"/>
      </g>
     </g>
     <g id="text_25">
      <!-- 0.6 -->
      <g style="fill: #555555" transform="translate(374.863636 157.862784)scale(0.1 -0.1)">
       <use xlink:href="#TimesNewRomanPSMT-30"/>
       <use xlink:href="#TimesNewRomanPSMT-2e" x="50"/>
       <use xlink:href="#TimesNewRomanPSMT-36" x="75"/>
      </g>
     </g>
    </g>
    <g id="ytick_11">
     <g id="line2d_60">
      <path d="M 394.363636 104.972727 
L 648 104.972727 
" clip-path="url(#p1024841505)" style="fill: none; stroke: #ffffff; stroke-width: 0.8; stroke-linecap: square"/>
     </g>
     <g id="line2d_61">
      <g>
       <use xlink:href="#m125661f0d1" x="394.363636" y="104.972727" style="fill: #555555; stroke: #555555; stroke-width: 0.8"/>
      </g>
     </g>
     <g id="text_26">
      <!-- 0.8 -->
      <g style="fill: #555555" transform="translate(374.863636 108.444602)scale(0.1 -0.1)">
       <use xlink:href="#TimesNewRomanPSMT-30"/>
       <use xlink:href="#TimesNewRomanPSMT-2e" x="50"/>
       <use xlink:href="#TimesNewRomanPSMT-38" x="75"/>
      </g>
     </g>
    </g>
    <g id="ytick_12">
     <g id="line2d_62">
      <path d="M 394.363636 55.554545 
L 648 55.554545 
" clip-path="url(#p1024841505)" style="fill: none; stroke: #ffffff; stroke-width: 0.8; stroke-linecap: square"/>
     </g>
     <g id="line2d_63">
      <g>
       <use xlink:href="#m125661f0d1" x="394.363636" y="55.554545" style="fill: #555555; stroke: #555555; stroke-width: 0.8"/>
      </g>
     </g>
     <g id="text_27">
      <!-- 1.0 -->
      <g style="fill: #555555" transform="translate(374.863636 59.02642)scale(0.1 -0.1)">
       <use xlink:href="#TimesNewRomanPSMT-31"/>
       <use xlink:href="#TimesNewRomanPSMT-2e" x="50"/>
       <use xlink:href="#TimesNewRomanPSMT-30" x="75"/>
      </g>
     </g>
    </g>
   </g>
   <g id="line2d_64">
    <path d="M 405.892562 156.704849 
L 409.800672 170.894307 
L 413.708783 142.884879 
L 417.616893 138.006178 
L 421.525004 140.262087 
L 425.433114 106.498013 
L 429.341224 136.952926 
L 433.249335 102.022954 
L 437.157445 85.836545 
L 441.065555 91.846412 
L 444.973666 91.935707 
L 448.881776 109.330535 
L 452.789887 98.600088 
L 456.697997 92.514392 
L 460.606107 66.404638 
L 464.514218 95.993076 
L 468.422328 106.318503 
L 472.330438 154.537599 
L 476.238549 95.180818 
L 480.146659 109.524733 
L 484.05477 102.4719 
L 487.96288 101.581795 
L 491.87099 127.680691 
L 495.779101 147.261722 
L 499.687211 107.523878 
L 503.595321 106.516789 
L 507.503432 120.833325 
L 511.411542 87.881308 
L 515.319653 67.0518 
L 519.227763 55.554545 
L 523.135873 100.344959 
L 527.043984 124.865297 
L 530.952094 156.554808 
L 534.860205 150.037709 
L 538.768315 175.492187 
L 542.676425 166.324039 
L 546.584536 189.340423 
L 550.492646 208.882588 
L 554.400756 195.597111 
L 558.308867 167.829588 
L 562.216977 162.440181 
L 566.125088 174.193598 
L 570.033198 234.029409 
L 573.941308 235.11523 
L 577.849419 225.615416 
L 581.757529 251.450099 
L 585.665639 274.613253 
L 589.57375 302.645455 
L 593.48186 260.135943 
L 597.389971 243.8976 
L 601.298081 196.85239 
L 605.206191 226.030381 
L 609.114302 236.17799 
L 613.022412 234.586108 
L 616.930522 239.243168 
L 620.838633 241.206171 
L 624.746743 201.811283 
L 628.654854 208.002006 
L 632.562964 247.055324 
L 636.471074 236.737877 
" clip-path="url(#p1024841505)" style="fill: none; stroke: #000000; stroke-opacity: 0.2; stroke-width: 1.5; stroke-linecap: square"/>
   </g>
   <g id="line2d_65">
    <path d="M 405.892562 250.633586 
L 409.800672 93.214136 
L 413.708783 79.349001 
L 417.616893 122.627473 
L 421.525004 96.640193 
L 425.433114 80.934212 
L 429.341224 115.759167 
L 433.249335 109.29085 
L 437.157445 61.240582 
L 441.065555 97.142849 
L 444.973666 95.952143 
L 448.881776 83.678285 
L 452.789887 55.554545 
L 456.697997 57.052342 
L 460.606107 86.513446 
L 464.514218 105.751498 
L 468.422328 123.283509 
L 472.330438 124.56807 
L 476.238549 128.366814 
L 480.146659 100.386187 
L 484.05477 85.265616 
L 487.96288 97.300539 
L 491.87099 130.849223 
L 495.779101 135.204008 
L 499.687211 179.163029 
L 503.595321 146.725391 
L 507.503432 150.984439 
L 511.411542 107.516825 
L 515.319653 187.239826 
L 519.227763 132.497123 
L 523.135873 135.141394 
L 527.043984 84.864489 
L 530.952094 83.096333 
L 534.860205 113.24148 
L 538.768315 91.914496 
L 542.676425 147.017953 
L 546.584536 129.066608 
L 550.492646 118.794328 
L 554.400756 130.242412 
L 558.308867 146.078959 
L 562.216977 158.503681 
L 566.125088 253.615113 
L 570.033198 256.270304 
L 573.941308 264.804727 
L 577.849419 264.745674 
L 581.757529 234.932844 
L 585.665639 255.606591 
L 589.57375 225.899809 
L 593.48186 256.346173 
L 597.389971 247.889868 
L 601.298081 233.964705 
L 605.206191 233.33758 
L 609.114302 209.25213 
L 613.022412 277.916136 
L 616.930522 285.165638 
L 620.838633 286.955564 
L 624.746743 287.595788 
L 628.654854 285.143993 
L 632.562964 302.645455 
L 636.471074 299.278425 
" clip-path="url(#p1024841505)" style="fill: none; stroke: #000000; stroke-opacity: 0.2; stroke-width: 1.5; stroke-linecap: square"/>
   </g>
   <g id="line2d_66">
    <path d="M 405.892562 55.554545 
L 409.800672 103.047573 
L 413.708783 121.951944 
L 417.616893 87.469137 
L 421.525004 74.761252 
L 425.433114 115.677736 
L 429.341224 164.775838 
L 433.249335 155.727374 
L 437.157445 129.967061 
L 441.065555 151.274636 
L 444.973666 130.064724 
L 448.881776 160.841015 
L 452.789887 198.340873 
L 456.697997 152.432677 
L 460.606107 169.085051 
L 464.514218 260.093879 
L 468.422328 238.64146 
L 472.330438 214.742361 
L 476.238549 267.453533 
L 480.146659 249.622204 
L 484.05477 165.476696 
L 487.96288 181.708305 
L 491.87099 178.672208 
L 495.779101 223.48737 
L 499.687211 252.948244 
L 503.595321 302.645455 
L 507.503432 295.549146 
L 511.411542 292.184915 
L 515.319653 286.440283 
L 519.227763 301.014149 
L 523.135873 238.032897 
L 527.043984 195.216382 
L 530.952094 181.372787 
L 534.860205 191.771093 
L 538.768315 196.310617 
L 542.676425 203.203679 
L 546.584536 183.745498 
L 550.492646 174.754731 
L 554.400756 145.435104 
L 558.308867 129.776218 
L 562.216977 127.581752 
L 566.125088 157.59728 
L 570.033198 185.942893 
L 573.941308 175.84082 
L 577.849419 173.966823 
L 581.757529 207.822295 
L 585.665639 210.629622 
L 589.57375 205.298461 
L 593.48186 214.238136 
L 597.389971 212.998981 
L 601.298081 212.405751 
L 605.206191 196.398132 
L 609.114302 195.660054 
L 613.022412 177.654984 
L 616.930522 146.596998 
L 620.838633 131.821722 
L 624.746743 175.220485 
L 628.654854 243.696823 
L 632.562964 192.370558 
L 636.471074 260.741913 
" clip-path="url(#p1024841505)" style="fill: none; stroke: #000000; stroke-opacity: 0.2; stroke-width: 1.5; stroke-linecap: square"/>
   </g>
   <g id="line2d_67">
    <path d="M 405.892562 158.795943 
L 409.800672 137.187815 
L 413.708783 159.790274 
L 417.616893 170.790141 
L 421.525004 165.034574 
L 425.433114 93.032164 
L 429.341224 98.581114 
L 433.249335 100.36255 
L 437.157445 62.673285 
L 441.065555 66.708018 
L 444.973666 55.554545 
L 448.881776 92.490522 
L 452.789887 246.349809 
L 456.697997 234.644752 
L 460.606107 267.586464 
L 464.514218 245.338152 
L 468.422328 268.480598 
L 472.330438 256.895392 
L 476.238549 302.645455 
L 480.146659 271.547394 
L 484.05477 256.578479 
L 487.96288 217.141806 
L 491.87099 165.430607 
L 495.779101 212.953425 
L 499.687211 215.808995 
L 503.595321 231.468055 
L 507.503432 265.055916 
L 511.411542 269.801509 
L 515.319653 248.88124 
L 519.227763 279.309847 
L 523.135873 220.221379 
L 527.043984 264.999435 
L 530.952094 260.531375 
L 534.860205 234.411665 
L 538.768315 215.418752 
L 542.676425 163.911874 
L 546.584536 102.869517 
L 550.492646 143.938882 
L 554.400756 123.777619 
L 558.308867 135.022588 
L 562.216977 129.10447 
L 566.125088 108.086213 
L 570.033198 165.488747 
L 573.941308 107.934813 
L 577.849419 111.48588 
L 581.757529 105.6206 
L 585.665639 95.558753 
L 589.57375 97.311758 
L 593.48186 154.280855 
L 597.389971 139.892221 
L 601.298081 134.276602 
L 605.206191 173.429486 
L 609.114302 256.176327 
L 613.022412 244.282165 
L 616.930522 249.32957 
L 620.838633 245.810379 
L 624.746743 248.578061 
L 628.654854 153.405539 
L 632.562964 201.09977 
L 636.471074 183.900054 
" clip-path="url(#p1024841505)" style="fill: none; stroke: #000000; stroke-opacity: 0.2; stroke-width: 1.5; stroke-linecap: square"/>
   </g>
   <g id="line2d_68">
    <path d="M 405.892562 92.082651 
L 409.800672 100.994686 
L 413.708783 86.534246 
L 417.616893 85.87912 
L 421.525004 89.861122 
L 425.433114 89.168656 
L 429.341224 88.694177 
L 433.249335 86.988513 
L 437.157445 88.842336 
L 441.065555 55.554545 
L 444.973666 58.477113 
L 448.881776 60.419652 
L 452.789887 96.403407 
L 456.697997 109.121383 
L 460.606107 98.123106 
L 464.514218 117.437567 
L 468.422328 120.728162 
L 472.330438 131.930097 
L 476.238549 136.822672 
L 480.146659 145.916087 
L 484.05477 134.631835 
L 487.96288 139.51041 
L 491.87099 174.987369 
L 495.779101 192.326408 
L 499.687211 191.438147 
L 503.595321 219.966686 
L 507.503432 214.763056 
L 511.411542 188.578218 
L 515.319653 208.481103 
L 519.227763 232.088496 
L 523.135873 215.001003 
L 527.043984 205.936436 
L 530.952094 202.280593 
L 534.860205 217.134311 
L 538.768315 210.490836 
L 542.676425 221.013759 
L 546.584536 220.274698 
L 550.492646 256.571541 
L 554.400756 224.321875 
L 558.308867 250.697491 
L 562.216977 268.207442 
L 566.125088 272.773149 
L 570.033198 269.757332 
L 573.941308 289.913661 
L 577.849419 274.723195 
L 581.757529 279.872659 
L 585.665639 265.831208 
L 589.57375 254.002928 
L 593.48186 230.397964 
L 597.389971 244.715093 
L 601.298081 266.741375 
L 605.206191 265.896661 
L 609.114302 264.298601 
L 613.022412 273.061908 
L 616.930522 296.404642 
L 620.838633 296.009167 
L 624.746743 302.645455 
L 628.654854 299.729188 
L 632.562964 272.951911 
L 636.471074 276.887285 
" clip-path="url(#p1024841505)" style="fill: none; stroke: #000000; stroke-opacity: 0.2; stroke-width: 1.5; stroke-linecap: square"/>
   </g>
   <g id="line2d_69">
    <path d="M 405.892562 86.060975 
L 409.800672 55.554545 
L 413.708783 108.42892 
L 417.616893 154.628071 
L 421.525004 192.660614 
L 425.433114 174.671819 
L 429.341224 106.334144 
L 433.249335 128.516179 
L 437.157445 127.465975 
L 441.065555 161.212195 
L 444.973666 163.718911 
L 448.881776 178.959659 
L 452.789887 165.527478 
L 456.697997 141.557838 
L 460.606107 112.352656 
L 464.514218 114.149606 
L 468.422328 68.033141 
L 472.330438 145.207299 
L 476.238549 199.397674 
L 480.146659 248.645941 
L 484.05477 225.673207 
L 487.96288 239.592366 
L 491.87099 278.281126 
L 495.779101 302.645455 
L 499.687211 276.056066 
L 503.595321 264.392411 
L 507.503432 277.408534 
L 511.411542 261.666171 
L 515.319653 244.691804 
L 519.227763 249.99544 
L 523.135873 253.932204 
L 527.043984 202.559016 
L 530.952094 245.237669 
L 534.860205 269.87624 
L 538.768315 276.903791 
L 542.676425 246.687421 
L 546.584536 239.299362 
L 550.492646 198.488821 
L 554.400756 209.952164 
L 558.308867 252.762499 
L 562.216977 271.376061 
L 566.125088 230.205695 
L 570.033198 214.193035 
L 573.941308 196.465878 
L 577.849419 222.777739 
L 581.757529 250.656593 
L 585.665639 198.483992 
L 589.57375 140.047212 
L 593.48186 141.164196 
L 597.389971 147.734933 
L 601.298081 138.207701 
L 605.206191 153.655451 
L 609.114302 153.930207 
L 613.022412 163.96335 
L 616.930522 137.085731 
L 620.838633 125.497505 
L 624.746743 92.281122 
L 628.654854 106.849981 
L 632.562964 138.370866 
L 636.471074 133.386135 
" clip-path="url(#p1024841505)" style="fill: none; stroke: #000000; stroke-opacity: 0.2; stroke-width: 1.5; stroke-linecap: square"/>
   </g>
   <g id="line2d_70">
    <path d="M 405.892562 89.191839 
L 409.800672 95.029068 
L 413.708783 58.990049 
L 417.616893 85.173225 
L 421.525004 75.908971 
L 425.433114 105.63543 
L 429.341224 73.431552 
L 433.249335 81.151678 
L 437.157445 55.554545 
L 441.065555 60.665355 
L 444.973666 62.390892 
L 448.881776 106.594683 
L 452.789887 80.285482 
L 456.697997 85.303933 
L 460.606107 121.786473 
L 464.514218 130.949968 
L 468.422328 129.486444 
L 472.330438 167.395503 
L 476.238549 191.536364 
L 480.146659 192.77617 
L 484.05477 302.645455 
L 487.96288 283.505848 
L 491.87099 280.790854 
L 495.779101 260.887396 
L 499.687211 262.167233 
L 503.595321 293.145949 
L 507.503432 271.262853 
L 511.411542 272.241117 
L 515.319653 270.47135 
L 519.227763 268.979913 
L 523.135873 260.645681 
L 527.043984 265.565618 
L 530.952094 246.574941 
L 534.860205 239.356692 
L 538.768315 243.138601 
L 542.676425 238.933662 
L 546.584536 273.615458 
L 550.492646 259.366913 
L 554.400756 268.442295 
L 558.308867 246.339503 
L 562.216977 246.660411 
L 566.125088 294.060655 
L 570.033198 284.902791 
L 573.941308 280.366381 
L 577.849419 277.946047 
L 581.757529 276.801872 
L 585.665639 231.86879 
L 589.57375 166.965108 
L 593.48186 125.321306 
L 597.389971 159.930842 
L 601.298081 184.434225 
L 605.206191 148.967013 
L 609.114302 139.989627 
L 613.022412 153.582465 
L 616.930522 162.488466 
L 620.838633 193.744907 
L 624.746743 181.988537 
L 628.654854 171.184016 
L 632.562964 178.177546 
L 636.471074 134.115265 
" clip-path="url(#p1024841505)" style="fill: none; stroke: #000000; stroke-opacity: 0.2; stroke-width: 1.5; stroke-linecap: square"/>
   </g>
   <g id="line2d_71">
    <path d="M 405.892562 139.983772 
L 409.800672 175.435334 
L 413.708783 164.9596 
L 417.616893 120.280693 
L 421.525004 158.18551 
L 425.433114 135.849772 
L 429.341224 156.897453 
L 433.249335 150.66633 
L 437.157445 123.015464 
L 441.065555 144.596139 
L 444.973666 133.127576 
L 448.881776 160.373465 
L 452.789887 165.594793 
L 456.697997 147.727064 
L 460.606107 158.518698 
L 464.514218 79.071229 
L 468.422328 63.016618 
L 472.330438 57.187148 
L 476.238549 57.742715 
L 480.146659 74.302391 
L 484.05477 91.196423 
L 487.96288 55.554545 
L 491.87099 70.287815 
L 495.779101 92.493399 
L 499.687211 149.218233 
L 503.595321 142.717357 
L 507.503432 133.277247 
L 511.411542 133.745593 
L 515.319653 117.415149 
L 519.227763 148.062158 
L 523.135873 156.098273 
L 527.043984 180.460948 
L 530.952094 171.773339 
L 534.860205 228.682149 
L 538.768315 279.273614 
L 542.676425 286.699484 
L 546.584536 277.831652 
L 550.492646 250.127766 
L 554.400756 193.48969 
L 558.308867 223.945641 
L 562.216977 229.354656 
L 566.125088 210.17846 
L 570.033198 173.035584 
L 573.941308 214.193412 
L 577.849419 202.430287 
L 581.757529 241.612328 
L 585.665639 223.298866 
L 589.57375 201.640091 
L 593.48186 196.146423 
L 597.389971 213.491338 
L 601.298081 195.412722 
L 605.206191 126.759677 
L 609.114302 134.471531 
L 613.022412 187.162876 
L 616.930522 257.362317 
L 620.838633 266.009036 
L 624.746743 289.098956 
L 628.654854 246.237208 
L 632.562964 276.694783 
L 636.471074 302.645455 
" clip-path="url(#p1024841505)" style="fill: none; stroke: #000000; stroke-opacity: 0.2; stroke-width: 1.5; stroke-linecap: square"/>
   </g>
   <g id="line2d_72">
    <path d="M 405.892562 135.716514 
L 409.800672 125.731421 
L 413.708783 123.471293 
L 417.616893 156.974267 
L 421.525004 105.992266 
L 425.433114 60.881673 
L 429.341224 55.554545 
L 433.249335 70.606698 
L 437.157445 66.043248 
L 441.065555 98.901404 
L 444.973666 108.801617 
L 448.881776 160.242204 
L 452.789887 121.606957 
L 456.697997 83.210356 
L 460.606107 142.011424 
L 464.514218 151.439188 
L 468.422328 209.948697 
L 472.330438 155.119593 
L 476.238549 124.899302 
L 480.146659 175.991129 
L 484.05477 178.229776 
L 487.96288 206.261918 
L 491.87099 134.756113 
L 495.779101 170.912319 
L 499.687211 136.925483 
L 503.595321 110.090707 
L 507.503432 80.775859 
L 511.411542 59.535246 
L 515.319653 99.529131 
L 519.227763 74.098771 
L 523.135873 97.269015 
L 527.043984 79.81479 
L 530.952094 82.682992 
L 534.860205 101.589399 
L 538.768315 167.921151 
L 542.676425 179.402417 
L 546.584536 242.399718 
L 550.492646 230.992522 
L 554.400756 216.129191 
L 558.308867 167.883109 
L 562.216977 233.058766 
L 566.125088 262.619398 
L 570.033198 252.785441 
L 573.941308 217.496959 
L 577.849419 231.320597 
L 581.757529 264.37933 
L 585.665639 281.365137 
L 589.57375 302.645455 
L 593.48186 284.911964 
L 597.389971 193.475428 
L 601.298081 183.368983 
L 605.206191 208.140854 
L 609.114302 171.920543 
L 613.022412 211.858012 
L 616.930522 248.062193 
L 620.838633 247.834403 
L 624.746743 222.396538 
L 628.654854 244.315953 
L 632.562964 237.56393 
L 636.471074 263.788374 
" clip-path="url(#p1024841505)" style="fill: none; stroke: #000000; stroke-opacity: 0.2; stroke-width: 1.5; stroke-linecap: square"/>
   </g>
   <g id="line2d_73">
    <path d="M 405.892562 83.503861 
L 409.800672 130.578216 
L 413.708783 74.748512 
L 417.616893 112.769742 
L 421.525004 151.16526 
L 425.433114 120.492017 
L 429.341224 161.032934 
L 433.249335 151.249461 
L 437.157445 76.657543 
L 441.065555 122.09209 
L 444.973666 126.038689 
L 448.881776 55.554545 
L 452.789887 71.146551 
L 456.697997 120.204599 
L 460.606107 147.678898 
L 464.514218 228.596037 
L 468.422328 227.638521 
L 472.330438 255.462302 
L 476.238549 282.772036 
L 480.146659 237.044868 
L 484.05477 212.496919 
L 487.96288 211.271053 
L 491.87099 252.68173 
L 495.779101 247.709631 
L 499.687211 195.611716 
L 503.595321 250.922494 
L 507.503432 292.364145 
L 511.411542 240.289847 
L 515.319653 243.973899 
L 519.227763 257.176794 
L 523.135873 187.726563 
L 527.043984 115.171898 
L 530.952094 118.159066 
L 534.860205 125.939634 
L 538.768315 176.95879 
L 542.676425 139.284626 
L 546.584536 124.727119 
L 550.492646 179.145018 
L 554.400756 148.351852 
L 558.308867 194.423263 
L 562.216977 200.758457 
L 566.125088 222.017923 
L 570.033198 302.645455 
L 573.941308 301.020031 
L 577.849419 245.069637 
L 581.757529 220.658843 
L 585.665639 181.437755 
L 589.57375 223.998293 
L 593.48186 258.798094 
L 597.389971 166.889975 
L 601.298081 186.533559 
L 605.206191 150.16469 
L 609.114302 150.260969 
L 613.022412 116.611143 
L 616.930522 146.758903 
L 620.838633 137.593027 
L 624.746743 95.518897 
L 628.654854 120.942989 
L 632.562964 128.587549 
L 636.471074 112.027559 
" clip-path="url(#p1024841505)" style="fill: none; stroke: #000000; stroke-opacity: 0.2; stroke-width: 1.5; stroke-linecap: square"/>
   </g>
   <g id="line2d_74">
    <path d="M 405.892562 147.599526 
L 409.800672 80.799716 
L 413.708783 118.666791 
L 417.616893 128.304462 
L 421.525004 116.986097 
L 425.433114 143.773628 
L 429.341224 144.725901 
L 433.249335 144.43815 
L 437.157445 144.371339 
L 441.065555 145.010794 
L 444.973666 143.670174 
L 448.881776 147.773834 
L 452.789887 142.138285 
L 456.697997 185.567365 
L 460.606107 146.568809 
L 464.514218 138.277752 
L 468.422328 149.109179 
L 472.330438 146.994544 
L 476.238549 123.882228 
L 480.146659 91.134 
L 484.05477 134.580968 
L 487.96288 129.65466 
L 491.87099 129.618162 
L 495.779101 129.982154 
L 499.687211 123.565802 
L 503.595321 144.951205 
L 507.503432 129.845787 
L 511.411542 130.160952 
L 515.319653 178.913888 
L 519.227763 166.428751 
L 523.135873 179.670541 
L 527.043984 212.866205 
L 530.952094 228.242869 
L 534.860205 198.987171 
L 538.768315 209.637934 
L 542.676425 240.464101 
L 546.584536 224.224064 
L 550.492646 221.231649 
L 554.400756 272.094444 
L 558.308867 225.639136 
L 562.216977 236.868917 
L 566.125088 213.40413 
L 570.033198 222.362635 
L 573.941308 181.586672 
L 577.849419 195.3346 
L 581.757529 194.204199 
L 585.665639 140.324313 
L 589.57375 178.777084 
L 593.48186 203.847466 
L 597.389971 198.78973 
L 601.298081 217.489656 
L 605.206191 203.817358 
L 609.114302 204.748149 
L 613.022412 204.828033 
L 616.930522 204.640757 
L 620.838633 204.506456 
L 624.746743 206.202438 
L 628.654854 181.086291 
L 632.562964 229.523606 
L 636.471074 266.491332 
" clip-path="url(#p1024841505)" style="fill: none; stroke: #ff0000; stroke-width: 2; stroke-linecap: square"/>
   </g>
   <g id="patch_8">
    <path d="M 394.363636 315 
L 394.363636 43.2 
" style="fill: none; stroke: #ffffff; stroke-linejoin: miter; stroke-linecap: square"/>
   </g>
   <g id="patch_9">
    <path d="M 648 315 
L 648 43.2 
" style="fill: none; stroke: #ffffff; stroke-linejoin: miter; stroke-linecap: square"/>
   </g>
   <g id="patch_10">
    <path d="M 394.363636 315 
L 648 315 
" style="fill: none; stroke: #ffffff; stroke-linejoin: miter; stroke-linecap: square"/>
   </g>
   <g id="patch_11">
    <path d="M 394.363636 43.2 
L 648 43.2 
" style="fill: none; stroke: #ffffff; stroke-linejoin: miter; stroke-linecap: square"/>
   </g>
   <g id="text_28">
    <!-- EURtoUSD Template 2 -->
    <g transform="translate(473.848224 37.2)scale(0.1 -0.1)">
     <use xlink:href="#TimesNewRomanPSMT-45"/>
     <use xlink:href="#TimesNewRomanPSMT-55" x="61.083984"/>
     <use xlink:href="#TimesNewRomanPSMT-52" x="133.300781"/>
     <use xlink:href="#TimesNewRomanPSMT-74" x="200"/>
     <use xlink:href="#TimesNewRomanPSMT-6f" x="227.783203"/>
     <use xlink:href="#TimesNewRomanPSMT-55" x="277.783203"/>
     <use xlink:href="#TimesNewRomanPSMT-53" x="350"/>
     <use xlink:href="#TimesNewRomanPSMT-44" x="405.615234"/>
     <use xlink:href="#TimesNewRomanPSMT-20" x="477.832031"/>
     <use xlink:href="#TimesNewRomanPSMT-54" x="501.082031"/>
     <use xlink:href="#TimesNewRomanPSMT-65" x="555.166016"/>
     <use xlink:href="#TimesNewRomanPSMT-6d" x="599.550781"/>
     <use xlink:href="#TimesNewRomanPSMT-70" x="677.333984"/>
     <use xlink:href="#TimesNewRomanPSMT-6c" x="727.333984"/>
     <use xlink:href="#TimesNewRomanPSMT-61" x="755.117188"/>
     <use xlink:href="#TimesNewRomanPSMT-74" x="799.501953"/>
     <use xlink:href="#TimesNewRomanPSMT-65" x="827.285156"/>
     <use xlink:href="#TimesNewRomanPSMT-20" x="871.669922"/>
     <use xlink:href="#TimesNewRomanPSMT-32" x="896.669922"/>
    </g>
   </g>
  </g>
 </g>
 <defs>
  <clipPath id="p5488c7ac9a">
   <rect x="90" y="43.2" width="253.636364" height="271.8"/>
  </clipPath>
  <clipPath id="p1024841505">
   <rect x="394.363636" y="43.2" width="253.636364" height="271.8"/>
  </clipPath>
 </defs>
</svg>
