<?xml version="1.0" encoding="utf-8" standalone="no"?>
<!DOCTYPE svg PUBLIC "-//W3C//DTD SVG 1.1//EN"
  "http://www.w3.org/Graphics/SVG/1.1/DTD/svg11.dtd">
<svg xmlns:xlink="http://www.w3.org/1999/xlink" width="720pt" height="360pt" viewBox="0 0 720 360" xmlns="http://www.w3.org/2000/svg" version="1.1">
 <metadata>
  <rdf:RDF xmlns:dc="http://purl.org/dc/elements/1.1/" xmlns:cc="http://creativecommons.org/ns#" xmlns:rdf="http://www.w3.org/1999/02/22-rdf-syntax-ns#">
   <cc:Work>
    <dc:type rdf:resource="http://purl.org/dc/dcmitype/StillImage"/>
    <dc:date>2022-02-26T19:18:27.345594</dc:date>
    <dc:format>image/svg+xml</dc:format>
    <dc:creator>
     <cc:Agent>
      <dc:title>Matplotlib v3.5.0, https://matplotlib.org/</dc:title>
     </cc:Agent>
    </dc:creator>
   </cc:Work>
  </rdf:RDF>
 </metadata>
 <defs>
  <style type="text/css">*{stroke-linejoin: round; stroke-linecap: butt}</style>
 </defs>
 <g id="figure_1">
  <g id="patch_1">
   <path d="M 0 360 
L 720 360 
L 720 0 
L 0 0 
z
" style="fill: #ffffff"/>
  </g>
  <g id="axes_1">
   <g id="patch_2">
    <path d="M 90 315 
L 343.636364 315 
L 343.636364 43.2 
L 90 43.2 
z
" style="fill: #e5e5e5"/>
   </g>
   <g id="matplotlib.axis_1">
    <g id="xtick_1">
     <g id="line2d_1">
      <path d="M 101.528926 315 
L 101.528926 43.2 
" clip-path="url(#p288529a076)" style="fill: none; stroke: #ffffff; stroke-width: 0.8; stroke-linecap: square"/>
     </g>
     <g id="line2d_2">
      <defs>
       <path id="m51cd5975e8" d="M 0 0 
L 0 3.5 
" style="stroke: #555555; stroke-width: 0.8"/>
      </defs>
      <g>
       <use xlink:href="#m51cd5975e8" x="101.528926" y="315" style="fill: #555555; stroke: #555555; stroke-width: 0.8"/>
      </g>
     </g>
     <g id="text_1">
      <!-- 0 -->
      <g style="fill: #555555" transform="translate(99.028926 328.94375)scale(0.1 -0.1)">
       <defs>
        <path id="TimesNewRomanPSMT-30" d="M 231 2094 
Q 231 2819 450 3342 
Q 669 3866 1031 4122 
Q 1313 4325 1613 4325 
Q 2100 4325 2488 3828 
Q 2972 3213 2972 2159 
Q 2972 1422 2759 906 
Q 2547 391 2217 158 
Q 1888 -75 1581 -75 
Q 975 -75 572 641 
Q 231 1244 231 2094 
z
M 844 2016 
Q 844 1141 1059 588 
Q 1238 122 1591 122 
Q 1759 122 1940 273 
Q 2122 425 2216 781 
Q 2359 1319 2359 2297 
Q 2359 3022 2209 3506 
Q 2097 3866 1919 4016 
Q 1791 4119 1609 4119 
Q 1397 4119 1231 3928 
Q 1006 3669 925 3112 
Q 844 2556 844 2016 
z
" transform="scale(0.015625)"/>
       </defs>
       <use xlink:href="#TimesNewRomanPSMT-30"/>
      </g>
     </g>
    </g>
    <g id="xtick_2">
     <g id="line2d_3">
      <path d="M 162.207482 315 
L 162.207482 43.2 
" clip-path="url(#p288529a076)" style="fill: none; stroke: #ffffff; stroke-width: 0.8; stroke-linecap: square"/>
     </g>
     <g id="line2d_4">
      <g>
       <use xlink:href="#m51cd5975e8" x="162.207482" y="315" style="fill: #555555; stroke: #555555; stroke-width: 0.8"/>
      </g>
     </g>
     <g id="text_2">
      <!-- 5 -->
      <g style="fill: #555555" transform="translate(159.707482 328.94375)scale(0.1 -0.1)">
       <defs>
        <path id="TimesNewRomanPSMT-35" d="M 2778 4238 
L 2534 3706 
L 1259 3706 
L 981 3138 
Q 1809 3016 2294 2522 
Q 2709 2097 2709 1522 
Q 2709 1188 2573 903 
Q 2438 619 2231 419 
Q 2025 219 1772 97 
Q 1413 -75 1034 -75 
Q 653 -75 479 54 
Q 306 184 306 341 
Q 306 428 378 495 
Q 450 563 559 563 
Q 641 563 702 538 
Q 763 513 909 409 
Q 1144 247 1384 247 
Q 1750 247 2026 523 
Q 2303 800 2303 1197 
Q 2303 1581 2056 1914 
Q 1809 2247 1375 2428 
Q 1034 2569 447 2591 
L 1259 4238 
L 2778 4238 
z
" transform="scale(0.015625)"/>
       </defs>
       <use xlink:href="#TimesNewRomanPSMT-35"/>
      </g>
     </g>
    </g>
    <g id="xtick_3">
     <g id="line2d_5">
      <path d="M 222.886037 315 
L 222.886037 43.2 
" clip-path="url(#p288529a076)" style="fill: none; stroke: #ffffff; stroke-width: 0.8; stroke-linecap: square"/>
     </g>
     <g id="line2d_6">
      <g>
       <use xlink:href="#m51cd5975e8" x="222.886037" y="315" style="fill: #555555; stroke: #555555; stroke-width: 0.8"/>
      </g>
     </g>
     <g id="text_3">
      <!-- 10 -->
      <g style="fill: #555555" transform="translate(217.886037 328.94375)scale(0.1 -0.1)">
       <defs>
        <path id="TimesNewRomanPSMT-31" d="M 750 3822 
L 1781 4325 
L 1884 4325 
L 1884 747 
Q 1884 391 1914 303 
Q 1944 216 2037 169 
Q 2131 122 2419 116 
L 2419 0 
L 825 0 
L 825 116 
Q 1125 122 1212 167 
Q 1300 213 1334 289 
Q 1369 366 1369 747 
L 1369 3034 
Q 1369 3497 1338 3628 
Q 1316 3728 1258 3775 
Q 1200 3822 1119 3822 
Q 1003 3822 797 3725 
L 750 3822 
z
" transform="scale(0.015625)"/>
       </defs>
       <use xlink:href="#TimesNewRomanPSMT-31"/>
       <use xlink:href="#TimesNewRomanPSMT-30" x="50"/>
      </g>
     </g>
    </g>
    <g id="xtick_4">
     <g id="line2d_7">
      <path d="M 283.564593 315 
L 283.564593 43.2 
" clip-path="url(#p288529a076)" style="fill: none; stroke: #ffffff; stroke-width: 0.8; stroke-linecap: square"/>
     </g>
     <g id="line2d_8">
      <g>
       <use xlink:href="#m51cd5975e8" x="283.564593" y="315" style="fill: #555555; stroke: #555555; stroke-width: 0.8"/>
      </g>
     </g>
     <g id="text_4">
      <!-- 15 -->
      <g style="fill: #555555" transform="translate(278.564593 328.94375)scale(0.1 -0.1)">
       <use xlink:href="#TimesNewRomanPSMT-31"/>
       <use xlink:href="#TimesNewRomanPSMT-35" x="50"/>
      </g>
     </g>
    </g>
   </g>
   <g id="matplotlib.axis_2">
    <g id="ytick_1">
     <g id="line2d_9">
      <path d="M 90 302.645455 
L 343.636364 302.645455 
" clip-path="url(#p288529a076)" style="fill: none; stroke: #ffffff; stroke-width: 0.8; stroke-linecap: square"/>
     </g>
     <g id="line2d_10">
      <defs>
       <path id="m110a95d9cd" d="M 0 0 
L -3.5 0 
" style="stroke: #555555; stroke-width: 0.8"/>
      </defs>
      <g>
       <use xlink:href="#m110a95d9cd" x="90" y="302.645455" style="fill: #555555; stroke: #555555; stroke-width: 0.8"/>
      </g>
     </g>
     <g id="text_5">
      <!-- 0.0 -->
      <g style="fill: #555555" transform="translate(70.5 306.11733)scale(0.1 -0.1)">
       <defs>
        <path id="TimesNewRomanPSMT-2e" d="M 800 606 
Q 947 606 1047 504 
Q 1147 403 1147 259 
Q 1147 116 1045 14 
Q 944 -88 800 -88 
Q 656 -88 554 14 
Q 453 116 453 259 
Q 453 406 554 506 
Q 656 606 800 606 
z
" transform="scale(0.015625)"/>
       </defs>
       <use xlink:href="#TimesNewRomanPSMT-30"/>
       <use xlink:href="#TimesNewRomanPSMT-2e" x="50"/>
       <use xlink:href="#TimesNewRomanPSMT-30" x="75"/>
      </g>
     </g>
    </g>
    <g id="ytick_2">
     <g id="line2d_11">
      <path d="M 90 253.227273 
L 343.636364 253.227273 
" clip-path="url(#p288529a076)" style="fill: none; stroke: #ffffff; stroke-width: 0.8; stroke-linecap: square"/>
     </g>
     <g id="line2d_12">
      <g>
       <use xlink:href="#m110a95d9cd" x="90" y="253.227273" style="fill: #555555; stroke: #555555; stroke-width: 0.8"/>
      </g>
     </g>
     <g id="text_6">
      <!-- 0.2 -->
      <g style="fill: #555555" transform="translate(70.5 256.699148)scale(0.1 -0.1)">
       <defs>
        <path id="TimesNewRomanPSMT-32" d="M 2934 816 
L 2638 0 
L 138 0 
L 138 116 
Q 1241 1122 1691 1759 
Q 2141 2397 2141 2925 
Q 2141 3328 1894 3587 
Q 1647 3847 1303 3847 
Q 991 3847 742 3664 
Q 494 3481 375 3128 
L 259 3128 
Q 338 3706 661 4015 
Q 984 4325 1469 4325 
Q 1984 4325 2329 3994 
Q 2675 3663 2675 3213 
Q 2675 2891 2525 2569 
Q 2294 2063 1775 1497 
Q 997 647 803 472 
L 1909 472 
Q 2247 472 2383 497 
Q 2519 522 2628 598 
Q 2738 675 2819 816 
L 2934 816 
z
" transform="scale(0.015625)"/>
       </defs>
       <use xlink:href="#TimesNewRomanPSMT-30"/>
       <use xlink:href="#TimesNewRomanPSMT-2e" x="50"/>
       <use xlink:href="#TimesNewRomanPSMT-32" x="75"/>
      </g>
     </g>
    </g>
    <g id="ytick_3">
     <g id="line2d_13">
      <path d="M 90 203.809091 
L 343.636364 203.809091 
" clip-path="url(#p288529a076)" style="fill: none; stroke: #ffffff; stroke-width: 0.8; stroke-linecap: square"/>
     </g>
     <g id="line2d_14">
      <g>
       <use xlink:href="#m110a95d9cd" x="90" y="203.809091" style="fill: #555555; stroke: #555555; stroke-width: 0.8"/>
      </g>
     </g>
     <g id="text_7">
      <!-- 0.4 -->
      <g style="fill: #555555" transform="translate(70.5 207.280966)scale(0.1 -0.1)">
       <defs>
        <path id="TimesNewRomanPSMT-34" d="M 2978 1563 
L 2978 1119 
L 2409 1119 
L 2409 0 
L 1894 0 
L 1894 1119 
L 100 1119 
L 100 1519 
L 2066 4325 
L 2409 4325 
L 2409 1563 
L 2978 1563 
z
M 1894 1563 
L 1894 3666 
L 406 1563 
L 1894 1563 
z
" transform="scale(0.015625)"/>
       </defs>
       <use xlink:href="#TimesNewRomanPSMT-30"/>
       <use xlink:href="#TimesNewRomanPSMT-2e" x="50"/>
       <use xlink:href="#TimesNewRomanPSMT-34" x="75"/>
      </g>
     </g>
    </g>
    <g id="ytick_4">
     <g id="line2d_15">
      <path d="M 90 154.390909 
L 343.636364 154.390909 
" clip-path="url(#p288529a076)" style="fill: none; stroke: #ffffff; stroke-width: 0.8; stroke-linecap: square"/>
     </g>
     <g id="line2d_16">
      <g>
       <use xlink:href="#m110a95d9cd" x="90" y="154.390909" style="fill: #555555; stroke: #555555; stroke-width: 0.8"/>
      </g>
     </g>
     <g id="text_8">
      <!-- 0.6 -->
      <g style="fill: #555555" transform="translate(70.5 157.862784)scale(0.1 -0.1)">
       <defs>
        <path id="TimesNewRomanPSMT-36" d="M 2869 4325 
L 2869 4209 
Q 2456 4169 2195 4045 
Q 1934 3922 1679 3669 
Q 1425 3416 1258 3105 
Q 1091 2794 978 2366 
Q 1428 2675 1881 2675 
Q 2316 2675 2634 2325 
Q 2953 1975 2953 1425 
Q 2953 894 2631 456 
Q 2244 -75 1606 -75 
Q 1172 -75 869 213 
Q 275 772 275 1663 
Q 275 2231 503 2743 
Q 731 3256 1154 3653 
Q 1578 4050 1965 4187 
Q 2353 4325 2688 4325 
L 2869 4325 
z
M 925 2138 
Q 869 1716 869 1456 
Q 869 1156 980 804 
Q 1091 453 1309 247 
Q 1469 100 1697 100 
Q 1969 100 2183 356 
Q 2397 613 2397 1088 
Q 2397 1622 2184 2012 
Q 1972 2403 1581 2403 
Q 1463 2403 1327 2353 
Q 1191 2303 925 2138 
z
" transform="scale(0.015625)"/>
       </defs>
       <use xlink:href="#TimesNewRomanPSMT-30"/>
       <use xlink:href="#TimesNewRomanPSMT-2e" x="50"/>
       <use xlink:href="#TimesNewRomanPSMT-36" x="75"/>
      </g>
     </g>
    </g>
    <g id="ytick_5">
     <g id="line2d_17">
      <path d="M 90 104.972727 
L 343.636364 104.972727 
" clip-path="url(#p288529a076)" style="fill: none; stroke: #ffffff; stroke-width: 0.8; stroke-linecap: square"/>
     </g>
     <g id="line2d_18">
      <g>
       <use xlink:href="#m110a95d9cd" x="90" y="104.972727" style="fill: #555555; stroke: #555555; stroke-width: 0.8"/>
      </g>
     </g>
     <g id="text_9">
      <!-- 0.8 -->
      <g style="fill: #555555" transform="translate(70.5 108.444602)scale(0.1 -0.1)">
       <defs>
        <path id="TimesNewRomanPSMT-38" d="M 1228 2134 
Q 725 2547 579 2797 
Q 434 3047 434 3316 
Q 434 3728 753 4026 
Q 1072 4325 1600 4325 
Q 2113 4325 2425 4047 
Q 2738 3769 2738 3413 
Q 2738 3175 2569 2928 
Q 2400 2681 1866 2347 
Q 2416 1922 2594 1678 
Q 2831 1359 2831 1006 
Q 2831 559 2490 242 
Q 2150 -75 1597 -75 
Q 994 -75 656 303 
Q 388 606 388 966 
Q 388 1247 577 1523 
Q 766 1800 1228 2134 
z
M 1719 2469 
Q 2094 2806 2194 3001 
Q 2294 3197 2294 3444 
Q 2294 3772 2109 3958 
Q 1925 4144 1606 4144 
Q 1288 4144 1088 3959 
Q 888 3775 888 3528 
Q 888 3366 970 3203 
Q 1053 3041 1206 2894 
L 1719 2469 
z
M 1375 2016 
Q 1116 1797 991 1539 
Q 866 1281 866 981 
Q 866 578 1086 336 
Q 1306 94 1647 94 
Q 1984 94 2187 284 
Q 2391 475 2391 747 
Q 2391 972 2272 1150 
Q 2050 1481 1375 2016 
z
" transform="scale(0.015625)"/>
       </defs>
       <use xlink:href="#TimesNewRomanPSMT-30"/>
       <use xlink:href="#TimesNewRomanPSMT-2e" x="50"/>
       <use xlink:href="#TimesNewRomanPSMT-38" x="75"/>
      </g>
     </g>
    </g>
    <g id="ytick_6">
     <g id="line2d_19">
      <path d="M 90 55.554545 
L 343.636364 55.554545 
" clip-path="url(#p288529a076)" style="fill: none; stroke: #ffffff; stroke-width: 0.8; stroke-linecap: square"/>
     </g>
     <g id="line2d_20">
      <g>
       <use xlink:href="#m110a95d9cd" x="90" y="55.554545" style="fill: #555555; stroke: #555555; stroke-width: 0.8"/>
      </g>
     </g>
     <g id="text_10">
      <!-- 1.0 -->
      <g style="fill: #555555" transform="translate(70.5 59.02642)scale(0.1 -0.1)">
       <use xlink:href="#TimesNewRomanPSMT-31"/>
       <use xlink:href="#TimesNewRomanPSMT-2e" x="50"/>
       <use xlink:href="#TimesNewRomanPSMT-30" x="75"/>
      </g>
     </g>
    </g>
   </g>
   <g id="line2d_21">
    <path d="M 101.528926 279.375308 
L 113.664637 175.612918 
L 125.800348 116.537877 
L 137.936059 153.106157 
L 150.07177 157.431495 
L 162.207482 68.921781 
L 174.343193 83.001654 
L 186.478904 141.541482 
L 198.614615 55.554545 
L 210.750326 251.643654 
L 222.886037 178.737382 
L 235.021749 201.038529 
L 247.15746 106.185267 
L 259.293171 302.645455 
L 271.428882 223.377942 
L 283.564593 285.582966 
L 295.700304 299.104869 
L 307.836016 93.346238 
L 319.971727 191.924293 
L 332.107438 254.981031 
" clip-path="url(#p288529a076)" style="fill: none; stroke: #000000; stroke-opacity: 0.2; stroke-width: 1.5; stroke-linecap: square"/>
   </g>
   <g id="line2d_22">
    <path d="M 101.528926 197.517563 
L 113.664637 175.906647 
L 125.800348 228.139612 
L 137.936059 141.169342 
L 150.07177 302.645455 
L 162.207482 131.219428 
L 174.343193 150.584173 
L 186.478904 174.21915 
L 198.614615 256.455248 
L 210.750326 55.554545 
L 222.886037 170.982748 
L 235.021749 248.457358 
L 247.15746 250.261987 
L 259.293171 127.807696 
L 271.428882 139.682375 
L 283.564593 187.871126 
L 295.700304 172.785707 
L 307.836016 184.707831 
L 319.971727 281.694187 
L 332.107438 203.934988 
" clip-path="url(#p288529a076)" style="fill: none; stroke: #000000; stroke-opacity: 0.2; stroke-width: 1.5; stroke-linecap: square"/>
   </g>
   <g id="line2d_23">
    <path d="M 101.528926 80.991108 
L 113.664637 124.81008 
L 125.800348 158.445198 
L 137.936059 232.648766 
L 150.07177 77.758959 
L 162.207482 91.26345 
L 174.343193 119.528938 
L 186.478904 55.554545 
L 198.614615 142.705161 
L 210.750326 87.002243 
L 222.886037 65.660506 
L 235.021749 175.144266 
L 247.15746 117.489105 
L 259.293171 180.443072 
L 271.428882 219.30367 
L 283.564593 179.245386 
L 295.700304 181.154384 
L 307.836016 172.760047 
L 319.971727 302.645455 
L 332.107438 177.589322 
" clip-path="url(#p288529a076)" style="fill: none; stroke: #000000; stroke-opacity: 0.2; stroke-width: 1.5; stroke-linecap: square"/>
   </g>
   <g id="line2d_24">
    <path d="M 101.528926 220.253248 
L 113.664637 178.039014 
L 125.800348 74.656019 
L 137.936059 55.554545 
L 150.07177 128.488107 
L 162.207482 140.336396 
L 174.343193 88.472035 
L 186.478904 152.243609 
L 198.614615 243.536843 
L 210.750326 223.656102 
L 222.886037 138.117207 
L 235.021749 148.305574 
L 247.15746 224.944949 
L 259.293171 302.645455 
L 271.428882 287.07772 
L 283.564593 222.05453 
L 295.700304 254.101217 
L 307.836016 149.924431 
L 319.971727 213.484733 
L 332.107438 155.484092 
" clip-path="url(#p288529a076)" style="fill: none; stroke: #000000; stroke-opacity: 0.2; stroke-width: 1.5; stroke-linecap: square"/>
   </g>
   <g id="line2d_25">
    <path d="M 101.528926 224.822197 
L 113.664637 105.260385 
L 125.800348 165.240168 
L 137.936059 221.448475 
L 150.07177 245.154594 
L 162.207482 178.698693 
L 174.343193 205.51533 
L 186.478904 232.193614 
L 198.614615 246.363577 
L 210.750326 295.026458 
L 222.886037 241.424839 
L 235.021749 220.335051 
L 247.15746 196.56941 
L 259.293171 189.660063 
L 271.428882 55.554545 
L 283.564593 63.48481 
L 295.700304 183.785771 
L 307.836016 302.645455 
L 319.971727 266.193032 
L 332.107438 260.043348 
" clip-path="url(#p288529a076)" style="fill: none; stroke: #000000; stroke-opacity: 0.2; stroke-width: 1.5; stroke-linecap: square"/>
   </g>
   <g id="line2d_26">
    <path d="M 101.528926 148.209518 
L 113.664637 302.645455 
L 125.800348 210.657395 
L 137.936059 222.674362 
L 150.07177 63.037269 
L 162.207482 55.554545 
L 174.343193 163.699727 
L 186.478904 161.155939 
L 198.614615 86.460427 
L 210.750326 68.744949 
L 222.886037 99.763618 
L 235.021749 131.059002 
L 247.15746 109.967579 
L 259.293171 139.511323 
L 271.428882 138.23116 
L 283.564593 247.929926 
L 295.700304 175.988352 
L 307.836016 188.502869 
L 319.971727 191.693206 
L 332.107438 287.649586 
" clip-path="url(#p288529a076)" style="fill: none; stroke: #000000; stroke-opacity: 0.2; stroke-width: 1.5; stroke-linecap: square"/>
   </g>
   <g id="line2d_27">
    <path d="M 101.528926 144.39882 
L 113.664637 106.816778 
L 125.800348 130.109079 
L 137.936059 61.533402 
L 150.07177 67.868202 
L 162.207482 135.949114 
L 174.343193 55.554545 
L 186.478904 98.666009 
L 198.614615 97.67276 
L 210.750326 183.961382 
L 222.886037 174.667888 
L 235.021749 168.48055 
L 247.15746 163.301204 
L 259.293171 111.735254 
L 271.428882 192.141384 
L 283.564593 140.571608 
L 295.700304 252.802745 
L 307.836016 172.164798 
L 319.971727 221.76666 
L 332.107438 302.645455 
" clip-path="url(#p288529a076)" style="fill: none; stroke: #000000; stroke-opacity: 0.2; stroke-width: 1.5; stroke-linecap: square"/>
   </g>
   <g id="line2d_28">
    <path d="M 101.528926 154.136443 
L 113.664637 182.826519 
L 125.800348 89.561344 
L 137.936059 146.464258 
L 150.07177 94.538679 
L 162.207482 55.554545 
L 174.343193 107.739346 
L 186.478904 171.181761 
L 198.614615 267.221493 
L 210.750326 182.340537 
L 222.886037 179.238713 
L 235.021749 225.143161 
L 247.15746 238.29343 
L 259.293171 224.762953 
L 271.428882 200.256032 
L 283.564593 155.66886 
L 295.700304 176.830287 
L 307.836016 164.971882 
L 319.971727 302.645455 
L 332.107438 240.619835 
" clip-path="url(#p288529a076)" style="fill: none; stroke: #000000; stroke-opacity: 0.2; stroke-width: 1.5; stroke-linecap: square"/>
   </g>
   <g id="line2d_29">
    <path d="M 101.528926 124.927764 
L 113.664637 124.728892 
L 125.800348 209.808989 
L 137.936059 92.551951 
L 150.07177 66.764829 
L 162.207482 209.185965 
L 174.343193 102.887802 
L 186.478904 194.093054 
L 198.614615 148.500113 
L 210.750326 110.121925 
L 222.886037 55.554545 
L 235.021749 190.941869 
L 247.15746 149.540599 
L 259.293171 65.394826 
L 271.428882 114.863599 
L 283.564593 236.374549 
L 295.700304 302.645455 
L 307.836016 288.966253 
L 319.971727 176.724693 
L 332.107438 217.617383 
" clip-path="url(#p288529a076)" style="fill: none; stroke: #000000; stroke-opacity: 0.2; stroke-width: 1.5; stroke-linecap: square"/>
   </g>
   <g id="line2d_30">
    <path d="M 101.528926 93.882705 
L 113.664637 119.837516 
L 125.800348 129.538787 
L 137.936059 157.221124 
L 150.07177 135.636165 
L 162.207482 56.999869 
L 174.343193 207.160798 
L 186.478904 137.444584 
L 198.614615 211.07144 
L 210.750326 195.724108 
L 222.886037 82.448263 
L 235.021749 115.963454 
L 247.15746 66.831655 
L 259.293171 76.980967 
L 271.428882 55.554545 
L 283.564593 132.348378 
L 295.700304 123.110941 
L 307.836016 244.253539 
L 319.971727 302.645455 
L 332.107438 218.427652 
" clip-path="url(#p288529a076)" style="fill: none; stroke: #000000; stroke-opacity: 0.2; stroke-width: 1.5; stroke-linecap: square"/>
   </g>
   <g id="line2d_31">
    <path d="M 101.528926 194.092068 
L 113.664637 94.646231 
L 125.800348 147.033515 
L 137.936059 109.65586 
L 150.07177 186.938947 
L 162.207482 165.969349 
L 174.343193 170.535281 
L 186.478904 169.708003 
L 198.614615 169.708003 
L 210.750326 169.640231 
L 222.886037 171.039644 
L 235.021749 156.863538 
L 247.15746 233.729421 
L 259.293171 102.237973 
L 271.428882 181.173828 
L 283.564593 150.757039 
L 295.700304 177.874682 
L 307.836016 246.633786 
L 319.971727 141.396744 
L 332.107438 236.637257 
" clip-path="url(#p288529a076)" style="fill: none; stroke: #ff0000; stroke-width: 2; stroke-linecap: square"/>
   </g>
   <g id="patch_3">
    <path d="M 90 315 
L 90 43.2 
" style="fill: none; stroke: #ffffff; stroke-linejoin: miter; stroke-linecap: square"/>
   </g>
   <g id="patch_4">
    <path d="M 343.636364 315 
L 343.636364 43.2 
" style="fill: none; stroke: #ffffff; stroke-linejoin: miter; stroke-linecap: square"/>
   </g>
   <g id="patch_5">
    <path d="M 90 315 
L 343.636364 315 
" style="fill: none; stroke: #ffffff; stroke-linejoin: miter; stroke-linecap: square"/>
   </g>
   <g id="patch_6">
    <path d="M 90 43.2 
L 343.636364 43.2 
" style="fill: none; stroke: #ffffff; stroke-linejoin: miter; stroke-linecap: square"/>
   </g>
   <g id="text_11">
    <!-- RAY Template 1 -->
    <g transform="translate(183.462713 37.2)scale(0.1 -0.1)">
     <defs>
      <path id="TimesNewRomanPSMT-52" d="M 4325 0 
L 3194 0 
L 1759 1981 
Q 1600 1975 1500 1975 
Q 1459 1975 1412 1976 
Q 1366 1978 1316 1981 
L 1316 750 
Q 1316 350 1403 253 
Q 1522 116 1759 116 
L 1925 116 
L 1925 0 
L 109 0 
L 109 116 
L 269 116 
Q 538 116 653 291 
Q 719 388 719 750 
L 719 3488 
Q 719 3888 631 3984 
Q 509 4122 269 4122 
L 109 4122 
L 109 4238 
L 1653 4238 
Q 2328 4238 2648 4139 
Q 2969 4041 3192 3777 
Q 3416 3513 3416 3147 
Q 3416 2756 3161 2468 
Q 2906 2181 2372 2063 
L 3247 847 
Q 3547 428 3762 290 
Q 3978 153 4325 116 
L 4325 0 
z
M 1316 2178 
Q 1375 2178 1419 2176 
Q 1463 2175 1491 2175 
Q 2097 2175 2405 2437 
Q 2713 2700 2713 3106 
Q 2713 3503 2464 3751 
Q 2216 4000 1806 4000 
Q 1625 4000 1316 3941 
L 1316 2178 
z
" transform="scale(0.015625)"/>
      <path id="TimesNewRomanPSMT-41" d="M 2928 1419 
L 1288 1419 
L 1000 750 
Q 894 503 894 381 
Q 894 284 986 211 
Q 1078 138 1384 116 
L 1384 0 
L 50 0 
L 50 116 
Q 316 163 394 238 
Q 553 388 747 847 
L 2238 4334 
L 2347 4334 
L 3822 809 
Q 4000 384 4145 257 
Q 4291 131 4550 116 
L 4550 0 
L 2878 0 
L 2878 116 
Q 3131 128 3220 200 
Q 3309 272 3309 375 
Q 3309 513 3184 809 
L 2928 1419 
z
M 2841 1650 
L 2122 3363 
L 1384 1650 
L 2841 1650 
z
" transform="scale(0.015625)"/>
      <path id="TimesNewRomanPSMT-59" d="M 3050 4238 
L 4528 4238 
L 4528 4122 
L 4447 4122 
Q 4366 4122 4209 4050 
Q 4053 3978 3925 3843 
Q 3797 3709 3609 3406 
L 2588 1797 
L 2588 734 
Q 2588 344 2675 247 
Q 2794 116 3050 116 
L 3188 116 
L 3188 0 
L 1388 0 
L 1388 116 
L 1538 116 
Q 1806 116 1919 278 
Q 1988 378 1988 734 
L 1988 1738 
L 825 3513 
Q 619 3825 545 3903 
Q 472 3981 241 4091 
Q 178 4122 59 4122 
L 59 4238 
L 1872 4238 
L 1872 4122 
L 1778 4122 
Q 1631 4122 1507 4053 
Q 1384 3984 1384 3847 
Q 1384 3734 1575 3441 
L 2459 2075 
L 3291 3381 
Q 3478 3675 3478 3819 
Q 3478 3906 3433 3975 
Q 3388 4044 3303 4083 
Q 3219 4122 3050 4122 
L 3050 4238 
z
" transform="scale(0.015625)"/>
      <path id="TimesNewRomanPSMT-20" transform="scale(0.015625)"/>
      <path id="TimesNewRomanPSMT-54" d="M 3703 4238 
L 3750 3244 
L 3631 3244 
Q 3597 3506 3538 3619 
Q 3441 3800 3280 3886 
Q 3119 3972 2856 3972 
L 2259 3972 
L 2259 734 
Q 2259 344 2344 247 
Q 2463 116 2709 116 
L 2856 116 
L 2856 0 
L 1059 0 
L 1059 116 
L 1209 116 
Q 1478 116 1591 278 
Q 1659 378 1659 734 
L 1659 3972 
L 1150 3972 
Q 853 3972 728 3928 
Q 566 3869 450 3700 
Q 334 3531 313 3244 
L 194 3244 
L 244 4238 
L 3703 4238 
z
" transform="scale(0.015625)"/>
      <path id="TimesNewRomanPSMT-65" d="M 681 1784 
Q 678 1147 991 784 
Q 1303 422 1725 422 
Q 2006 422 2214 576 
Q 2422 731 2563 1106 
L 2659 1044 
Q 2594 616 2278 264 
Q 1963 -88 1488 -88 
Q 972 -88 605 314 
Q 238 716 238 1394 
Q 238 2128 614 2539 
Q 991 2950 1559 2950 
Q 2041 2950 2350 2633 
Q 2659 2316 2659 1784 
L 681 1784 
z
M 681 1966 
L 2006 1966 
Q 1991 2241 1941 2353 
Q 1863 2528 1708 2628 
Q 1553 2728 1384 2728 
Q 1125 2728 920 2526 
Q 716 2325 681 1966 
z
" transform="scale(0.015625)"/>
      <path id="TimesNewRomanPSMT-6d" d="M 1050 2338 
Q 1363 2650 1419 2697 
Q 1559 2816 1721 2881 
Q 1884 2947 2044 2947 
Q 2313 2947 2506 2790 
Q 2700 2634 2766 2338 
Q 3088 2713 3309 2830 
Q 3531 2947 3766 2947 
Q 3994 2947 4170 2830 
Q 4347 2713 4450 2447 
Q 4519 2266 4519 1878 
L 4519 647 
Q 4519 378 4559 278 
Q 4591 209 4675 161 
Q 4759 113 4950 113 
L 4950 0 
L 3538 0 
L 3538 113 
L 3597 113 
Q 3781 113 3884 184 
Q 3956 234 3988 344 
Q 4000 397 4000 647 
L 4000 1878 
Q 4000 2228 3916 2372 
Q 3794 2572 3525 2572 
Q 3359 2572 3192 2489 
Q 3025 2406 2788 2181 
L 2781 2147 
L 2788 2013 
L 2788 647 
Q 2788 353 2820 281 
Q 2853 209 2943 161 
Q 3034 113 3253 113 
L 3253 0 
L 1806 0 
L 1806 113 
Q 2044 113 2133 169 
Q 2222 225 2256 338 
Q 2272 391 2272 647 
L 2272 1878 
Q 2272 2228 2169 2381 
Q 2031 2581 1784 2581 
Q 1616 2581 1450 2491 
Q 1191 2353 1050 2181 
L 1050 647 
Q 1050 366 1089 281 
Q 1128 197 1204 155 
Q 1281 113 1516 113 
L 1516 0 
L 100 0 
L 100 113 
Q 297 113 375 155 
Q 453 197 493 289 
Q 534 381 534 647 
L 534 1741 
Q 534 2213 506 2350 
Q 484 2453 437 2492 
Q 391 2531 309 2531 
Q 222 2531 100 2484 
L 53 2597 
L 916 2947 
L 1050 2947 
L 1050 2338 
z
" transform="scale(0.015625)"/>
      <path id="TimesNewRomanPSMT-70" d="M -6 2578 
L 875 2934 
L 994 2934 
L 994 2266 
Q 1216 2644 1439 2795 
Q 1663 2947 1909 2947 
Q 2341 2947 2628 2609 
Q 2981 2197 2981 1534 
Q 2981 794 2556 309 
Q 2206 -88 1675 -88 
Q 1444 -88 1275 -22 
Q 1150 25 994 166 
L 994 -706 
Q 994 -1000 1030 -1079 
Q 1066 -1159 1155 -1206 
Q 1244 -1253 1478 -1253 
L 1478 -1369 
L -22 -1369 
L -22 -1253 
L 56 -1253 
Q 228 -1256 350 -1188 
Q 409 -1153 442 -1076 
Q 475 -1000 475 -688 
L 475 2019 
Q 475 2297 450 2372 
Q 425 2447 370 2484 
Q 316 2522 222 2522 
Q 147 2522 31 2478 
L -6 2578 
z
M 994 2081 
L 994 1013 
Q 994 666 1022 556 
Q 1066 375 1236 237 
Q 1406 100 1666 100 
Q 1978 100 2172 344 
Q 2425 663 2425 1241 
Q 2425 1897 2138 2250 
Q 1938 2494 1663 2494 
Q 1513 2494 1366 2419 
Q 1253 2363 994 2081 
z
" transform="scale(0.015625)"/>
      <path id="TimesNewRomanPSMT-6c" d="M 1184 4444 
L 1184 647 
Q 1184 378 1223 290 
Q 1263 203 1344 158 
Q 1425 113 1647 113 
L 1647 0 
L 244 0 
L 244 113 
Q 441 113 512 153 
Q 584 194 625 287 
Q 666 381 666 647 
L 666 3247 
Q 666 3731 644 3842 
Q 622 3953 573 3993 
Q 525 4034 450 4034 
Q 369 4034 244 3984 
L 191 4094 
L 1044 4444 
L 1184 4444 
z
" transform="scale(0.015625)"/>
      <path id="TimesNewRomanPSMT-61" d="M 1822 413 
Q 1381 72 1269 19 
Q 1100 -59 909 -59 
Q 613 -59 420 144 
Q 228 347 228 678 
Q 228 888 322 1041 
Q 450 1253 767 1440 
Q 1084 1628 1822 1897 
L 1822 2009 
Q 1822 2438 1686 2597 
Q 1550 2756 1291 2756 
Q 1094 2756 978 2650 
Q 859 2544 859 2406 
L 866 2225 
Q 866 2081 792 2003 
Q 719 1925 600 1925 
Q 484 1925 411 2006 
Q 338 2088 338 2228 
Q 338 2497 613 2722 
Q 888 2947 1384 2947 
Q 1766 2947 2009 2819 
Q 2194 2722 2281 2516 
Q 2338 2381 2338 1966 
L 2338 994 
Q 2338 584 2353 492 
Q 2369 400 2405 369 
Q 2441 338 2488 338 
Q 2538 338 2575 359 
Q 2641 400 2828 588 
L 2828 413 
Q 2478 -56 2159 -56 
Q 2006 -56 1915 50 
Q 1825 156 1822 413 
z
M 1822 616 
L 1822 1706 
Q 1350 1519 1213 1441 
Q 966 1303 859 1153 
Q 753 1003 753 825 
Q 753 600 887 451 
Q 1022 303 1197 303 
Q 1434 303 1822 616 
z
" transform="scale(0.015625)"/>
      <path id="TimesNewRomanPSMT-74" d="M 1031 3803 
L 1031 2863 
L 1700 2863 
L 1700 2644 
L 1031 2644 
L 1031 788 
Q 1031 509 1111 412 
Q 1191 316 1316 316 
Q 1419 316 1516 380 
Q 1613 444 1666 569 
L 1788 569 
Q 1678 263 1478 108 
Q 1278 -47 1066 -47 
Q 922 -47 784 33 
Q 647 113 581 261 
Q 516 409 516 719 
L 516 2644 
L 63 2644 
L 63 2747 
Q 234 2816 414 2980 
Q 594 3144 734 3369 
Q 806 3488 934 3803 
L 1031 3803 
z
" transform="scale(0.015625)"/>
     </defs>
     <use xlink:href="#TimesNewRomanPSMT-52"/>
     <use xlink:href="#TimesNewRomanPSMT-41" x="66.699219"/>
     <use xlink:href="#TimesNewRomanPSMT-59" x="129.791016"/>
     <use xlink:href="#TimesNewRomanPSMT-20" x="198.257812"/>
     <use xlink:href="#TimesNewRomanPSMT-54" x="221.507812"/>
     <use xlink:href="#TimesNewRomanPSMT-65" x="275.591797"/>
     <use xlink:href="#TimesNewRomanPSMT-6d" x="319.976562"/>
     <use xlink:href="#TimesNewRomanPSMT-70" x="397.759766"/>
     <use xlink:href="#TimesNewRomanPSMT-6c" x="447.759766"/>
     <use xlink:href="#TimesNewRomanPSMT-61" x="475.542969"/>
     <use xlink:href="#TimesNewRomanPSMT-74" x="519.927734"/>
     <use xlink:href="#TimesNewRomanPSMT-65" x="547.710938"/>
     <use xlink:href="#TimesNewRomanPSMT-20" x="592.095703"/>
     <use xlink:href="#TimesNewRomanPSMT-31" x="617.095703"/>
    </g>
   </g>
  </g>
  <g id="axes_2">
   <g id="patch_7">
    <path d="M 394.363636 315 
L 648 315 
L 648 43.2 
L 394.363636 43.2 
z
" style="fill: #e5e5e5"/>
   </g>
   <g id="matplotlib.axis_3">
    <g id="xtick_5">
     <g id="line2d_32">
      <path d="M 405.892562 315 
L 405.892562 43.2 
" clip-path="url(#p6e43442ca7)" style="fill: none; stroke: #ffffff; stroke-width: 0.8; stroke-linecap: square"/>
     </g>
     <g id="line2d_33">
      <g>
       <use xlink:href="#m51cd5975e8" x="405.892562" y="315" style="fill: #555555; stroke: #555555; stroke-width: 0.8"/>
      </g>
     </g>
     <g id="text_12">
      <!-- 0 -->
      <g style="fill: #555555" transform="translate(403.392562 328.94375)scale(0.1 -0.1)">
       <use xlink:href="#TimesNewRomanPSMT-30"/>
      </g>
     </g>
    </g>
    <g id="xtick_6">
     <g id="line2d_34">
      <path d="M 466.571118 315 
L 466.571118 43.2 
" clip-path="url(#p6e43442ca7)" style="fill: none; stroke: #ffffff; stroke-width: 0.8; stroke-linecap: square"/>
     </g>
     <g id="line2d_35">
      <g>
       <use xlink:href="#m51cd5975e8" x="466.571118" y="315" style="fill: #555555; stroke: #555555; stroke-width: 0.8"/>
      </g>
     </g>
     <g id="text_13">
      <!-- 5 -->
      <g style="fill: #555555" transform="translate(464.071118 328.94375)scale(0.1 -0.1)">
       <use xlink:href="#TimesNewRomanPSMT-35"/>
      </g>
     </g>
    </g>
    <g id="xtick_7">
     <g id="line2d_36">
      <path d="M 527.249674 315 
L 527.249674 43.2 
" clip-path="url(#p6e43442ca7)" style="fill: none; stroke: #ffffff; stroke-width: 0.8; stroke-linecap: square"/>
     </g>
     <g id="line2d_37">
      <g>
       <use xlink:href="#m51cd5975e8" x="527.249674" y="315" style="fill: #555555; stroke: #555555; stroke-width: 0.8"/>
      </g>
     </g>
     <g id="text_14">
      <!-- 10 -->
      <g style="fill: #555555" transform="translate(522.249674 328.94375)scale(0.1 -0.1)">
       <use xlink:href="#TimesNewRomanPSMT-31"/>
       <use xlink:href="#TimesNewRomanPSMT-30" x="50"/>
      </g>
     </g>
    </g>
    <g id="xtick_8">
     <g id="line2d_38">
      <path d="M 587.92823 315 
L 587.92823 43.2 
" clip-path="url(#p6e43442ca7)" style="fill: none; stroke: #ffffff; stroke-width: 0.8; stroke-linecap: square"/>
     </g>
     <g id="line2d_39">
      <g>
       <use xlink:href="#m51cd5975e8" x="587.92823" y="315" style="fill: #555555; stroke: #555555; stroke-width: 0.8"/>
      </g>
     </g>
     <g id="text_15">
      <!-- 15 -->
      <g style="fill: #555555" transform="translate(582.92823 328.94375)scale(0.1 -0.1)">
       <use xlink:href="#TimesNewRomanPSMT-31"/>
       <use xlink:href="#TimesNewRomanPSMT-35" x="50"/>
      </g>
     </g>
    </g>
   </g>
   <g id="matplotlib.axis_4">
    <g id="ytick_7">
     <g id="line2d_40">
      <path d="M 394.363636 302.645455 
L 648 302.645455 
" clip-path="url(#p6e43442ca7)" style="fill: none; stroke: #ffffff; stroke-width: 0.8; stroke-linecap: square"/>
     </g>
     <g id="line2d_41">
      <g>
       <use xlink:href="#m110a95d9cd" x="394.363636" y="302.645455" style="fill: #555555; stroke: #555555; stroke-width: 0.8"/>
      </g>
     </g>
     <g id="text_16">
      <!-- 0.0 -->
      <g style="fill: #555555" transform="translate(374.863636 306.11733)scale(0.1 -0.1)">
       <use xlink:href="#TimesNewRomanPSMT-30"/>
       <use xlink:href="#TimesNewRomanPSMT-2e" x="50"/>
       <use xlink:href="#TimesNewRomanPSMT-30" x="75"/>
      </g>
     </g>
    </g>
    <g id="ytick_8">
     <g id="line2d_42">
      <path d="M 394.363636 253.227273 
L 648 253.227273 
" clip-path="url(#p6e43442ca7)" style="fill: none; stroke: #ffffff; stroke-width: 0.8; stroke-linecap: square"/>
     </g>
     <g id="line2d_43">
      <g>
       <use xlink:href="#m110a95d9cd" x="394.363636" y="253.227273" style="fill: #555555; stroke: #555555; stroke-width: 0.8"/>
      </g>
     </g>
     <g id="text_17">
      <!-- 0.2 -->
      <g style="fill: #555555" transform="translate(374.863636 256.699148)scale(0.1 -0.1)">
       <use xlink:href="#TimesNewRomanPSMT-30"/>
       <use xlink:href="#TimesNewRomanPSMT-2e" x="50"/>
       <use xlink:href="#TimesNewRomanPSMT-32" x="75"/>
      </g>
     </g>
    </g>
    <g id="ytick_9">
     <g id="line2d_44">
      <path d="M 394.363636 203.809091 
L 648 203.809091 
" clip-path="url(#p6e43442ca7)" style="fill: none; stroke: #ffffff; stroke-width: 0.8; stroke-linecap: square"/>
     </g>
     <g id="line2d_45">
      <g>
       <use xlink:href="#m110a95d9cd" x="394.363636" y="203.809091" style="fill: #555555; stroke: #555555; stroke-width: 0.8"/>
      </g>
     </g>
     <g id="text_18">
      <!-- 0.4 -->
      <g style="fill: #555555" transform="translate(374.863636 207.280966)scale(0.1 -0.1)">
       <use xlink:href="#TimesNewRomanPSMT-30"/>
       <use xlink:href="#TimesNewRomanPSMT-2e" x="50"/>
       <use xlink:href="#TimesNewRomanPSMT-34" x="75"/>
      </g>
     </g>
    </g>
    <g id="ytick_10">
     <g id="line2d_46">
      <path d="M 394.363636 154.390909 
L 648 154.390909 
" clip-path="url(#p6e43442ca7)" style="fill: none; stroke: #ffffff; stroke-width: 0.8; stroke-linecap: square"/>
     </g>
     <g id="line2d_47">
      <g>
       <use xlink:href="#m110a95d9cd" x="394.363636" y="154.390909" style="fill: #555555; stroke: #555555; stroke-width: 0.8"/>
      </g>
     </g>
     <g id="text_19">
      <!-- 0.6 -->
      <g style="fill: #555555" transform="translate(374.863636 157.862784)scale(0.1 -0.1)">
       <use xlink:href="#TimesNewRomanPSMT-30"/>
       <use xlink:href="#TimesNewRomanPSMT-2e" x="50"/>
       <use xlink:href="#TimesNewRomanPSMT-36" x="75"/>
      </g>
     </g>
    </g>
    <g id="ytick_11">
     <g id="line2d_48">
      <path d="M 394.363636 104.972727 
L 648 104.972727 
" clip-path="url(#p6e43442ca7)" style="fill: none; stroke: #ffffff; stroke-width: 0.8; stroke-linecap: square"/>
     </g>
     <g id="line2d_49">
      <g>
       <use xlink:href="#m110a95d9cd" x="394.363636" y="104.972727" style="fill: #555555; stroke: #555555; stroke-width: 0.8"/>
      </g>
     </g>
     <g id="text_20">
      <!-- 0.8 -->
      <g style="fill: #555555" transform="translate(374.863636 108.444602)scale(0.1 -0.1)">
       <use xlink:href="#TimesNewRomanPSMT-30"/>
       <use xlink:href="#TimesNewRomanPSMT-2e" x="50"/>
       <use xlink:href="#TimesNewRomanPSMT-38" x="75"/>
      </g>
     </g>
    </g>
    <g id="ytick_12">
     <g id="line2d_50">
      <path d="M 394.363636 55.554545 
L 648 55.554545 
" clip-path="url(#p6e43442ca7)" style="fill: none; stroke: #ffffff; stroke-width: 0.8; stroke-linecap: square"/>
     </g>
     <g id="line2d_51">
      <g>
       <use xlink:href="#m110a95d9cd" x="394.363636" y="55.554545" style="fill: #555555; stroke: #555555; stroke-width: 0.8"/>
      </g>
     </g>
     <g id="text_21">
      <!-- 1.0 -->
      <g style="fill: #555555" transform="translate(374.863636 59.02642)scale(0.1 -0.1)">
       <use xlink:href="#TimesNewRomanPSMT-31"/>
       <use xlink:href="#TimesNewRomanPSMT-2e" x="50"/>
       <use xlink:href="#TimesNewRomanPSMT-30" x="75"/>
      </g>
     </g>
    </g>
   </g>
   <g id="line2d_52">
    <path d="M 405.892562 211.77068 
L 418.028273 232.746926 
L 430.163984 245.890596 
L 442.299696 148.703439 
L 454.435407 272.263616 
L 466.571118 262.479928 
L 478.706829 302.645455 
L 490.84254 294.612829 
L 502.978251 167.769409 
L 515.113963 210.506871 
L 527.249674 55.554545 
L 539.385385 161.401539 
L 551.521096 169.182708 
L 563.656807 171.337078 
L 575.792518 181.478951 
L 587.92823 294.592844 
L 600.063941 172.15512 
L 612.199652 227.706183 
L 624.335363 293.667542 
L 636.471074 126.195191 
" clip-path="url(#p6e43442ca7)" style="fill: none; stroke: #000000; stroke-opacity: 0.2; stroke-width: 1.5; stroke-linecap: square"/>
   </g>
   <g id="line2d_53">
    <path d="M 405.892562 231.222459 
L 418.028273 189.002291 
L 430.163984 125.095549 
L 442.299696 158.046996 
L 454.435407 234.511681 
L 466.571118 110.252706 
L 478.706829 250.361004 
L 490.84254 266.71466 
L 502.978251 302.645455 
L 515.113963 236.154983 
L 527.249674 253.386768 
L 539.385385 220.170266 
L 551.521096 160.276742 
L 563.656807 134.794181 
L 575.792518 60.631781 
L 587.92823 156.589203 
L 600.063941 85.993759 
L 612.199652 85.792365 
L 624.335363 119.764645 
L 636.471074 55.554545 
" clip-path="url(#p6e43442ca7)" style="fill: none; stroke: #000000; stroke-opacity: 0.2; stroke-width: 1.5; stroke-linecap: square"/>
   </g>
   <g id="line2d_54">
    <path d="M 405.892562 119.458187 
L 418.028273 121.400753 
L 430.163984 55.554545 
L 442.299696 127.508341 
L 454.435407 78.097566 
L 466.571118 93.726995 
L 478.706829 162.821427 
L 490.84254 159.641651 
L 502.978251 150.223551 
L 515.113963 302.645455 
L 527.249674 200.605894 
L 539.385385 145.766785 
L 551.521096 165.697245 
L 563.656807 162.954104 
L 575.792518 186.790303 
L 587.92823 132.562653 
L 600.063941 269.819907 
L 612.199652 195.583145 
L 624.335363 100.132125 
L 636.471074 58.3374 
" clip-path="url(#p6e43442ca7)" style="fill: none; stroke: #000000; stroke-opacity: 0.2; stroke-width: 1.5; stroke-linecap: square"/>
   </g>
   <g id="line2d_55">
    <path d="M 405.892562 302.645455 
L 418.028273 152.503221 
L 430.163984 136.039359 
L 442.299696 133.091375 
L 454.435407 57.649577 
L 466.571118 55.554545 
L 478.706829 112.445959 
L 490.84254 121.110822 
L 502.978251 227.828717 
L 515.113963 189.786476 
L 527.249674 178.607553 
L 539.385385 156.358622 
L 551.521096 197.530733 
L 563.656807 194.727228 
L 575.792518 186.196827 
L 587.92823 128.695793 
L 600.063941 96.134703 
L 612.199652 161.558134 
L 624.335363 86.236638 
L 636.471074 110.663189 
" clip-path="url(#p6e43442ca7)" style="fill: none; stroke: #000000; stroke-opacity: 0.2; stroke-width: 1.5; stroke-linecap: square"/>
   </g>
   <g id="line2d_56">
    <path d="M 405.892562 181.15101 
L 418.028273 143.839727 
L 430.163984 128.858319 
L 442.299696 236.390152 
L 454.435407 97.555981 
L 466.571118 94.095425 
L 478.706829 133.58372 
L 490.84254 169.306543 
L 502.978251 135.940016 
L 515.113963 207.31563 
L 527.249674 302.645455 
L 539.385385 63.317779 
L 551.521096 172.126955 
L 563.656807 66.997907 
L 575.792518 76.088895 
L 587.92823 108.259237 
L 600.063941 140.3324 
L 612.199652 55.554545 
L 624.335363 94.111929 
L 636.471074 70.125693 
" clip-path="url(#p6e43442ca7)" style="fill: none; stroke: #000000; stroke-opacity: 0.2; stroke-width: 1.5; stroke-linecap: square"/>
   </g>
   <g id="line2d_57">
    <path d="M 405.892562 90.727918 
L 418.028273 91.802478 
L 430.163984 55.554545 
L 442.299696 103.182546 
L 454.435407 138.27732 
L 466.571118 120.269064 
L 478.706829 117.435744 
L 490.84254 193.980593 
L 502.978251 301.549678 
L 515.113963 165.965269 
L 527.249674 184.955958 
L 539.385385 302.645455 
L 551.521096 186.938931 
L 563.656807 143.540359 
L 575.792518 150.774352 
L 587.92823 107.251367 
L 600.063941 89.467873 
L 612.199652 113.262622 
L 624.335363 122.12444 
L 636.471074 147.785008 
" clip-path="url(#p6e43442ca7)" style="fill: none; stroke: #000000; stroke-opacity: 0.2; stroke-width: 1.5; stroke-linecap: square"/>
   </g>
   <g id="line2d_58">
    <path d="M 405.892562 204.205735 
L 418.028273 284.299743 
L 430.163984 241.948853 
L 442.299696 116.151282 
L 454.435407 185.70912 
L 466.571118 177.711346 
L 478.706829 302.645455 
L 490.84254 279.38383 
L 502.978251 227.995983 
L 515.113963 63.340841 
L 527.249674 83.149496 
L 539.385385 145.132657 
L 551.521096 174.926453 
L 563.656807 193.595181 
L 575.792518 55.554545 
L 587.92823 231.054332 
L 600.063941 217.157984 
L 612.199652 274.207445 
L 624.335363 262.798233 
L 636.471074 82.635063 
" clip-path="url(#p6e43442ca7)" style="fill: none; stroke: #000000; stroke-opacity: 0.2; stroke-width: 1.5; stroke-linecap: square"/>
   </g>
   <g id="line2d_59">
    <path d="M 405.892562 167.513361 
L 418.028273 296.54869 
L 430.163984 150.239236 
L 442.299696 204.256443 
L 454.435407 227.117538 
L 466.571118 67.06277 
L 478.706829 80.04598 
L 490.84254 203.844961 
L 502.978251 302.645455 
L 515.113963 116.184784 
L 527.249674 148.374238 
L 539.385385 175.049005 
L 551.521096 191.645205 
L 563.656807 68.984723 
L 575.792518 154.791275 
L 587.92823 100.110448 
L 600.063941 181.497922 
L 612.199652 257.459714 
L 624.335363 109.622109 
L 636.471074 55.554545 
" clip-path="url(#p6e43442ca7)" style="fill: none; stroke: #000000; stroke-opacity: 0.2; stroke-width: 1.5; stroke-linecap: square"/>
   </g>
   <g id="line2d_60">
    <path d="M 405.892562 123.924174 
L 418.028273 112.696612 
L 430.163984 188.468554 
L 442.299696 302.645455 
L 454.435407 184.852106 
L 466.571118 160.326117 
L 478.706829 121.445015 
L 490.84254 55.554545 
L 502.978251 117.043997 
L 515.113963 117.831518 
L 527.249674 132.747088 
L 539.385385 127.524274 
L 551.521096 149.816888 
L 563.656807 199.267486 
L 575.792518 296.095983 
L 587.92823 254.668481 
L 600.063941 183.625569 
L 612.199652 128.980569 
L 624.335363 162.994495 
L 636.471074 121.167729 
" clip-path="url(#p6e43442ca7)" style="fill: none; stroke: #000000; stroke-opacity: 0.2; stroke-width: 1.5; stroke-linecap: square"/>
   </g>
   <g id="line2d_61">
    <path d="M 405.892562 302.645455 
L 418.028273 228.43553 
L 430.163984 198.117087 
L 442.299696 287.800304 
L 454.435407 55.554545 
L 466.571118 123.879608 
L 478.706829 93.949613 
L 490.84254 75.762161 
L 502.978251 113.983548 
L 515.113963 124.143041 
L 527.249674 223.910429 
L 539.385385 115.407593 
L 551.521096 170.123671 
L 563.656807 163.613207 
L 575.792518 66.233983 
L 587.92823 117.722888 
L 600.063941 103.800332 
L 612.199652 137.210838 
L 624.335363 119.544539 
L 636.471074 67.069197 
" clip-path="url(#p6e43442ca7)" style="fill: none; stroke: #000000; stroke-opacity: 0.2; stroke-width: 1.5; stroke-linecap: square"/>
   </g>
   <g id="line2d_62">
    <path d="M 405.892562 177.391958 
L 418.028273 105.308732 
L 430.163984 162.645242 
L 442.299696 145.947479 
L 454.435407 174.6502 
L 466.571118 261.641895 
L 478.706829 165.981857 
L 490.84254 113.956152 
L 502.978251 154.984749 
L 515.113963 150.988424 
L 527.249674 157.664476 
L 539.385385 141.514766 
L 551.521096 251.081547 
L 563.656807 173.921681 
L 575.792518 98.02472 
L 587.92823 84.003486 
L 600.063941 107.558075 
L 612.199652 141.133895 
L 624.335363 88.005709 
L 636.471074 120.390887 
" clip-path="url(#p6e43442ca7)" style="fill: none; stroke: #ff0000; stroke-width: 2; stroke-linecap: square"/>
   </g>
   <g id="patch_8">
    <path d="M 394.363636 315 
L 394.363636 43.2 
" style="fill: none; stroke: #ffffff; stroke-linejoin: miter; stroke-linecap: square"/>
   </g>
   <g id="patch_9">
    <path d="M 648 315 
L 648 43.2 
" style="fill: none; stroke: #ffffff; stroke-linejoin: miter; stroke-linecap: square"/>
   </g>
   <g id="patch_10">
    <path d="M 394.363636 315 
L 648 315 
" style="fill: none; stroke: #ffffff; stroke-linejoin: miter; stroke-linecap: square"/>
   </g>
   <g id="patch_11">
    <path d="M 394.363636 43.2 
L 648 43.2 
" style="fill: none; stroke: #ffffff; stroke-linejoin: miter; stroke-linecap: square"/>
   </g>
   <g id="text_22">
    <!-- RAY Template 2 -->
    <g transform="translate(487.826349 37.2)scale(0.1 -0.1)">
     <use xlink:href="#TimesNewRomanPSMT-52"/>
     <use xlink:href="#TimesNewRomanPSMT-41" x="66.699219"/>
     <use xlink:href="#TimesNewRomanPSMT-59" x="129.791016"/>
     <use xlink:href="#TimesNewRomanPSMT-20" x="198.257812"/>
     <use xlink:href="#TimesNewRomanPSMT-54" x="221.507812"/>
     <use xlink:href="#TimesNewRomanPSMT-65" x="275.591797"/>
     <use xlink:href="#TimesNewRomanPSMT-6d" x="319.976562"/>
     <use xlink:href="#TimesNewRomanPSMT-70" x="397.759766"/>
     <use xlink:href="#TimesNewRomanPSMT-6c" x="447.759766"/>
     <use xlink:href="#TimesNewRomanPSMT-61" x="475.542969"/>
     <use xlink:href="#TimesNewRomanPSMT-74" x="519.927734"/>
     <use xlink:href="#TimesNewRomanPSMT-65" x="547.710938"/>
     <use xlink:href="#TimesNewRomanPSMT-20" x="592.095703"/>
     <use xlink:href="#TimesNewRomanPSMT-32" x="617.095703"/>
    </g>
   </g>
  </g>
 </g>
 <defs>
  <clipPath id="p288529a076">
   <rect x="90" y="43.2" width="253.636364" height="271.8"/>
  </clipPath>
  <clipPath id="p6e43442ca7">
   <rect x="394.363636" y="43.2" width="253.636364" height="271.8"/>
  </clipPath>
 </defs>
</svg>
