<?xml version="1.0" encoding="utf-8" standalone="no"?>
<!DOCTYPE svg PUBLIC "-//W3C//DTD SVG 1.1//EN"
  "http://www.w3.org/Graphics/SVG/1.1/DTD/svg11.dtd">
<svg xmlns:xlink="http://www.w3.org/1999/xlink" width="720pt" height="360pt" viewBox="0 0 720 360" xmlns="http://www.w3.org/2000/svg" version="1.1">
 <metadata>
  <rdf:RDF xmlns:dc="http://purl.org/dc/elements/1.1/" xmlns:cc="http://creativecommons.org/ns#" xmlns:rdf="http://www.w3.org/1999/02/22-rdf-syntax-ns#">
   <cc:Work>
    <dc:type rdf:resource="http://purl.org/dc/dcmitype/StillImage"/>
    <dc:date>2022-02-26T19:18:41.987043</dc:date>
    <dc:format>image/svg+xml</dc:format>
    <dc:creator>
     <cc:Agent>
      <dc:title>Matplotlib v3.5.0, https://matplotlib.org/</dc:title>
     </cc:Agent>
    </dc:creator>
   </cc:Work>
  </rdf:RDF>
 </metadata>
 <defs>
  <style type="text/css">*{stroke-linejoin: round; stroke-linecap: butt}</style>
 </defs>
 <g id="figure_1">
  <g id="patch_1">
   <path d="M 0 360 
L 720 360 
L 720 0 
L 0 0 
z
" style="fill: #ffffff"/>
  </g>
  <g id="axes_1">
   <g id="patch_2">
    <path d="M 90 315 
L 343.636364 315 
L 343.636364 43.2 
L 90 43.2 
z
" style="fill: #e5e5e5"/>
   </g>
   <g id="matplotlib.axis_1">
    <g id="xtick_1">
     <g id="line2d_1">
      <path d="M 101.528926 315 
L 101.528926 43.2 
" clip-path="url(#p44007f8a9b)" style="fill: none; stroke: #ffffff; stroke-width: 0.8; stroke-linecap: square"/>
     </g>
     <g id="line2d_2">
      <defs>
       <path id="m294cf9785e" d="M 0 0 
L 0 3.5 
" style="stroke: #555555; stroke-width: 0.8"/>
      </defs>
      <g>
       <use xlink:href="#m294cf9785e" x="101.528926" y="315" style="fill: #555555; stroke: #555555; stroke-width: 0.8"/>
      </g>
     </g>
     <g id="text_1">
      <!-- 0 -->
      <g style="fill: #555555" transform="translate(99.028926 328.94375)scale(0.1 -0.1)">
       <defs>
        <path id="TimesNewRomanPSMT-30" d="M 231 2094 
Q 231 2819 450 3342 
Q 669 3866 1031 4122 
Q 1313 4325 1613 4325 
Q 2100 4325 2488 3828 
Q 2972 3213 2972 2159 
Q 2972 1422 2759 906 
Q 2547 391 2217 158 
Q 1888 -75 1581 -75 
Q 975 -75 572 641 
Q 231 1244 231 2094 
z
M 844 2016 
Q 844 1141 1059 588 
Q 1238 122 1591 122 
Q 1759 122 1940 273 
Q 2122 425 2216 781 
Q 2359 1319 2359 2297 
Q 2359 3022 2209 3506 
Q 2097 3866 1919 4016 
Q 1791 4119 1609 4119 
Q 1397 4119 1231 3928 
Q 1006 3669 925 3112 
Q 844 2556 844 2016 
z
" transform="scale(0.015625)"/>
       </defs>
       <use xlink:href="#TimesNewRomanPSMT-30"/>
      </g>
     </g>
    </g>
    <g id="xtick_2">
     <g id="line2d_3">
      <path d="M 162.207482 315 
L 162.207482 43.2 
" clip-path="url(#p44007f8a9b)" style="fill: none; stroke: #ffffff; stroke-width: 0.8; stroke-linecap: square"/>
     </g>
     <g id="line2d_4">
      <g>
       <use xlink:href="#m294cf9785e" x="162.207482" y="315" style="fill: #555555; stroke: #555555; stroke-width: 0.8"/>
      </g>
     </g>
     <g id="text_2">
      <!-- 5 -->
      <g style="fill: #555555" transform="translate(159.707482 328.94375)scale(0.1 -0.1)">
       <defs>
        <path id="TimesNewRomanPSMT-35" d="M 2778 4238 
L 2534 3706 
L 1259 3706 
L 981 3138 
Q 1809 3016 2294 2522 
Q 2709 2097 2709 1522 
Q 2709 1188 2573 903 
Q 2438 619 2231 419 
Q 2025 219 1772 97 
Q 1413 -75 1034 -75 
Q 653 -75 479 54 
Q 306 184 306 341 
Q 306 428 378 495 
Q 450 563 559 563 
Q 641 563 702 538 
Q 763 513 909 409 
Q 1144 247 1384 247 
Q 1750 247 2026 523 
Q 2303 800 2303 1197 
Q 2303 1581 2056 1914 
Q 1809 2247 1375 2428 
Q 1034 2569 447 2591 
L 1259 4238 
L 2778 4238 
z
" transform="scale(0.015625)"/>
       </defs>
       <use xlink:href="#TimesNewRomanPSMT-35"/>
      </g>
     </g>
    </g>
    <g id="xtick_3">
     <g id="line2d_5">
      <path d="M 222.886037 315 
L 222.886037 43.2 
" clip-path="url(#p44007f8a9b)" style="fill: none; stroke: #ffffff; stroke-width: 0.8; stroke-linecap: square"/>
     </g>
     <g id="line2d_6">
      <g>
       <use xlink:href="#m294cf9785e" x="222.886037" y="315" style="fill: #555555; stroke: #555555; stroke-width: 0.8"/>
      </g>
     </g>
     <g id="text_3">
      <!-- 10 -->
      <g style="fill: #555555" transform="translate(217.886037 328.94375)scale(0.1 -0.1)">
       <defs>
        <path id="TimesNewRomanPSMT-31" d="M 750 3822 
L 1781 4325 
L 1884 4325 
L 1884 747 
Q 1884 391 1914 303 
Q 1944 216 2037 169 
Q 2131 122 2419 116 
L 2419 0 
L 825 0 
L 825 116 
Q 1125 122 1212 167 
Q 1300 213 1334 289 
Q 1369 366 1369 747 
L 1369 3034 
Q 1369 3497 1338 3628 
Q 1316 3728 1258 3775 
Q 1200 3822 1119 3822 
Q 1003 3822 797 3725 
L 750 3822 
z
" transform="scale(0.015625)"/>
       </defs>
       <use xlink:href="#TimesNewRomanPSMT-31"/>
       <use xlink:href="#TimesNewRomanPSMT-30" x="50"/>
      </g>
     </g>
    </g>
    <g id="xtick_4">
     <g id="line2d_7">
      <path d="M 283.564593 315 
L 283.564593 43.2 
" clip-path="url(#p44007f8a9b)" style="fill: none; stroke: #ffffff; stroke-width: 0.8; stroke-linecap: square"/>
     </g>
     <g id="line2d_8">
      <g>
       <use xlink:href="#m294cf9785e" x="283.564593" y="315" style="fill: #555555; stroke: #555555; stroke-width: 0.8"/>
      </g>
     </g>
     <g id="text_4">
      <!-- 15 -->
      <g style="fill: #555555" transform="translate(278.564593 328.94375)scale(0.1 -0.1)">
       <use xlink:href="#TimesNewRomanPSMT-31"/>
       <use xlink:href="#TimesNewRomanPSMT-35" x="50"/>
      </g>
     </g>
    </g>
   </g>
   <g id="matplotlib.axis_2">
    <g id="ytick_1">
     <g id="line2d_9">
      <path d="M 90 302.645455 
L 343.636364 302.645455 
" clip-path="url(#p44007f8a9b)" style="fill: none; stroke: #ffffff; stroke-width: 0.8; stroke-linecap: square"/>
     </g>
     <g id="line2d_10">
      <defs>
       <path id="mc5d8e523a5" d="M 0 0 
L -3.5 0 
" style="stroke: #555555; stroke-width: 0.8"/>
      </defs>
      <g>
       <use xlink:href="#mc5d8e523a5" x="90" y="302.645455" style="fill: #555555; stroke: #555555; stroke-width: 0.8"/>
      </g>
     </g>
     <g id="text_5">
      <!-- 0.0 -->
      <g style="fill: #555555" transform="translate(70.5 306.11733)scale(0.1 -0.1)">
       <defs>
        <path id="TimesNewRomanPSMT-2e" d="M 800 606 
Q 947 606 1047 504 
Q 1147 403 1147 259 
Q 1147 116 1045 14 
Q 944 -88 800 -88 
Q 656 -88 554 14 
Q 453 116 453 259 
Q 453 406 554 506 
Q 656 606 800 606 
z
" transform="scale(0.015625)"/>
       </defs>
       <use xlink:href="#TimesNewRomanPSMT-30"/>
       <use xlink:href="#TimesNewRomanPSMT-2e" x="50"/>
       <use xlink:href="#TimesNewRomanPSMT-30" x="75"/>
      </g>
     </g>
    </g>
    <g id="ytick_2">
     <g id="line2d_11">
      <path d="M 90 253.227273 
L 343.636364 253.227273 
" clip-path="url(#p44007f8a9b)" style="fill: none; stroke: #ffffff; stroke-width: 0.8; stroke-linecap: square"/>
     </g>
     <g id="line2d_12">
      <g>
       <use xlink:href="#mc5d8e523a5" x="90" y="253.227273" style="fill: #555555; stroke: #555555; stroke-width: 0.8"/>
      </g>
     </g>
     <g id="text_6">
      <!-- 0.2 -->
      <g style="fill: #555555" transform="translate(70.5 256.699148)scale(0.1 -0.1)">
       <defs>
        <path id="TimesNewRomanPSMT-32" d="M 2934 816 
L 2638 0 
L 138 0 
L 138 116 
Q 1241 1122 1691 1759 
Q 2141 2397 2141 2925 
Q 2141 3328 1894 3587 
Q 1647 3847 1303 3847 
Q 991 3847 742 3664 
Q 494 3481 375 3128 
L 259 3128 
Q 338 3706 661 4015 
Q 984 4325 1469 4325 
Q 1984 4325 2329 3994 
Q 2675 3663 2675 3213 
Q 2675 2891 2525 2569 
Q 2294 2063 1775 1497 
Q 997 647 803 472 
L 1909 472 
Q 2247 472 2383 497 
Q 2519 522 2628 598 
Q 2738 675 2819 816 
L 2934 816 
z
" transform="scale(0.015625)"/>
       </defs>
       <use xlink:href="#TimesNewRomanPSMT-30"/>
       <use xlink:href="#TimesNewRomanPSMT-2e" x="50"/>
       <use xlink:href="#TimesNewRomanPSMT-32" x="75"/>
      </g>
     </g>
    </g>
    <g id="ytick_3">
     <g id="line2d_13">
      <path d="M 90 203.809091 
L 343.636364 203.809091 
" clip-path="url(#p44007f8a9b)" style="fill: none; stroke: #ffffff; stroke-width: 0.8; stroke-linecap: square"/>
     </g>
     <g id="line2d_14">
      <g>
       <use xlink:href="#mc5d8e523a5" x="90" y="203.809091" style="fill: #555555; stroke: #555555; stroke-width: 0.8"/>
      </g>
     </g>
     <g id="text_7">
      <!-- 0.4 -->
      <g style="fill: #555555" transform="translate(70.5 207.280966)scale(0.1 -0.1)">
       <defs>
        <path id="TimesNewRomanPSMT-34" d="M 2978 1563 
L 2978 1119 
L 2409 1119 
L 2409 0 
L 1894 0 
L 1894 1119 
L 100 1119 
L 100 1519 
L 2066 4325 
L 2409 4325 
L 2409 1563 
L 2978 1563 
z
M 1894 1563 
L 1894 3666 
L 406 1563 
L 1894 1563 
z
" transform="scale(0.015625)"/>
       </defs>
       <use xlink:href="#TimesNewRomanPSMT-30"/>
       <use xlink:href="#TimesNewRomanPSMT-2e" x="50"/>
       <use xlink:href="#TimesNewRomanPSMT-34" x="75"/>
      </g>
     </g>
    </g>
    <g id="ytick_4">
     <g id="line2d_15">
      <path d="M 90 154.390909 
L 343.636364 154.390909 
" clip-path="url(#p44007f8a9b)" style="fill: none; stroke: #ffffff; stroke-width: 0.8; stroke-linecap: square"/>
     </g>
     <g id="line2d_16">
      <g>
       <use xlink:href="#mc5d8e523a5" x="90" y="154.390909" style="fill: #555555; stroke: #555555; stroke-width: 0.8"/>
      </g>
     </g>
     <g id="text_8">
      <!-- 0.6 -->
      <g style="fill: #555555" transform="translate(70.5 157.862784)scale(0.1 -0.1)">
       <defs>
        <path id="TimesNewRomanPSMT-36" d="M 2869 4325 
L 2869 4209 
Q 2456 4169 2195 4045 
Q 1934 3922 1679 3669 
Q 1425 3416 1258 3105 
Q 1091 2794 978 2366 
Q 1428 2675 1881 2675 
Q 2316 2675 2634 2325 
Q 2953 1975 2953 1425 
Q 2953 894 2631 456 
Q 2244 -75 1606 -75 
Q 1172 -75 869 213 
Q 275 772 275 1663 
Q 275 2231 503 2743 
Q 731 3256 1154 3653 
Q 1578 4050 1965 4187 
Q 2353 4325 2688 4325 
L 2869 4325 
z
M 925 2138 
Q 869 1716 869 1456 
Q 869 1156 980 804 
Q 1091 453 1309 247 
Q 1469 100 1697 100 
Q 1969 100 2183 356 
Q 2397 613 2397 1088 
Q 2397 1622 2184 2012 
Q 1972 2403 1581 2403 
Q 1463 2403 1327 2353 
Q 1191 2303 925 2138 
z
" transform="scale(0.015625)"/>
       </defs>
       <use xlink:href="#TimesNewRomanPSMT-30"/>
       <use xlink:href="#TimesNewRomanPSMT-2e" x="50"/>
       <use xlink:href="#TimesNewRomanPSMT-36" x="75"/>
      </g>
     </g>
    </g>
    <g id="ytick_5">
     <g id="line2d_17">
      <path d="M 90 104.972727 
L 343.636364 104.972727 
" clip-path="url(#p44007f8a9b)" style="fill: none; stroke: #ffffff; stroke-width: 0.8; stroke-linecap: square"/>
     </g>
     <g id="line2d_18">
      <g>
       <use xlink:href="#mc5d8e523a5" x="90" y="104.972727" style="fill: #555555; stroke: #555555; stroke-width: 0.8"/>
      </g>
     </g>
     <g id="text_9">
      <!-- 0.8 -->
      <g style="fill: #555555" transform="translate(70.5 108.444602)scale(0.1 -0.1)">
       <defs>
        <path id="TimesNewRomanPSMT-38" d="M 1228 2134 
Q 725 2547 579 2797 
Q 434 3047 434 3316 
Q 434 3728 753 4026 
Q 1072 4325 1600 4325 
Q 2113 4325 2425 4047 
Q 2738 3769 2738 3413 
Q 2738 3175 2569 2928 
Q 2400 2681 1866 2347 
Q 2416 1922 2594 1678 
Q 2831 1359 2831 1006 
Q 2831 559 2490 242 
Q 2150 -75 1597 -75 
Q 994 -75 656 303 
Q 388 606 388 966 
Q 388 1247 577 1523 
Q 766 1800 1228 2134 
z
M 1719 2469 
Q 2094 2806 2194 3001 
Q 2294 3197 2294 3444 
Q 2294 3772 2109 3958 
Q 1925 4144 1606 4144 
Q 1288 4144 1088 3959 
Q 888 3775 888 3528 
Q 888 3366 970 3203 
Q 1053 3041 1206 2894 
L 1719 2469 
z
M 1375 2016 
Q 1116 1797 991 1539 
Q 866 1281 866 981 
Q 866 578 1086 336 
Q 1306 94 1647 94 
Q 1984 94 2187 284 
Q 2391 475 2391 747 
Q 2391 972 2272 1150 
Q 2050 1481 1375 2016 
z
" transform="scale(0.015625)"/>
       </defs>
       <use xlink:href="#TimesNewRomanPSMT-30"/>
       <use xlink:href="#TimesNewRomanPSMT-2e" x="50"/>
       <use xlink:href="#TimesNewRomanPSMT-38" x="75"/>
      </g>
     </g>
    </g>
    <g id="ytick_6">
     <g id="line2d_19">
      <path d="M 90 55.554545 
L 343.636364 55.554545 
" clip-path="url(#p44007f8a9b)" style="fill: none; stroke: #ffffff; stroke-width: 0.8; stroke-linecap: square"/>
     </g>
     <g id="line2d_20">
      <g>
       <use xlink:href="#mc5d8e523a5" x="90" y="55.554545" style="fill: #555555; stroke: #555555; stroke-width: 0.8"/>
      </g>
     </g>
     <g id="text_10">
      <!-- 1.0 -->
      <g style="fill: #555555" transform="translate(70.5 59.02642)scale(0.1 -0.1)">
       <use xlink:href="#TimesNewRomanPSMT-31"/>
       <use xlink:href="#TimesNewRomanPSMT-2e" x="50"/>
       <use xlink:href="#TimesNewRomanPSMT-30" x="75"/>
      </g>
     </g>
    </g>
   </g>
   <g id="line2d_21">
    <path d="M 101.528926 74.047282 
L 113.664637 77.941712 
L 125.800348 77.216862 
L 137.936059 84.491193 
L 150.07177 86.749913 
L 162.207482 84.884745 
L 174.343193 80.079036 
L 186.478904 75.843895 
L 198.614615 302.645455 
L 210.750326 55.554545 
L 222.886037 74.848007 
L 235.021749 73.734407 
L 247.15746 79.903897 
L 259.293171 82.955769 
L 271.428882 83.877086 
L 283.564593 82.163731 
L 295.700304 90.905069 
L 307.836016 88.325587 
L 319.971727 95.807455 
L 332.107438 95.628688 
" clip-path="url(#p44007f8a9b)" style="fill: none; stroke: #000000; stroke-opacity: 0.2; stroke-width: 1.5; stroke-linecap: square"/>
   </g>
   <g id="line2d_22">
    <path d="M 101.528926 82.087655 
L 113.664637 78.028422 
L 125.800348 74.594909 
L 137.936059 73.379031 
L 150.07177 68.750634 
L 162.207482 63.810084 
L 174.343193 65.744593 
L 186.478904 61.11157 
L 198.614615 68.214594 
L 210.750326 63.603863 
L 222.886037 68.340056 
L 235.021749 70.378841 
L 247.15746 71.020017 
L 259.293171 69.73547 
L 271.428882 70.661372 
L 283.564593 70.787965 
L 295.700304 302.645455 
L 307.836016 55.554545 
L 319.971727 66.758143 
L 332.107438 73.481933 
" clip-path="url(#p44007f8a9b)" style="fill: none; stroke: #000000; stroke-opacity: 0.2; stroke-width: 1.5; stroke-linecap: square"/>
   </g>
   <g id="line2d_23">
    <path d="M 101.528926 65.432376 
L 113.664637 66.607699 
L 125.800348 74.333498 
L 137.936059 72.955259 
L 150.07177 74.077137 
L 162.207482 77.811798 
L 174.343193 78.456622 
L 186.478904 73.762352 
L 198.614615 75.821238 
L 210.750326 302.645455 
L 222.886037 55.554545 
L 235.021749 63.742765 
L 247.15746 67.815989 
L 259.293171 68.163327 
L 271.428882 71.213771 
L 283.564593 76.276176 
L 295.700304 78.639763 
L 307.836016 76.105686 
L 319.971727 80.111709 
L 332.107438 86.304893 
" clip-path="url(#p44007f8a9b)" style="fill: none; stroke: #000000; stroke-opacity: 0.2; stroke-width: 1.5; stroke-linecap: square"/>
   </g>
   <g id="line2d_24">
    <path d="M 101.528926 55.554545 
L 113.664637 82.970568 
L 125.800348 79.193659 
L 137.936059 77.432746 
L 150.07177 78.937464 
L 162.207482 88.34775 
L 174.343193 104.798283 
L 186.478904 109.559881 
L 198.614615 99.153472 
L 210.750326 93.212129 
L 222.886037 302.645455 
L 235.021749 95.739228 
L 247.15746 118.328573 
L 259.293171 111.140878 
L 271.428882 80.540264 
L 283.564593 76.239179 
L 295.700304 75.886385 
L 307.836016 82.553833 
L 319.971727 85.397024 
L 332.107438 87.989355 
" clip-path="url(#p44007f8a9b)" style="fill: none; stroke: #000000; stroke-opacity: 0.2; stroke-width: 1.5; stroke-linecap: square"/>
   </g>
   <g id="line2d_25">
    <path d="M 101.528926 79.619683 
L 113.664637 83.742862 
L 125.800348 82.125551 
L 137.936059 86.289698 
L 150.07177 86.122442 
L 162.207482 81.543404 
L 174.343193 77.521665 
L 186.478904 79.137904 
L 198.614615 84.160359 
L 210.750326 91.687331 
L 222.886037 90.118957 
L 235.021749 87.614874 
L 247.15746 90.097137 
L 259.293171 302.645455 
L 271.428882 67.254915 
L 283.564593 86.322748 
L 295.700304 94.873185 
L 307.836016 95.03293 
L 319.971727 296.898245 
L 332.107438 55.554545 
" clip-path="url(#p44007f8a9b)" style="fill: none; stroke: #000000; stroke-opacity: 0.2; stroke-width: 1.5; stroke-linecap: square"/>
   </g>
   <g id="line2d_26">
    <path d="M 101.528926 70.424273 
L 113.664637 72.74335 
L 125.800348 71.056699 
L 137.936059 72.036339 
L 150.07177 69.195822 
L 162.207482 70.323466 
L 174.343193 74.825137 
L 186.478904 302.645455 
L 198.614615 55.554545 
L 210.750326 68.254311 
L 222.886037 71.626264 
L 235.021749 77.207788 
L 247.15746 81.573272 
L 259.293171 79.920043 
L 271.428882 82.185007 
L 283.564593 84.715004 
L 295.700304 83.990085 
L 307.836016 84.077077 
L 319.971727 298.267595 
L 332.107438 56.434218 
" clip-path="url(#p44007f8a9b)" style="fill: none; stroke: #000000; stroke-opacity: 0.2; stroke-width: 1.5; stroke-linecap: square"/>
   </g>
   <g id="line2d_27">
    <path d="M 101.528926 302.645455 
L 113.664637 61.675443 
L 125.800348 63.941793 
L 137.936059 73.42426 
L 150.07177 55.554545 
L 162.207482 69.820992 
L 174.343193 68.12829 
L 186.478904 93.067377 
L 198.614615 101.954463 
L 210.750326 110.971202 
L 222.886037 115.411588 
L 235.021749 135.480468 
L 247.15746 134.172134 
L 259.293171 143.035535 
L 271.428882 149.202979 
L 283.564593 142.256935 
L 295.700304 130.152509 
L 307.836016 134.720635 
L 319.971727 153.629792 
L 332.107438 150.82281 
" clip-path="url(#p44007f8a9b)" style="fill: none; stroke: #000000; stroke-opacity: 0.2; stroke-width: 1.5; stroke-linecap: square"/>
   </g>
   <g id="line2d_28">
    <path d="M 101.528926 76.199588 
L 113.664637 78.750665 
L 125.800348 72.045679 
L 137.936059 80.063107 
L 150.07177 77.718885 
L 162.207482 74.610294 
L 174.343193 69.852247 
L 186.478904 70.062176 
L 198.614615 73.90288 
L 210.750326 75.897036 
L 222.886037 77.139289 
L 235.021749 302.645455 
L 247.15746 55.554545 
L 259.293171 69.681863 
L 271.428882 80.847279 
L 283.564593 81.269387 
L 295.700304 78.802618 
L 307.836016 79.048377 
L 319.971727 79.009489 
L 332.107438 80.821646 
" clip-path="url(#p44007f8a9b)" style="fill: none; stroke: #000000; stroke-opacity: 0.2; stroke-width: 1.5; stroke-linecap: square"/>
   </g>
   <g id="line2d_29">
    <path d="M 101.528926 77.436623 
L 113.664637 68.839938 
L 125.800348 88.167738 
L 137.936059 83.415132 
L 150.07177 96.018181 
L 162.207482 86.03519 
L 174.343193 96.351568 
L 186.478904 121.544777 
L 198.614615 132.667787 
L 210.750326 104.204456 
L 222.886037 89.26755 
L 235.021749 86.724818 
L 247.15746 102.167324 
L 259.293171 131.778188 
L 271.428882 114.257496 
L 283.564593 104.927573 
L 295.700304 80.005125 
L 307.836016 302.645455 
L 319.971727 62.594878 
L 332.107438 55.554545 
" clip-path="url(#p44007f8a9b)" style="fill: none; stroke: #000000; stroke-opacity: 0.2; stroke-width: 1.5; stroke-linecap: square"/>
   </g>
   <g id="line2d_30">
    <path d="M 101.528926 60.209419 
L 113.664637 63.638889 
L 125.800348 72.233912 
L 137.936059 79.792346 
L 150.07177 74.225087 
L 162.207482 82.418768 
L 174.343193 79.133225 
L 186.478904 80.800695 
L 198.614615 86.508813 
L 210.750326 302.645455 
L 222.886037 56.599246 
L 235.021749 69.826108 
L 247.15746 75.666566 
L 259.293171 68.636203 
L 271.428882 55.554545 
L 283.564593 68.565365 
L 295.700304 72.85196 
L 307.836016 76.873485 
L 319.971727 82.751778 
L 332.107438 71.337459 
" clip-path="url(#p44007f8a9b)" style="fill: none; stroke: #000000; stroke-opacity: 0.2; stroke-width: 1.5; stroke-linecap: square"/>
   </g>
   <g id="line2d_31">
    <path d="M 101.528926 76.216247 
L 113.664637 92.274073 
L 125.800348 81.057182 
L 137.936059 81.338645 
L 150.07177 80.091015 
L 162.207482 80.220043 
L 174.343193 80.220043 
L 186.478904 80.220043 
L 198.614615 80.220043 
L 210.750326 80.150039 
L 222.886037 80.376771 
L 235.021749 80.424342 
L 247.15746 75.86308 
L 259.293171 81.974752 
L 271.428882 283.215072 
L 283.564593 61.031281 
L 295.700304 75.33057 
L 307.836016 68.332464 
L 319.971727 80.691981 
L 332.107438 101.806051 
" clip-path="url(#p44007f8a9b)" style="fill: none; stroke: #ff0000; stroke-width: 2; stroke-linecap: square"/>
   </g>
   <g id="patch_3">
    <path d="M 90 315 
L 90 43.2 
" style="fill: none; stroke: #ffffff; stroke-linejoin: miter; stroke-linecap: square"/>
   </g>
   <g id="patch_4">
    <path d="M 343.636364 315 
L 343.636364 43.2 
" style="fill: none; stroke: #ffffff; stroke-linejoin: miter; stroke-linecap: square"/>
   </g>
   <g id="patch_5">
    <path d="M 90 315 
L 343.636364 315 
" style="fill: none; stroke: #ffffff; stroke-linejoin: miter; stroke-linecap: square"/>
   </g>
   <g id="patch_6">
    <path d="M 90 43.2 
L 343.636364 43.2 
" style="fill: none; stroke: #ffffff; stroke-linejoin: miter; stroke-linecap: square"/>
   </g>
   <g id="text_11">
    <!-- T10Y3M Template 1 -->
    <g transform="translate(174.765057 37.2)scale(0.1 -0.1)">
     <defs>
      <path id="TimesNewRomanPSMT-54" d="M 3703 4238 
L 3750 3244 
L 3631 3244 
Q 3597 3506 3538 3619 
Q 3441 3800 3280 3886 
Q 3119 3972 2856 3972 
L 2259 3972 
L 2259 734 
Q 2259 344 2344 247 
Q 2463 116 2709 116 
L 2856 116 
L 2856 0 
L 1059 0 
L 1059 116 
L 1209 116 
Q 1478 116 1591 278 
Q 1659 378 1659 734 
L 1659 3972 
L 1150 3972 
Q 853 3972 728 3928 
Q 566 3869 450 3700 
Q 334 3531 313 3244 
L 194 3244 
L 244 4238 
L 3703 4238 
z
" transform="scale(0.015625)"/>
      <path id="TimesNewRomanPSMT-59" d="M 3050 4238 
L 4528 4238 
L 4528 4122 
L 4447 4122 
Q 4366 4122 4209 4050 
Q 4053 3978 3925 3843 
Q 3797 3709 3609 3406 
L 2588 1797 
L 2588 734 
Q 2588 344 2675 247 
Q 2794 116 3050 116 
L 3188 116 
L 3188 0 
L 1388 0 
L 1388 116 
L 1538 116 
Q 1806 116 1919 278 
Q 1988 378 1988 734 
L 1988 1738 
L 825 3513 
Q 619 3825 545 3903 
Q 472 3981 241 4091 
Q 178 4122 59 4122 
L 59 4238 
L 1872 4238 
L 1872 4122 
L 1778 4122 
Q 1631 4122 1507 4053 
Q 1384 3984 1384 3847 
Q 1384 3734 1575 3441 
L 2459 2075 
L 3291 3381 
Q 3478 3675 3478 3819 
Q 3478 3906 3433 3975 
Q 3388 4044 3303 4083 
Q 3219 4122 3050 4122 
L 3050 4238 
z
" transform="scale(0.015625)"/>
      <path id="TimesNewRomanPSMT-33" d="M 325 3431 
Q 506 3859 782 4092 
Q 1059 4325 1472 4325 
Q 1981 4325 2253 3994 
Q 2459 3747 2459 3466 
Q 2459 3003 1878 2509 
Q 2269 2356 2469 2072 
Q 2669 1788 2669 1403 
Q 2669 853 2319 450 
Q 1863 -75 997 -75 
Q 569 -75 414 31 
Q 259 138 259 259 
Q 259 350 332 419 
Q 406 488 509 488 
Q 588 488 669 463 
Q 722 447 909 348 
Q 1097 250 1169 231 
Q 1284 197 1416 197 
Q 1734 197 1970 444 
Q 2206 691 2206 1028 
Q 2206 1275 2097 1509 
Q 2016 1684 1919 1775 
Q 1784 1900 1550 2001 
Q 1316 2103 1072 2103 
L 972 2103 
L 972 2197 
Q 1219 2228 1467 2375 
Q 1716 2522 1828 2728 
Q 1941 2934 1941 3181 
Q 1941 3503 1739 3701 
Q 1538 3900 1238 3900 
Q 753 3900 428 3381 
L 325 3431 
z
" transform="scale(0.015625)"/>
      <path id="TimesNewRomanPSMT-4d" d="M 2619 0 
L 981 3566 
L 981 734 
Q 981 344 1066 247 
Q 1181 116 1431 116 
L 1581 116 
L 1581 0 
L 106 0 
L 106 116 
L 256 116 
Q 525 116 638 278 
Q 706 378 706 734 
L 706 3503 
Q 706 3784 644 3909 
Q 600 4000 483 4061 
Q 366 4122 106 4122 
L 106 4238 
L 1306 4238 
L 2844 922 
L 4356 4238 
L 5556 4238 
L 5556 4122 
L 5409 4122 
Q 5138 4122 5025 3959 
Q 4956 3859 4956 3503 
L 4956 734 
Q 4956 344 5044 247 
Q 5159 116 5409 116 
L 5556 116 
L 5556 0 
L 3756 0 
L 3756 116 
L 3906 116 
Q 4178 116 4288 278 
Q 4356 378 4356 734 
L 4356 3566 
L 2722 0 
L 2619 0 
z
" transform="scale(0.015625)"/>
      <path id="TimesNewRomanPSMT-20" transform="scale(0.015625)"/>
      <path id="TimesNewRomanPSMT-65" d="M 681 1784 
Q 678 1147 991 784 
Q 1303 422 1725 422 
Q 2006 422 2214 576 
Q 2422 731 2563 1106 
L 2659 1044 
Q 2594 616 2278 264 
Q 1963 -88 1488 -88 
Q 972 -88 605 314 
Q 238 716 238 1394 
Q 238 2128 614 2539 
Q 991 2950 1559 2950 
Q 2041 2950 2350 2633 
Q 2659 2316 2659 1784 
L 681 1784 
z
M 681 1966 
L 2006 1966 
Q 1991 2241 1941 2353 
Q 1863 2528 1708 2628 
Q 1553 2728 1384 2728 
Q 1125 2728 920 2526 
Q 716 2325 681 1966 
z
" transform="scale(0.015625)"/>
      <path id="TimesNewRomanPSMT-6d" d="M 1050 2338 
Q 1363 2650 1419 2697 
Q 1559 2816 1721 2881 
Q 1884 2947 2044 2947 
Q 2313 2947 2506 2790 
Q 2700 2634 2766 2338 
Q 3088 2713 3309 2830 
Q 3531 2947 3766 2947 
Q 3994 2947 4170 2830 
Q 4347 2713 4450 2447 
Q 4519 2266 4519 1878 
L 4519 647 
Q 4519 378 4559 278 
Q 4591 209 4675 161 
Q 4759 113 4950 113 
L 4950 0 
L 3538 0 
L 3538 113 
L 3597 113 
Q 3781 113 3884 184 
Q 3956 234 3988 344 
Q 4000 397 4000 647 
L 4000 1878 
Q 4000 2228 3916 2372 
Q 3794 2572 3525 2572 
Q 3359 2572 3192 2489 
Q 3025 2406 2788 2181 
L 2781 2147 
L 2788 2013 
L 2788 647 
Q 2788 353 2820 281 
Q 2853 209 2943 161 
Q 3034 113 3253 113 
L 3253 0 
L 1806 0 
L 1806 113 
Q 2044 113 2133 169 
Q 2222 225 2256 338 
Q 2272 391 2272 647 
L 2272 1878 
Q 2272 2228 2169 2381 
Q 2031 2581 1784 2581 
Q 1616 2581 1450 2491 
Q 1191 2353 1050 2181 
L 1050 647 
Q 1050 366 1089 281 
Q 1128 197 1204 155 
Q 1281 113 1516 113 
L 1516 0 
L 100 0 
L 100 113 
Q 297 113 375 155 
Q 453 197 493 289 
Q 534 381 534 647 
L 534 1741 
Q 534 2213 506 2350 
Q 484 2453 437 2492 
Q 391 2531 309 2531 
Q 222 2531 100 2484 
L 53 2597 
L 916 2947 
L 1050 2947 
L 1050 2338 
z
" transform="scale(0.015625)"/>
      <path id="TimesNewRomanPSMT-70" d="M -6 2578 
L 875 2934 
L 994 2934 
L 994 2266 
Q 1216 2644 1439 2795 
Q 1663 2947 1909 2947 
Q 2341 2947 2628 2609 
Q 2981 2197 2981 1534 
Q 2981 794 2556 309 
Q 2206 -88 1675 -88 
Q 1444 -88 1275 -22 
Q 1150 25 994 166 
L 994 -706 
Q 994 -1000 1030 -1079 
Q 1066 -1159 1155 -1206 
Q 1244 -1253 1478 -1253 
L 1478 -1369 
L -22 -1369 
L -22 -1253 
L 56 -1253 
Q 228 -1256 350 -1188 
Q 409 -1153 442 -1076 
Q 475 -1000 475 -688 
L 475 2019 
Q 475 2297 450 2372 
Q 425 2447 370 2484 
Q 316 2522 222 2522 
Q 147 2522 31 2478 
L -6 2578 
z
M 994 2081 
L 994 1013 
Q 994 666 1022 556 
Q 1066 375 1236 237 
Q 1406 100 1666 100 
Q 1978 100 2172 344 
Q 2425 663 2425 1241 
Q 2425 1897 2138 2250 
Q 1938 2494 1663 2494 
Q 1513 2494 1366 2419 
Q 1253 2363 994 2081 
z
" transform="scale(0.015625)"/>
      <path id="TimesNewRomanPSMT-6c" d="M 1184 4444 
L 1184 647 
Q 1184 378 1223 290 
Q 1263 203 1344 158 
Q 1425 113 1647 113 
L 1647 0 
L 244 0 
L 244 113 
Q 441 113 512 153 
Q 584 194 625 287 
Q 666 381 666 647 
L 666 3247 
Q 666 3731 644 3842 
Q 622 3953 573 3993 
Q 525 4034 450 4034 
Q 369 4034 244 3984 
L 191 4094 
L 1044 4444 
L 1184 4444 
z
" transform="scale(0.015625)"/>
      <path id="TimesNewRomanPSMT-61" d="M 1822 413 
Q 1381 72 1269 19 
Q 1100 -59 909 -59 
Q 613 -59 420 144 
Q 228 347 228 678 
Q 228 888 322 1041 
Q 450 1253 767 1440 
Q 1084 1628 1822 1897 
L 1822 2009 
Q 1822 2438 1686 2597 
Q 1550 2756 1291 2756 
Q 1094 2756 978 2650 
Q 859 2544 859 2406 
L 866 2225 
Q 866 2081 792 2003 
Q 719 1925 600 1925 
Q 484 1925 411 2006 
Q 338 2088 338 2228 
Q 338 2497 613 2722 
Q 888 2947 1384 2947 
Q 1766 2947 2009 2819 
Q 2194 2722 2281 2516 
Q 2338 2381 2338 1966 
L 2338 994 
Q 2338 584 2353 492 
Q 2369 400 2405 369 
Q 2441 338 2488 338 
Q 2538 338 2575 359 
Q 2641 400 2828 588 
L 2828 413 
Q 2478 -56 2159 -56 
Q 2006 -56 1915 50 
Q 1825 156 1822 413 
z
M 1822 616 
L 1822 1706 
Q 1350 1519 1213 1441 
Q 966 1303 859 1153 
Q 753 1003 753 825 
Q 753 600 887 451 
Q 1022 303 1197 303 
Q 1434 303 1822 616 
z
" transform="scale(0.015625)"/>
      <path id="TimesNewRomanPSMT-74" d="M 1031 3803 
L 1031 2863 
L 1700 2863 
L 1700 2644 
L 1031 2644 
L 1031 788 
Q 1031 509 1111 412 
Q 1191 316 1316 316 
Q 1419 316 1516 380 
Q 1613 444 1666 569 
L 1788 569 
Q 1678 263 1478 108 
Q 1278 -47 1066 -47 
Q 922 -47 784 33 
Q 647 113 581 261 
Q 516 409 516 719 
L 516 2644 
L 63 2644 
L 63 2747 
Q 234 2816 414 2980 
Q 594 3144 734 3369 
Q 806 3488 934 3803 
L 1031 3803 
z
" transform="scale(0.015625)"/>
     </defs>
     <use xlink:href="#TimesNewRomanPSMT-54"/>
     <use xlink:href="#TimesNewRomanPSMT-31" x="61.083984"/>
     <use xlink:href="#TimesNewRomanPSMT-30" x="111.083984"/>
     <use xlink:href="#TimesNewRomanPSMT-59" x="161.083984"/>
     <use xlink:href="#TimesNewRomanPSMT-33" x="233.300781"/>
     <use xlink:href="#TimesNewRomanPSMT-4d" x="283.300781"/>
     <use xlink:href="#TimesNewRomanPSMT-20" x="372.216797"/>
     <use xlink:href="#TimesNewRomanPSMT-54" x="395.466797"/>
     <use xlink:href="#TimesNewRomanPSMT-65" x="449.550781"/>
     <use xlink:href="#TimesNewRomanPSMT-6d" x="493.935547"/>
     <use xlink:href="#TimesNewRomanPSMT-70" x="571.71875"/>
     <use xlink:href="#TimesNewRomanPSMT-6c" x="621.71875"/>
     <use xlink:href="#TimesNewRomanPSMT-61" x="649.501953"/>
     <use xlink:href="#TimesNewRomanPSMT-74" x="693.886719"/>
     <use xlink:href="#TimesNewRomanPSMT-65" x="721.669922"/>
     <use xlink:href="#TimesNewRomanPSMT-20" x="766.054688"/>
     <use xlink:href="#TimesNewRomanPSMT-31" x="791.054688"/>
    </g>
   </g>
  </g>
  <g id="axes_2">
   <g id="patch_7">
    <path d="M 394.363636 315 
L 648 315 
L 648 43.2 
L 394.363636 43.2 
z
" style="fill: #e5e5e5"/>
   </g>
   <g id="matplotlib.axis_3">
    <g id="xtick_5">
     <g id="line2d_32">
      <path d="M 405.892562 315 
L 405.892562 43.2 
" clip-path="url(#p42a0689546)" style="fill: none; stroke: #ffffff; stroke-width: 0.8; stroke-linecap: square"/>
     </g>
     <g id="line2d_33">
      <g>
       <use xlink:href="#m294cf9785e" x="405.892562" y="315" style="fill: #555555; stroke: #555555; stroke-width: 0.8"/>
      </g>
     </g>
     <g id="text_12">
      <!-- 0 -->
      <g style="fill: #555555" transform="translate(403.392562 328.94375)scale(0.1 -0.1)">
       <use xlink:href="#TimesNewRomanPSMT-30"/>
      </g>
     </g>
    </g>
    <g id="xtick_6">
     <g id="line2d_34">
      <path d="M 466.571118 315 
L 466.571118 43.2 
" clip-path="url(#p42a0689546)" style="fill: none; stroke: #ffffff; stroke-width: 0.8; stroke-linecap: square"/>
     </g>
     <g id="line2d_35">
      <g>
       <use xlink:href="#m294cf9785e" x="466.571118" y="315" style="fill: #555555; stroke: #555555; stroke-width: 0.8"/>
      </g>
     </g>
     <g id="text_13">
      <!-- 5 -->
      <g style="fill: #555555" transform="translate(464.071118 328.94375)scale(0.1 -0.1)">
       <use xlink:href="#TimesNewRomanPSMT-35"/>
      </g>
     </g>
    </g>
    <g id="xtick_7">
     <g id="line2d_36">
      <path d="M 527.249674 315 
L 527.249674 43.2 
" clip-path="url(#p42a0689546)" style="fill: none; stroke: #ffffff; stroke-width: 0.8; stroke-linecap: square"/>
     </g>
     <g id="line2d_37">
      <g>
       <use xlink:href="#m294cf9785e" x="527.249674" y="315" style="fill: #555555; stroke: #555555; stroke-width: 0.8"/>
      </g>
     </g>
     <g id="text_14">
      <!-- 10 -->
      <g style="fill: #555555" transform="translate(522.249674 328.94375)scale(0.1 -0.1)">
       <use xlink:href="#TimesNewRomanPSMT-31"/>
       <use xlink:href="#TimesNewRomanPSMT-30" x="50"/>
      </g>
     </g>
    </g>
    <g id="xtick_8">
     <g id="line2d_38">
      <path d="M 587.92823 315 
L 587.92823 43.2 
" clip-path="url(#p42a0689546)" style="fill: none; stroke: #ffffff; stroke-width: 0.8; stroke-linecap: square"/>
     </g>
     <g id="line2d_39">
      <g>
       <use xlink:href="#m294cf9785e" x="587.92823" y="315" style="fill: #555555; stroke: #555555; stroke-width: 0.8"/>
      </g>
     </g>
     <g id="text_15">
      <!-- 15 -->
      <g style="fill: #555555" transform="translate(582.92823 328.94375)scale(0.1 -0.1)">
       <use xlink:href="#TimesNewRomanPSMT-31"/>
       <use xlink:href="#TimesNewRomanPSMT-35" x="50"/>
      </g>
     </g>
    </g>
   </g>
   <g id="matplotlib.axis_4">
    <g id="ytick_7">
     <g id="line2d_40">
      <path d="M 394.363636 302.645455 
L 648 302.645455 
" clip-path="url(#p42a0689546)" style="fill: none; stroke: #ffffff; stroke-width: 0.8; stroke-linecap: square"/>
     </g>
     <g id="line2d_41">
      <g>
       <use xlink:href="#mc5d8e523a5" x="394.363636" y="302.645455" style="fill: #555555; stroke: #555555; stroke-width: 0.8"/>
      </g>
     </g>
     <g id="text_16">
      <!-- 0.0 -->
      <g style="fill: #555555" transform="translate(374.863636 306.11733)scale(0.1 -0.1)">
       <use xlink:href="#TimesNewRomanPSMT-30"/>
       <use xlink:href="#TimesNewRomanPSMT-2e" x="50"/>
       <use xlink:href="#TimesNewRomanPSMT-30" x="75"/>
      </g>
     </g>
    </g>
    <g id="ytick_8">
     <g id="line2d_42">
      <path d="M 394.363636 253.227273 
L 648 253.227273 
" clip-path="url(#p42a0689546)" style="fill: none; stroke: #ffffff; stroke-width: 0.8; stroke-linecap: square"/>
     </g>
     <g id="line2d_43">
      <g>
       <use xlink:href="#mc5d8e523a5" x="394.363636" y="253.227273" style="fill: #555555; stroke: #555555; stroke-width: 0.8"/>
      </g>
     </g>
     <g id="text_17">
      <!-- 0.2 -->
      <g style="fill: #555555" transform="translate(374.863636 256.699148)scale(0.1 -0.1)">
       <use xlink:href="#TimesNewRomanPSMT-30"/>
       <use xlink:href="#TimesNewRomanPSMT-2e" x="50"/>
       <use xlink:href="#TimesNewRomanPSMT-32" x="75"/>
      </g>
     </g>
    </g>
    <g id="ytick_9">
     <g id="line2d_44">
      <path d="M 394.363636 203.809091 
L 648 203.809091 
" clip-path="url(#p42a0689546)" style="fill: none; stroke: #ffffff; stroke-width: 0.8; stroke-linecap: square"/>
     </g>
     <g id="line2d_45">
      <g>
       <use xlink:href="#mc5d8e523a5" x="394.363636" y="203.809091" style="fill: #555555; stroke: #555555; stroke-width: 0.8"/>
      </g>
     </g>
     <g id="text_18">
      <!-- 0.4 -->
      <g style="fill: #555555" transform="translate(374.863636 207.280966)scale(0.1 -0.1)">
       <use xlink:href="#TimesNewRomanPSMT-30"/>
       <use xlink:href="#TimesNewRomanPSMT-2e" x="50"/>
       <use xlink:href="#TimesNewRomanPSMT-34" x="75"/>
      </g>
     </g>
    </g>
    <g id="ytick_10">
     <g id="line2d_46">
      <path d="M 394.363636 154.390909 
L 648 154.390909 
" clip-path="url(#p42a0689546)" style="fill: none; stroke: #ffffff; stroke-width: 0.8; stroke-linecap: square"/>
     </g>
     <g id="line2d_47">
      <g>
       <use xlink:href="#mc5d8e523a5" x="394.363636" y="154.390909" style="fill: #555555; stroke: #555555; stroke-width: 0.8"/>
      </g>
     </g>
     <g id="text_19">
      <!-- 0.6 -->
      <g style="fill: #555555" transform="translate(374.863636 157.862784)scale(0.1 -0.1)">
       <use xlink:href="#TimesNewRomanPSMT-30"/>
       <use xlink:href="#TimesNewRomanPSMT-2e" x="50"/>
       <use xlink:href="#TimesNewRomanPSMT-36" x="75"/>
      </g>
     </g>
    </g>
    <g id="ytick_11">
     <g id="line2d_48">
      <path d="M 394.363636 104.972727 
L 648 104.972727 
" clip-path="url(#p42a0689546)" style="fill: none; stroke: #ffffff; stroke-width: 0.8; stroke-linecap: square"/>
     </g>
     <g id="line2d_49">
      <g>
       <use xlink:href="#mc5d8e523a5" x="394.363636" y="104.972727" style="fill: #555555; stroke: #555555; stroke-width: 0.8"/>
      </g>
     </g>
     <g id="text_20">
      <!-- 0.8 -->
      <g style="fill: #555555" transform="translate(374.863636 108.444602)scale(0.1 -0.1)">
       <use xlink:href="#TimesNewRomanPSMT-30"/>
       <use xlink:href="#TimesNewRomanPSMT-2e" x="50"/>
       <use xlink:href="#TimesNewRomanPSMT-38" x="75"/>
      </g>
     </g>
    </g>
    <g id="ytick_12">
     <g id="line2d_50">
      <path d="M 394.363636 55.554545 
L 648 55.554545 
" clip-path="url(#p42a0689546)" style="fill: none; stroke: #ffffff; stroke-width: 0.8; stroke-linecap: square"/>
     </g>
     <g id="line2d_51">
      <g>
       <use xlink:href="#mc5d8e523a5" x="394.363636" y="55.554545" style="fill: #555555; stroke: #555555; stroke-width: 0.8"/>
      </g>
     </g>
     <g id="text_21">
      <!-- 1.0 -->
      <g style="fill: #555555" transform="translate(374.863636 59.02642)scale(0.1 -0.1)">
       <use xlink:href="#TimesNewRomanPSMT-31"/>
       <use xlink:href="#TimesNewRomanPSMT-2e" x="50"/>
       <use xlink:href="#TimesNewRomanPSMT-30" x="75"/>
      </g>
     </g>
    </g>
   </g>
   <g id="line2d_52">
    <path d="M 405.892562 262.552726 
L 418.028273 225.865171 
L 430.163984 234.666548 
L 442.299696 278.947704 
L 454.435407 201.023481 
L 466.571118 182.194702 
L 478.706829 215.769547 
L 490.84254 204.682848 
L 502.978251 302.645455 
L 515.113963 194.694377 
L 527.249674 127.545335 
L 539.385385 117.687194 
L 551.521096 80.178359 
L 563.656807 122.461347 
L 575.792518 181.482796 
L 587.92823 122.772389 
L 600.063941 83.089107 
L 612.199652 55.554545 
L 624.335363 72.266186 
L 636.471074 152.875154 
" clip-path="url(#p42a0689546)" style="fill: none; stroke: #000000; stroke-opacity: 0.2; stroke-width: 1.5; stroke-linecap: square"/>
   </g>
   <g id="line2d_53">
    <path d="M 405.892562 55.554545 
L 418.028273 122.854243 
L 430.163984 116.719445 
L 442.299696 76.834362 
L 454.435407 60.667865 
L 466.571118 91.33795 
L 478.706829 126.673311 
L 490.84254 103.112966 
L 502.978251 102.801338 
L 515.113963 111.455227 
L 527.249674 137.770924 
L 539.385385 217.60531 
L 551.521096 262.133263 
L 563.656807 213.112006 
L 575.792518 275.926164 
L 587.92823 219.245791 
L 600.063941 302.645455 
L 612.199652 254.183217 
L 624.335363 196.262244 
L 636.471074 190.510724 
" clip-path="url(#p42a0689546)" style="fill: none; stroke: #000000; stroke-opacity: 0.2; stroke-width: 1.5; stroke-linecap: square"/>
   </g>
   <g id="line2d_54">
    <path d="M 405.892562 55.554545 
L 418.028273 133.05365 
L 430.163984 133.083324 
L 442.299696 180.783376 
L 454.435407 201.801166 
L 466.571118 128.238644 
L 478.706829 137.595247 
L 490.84254 126.554553 
L 502.978251 200.319757 
L 515.113963 254.129613 
L 527.249674 271.843565 
L 539.385385 302.645455 
L 551.521096 220.731057 
L 563.656807 139.398984 
L 575.792518 192.922369 
L 587.92823 230.336037 
L 600.063941 214.262718 
L 612.199652 168.384025 
L 624.335363 200.158466 
L 636.471074 231.872654 
" clip-path="url(#p42a0689546)" style="fill: none; stroke: #000000; stroke-opacity: 0.2; stroke-width: 1.5; stroke-linecap: square"/>
   </g>
   <g id="line2d_55">
    <path d="M 405.892562 293.746049 
L 418.028273 205.359662 
L 430.163984 152.328958 
L 442.299696 217.713498 
L 454.435407 244.951335 
L 466.571118 238.062955 
L 478.706829 289.278802 
L 490.84254 214.808641 
L 502.978251 282.754416 
L 515.113963 296.072652 
L 527.249674 272.293285 
L 539.385385 302.645455 
L 551.521096 247.080261 
L 563.656807 255.466674 
L 575.792518 216.511163 
L 587.92823 263.18922 
L 600.063941 208.092782 
L 612.199652 116.337838 
L 624.335363 120.350778 
L 636.471074 55.554545 
" clip-path="url(#p42a0689546)" style="fill: none; stroke: #000000; stroke-opacity: 0.2; stroke-width: 1.5; stroke-linecap: square"/>
   </g>
   <g id="line2d_56">
    <path d="M 405.892562 302.645455 
L 418.028273 204.612123 
L 430.163984 217.057186 
L 442.299696 152.193532 
L 454.435407 82.163415 
L 466.571118 65.05177 
L 478.706829 166.293429 
L 490.84254 169.078831 
L 502.978251 114.755878 
L 515.113963 55.554545 
L 527.249674 85.464654 
L 539.385385 60.114696 
L 551.521096 207.039874 
L 563.656807 179.426192 
L 575.792518 136.892887 
L 587.92823 136.254964 
L 600.063941 122.156436 
L 612.199652 97.14454 
L 624.335363 122.480295 
L 636.471074 131.416834 
" clip-path="url(#p42a0689546)" style="fill: none; stroke: #000000; stroke-opacity: 0.2; stroke-width: 1.5; stroke-linecap: square"/>
   </g>
   <g id="line2d_57">
    <path d="M 405.892562 55.554545 
L 418.028273 75.944829 
L 430.163984 148.583372 
L 442.299696 153.518695 
L 454.435407 128.063593 
L 466.571118 302.645455 
L 478.706829 106.972731 
L 490.84254 177.417637 
L 502.978251 166.356178 
L 515.113963 212.1158 
L 527.249674 192.130399 
L 539.385385 183.400195 
L 551.521096 121.62238 
L 563.656807 167.516251 
L 575.792518 191.844997 
L 587.92823 241.64454 
L 600.063941 193.051742 
L 612.199652 206.76211 
L 624.335363 177.338911 
L 636.471074 185.338955 
" clip-path="url(#p42a0689546)" style="fill: none; stroke: #000000; stroke-opacity: 0.2; stroke-width: 1.5; stroke-linecap: square"/>
   </g>
   <g id="line2d_58">
    <path d="M 405.892562 258.899567 
L 418.028273 297.525111 
L 430.163984 268.752127 
L 442.299696 206.842896 
L 454.435407 176.42276 
L 466.571118 120.640278 
L 478.706829 55.554545 
L 490.84254 57.308907 
L 502.978251 117.588219 
L 515.113963 92.766378 
L 527.249674 110.538303 
L 539.385385 138.094066 
L 551.521096 175.704705 
L 563.656807 223.207805 
L 575.792518 165.893543 
L 587.92823 181.652414 
L 600.063941 206.858716 
L 612.199652 216.968644 
L 624.335363 214.618533 
L 636.471074 302.645455 
" clip-path="url(#p42a0689546)" style="fill: none; stroke: #000000; stroke-opacity: 0.2; stroke-width: 1.5; stroke-linecap: square"/>
   </g>
   <g id="line2d_59">
    <path d="M 405.892562 239.426311 
L 418.028273 194.479161 
L 430.163984 212.980694 
L 442.299696 156.616454 
L 454.435407 135.237043 
L 466.571118 134.806498 
L 478.706829 153.659926 
L 490.84254 55.554545 
L 502.978251 103.77985 
L 515.113963 148.93769 
L 527.249674 175.347649 
L 539.385385 179.519069 
L 551.521096 156.628921 
L 563.656807 194.088617 
L 575.792518 219.597657 
L 587.92823 293.757624 
L 600.063941 247.719119 
L 612.199652 268.075502 
L 624.335363 285.69929 
L 636.471074 302.645455 
" clip-path="url(#p42a0689546)" style="fill: none; stroke: #000000; stroke-opacity: 0.2; stroke-width: 1.5; stroke-linecap: square"/>
   </g>
   <g id="line2d_60">
    <path d="M 405.892562 55.554545 
L 418.028273 302.645455 
L 430.163984 275.71662 
L 442.299696 272.144659 
L 454.435407 270.060625 
L 466.571118 280.896039 
L 478.706829 272.340008 
L 490.84254 243.959898 
L 502.978251 255.361224 
L 515.113963 291.731134 
L 527.249674 293.547871 
L 539.385385 275.475387 
L 551.521096 266.246765 
L 563.656807 263.644861 
L 575.792518 285.288555 
L 587.92823 301.171955 
L 600.063941 294.786945 
L 612.199652 281.012944 
L 624.335363 268.907662 
L 636.471074 269.854159 
" clip-path="url(#p42a0689546)" style="fill: none; stroke: #000000; stroke-opacity: 0.2; stroke-width: 1.5; stroke-linecap: square"/>
   </g>
   <g id="line2d_61">
    <path d="M 405.892562 140.886592 
L 418.028273 105.937636 
L 430.163984 301.232146 
L 442.299696 140.280509 
L 454.435407 213.950307 
L 466.571118 222.432382 
L 478.706829 173.494561 
L 490.84254 287.346185 
L 502.978251 145.742721 
L 515.113963 115.863777 
L 527.249674 123.189313 
L 539.385385 81.020824 
L 551.521096 55.554545 
L 563.656807 56.27667 
L 575.792518 93.594875 
L 587.92823 125.79278 
L 600.063941 188.082058 
L 612.199652 160.611597 
L 624.335363 302.645455 
L 636.471074 90.3744 
" clip-path="url(#p42a0689546)" style="fill: none; stroke: #000000; stroke-opacity: 0.2; stroke-width: 1.5; stroke-linecap: square"/>
   </g>
   <g id="line2d_62">
    <path d="M 405.892562 123.903246 
L 418.028273 215.61684 
L 430.163984 192.090656 
L 442.299696 255.516831 
L 454.435407 184.668673 
L 466.571118 115.232528 
L 478.706829 175.97111 
L 490.84254 234.428793 
L 502.978251 214.919233 
L 515.113963 220.466154 
L 527.249674 219.133041 
L 539.385385 219.139309 
L 551.521096 219.28351 
L 563.656807 219.701014 
L 575.792518 219.701014 
L 587.92823 219.898166 
L 600.063941 220.624868 
L 612.199652 214.947111 
L 624.335363 261.573269 
L 636.471074 156.144628 
" clip-path="url(#p42a0689546)" style="fill: none; stroke: #ff0000; stroke-width: 2; stroke-linecap: square"/>
   </g>
   <g id="patch_8">
    <path d="M 394.363636 315 
L 394.363636 43.2 
" style="fill: none; stroke: #ffffff; stroke-linejoin: miter; stroke-linecap: square"/>
   </g>
   <g id="patch_9">
    <path d="M 648 315 
L 648 43.2 
" style="fill: none; stroke: #ffffff; stroke-linejoin: miter; stroke-linecap: square"/>
   </g>
   <g id="patch_10">
    <path d="M 394.363636 315 
L 648 315 
" style="fill: none; stroke: #ffffff; stroke-linejoin: miter; stroke-linecap: square"/>
   </g>
   <g id="patch_11">
    <path d="M 394.363636 43.2 
L 648 43.2 
" style="fill: none; stroke: #ffffff; stroke-linejoin: miter; stroke-linecap: square"/>
   </g>
   <g id="text_22">
    <!-- T10Y3M Template 2 -->
    <g transform="translate(479.128693 37.2)scale(0.1 -0.1)">
     <use xlink:href="#TimesNewRomanPSMT-54"/>
     <use xlink:href="#TimesNewRomanPSMT-31" x="61.083984"/>
     <use xlink:href="#TimesNewRomanPSMT-30" x="111.083984"/>
     <use xlink:href="#TimesNewRomanPSMT-59" x="161.083984"/>
     <use xlink:href="#TimesNewRomanPSMT-33" x="233.300781"/>
     <use xlink:href="#TimesNewRomanPSMT-4d" x="283.300781"/>
     <use xlink:href="#TimesNewRomanPSMT-20" x="372.216797"/>
     <use xlink:href="#TimesNewRomanPSMT-54" x="395.466797"/>
     <use xlink:href="#TimesNewRomanPSMT-65" x="449.550781"/>
     <use xlink:href="#TimesNewRomanPSMT-6d" x="493.935547"/>
     <use xlink:href="#TimesNewRomanPSMT-70" x="571.71875"/>
     <use xlink:href="#TimesNewRomanPSMT-6c" x="621.71875"/>
     <use xlink:href="#TimesNewRomanPSMT-61" x="649.501953"/>
     <use xlink:href="#TimesNewRomanPSMT-74" x="693.886719"/>
     <use xlink:href="#TimesNewRomanPSMT-65" x="721.669922"/>
     <use xlink:href="#TimesNewRomanPSMT-20" x="766.054688"/>
     <use xlink:href="#TimesNewRomanPSMT-32" x="791.054688"/>
    </g>
   </g>
  </g>
 </g>
 <defs>
  <clipPath id="p44007f8a9b">
   <rect x="90" y="43.2" width="253.636364" height="271.8"/>
  </clipPath>
  <clipPath id="p42a0689546">
   <rect x="394.363636" y="43.2" width="253.636364" height="271.8"/>
  </clipPath>
 </defs>
</svg>
