<?xml version="1.0" encoding="utf-8" standalone="no"?>
<!DOCTYPE svg PUBLIC "-//W3C//DTD SVG 1.1//EN"
  "http://www.w3.org/Graphics/SVG/1.1/DTD/svg11.dtd">
<svg xmlns:xlink="http://www.w3.org/1999/xlink" width="720pt" height="360pt" viewBox="0 0 720 360" xmlns="http://www.w3.org/2000/svg" version="1.1">
 <metadata>
  <rdf:RDF xmlns:dc="http://purl.org/dc/elements/1.1/" xmlns:cc="http://creativecommons.org/ns#" xmlns:rdf="http://www.w3.org/1999/02/22-rdf-syntax-ns#">
   <cc:Work>
    <dc:type rdf:resource="http://purl.org/dc/dcmitype/StillImage"/>
    <dc:date>2022-02-26T19:19:50.276045</dc:date>
    <dc:format>image/svg+xml</dc:format>
    <dc:creator>
     <cc:Agent>
      <dc:title>Matplotlib v3.5.0, https://matplotlib.org/</dc:title>
     </cc:Agent>
    </dc:creator>
   </cc:Work>
  </rdf:RDF>
 </metadata>
 <defs>
  <style type="text/css">*{stroke-linejoin: round; stroke-linecap: butt}</style>
 </defs>
 <g id="figure_1">
  <g id="patch_1">
   <path d="M 0 360 
L 720 360 
L 720 0 
L 0 0 
z
" style="fill: #ffffff"/>
  </g>
  <g id="axes_1">
   <g id="patch_2">
    <path d="M 90 315 
L 343.636364 315 
L 343.636364 43.2 
L 90 43.2 
z
" style="fill: #e5e5e5"/>
   </g>
   <g id="matplotlib.axis_1">
    <g id="xtick_1">
     <g id="line2d_1">
      <path d="M 101.528926 315 
L 101.528926 43.2 
" clip-path="url(#pbd6eee0fa2)" style="fill: none; stroke: #ffffff; stroke-width: 0.8; stroke-linecap: square"/>
     </g>
     <g id="line2d_2">
      <defs>
       <path id="mfed38f07ef" d="M 0 0 
L 0 3.5 
" style="stroke: #555555; stroke-width: 0.8"/>
      </defs>
      <g>
       <use xlink:href="#mfed38f07ef" x="101.528926" y="315" style="fill: #555555; stroke: #555555; stroke-width: 0.8"/>
      </g>
     </g>
     <g id="text_1">
      <!-- 0 -->
      <g style="fill: #555555" transform="translate(99.028926 328.94375)scale(0.1 -0.1)">
       <defs>
        <path id="TimesNewRomanPSMT-30" d="M 231 2094 
Q 231 2819 450 3342 
Q 669 3866 1031 4122 
Q 1313 4325 1613 4325 
Q 2100 4325 2488 3828 
Q 2972 3213 2972 2159 
Q 2972 1422 2759 906 
Q 2547 391 2217 158 
Q 1888 -75 1581 -75 
Q 975 -75 572 641 
Q 231 1244 231 2094 
z
M 844 2016 
Q 844 1141 1059 588 
Q 1238 122 1591 122 
Q 1759 122 1940 273 
Q 2122 425 2216 781 
Q 2359 1319 2359 2297 
Q 2359 3022 2209 3506 
Q 2097 3866 1919 4016 
Q 1791 4119 1609 4119 
Q 1397 4119 1231 3928 
Q 1006 3669 925 3112 
Q 844 2556 844 2016 
z
" transform="scale(0.015625)"/>
       </defs>
       <use xlink:href="#TimesNewRomanPSMT-30"/>
      </g>
     </g>
    </g>
    <g id="xtick_2">
     <g id="line2d_3">
      <path d="M 140.610029 315 
L 140.610029 43.2 
" clip-path="url(#pbd6eee0fa2)" style="fill: none; stroke: #ffffff; stroke-width: 0.8; stroke-linecap: square"/>
     </g>
     <g id="line2d_4">
      <g>
       <use xlink:href="#mfed38f07ef" x="140.610029" y="315" style="fill: #555555; stroke: #555555; stroke-width: 0.8"/>
      </g>
     </g>
     <g id="text_2">
      <!-- 10 -->
      <g style="fill: #555555" transform="translate(135.610029 328.94375)scale(0.1 -0.1)">
       <defs>
        <path id="TimesNewRomanPSMT-31" d="M 750 3822 
L 1781 4325 
L 1884 4325 
L 1884 747 
Q 1884 391 1914 303 
Q 1944 216 2037 169 
Q 2131 122 2419 116 
L 2419 0 
L 825 0 
L 825 116 
Q 1125 122 1212 167 
Q 1300 213 1334 289 
Q 1369 366 1369 747 
L 1369 3034 
Q 1369 3497 1338 3628 
Q 1316 3728 1258 3775 
Q 1200 3822 1119 3822 
Q 1003 3822 797 3725 
L 750 3822 
z
" transform="scale(0.015625)"/>
       </defs>
       <use xlink:href="#TimesNewRomanPSMT-31"/>
       <use xlink:href="#TimesNewRomanPSMT-30" x="50"/>
      </g>
     </g>
    </g>
    <g id="xtick_3">
     <g id="line2d_5">
      <path d="M 179.691133 315 
L 179.691133 43.2 
" clip-path="url(#pbd6eee0fa2)" style="fill: none; stroke: #ffffff; stroke-width: 0.8; stroke-linecap: square"/>
     </g>
     <g id="line2d_6">
      <g>
       <use xlink:href="#mfed38f07ef" x="179.691133" y="315" style="fill: #555555; stroke: #555555; stroke-width: 0.8"/>
      </g>
     </g>
     <g id="text_3">
      <!-- 20 -->
      <g style="fill: #555555" transform="translate(174.691133 328.94375)scale(0.1 -0.1)">
       <defs>
        <path id="TimesNewRomanPSMT-32" d="M 2934 816 
L 2638 0 
L 138 0 
L 138 116 
Q 1241 1122 1691 1759 
Q 2141 2397 2141 2925 
Q 2141 3328 1894 3587 
Q 1647 3847 1303 3847 
Q 991 3847 742 3664 
Q 494 3481 375 3128 
L 259 3128 
Q 338 3706 661 4015 
Q 984 4325 1469 4325 
Q 1984 4325 2329 3994 
Q 2675 3663 2675 3213 
Q 2675 2891 2525 2569 
Q 2294 2063 1775 1497 
Q 997 647 803 472 
L 1909 472 
Q 2247 472 2383 497 
Q 2519 522 2628 598 
Q 2738 675 2819 816 
L 2934 816 
z
" transform="scale(0.015625)"/>
       </defs>
       <use xlink:href="#TimesNewRomanPSMT-32"/>
       <use xlink:href="#TimesNewRomanPSMT-30" x="50"/>
      </g>
     </g>
    </g>
    <g id="xtick_4">
     <g id="line2d_7">
      <path d="M 218.772237 315 
L 218.772237 43.2 
" clip-path="url(#pbd6eee0fa2)" style="fill: none; stroke: #ffffff; stroke-width: 0.8; stroke-linecap: square"/>
     </g>
     <g id="line2d_8">
      <g>
       <use xlink:href="#mfed38f07ef" x="218.772237" y="315" style="fill: #555555; stroke: #555555; stroke-width: 0.8"/>
      </g>
     </g>
     <g id="text_4">
      <!-- 30 -->
      <g style="fill: #555555" transform="translate(213.772237 328.94375)scale(0.1 -0.1)">
       <defs>
        <path id="TimesNewRomanPSMT-33" d="M 325 3431 
Q 506 3859 782 4092 
Q 1059 4325 1472 4325 
Q 1981 4325 2253 3994 
Q 2459 3747 2459 3466 
Q 2459 3003 1878 2509 
Q 2269 2356 2469 2072 
Q 2669 1788 2669 1403 
Q 2669 853 2319 450 
Q 1863 -75 997 -75 
Q 569 -75 414 31 
Q 259 138 259 259 
Q 259 350 332 419 
Q 406 488 509 488 
Q 588 488 669 463 
Q 722 447 909 348 
Q 1097 250 1169 231 
Q 1284 197 1416 197 
Q 1734 197 1970 444 
Q 2206 691 2206 1028 
Q 2206 1275 2097 1509 
Q 2016 1684 1919 1775 
Q 1784 1900 1550 2001 
Q 1316 2103 1072 2103 
L 972 2103 
L 972 2197 
Q 1219 2228 1467 2375 
Q 1716 2522 1828 2728 
Q 1941 2934 1941 3181 
Q 1941 3503 1739 3701 
Q 1538 3900 1238 3900 
Q 753 3900 428 3381 
L 325 3431 
z
" transform="scale(0.015625)"/>
       </defs>
       <use xlink:href="#TimesNewRomanPSMT-33"/>
       <use xlink:href="#TimesNewRomanPSMT-30" x="50"/>
      </g>
     </g>
    </g>
    <g id="xtick_5">
     <g id="line2d_9">
      <path d="M 257.853341 315 
L 257.853341 43.2 
" clip-path="url(#pbd6eee0fa2)" style="fill: none; stroke: #ffffff; stroke-width: 0.8; stroke-linecap: square"/>
     </g>
     <g id="line2d_10">
      <g>
       <use xlink:href="#mfed38f07ef" x="257.853341" y="315" style="fill: #555555; stroke: #555555; stroke-width: 0.8"/>
      </g>
     </g>
     <g id="text_5">
      <!-- 40 -->
      <g style="fill: #555555" transform="translate(252.853341 328.94375)scale(0.1 -0.1)">
       <defs>
        <path id="TimesNewRomanPSMT-34" d="M 2978 1563 
L 2978 1119 
L 2409 1119 
L 2409 0 
L 1894 0 
L 1894 1119 
L 100 1119 
L 100 1519 
L 2066 4325 
L 2409 4325 
L 2409 1563 
L 2978 1563 
z
M 1894 1563 
L 1894 3666 
L 406 1563 
L 1894 1563 
z
" transform="scale(0.015625)"/>
       </defs>
       <use xlink:href="#TimesNewRomanPSMT-34"/>
       <use xlink:href="#TimesNewRomanPSMT-30" x="50"/>
      </g>
     </g>
    </g>
    <g id="xtick_6">
     <g id="line2d_11">
      <path d="M 296.934445 315 
L 296.934445 43.2 
" clip-path="url(#pbd6eee0fa2)" style="fill: none; stroke: #ffffff; stroke-width: 0.8; stroke-linecap: square"/>
     </g>
     <g id="line2d_12">
      <g>
       <use xlink:href="#mfed38f07ef" x="296.934445" y="315" style="fill: #555555; stroke: #555555; stroke-width: 0.8"/>
      </g>
     </g>
     <g id="text_6">
      <!-- 50 -->
      <g style="fill: #555555" transform="translate(291.934445 328.94375)scale(0.1 -0.1)">
       <defs>
        <path id="TimesNewRomanPSMT-35" d="M 2778 4238 
L 2534 3706 
L 1259 3706 
L 981 3138 
Q 1809 3016 2294 2522 
Q 2709 2097 2709 1522 
Q 2709 1188 2573 903 
Q 2438 619 2231 419 
Q 2025 219 1772 97 
Q 1413 -75 1034 -75 
Q 653 -75 479 54 
Q 306 184 306 341 
Q 306 428 378 495 
Q 450 563 559 563 
Q 641 563 702 538 
Q 763 513 909 409 
Q 1144 247 1384 247 
Q 1750 247 2026 523 
Q 2303 800 2303 1197 
Q 2303 1581 2056 1914 
Q 1809 2247 1375 2428 
Q 1034 2569 447 2591 
L 1259 4238 
L 2778 4238 
z
" transform="scale(0.015625)"/>
       </defs>
       <use xlink:href="#TimesNewRomanPSMT-35"/>
       <use xlink:href="#TimesNewRomanPSMT-30" x="50"/>
      </g>
     </g>
    </g>
    <g id="xtick_7">
     <g id="line2d_13">
      <path d="M 336.015548 315 
L 336.015548 43.2 
" clip-path="url(#pbd6eee0fa2)" style="fill: none; stroke: #ffffff; stroke-width: 0.8; stroke-linecap: square"/>
     </g>
     <g id="line2d_14">
      <g>
       <use xlink:href="#mfed38f07ef" x="336.015548" y="315" style="fill: #555555; stroke: #555555; stroke-width: 0.8"/>
      </g>
     </g>
     <g id="text_7">
      <!-- 60 -->
      <g style="fill: #555555" transform="translate(331.015548 328.94375)scale(0.1 -0.1)">
       <defs>
        <path id="TimesNewRomanPSMT-36" d="M 2869 4325 
L 2869 4209 
Q 2456 4169 2195 4045 
Q 1934 3922 1679 3669 
Q 1425 3416 1258 3105 
Q 1091 2794 978 2366 
Q 1428 2675 1881 2675 
Q 2316 2675 2634 2325 
Q 2953 1975 2953 1425 
Q 2953 894 2631 456 
Q 2244 -75 1606 -75 
Q 1172 -75 869 213 
Q 275 772 275 1663 
Q 275 2231 503 2743 
Q 731 3256 1154 3653 
Q 1578 4050 1965 4187 
Q 2353 4325 2688 4325 
L 2869 4325 
z
M 925 2138 
Q 869 1716 869 1456 
Q 869 1156 980 804 
Q 1091 453 1309 247 
Q 1469 100 1697 100 
Q 1969 100 2183 356 
Q 2397 613 2397 1088 
Q 2397 1622 2184 2012 
Q 1972 2403 1581 2403 
Q 1463 2403 1327 2353 
Q 1191 2303 925 2138 
z
" transform="scale(0.015625)"/>
       </defs>
       <use xlink:href="#TimesNewRomanPSMT-36"/>
       <use xlink:href="#TimesNewRomanPSMT-30" x="50"/>
      </g>
     </g>
    </g>
   </g>
   <g id="matplotlib.axis_2">
    <g id="ytick_1">
     <g id="line2d_15">
      <path d="M 90 302.645455 
L 343.636364 302.645455 
" clip-path="url(#pbd6eee0fa2)" style="fill: none; stroke: #ffffff; stroke-width: 0.8; stroke-linecap: square"/>
     </g>
     <g id="line2d_16">
      <defs>
       <path id="m5a56705b43" d="M 0 0 
L -3.5 0 
" style="stroke: #555555; stroke-width: 0.8"/>
      </defs>
      <g>
       <use xlink:href="#m5a56705b43" x="90" y="302.645455" style="fill: #555555; stroke: #555555; stroke-width: 0.8"/>
      </g>
     </g>
     <g id="text_8">
      <!-- 0.0 -->
      <g style="fill: #555555" transform="translate(70.5 306.11733)scale(0.1 -0.1)">
       <defs>
        <path id="TimesNewRomanPSMT-2e" d="M 800 606 
Q 947 606 1047 504 
Q 1147 403 1147 259 
Q 1147 116 1045 14 
Q 944 -88 800 -88 
Q 656 -88 554 14 
Q 453 116 453 259 
Q 453 406 554 506 
Q 656 606 800 606 
z
" transform="scale(0.015625)"/>
       </defs>
       <use xlink:href="#TimesNewRomanPSMT-30"/>
       <use xlink:href="#TimesNewRomanPSMT-2e" x="50"/>
       <use xlink:href="#TimesNewRomanPSMT-30" x="75"/>
      </g>
     </g>
    </g>
    <g id="ytick_2">
     <g id="line2d_17">
      <path d="M 90 253.227273 
L 343.636364 253.227273 
" clip-path="url(#pbd6eee0fa2)" style="fill: none; stroke: #ffffff; stroke-width: 0.8; stroke-linecap: square"/>
     </g>
     <g id="line2d_18">
      <g>
       <use xlink:href="#m5a56705b43" x="90" y="253.227273" style="fill: #555555; stroke: #555555; stroke-width: 0.8"/>
      </g>
     </g>
     <g id="text_9">
      <!-- 0.2 -->
      <g style="fill: #555555" transform="translate(70.5 256.699148)scale(0.1 -0.1)">
       <use xlink:href="#TimesNewRomanPSMT-30"/>
       <use xlink:href="#TimesNewRomanPSMT-2e" x="50"/>
       <use xlink:href="#TimesNewRomanPSMT-32" x="75"/>
      </g>
     </g>
    </g>
    <g id="ytick_3">
     <g id="line2d_19">
      <path d="M 90 203.809091 
L 343.636364 203.809091 
" clip-path="url(#pbd6eee0fa2)" style="fill: none; stroke: #ffffff; stroke-width: 0.8; stroke-linecap: square"/>
     </g>
     <g id="line2d_20">
      <g>
       <use xlink:href="#m5a56705b43" x="90" y="203.809091" style="fill: #555555; stroke: #555555; stroke-width: 0.8"/>
      </g>
     </g>
     <g id="text_10">
      <!-- 0.4 -->
      <g style="fill: #555555" transform="translate(70.5 207.280966)scale(0.1 -0.1)">
       <use xlink:href="#TimesNewRomanPSMT-30"/>
       <use xlink:href="#TimesNewRomanPSMT-2e" x="50"/>
       <use xlink:href="#TimesNewRomanPSMT-34" x="75"/>
      </g>
     </g>
    </g>
    <g id="ytick_4">
     <g id="line2d_21">
      <path d="M 90 154.390909 
L 343.636364 154.390909 
" clip-path="url(#pbd6eee0fa2)" style="fill: none; stroke: #ffffff; stroke-width: 0.8; stroke-linecap: square"/>
     </g>
     <g id="line2d_22">
      <g>
       <use xlink:href="#m5a56705b43" x="90" y="154.390909" style="fill: #555555; stroke: #555555; stroke-width: 0.8"/>
      </g>
     </g>
     <g id="text_11">
      <!-- 0.6 -->
      <g style="fill: #555555" transform="translate(70.5 157.862784)scale(0.1 -0.1)">
       <use xlink:href="#TimesNewRomanPSMT-30"/>
       <use xlink:href="#TimesNewRomanPSMT-2e" x="50"/>
       <use xlink:href="#TimesNewRomanPSMT-36" x="75"/>
      </g>
     </g>
    </g>
    <g id="ytick_5">
     <g id="line2d_23">
      <path d="M 90 104.972727 
L 343.636364 104.972727 
" clip-path="url(#pbd6eee0fa2)" style="fill: none; stroke: #ffffff; stroke-width: 0.8; stroke-linecap: square"/>
     </g>
     <g id="line2d_24">
      <g>
       <use xlink:href="#m5a56705b43" x="90" y="104.972727" style="fill: #555555; stroke: #555555; stroke-width: 0.8"/>
      </g>
     </g>
     <g id="text_12">
      <!-- 0.8 -->
      <g style="fill: #555555" transform="translate(70.5 108.444602)scale(0.1 -0.1)">
       <defs>
        <path id="TimesNewRomanPSMT-38" d="M 1228 2134 
Q 725 2547 579 2797 
Q 434 3047 434 3316 
Q 434 3728 753 4026 
Q 1072 4325 1600 4325 
Q 2113 4325 2425 4047 
Q 2738 3769 2738 3413 
Q 2738 3175 2569 2928 
Q 2400 2681 1866 2347 
Q 2416 1922 2594 1678 
Q 2831 1359 2831 1006 
Q 2831 559 2490 242 
Q 2150 -75 1597 -75 
Q 994 -75 656 303 
Q 388 606 388 966 
Q 388 1247 577 1523 
Q 766 1800 1228 2134 
z
M 1719 2469 
Q 2094 2806 2194 3001 
Q 2294 3197 2294 3444 
Q 2294 3772 2109 3958 
Q 1925 4144 1606 4144 
Q 1288 4144 1088 3959 
Q 888 3775 888 3528 
Q 888 3366 970 3203 
Q 1053 3041 1206 2894 
L 1719 2469 
z
M 1375 2016 
Q 1116 1797 991 1539 
Q 866 1281 866 981 
Q 866 578 1086 336 
Q 1306 94 1647 94 
Q 1984 94 2187 284 
Q 2391 475 2391 747 
Q 2391 972 2272 1150 
Q 2050 1481 1375 2016 
z
" transform="scale(0.015625)"/>
       </defs>
       <use xlink:href="#TimesNewRomanPSMT-30"/>
       <use xlink:href="#TimesNewRomanPSMT-2e" x="50"/>
       <use xlink:href="#TimesNewRomanPSMT-38" x="75"/>
      </g>
     </g>
    </g>
    <g id="ytick_6">
     <g id="line2d_25">
      <path d="M 90 55.554545 
L 343.636364 55.554545 
" clip-path="url(#pbd6eee0fa2)" style="fill: none; stroke: #ffffff; stroke-width: 0.8; stroke-linecap: square"/>
     </g>
     <g id="line2d_26">
      <g>
       <use xlink:href="#m5a56705b43" x="90" y="55.554545" style="fill: #555555; stroke: #555555; stroke-width: 0.8"/>
      </g>
     </g>
     <g id="text_13">
      <!-- 1.0 -->
      <g style="fill: #555555" transform="translate(70.5 59.02642)scale(0.1 -0.1)">
       <use xlink:href="#TimesNewRomanPSMT-31"/>
       <use xlink:href="#TimesNewRomanPSMT-2e" x="50"/>
       <use xlink:href="#TimesNewRomanPSMT-30" x="75"/>
      </g>
     </g>
    </g>
   </g>
   <g id="line2d_27">
    <path d="M 101.528926 289.34366 
L 105.437036 296.599184 
L 109.345146 286.925152 
L 113.253257 284.506644 
L 117.161367 297.808438 
L 121.069478 268.786341 
L 124.977588 294.986846 
L 128.885698 254.275293 
L 132.793809 252.259869 
L 136.701919 272.817188 
L 140.610029 272.414104 
L 144.51814 302.645455 
L 148.42625 280.878882 
L 152.334361 290.552914 
L 156.242471 283.29739 
L 160.150581 249.438277 
L 164.058692 279.266543 
L 167.966802 279.266543 
L 171.874912 271.607934 
L 175.783023 299.823862 
L 179.691133 290.955999 
L 183.599244 301.839285 
L 187.507354 281.281966 
L 191.415464 267.577087 
L 195.323575 217.594587 
L 199.231685 129.319042 
L 203.139795 218.803841 
L 207.047906 224.043942 
L 210.956016 145.039345 
L 214.864127 223.237773 
L 218.772237 267.174003 
L 222.680347 255.081462 
L 226.588458 276.041866 
L 230.496568 299.017692 
L 234.404679 225.656281 
L 238.312789 244.198176 
L 242.220899 182.123135 
L 246.12901 145.845514 
L 250.03712 55.554545 
L 253.94523 190.990998 
L 257.853341 190.587913 
L 261.761451 162.77507 
L 265.669562 196.231099 
L 269.577672 215.579164 
L 273.485782 215.579164 
L 277.393893 193.006421 
L 281.302003 223.640857 
L 285.210113 205.905131 
L 289.118224 108.761723 
L 293.026334 146.248599 
L 296.934445 190.587913 
L 300.842555 206.308216 
L 304.750665 188.57249 
L 308.658776 186.960151 
L 312.566886 172.046018 
L 316.474996 203.083538 
L 320.383107 133.752973 
L 324.291217 139.396159 
L 328.199328 69.259425 
L 332.107438 87.398235 
" clip-path="url(#pbd6eee0fa2)" style="fill: none; stroke: #000000; stroke-opacity: 0.2; stroke-width: 1.5; stroke-linecap: square"/>
   </g>
   <g id="line2d_28">
    <path d="M 101.528926 298.418394 
L 105.437036 298.034116 
L 109.345146 292.846359 
L 113.253257 290.54069 
L 117.161367 302.645455 
L 121.069478 290.732829 
L 124.977588 294.191333 
L 128.885698 290.732829 
L 132.793809 298.994811 
L 136.701919 299.18695 
L 140.610029 293.038499 
L 144.51814 277.47523 
L 148.42625 278.820204 
L 152.334361 263.256935 
L 156.242471 267.868274 
L 160.150581 275.16956 
L 164.058692 275.16956 
L 167.966802 271.326778 
L 171.874912 293.999194 
L 175.783023 295.536307 
L 179.691133 289.387855 
L 183.599244 290.348551 
L 187.507354 287.274325 
L 191.415464 287.274325 
L 195.323575 287.082186 
L 199.231685 285.545073 
L 203.139795 290.348551 
L 207.047906 272.095334 
L 210.956016 282.662986 
L 214.864127 282.662986 
L 218.772237 285.160795 
L 222.680347 289.772133 
L 226.588458 282.470847 
L 230.496568 282.662986 
L 234.404679 286.697908 
L 238.312789 273.05603 
L 242.220899 240.392379 
L 246.12901 252.305005 
L 250.03712 256.532066 
L 253.94523 200.619582 
L 257.853341 186.593426 
L 261.761451 182.942782 
L 265.669562 172.56727 
L 269.577672 162.191757 
L 273.485782 179.484278 
L 277.393893 215.222155 
L 281.302003 239.047406 
L 285.210113 239.047406 
L 289.118224 154.506193 
L 293.026334 197.161077 
L 296.934445 234.051788 
L 300.842555 237.894571 
L 304.750665 193.126156 
L 308.658776 179.868556 
L 312.566886 171.030157 
L 316.474996 160.462505 
L 320.383107 164.881705 
L 324.291217 110.314195 
L 328.199328 55.554545 
L 332.107438 100.707239 
" clip-path="url(#pbd6eee0fa2)" style="fill: none; stroke: #000000; stroke-opacity: 0.2; stroke-width: 1.5; stroke-linecap: square"/>
   </g>
   <g id="line2d_29">
    <path d="M 101.528926 236.719939 
L 105.437036 236.546906 
L 109.345146 227.722231 
L 113.253257 182.73369 
L 117.161367 203.324599 
L 121.069478 229.279526 
L 124.977588 234.98961 
L 128.885698 254.196257 
L 132.793809 262.328801 
L 136.701919 240.699694 
L 140.610029 267.346753 
L 144.51814 238.796333 
L 148.42625 235.854775 
L 152.334361 212.49534 
L 156.242471 213.187471 
L 160.150581 238.450267 
L 164.058692 228.241329 
L 167.966802 234.124446 
L 171.874912 185.15615 
L 175.783023 185.15615 
L 179.691133 187.57861 
L 183.599244 221.666081 
L 187.507354 213.187471 
L 191.415464 198.998778 
L 195.323575 207.996486 
L 199.231685 230.663789 
L 203.139795 260.598472 
L 207.047906 270.634377 
L 210.956016 302.645455 
L 214.864127 263.020932 
L 218.772237 214.398701 
L 222.680347 222.877311 
L 226.588458 250.7356 
L 230.496568 267.519786 
L 234.404679 239.661497 
L 238.312789 212.668373 
L 242.220899 248.486173 
L 246.12901 275.65233 
L 250.03712 247.967074 
L 253.94523 237.758136 
L 257.853341 259.560275 
L 261.761451 263.193965 
L 265.669562 249.870435 
L 269.577672 231.701986 
L 273.485782 210.591979 
L 277.393893 204.881895 
L 281.302003 218.032391 
L 285.210113 194.326891 
L 289.118224 217.859358 
L 293.026334 219.243621 
L 296.934445 165.776471 
L 300.842555 143.455233 
L 304.750665 165.257372 
L 308.658776 213.014439 
L 312.566886 185.329183 
L 316.474996 163.527044 
L 320.383107 133.592361 
L 324.291217 126.324981 
L 328.199328 55.554545 
L 332.107438 134.111459 
" clip-path="url(#pbd6eee0fa2)" style="fill: none; stroke: #000000; stroke-opacity: 0.2; stroke-width: 1.5; stroke-linecap: square"/>
   </g>
   <g id="line2d_30">
    <path d="M 101.528926 286.384255 
L 105.437036 278.848577 
L 109.345146 268.933212 
L 113.253257 253.465242 
L 117.161367 261.397534 
L 121.069478 260.604305 
L 124.977588 251.482168 
L 128.885698 55.554545 
L 132.793809 92.439705 
L 136.701919 196.352736 
L 140.610029 240.376959 
L 144.51814 248.705866 
L 148.42625 276.46889 
L 152.334361 277.658733 
L 156.242471 284.797797 
L 160.150581 284.797797 
L 164.058692 262.190763 
L 167.966802 261.000919 
L 171.874912 281.62488 
L 175.783023 287.177484 
L 179.691133 274.485816 
L 183.599244 259.414461 
L 187.507354 261.794149 
L 191.415464 270.916285 
L 195.323575 249.499095 
L 199.231685 219.356384 
L 203.139795 260.604305 
L 207.047906 251.878783 
L 210.956016 241.566803 
L 214.864127 262.190763 
L 218.772237 262.587378 
L 222.680347 243.153261 
L 226.588458 247.516022 
L 230.496568 258.224617 
L 234.404679 276.46889 
L 238.312789 281.228265 
L 242.220899 235.220969 
L 246.12901 276.072275 
L 250.03712 220.149613 
L 253.94523 230.461593 
L 257.853341 228.875135 
L 261.761451 228.875135 
L 265.669562 234.824354 
L 269.577672 176.522005 
L 273.485782 230.064979 
L 277.393893 233.237896 
L 281.302003 241.963417 
L 285.210113 265.36368 
L 289.118224 281.228265 
L 293.026334 296.696235 
L 296.934445 284.401182 
L 300.842555 281.62488 
L 304.750665 285.591026 
L 308.658776 293.919933 
L 312.566886 302.645455 
L 316.474996 299.869152 
L 320.383107 299.869152 
L 324.291217 293.126704 
L 328.199328 272.899358 
L 332.107438 265.760295 
" clip-path="url(#pbd6eee0fa2)" style="fill: none; stroke: #000000; stroke-opacity: 0.2; stroke-width: 1.5; stroke-linecap: square"/>
   </g>
   <g id="line2d_31">
    <path d="M 101.528926 248.650191 
L 105.437036 276.541784 
L 109.345146 294.778595 
L 113.253257 302.645455 
L 117.161367 296.924102 
L 121.069478 286.911735 
L 124.977588 282.620721 
L 128.885698 299.427194 
L 132.793809 264.741495 
L 136.701919 261.880818 
L 140.610029 258.662558 
L 144.51814 273.681108 
L 148.42625 285.838982 
L 152.334361 222.54652 
L 156.242471 247.935022 
L 160.150581 263.311156 
L 164.058692 262.953572 
L 167.966802 269.390093 
L 171.874912 260.808065 
L 175.783023 258.662558 
L 179.691133 270.462847 
L 183.599244 244.716761 
L 187.507354 267.959755 
L 191.415464 231.843718 
L 195.323575 230.055795 
L 199.231685 248.292606 
L 203.139795 247.935022 
L 207.047906 274.753861 
L 210.956016 255.444297 
L 214.864127 264.026325 
L 218.772237 257.589804 
L 222.680347 227.552704 
L 226.588458 254.013959 
L 230.496568 254.013959 
L 234.404679 247.219853 
L 238.312789 272.25077 
L 242.220899 264.38391 
L 246.12901 274.038692 
L 250.03712 255.801881 
L 253.94523 243.644007 
L 257.853341 199.303526 
L 261.761451 120.992514 
L 265.669562 200.376279 
L 269.577672 205.024878 
L 273.485782 134.938311 
L 277.393893 204.309709 
L 281.302003 243.286423 
L 285.210113 232.558887 
L 289.118224 251.153282 
L 293.026334 271.535601 
L 296.934445 206.455216 
L 300.842555 222.904105 
L 304.750665 167.836087 
L 308.658776 135.65348 
L 312.566886 55.554545 
L 316.474996 175.702947 
L 320.383107 175.345362 
L 324.291217 150.67203 
L 328.199328 180.351546 
L 332.107438 197.515603 
" clip-path="url(#pbd6eee0fa2)" style="fill: none; stroke: #000000; stroke-opacity: 0.2; stroke-width: 1.5; stroke-linecap: square"/>
   </g>
   <g id="line2d_32">
    <path d="M 101.528926 213.711956 
L 105.437036 181.503608 
L 109.345146 209.385462 
L 113.253257 235.82515 
L 117.161367 223.326388 
L 121.069478 257.938345 
L 124.977588 204.097524 
L 128.885698 206.02041 
L 132.793809 195.925256 
L 136.701919 173.812062 
L 140.610029 227.172161 
L 144.51814 194.963813 
L 148.42625 224.287832 
L 152.334361 249.766077 
L 156.242471 251.688964 
L 160.150581 292.550301 
L 164.058692 263.226282 
L 167.966802 248.323912 
L 171.874912 239.670923 
L 175.783023 208.90474 
L 179.691133 148.333817 
L 183.599244 123.336293 
L 187.507354 55.554545 
L 191.415464 112.279696 
L 195.323575 171.889176 
L 199.231685 204.097524 
L 203.139795 196.405978 
L 207.047906 283.41659 
L 210.956016 243.516696 
L 214.864127 257.938345 
L 218.772237 267.552777 
L 222.680347 271.879271 
L 226.588458 287.262363 
L 230.496568 289.185249 
L 234.404679 288.223806 
L 238.312789 254.092572 
L 242.220899 206.981854 
L 246.12901 208.90474 
L 250.03712 226.210718 
L 253.94523 257.457623 
L 257.853341 250.246799 
L 261.761451 250.246799 
L 265.669562 231.498656 
L 269.577672 211.308348 
L 273.485782 246.401026 
L 277.393893 272.359993 
L 281.302003 268.033498 
L 285.210113 239.670923 
L 289.118224 183.907216 
L 293.026334 220.442059 
L 296.934445 247.843191 
L 300.842555 218.999894 
L 304.750665 279.090096 
L 308.658776 273.321436 
L 312.566886 301.20329 
L 316.474996 302.645455 
L 320.383107 201.213194 
L 324.291217 209.866183 
L 328.199328 125.739901 
L 332.107438 75.744853 
" clip-path="url(#pbd6eee0fa2)" style="fill: none; stroke: #000000; stroke-opacity: 0.2; stroke-width: 1.5; stroke-linecap: square"/>
   </g>
   <g id="line2d_33">
    <path d="M 101.528926 265.09199 
L 105.437036 281.238166 
L 109.345146 300.105607 
L 113.253257 299.198518 
L 117.161367 301.375531 
L 121.069478 291.94181 
L 124.977588 287.950621 
L 128.885698 279.423989 
L 132.793809 288.132038 
L 136.701919 293.393152 
L 140.610029 295.570164 
L 144.51814 294.663076 
L 148.42625 302.645455 
L 152.334361 255.295435 
L 156.242471 244.410372 
L 160.150581 228.627032 
L 164.058692 223.910172 
L 167.966802 96.736364 
L 171.874912 60.089988 
L 175.783023 126.670284 
L 179.691133 126.851702 
L 183.599244 193.613416 
L 187.507354 197.604606 
L 191.415464 149.347497 
L 195.323575 152.431598 
L 199.231685 156.96704 
L 203.139795 137.555346 
L 207.047906 55.554545 
L 210.956016 73.877733 
L 214.864127 74.966239 
L 218.772237 65.169684 
L 222.680347 89.661073 
L 226.588458 128.121626 
L 230.496568 162.409571 
L 234.404679 159.325471 
L 238.312789 151.161674 
L 242.220899 152.068763 
L 246.12901 216.472046 
L 250.03712 209.941009 
L 253.94523 198.330276 
L 257.853341 142.272207 
L 261.761451 150.073168 
L 265.669562 127.758791 
L 269.577672 150.798839 
L 273.485782 184.179696 
L 277.393893 148.621826 
L 281.302003 105.444413 
L 285.210113 135.922587 
L 289.118224 135.922587 
L 293.026334 122.860513 
L 296.934445 170.39195 
L 300.842555 168.214938 
L 304.750665 177.830076 
L 308.658776 172.387545 
L 312.566886 185.44962 
L 316.474996 215.020705 
L 320.383107 137.011093 
L 324.291217 137.011093 
L 328.199328 128.847297 
L 332.107438 91.838086 
" clip-path="url(#pbd6eee0fa2)" style="fill: none; stroke: #000000; stroke-opacity: 0.2; stroke-width: 1.5; stroke-linecap: square"/>
   </g>
   <g id="line2d_34">
    <path d="M 101.528926 228.216851 
L 105.437036 264.075166 
L 109.345146 262.267184 
L 113.253257 241.174058 
L 117.161367 248.104656 
L 121.069478 253.829933 
L 124.977588 263.773836 
L 128.885698 236.654102 
L 132.793809 223.998226 
L 136.701919 222.491574 
L 140.610029 209.233038 
L 144.51814 197.179823 
L 148.42625 165.540133 
L 152.334361 167.348115 
L 156.242471 161.321508 
L 160.150581 172.470732 
L 164.058692 179.1 
L 167.966802 174.580044 
L 171.874912 186.331929 
L 175.783023 206.822395 
L 179.691133 199.590466 
L 183.599244 242.68071 
L 187.507354 295.112195 
L 191.415464 255.336585 
L 195.323575 269.499113 
L 199.231685 302.645455 
L 203.139795 285.469623 
L 207.047906 262.568514 
L 210.956016 259.25388 
L 214.864127 237.859424 
L 218.772237 242.98204 
L 222.680347 268.595122 
L 226.588458 238.763415 
L 230.496568 206.822395 
L 234.404679 207.123725 
L 238.312789 207.123725 
L 242.220899 201.699778 
L 246.12901 177.894678 
L 250.03712 155.2949 
L 253.94523 177.894678 
L 257.853341 171.566741 
L 261.761451 151.076275 
L 265.669562 183.318625 
L 269.577672 179.40133 
L 273.485782 125.161863 
L 277.393893 101.959424 
L 281.302003 82.674279 
L 285.210113 55.554545 
L 289.118224 92.316851 
L 293.026334 132.996452 
L 296.934445 152.582927 
L 300.842555 150.172284 
L 304.750665 130.585809 
L 308.658776 155.2949 
L 312.566886 155.2949 
L 316.474996 158.006874 
L 320.383107 141.735033 
L 324.291217 130.284479 
L 328.199328 87.796896 
L 332.107438 87.796896 
" clip-path="url(#pbd6eee0fa2)" style="fill: none; stroke: #000000; stroke-opacity: 0.2; stroke-width: 1.5; stroke-linecap: square"/>
   </g>
   <g id="line2d_35">
    <path d="M 101.528926 302.645455 
L 105.437036 258.66849 
L 109.345146 193.821102 
L 113.253257 147.980708 
L 117.161367 212.828095 
L 121.069478 230.344344 
L 124.977588 243.015673 
L 128.885698 248.233278 
L 132.793809 210.219292 
L 136.701919 203.510942 
L 140.610029 226.990169 
L 144.51814 223.635993 
L 148.42625 193.448416 
L 152.334361 206.492431 
L 156.242471 254.941629 
L 160.150581 276.930111 
L 164.058692 287.365323 
L 167.966802 187.112752 
L 171.874912 175.559482 
L 175.783023 139.03624 
L 179.691133 110.339408 
L 183.599244 162.888153 
L 187.507354 112.948211 
L 191.415464 115.9297 
L 195.323575 180.404401 
L 199.231685 238.170753 
L 203.139795 136.054751 
L 207.047906 102.140313 
L 210.956016 125.992225 
L 214.864127 102.512999 
L 218.772237 120.029247 
L 222.680347 110.712094 
L 226.588458 101.39494 
L 230.496568 101.39494 
L 234.404679 109.966722 
L 238.312789 94.313904 
L 242.220899 82.387947 
L 246.12901 118.165817 
L 250.03712 114.811641 
L 253.94523 133.818634 
L 257.853341 105.867174 
L 261.761451 55.554545 
L 265.669562 86.114809 
L 269.577672 64.871699 
L 273.485782 138.290868 
L 277.393893 125.992225 
L 281.302003 149.098766 
L 285.210113 176.67754 
L 289.118224 201.274825 
L 293.026334 204.256314 
L 296.934445 180.404401 
L 300.842555 168.478445 
L 304.750665 194.566475 
L 308.658776 195.684533 
L 312.566886 170.341876 
L 316.474996 192.330358 
L 320.383107 194.193789 
L 324.291217 221.399877 
L 328.199328 218.791074 
L 332.107438 267.985644 
" clip-path="url(#pbd6eee0fa2)" style="fill: none; stroke: #000000; stroke-opacity: 0.2; stroke-width: 1.5; stroke-linecap: square"/>
   </g>
   <g id="line2d_36">
    <path d="M 101.528926 276.062145 
L 105.437036 231.884126 
L 109.345146 199.180918 
L 113.253257 235.90031 
L 117.161367 222.895525 
L 121.069478 260.953645 
L 124.977588 258.276189 
L 128.885698 287.345708 
L 132.793809 284.477005 
L 136.701919 278.548354 
L 140.610029 292.700619 
L 144.51814 292.700619 
L 148.42625 294.039347 
L 152.334361 274.723417 
L 156.242471 302.645455 
L 160.150581 278.930847 
L 164.058692 236.856544 
L 167.966802 299.967999 
L 171.874912 280.269575 
L 175.783023 246.610132 
L 179.691133 208.169519 
L 183.599244 213.333183 
L 187.507354 116.753532 
L 191.415464 148.500507 
L 195.323575 182.542443 
L 199.231685 241.637715 
L 203.139795 220.983057 
L 207.047906 187.323614 
L 210.956016 225.572981 
L 214.864127 265.734816 
L 218.772237 285.43324 
L 222.680347 282.182043 
L 226.588458 282.182043 
L 230.496568 259.806164 
L 234.404679 275.679651 
L 238.312789 252.538784 
L 242.220899 234.944075 
L 246.12901 234.944075 
L 250.03712 187.323614 
L 253.94523 213.333183 
L 257.853341 189.427329 
L 261.761451 105.278722 
L 265.669562 66.646862 
L 269.577672 118.474754 
L 273.485782 153.472924 
L 277.393893 100.880045 
L 281.302003 125.168393 
L 285.210113 66.455615 
L 289.118224 66.455615 
L 293.026334 85.006558 
L 296.934445 55.554545 
L 300.842555 72.76676 
L 304.750665 155.959133 
L 308.658776 121.343456 
L 312.566886 152.899184 
L 316.474996 141.233127 
L 320.383107 154.429158 
L 324.291217 196.885956 
L 328.199328 201.093386 
L 332.107438 162.844019 
" clip-path="url(#pbd6eee0fa2)" style="fill: none; stroke: #000000; stroke-opacity: 0.2; stroke-width: 1.5; stroke-linecap: square"/>
   </g>
   <g id="line2d_37">
    <path d="M 101.528926 240.852912 
L 105.437036 277.084162 
L 109.345146 289.181777 
L 113.253257 257.409267 
L 117.161367 278.028868 
L 121.069478 270.391534 
L 124.977588 271.357181 
L 128.885698 271.357181 
L 132.793809 271.357181 
L 136.701919 271.357181 
L 140.610029 271.357181 
L 144.51814 271.357181 
L 148.42625 271.357181 
L 152.334361 271.357181 
L 156.242471 271.357181 
L 160.150581 271.357181 
L 164.058692 271.357181 
L 167.966802 271.610434 
L 171.874912 263.584483 
L 175.783023 271.254511 
L 179.691133 271.899238 
L 183.599244 291.131936 
L 187.507354 270.215925 
L 191.415464 271.472173 
L 195.323575 267.172071 
L 199.231685 273.072012 
L 203.139795 235.166741 
L 207.047906 243.059681 
L 210.956016 241.055192 
L 214.864127 246.202356 
L 218.772237 221.166915 
L 222.680347 250.360567 
L 226.588458 277.708078 
L 230.496568 245.164955 
L 234.404679 204.741776 
L 238.312789 259.291267 
L 242.220899 230.139929 
L 246.12901 166.37641 
L 250.03712 80.863108 
L 253.94523 114.206129 
L 257.853341 84.218429 
L 261.761451 90.982392 
L 265.669562 151.17167 
L 269.577672 170.873756 
L 273.485782 218.408436 
L 277.393893 211.054663 
L 281.302003 228.337189 
L 285.210113 228.542473 
L 289.118224 228.17846 
L 293.026334 228.160624 
L 296.934445 226.607098 
L 300.842555 230.460954 
L 304.750665 261.250544 
L 308.658776 239.720578 
L 312.566886 204.400923 
L 316.474996 232.785484 
L 320.383107 228.884966 
L 324.291217 246.818719 
L 328.199328 276.034861 
L 332.107438 164.139933 
" clip-path="url(#pbd6eee0fa2)" style="fill: none; stroke: #ff0000; stroke-width: 2; stroke-linecap: square"/>
   </g>
   <g id="patch_3">
    <path d="M 90 315 
L 90 43.2 
" style="fill: none; stroke: #ffffff; stroke-linejoin: miter; stroke-linecap: square"/>
   </g>
   <g id="patch_4">
    <path d="M 343.636364 315 
L 343.636364 43.2 
" style="fill: none; stroke: #ffffff; stroke-linejoin: miter; stroke-linecap: square"/>
   </g>
   <g id="patch_5">
    <path d="M 90 315 
L 343.636364 315 
" style="fill: none; stroke: #ffffff; stroke-linejoin: miter; stroke-linecap: square"/>
   </g>
   <g id="patch_6">
    <path d="M 90 43.2 
L 343.636364 43.2 
" style="fill: none; stroke: #ffffff; stroke-linejoin: miter; stroke-linecap: square"/>
   </g>
   <g id="text_14">
    <!-- VIX Template 1 -->
    <g transform="translate(184.489276 37.2)scale(0.1 -0.1)">
     <defs>
      <path id="TimesNewRomanPSMT-56" d="M 4544 4238 
L 4544 4122 
Q 4319 4081 4203 3978 
Q 4038 3825 3909 3509 
L 2431 -97 
L 2316 -97 
L 728 3556 
Q 606 3838 556 3900 
Q 478 3997 364 4051 
Q 250 4106 56 4122 
L 56 4238 
L 1788 4238 
L 1788 4122 
Q 1494 4094 1406 4022 
Q 1319 3950 1319 3838 
Q 1319 3681 1463 3350 
L 2541 866 
L 3541 3319 
Q 3688 3681 3688 3822 
Q 3688 3913 3597 3995 
Q 3506 4078 3291 4113 
Q 3275 4116 3238 4122 
L 3238 4238 
L 4544 4238 
z
" transform="scale(0.015625)"/>
      <path id="TimesNewRomanPSMT-49" d="M 1975 116 
L 1975 0 
L 159 0 
L 159 116 
L 309 116 
Q 572 116 691 269 
Q 766 369 766 750 
L 766 3488 
Q 766 3809 725 3913 
Q 694 3991 597 4047 
Q 459 4122 309 4122 
L 159 4122 
L 159 4238 
L 1975 4238 
L 1975 4122 
L 1822 4122 
Q 1563 4122 1444 3969 
Q 1366 3869 1366 3488 
L 1366 750 
Q 1366 428 1406 325 
Q 1438 247 1538 191 
Q 1672 116 1822 116 
L 1975 116 
z
" transform="scale(0.015625)"/>
      <path id="TimesNewRomanPSMT-58" d="M 2613 2347 
L 3522 991 
Q 3900 428 4083 279 
Q 4266 131 4547 116 
L 4547 0 
L 2728 0 
L 2728 116 
Q 2909 119 2997 153 
Q 3063 181 3105 239 
Q 3147 297 3147 356 
Q 3147 428 3119 500 
Q 3097 553 2947 775 
L 2228 1863 
L 1341 725 
Q 1200 544 1172 483 
Q 1144 422 1144 356 
Q 1144 256 1228 190 
Q 1313 125 1550 116 
L 1550 0 
L 47 0 
L 47 116 
Q 206 131 322 181 
Q 516 263 691 400 
Q 866 538 1091 822 
L 2091 2084 
L 1256 3306 
Q 916 3803 678 3958 
Q 441 4113 131 4122 
L 131 4238 
L 2091 4238 
L 2091 4122 
Q 1841 4113 1748 4041 
Q 1656 3969 1656 3881 
Q 1656 3766 1806 3544 
L 2456 2572 
L 3209 3525 
Q 3341 3694 3370 3756 
Q 3400 3819 3400 3884 
Q 3400 3950 3363 4000 
Q 3316 4066 3244 4092 
Q 3172 4119 2947 4122 
L 2947 4238 
L 4450 4238 
L 4450 4122 
Q 4272 4113 4159 4066 
Q 3991 3994 3850 3872 
Q 3709 3750 3453 3422 
L 2613 2347 
z
" transform="scale(0.015625)"/>
      <path id="TimesNewRomanPSMT-20" transform="scale(0.015625)"/>
      <path id="TimesNewRomanPSMT-54" d="M 3703 4238 
L 3750 3244 
L 3631 3244 
Q 3597 3506 3538 3619 
Q 3441 3800 3280 3886 
Q 3119 3972 2856 3972 
L 2259 3972 
L 2259 734 
Q 2259 344 2344 247 
Q 2463 116 2709 116 
L 2856 116 
L 2856 0 
L 1059 0 
L 1059 116 
L 1209 116 
Q 1478 116 1591 278 
Q 1659 378 1659 734 
L 1659 3972 
L 1150 3972 
Q 853 3972 728 3928 
Q 566 3869 450 3700 
Q 334 3531 313 3244 
L 194 3244 
L 244 4238 
L 3703 4238 
z
" transform="scale(0.015625)"/>
      <path id="TimesNewRomanPSMT-65" d="M 681 1784 
Q 678 1147 991 784 
Q 1303 422 1725 422 
Q 2006 422 2214 576 
Q 2422 731 2563 1106 
L 2659 1044 
Q 2594 616 2278 264 
Q 1963 -88 1488 -88 
Q 972 -88 605 314 
Q 238 716 238 1394 
Q 238 2128 614 2539 
Q 991 2950 1559 2950 
Q 2041 2950 2350 2633 
Q 2659 2316 2659 1784 
L 681 1784 
z
M 681 1966 
L 2006 1966 
Q 1991 2241 1941 2353 
Q 1863 2528 1708 2628 
Q 1553 2728 1384 2728 
Q 1125 2728 920 2526 
Q 716 2325 681 1966 
z
" transform="scale(0.015625)"/>
      <path id="TimesNewRomanPSMT-6d" d="M 1050 2338 
Q 1363 2650 1419 2697 
Q 1559 2816 1721 2881 
Q 1884 2947 2044 2947 
Q 2313 2947 2506 2790 
Q 2700 2634 2766 2338 
Q 3088 2713 3309 2830 
Q 3531 2947 3766 2947 
Q 3994 2947 4170 2830 
Q 4347 2713 4450 2447 
Q 4519 2266 4519 1878 
L 4519 647 
Q 4519 378 4559 278 
Q 4591 209 4675 161 
Q 4759 113 4950 113 
L 4950 0 
L 3538 0 
L 3538 113 
L 3597 113 
Q 3781 113 3884 184 
Q 3956 234 3988 344 
Q 4000 397 4000 647 
L 4000 1878 
Q 4000 2228 3916 2372 
Q 3794 2572 3525 2572 
Q 3359 2572 3192 2489 
Q 3025 2406 2788 2181 
L 2781 2147 
L 2788 2013 
L 2788 647 
Q 2788 353 2820 281 
Q 2853 209 2943 161 
Q 3034 113 3253 113 
L 3253 0 
L 1806 0 
L 1806 113 
Q 2044 113 2133 169 
Q 2222 225 2256 338 
Q 2272 391 2272 647 
L 2272 1878 
Q 2272 2228 2169 2381 
Q 2031 2581 1784 2581 
Q 1616 2581 1450 2491 
Q 1191 2353 1050 2181 
L 1050 647 
Q 1050 366 1089 281 
Q 1128 197 1204 155 
Q 1281 113 1516 113 
L 1516 0 
L 100 0 
L 100 113 
Q 297 113 375 155 
Q 453 197 493 289 
Q 534 381 534 647 
L 534 1741 
Q 534 2213 506 2350 
Q 484 2453 437 2492 
Q 391 2531 309 2531 
Q 222 2531 100 2484 
L 53 2597 
L 916 2947 
L 1050 2947 
L 1050 2338 
z
" transform="scale(0.015625)"/>
      <path id="TimesNewRomanPSMT-70" d="M -6 2578 
L 875 2934 
L 994 2934 
L 994 2266 
Q 1216 2644 1439 2795 
Q 1663 2947 1909 2947 
Q 2341 2947 2628 2609 
Q 2981 2197 2981 1534 
Q 2981 794 2556 309 
Q 2206 -88 1675 -88 
Q 1444 -88 1275 -22 
Q 1150 25 994 166 
L 994 -706 
Q 994 -1000 1030 -1079 
Q 1066 -1159 1155 -1206 
Q 1244 -1253 1478 -1253 
L 1478 -1369 
L -22 -1369 
L -22 -1253 
L 56 -1253 
Q 228 -1256 350 -1188 
Q 409 -1153 442 -1076 
Q 475 -1000 475 -688 
L 475 2019 
Q 475 2297 450 2372 
Q 425 2447 370 2484 
Q 316 2522 222 2522 
Q 147 2522 31 2478 
L -6 2578 
z
M 994 2081 
L 994 1013 
Q 994 666 1022 556 
Q 1066 375 1236 237 
Q 1406 100 1666 100 
Q 1978 100 2172 344 
Q 2425 663 2425 1241 
Q 2425 1897 2138 2250 
Q 1938 2494 1663 2494 
Q 1513 2494 1366 2419 
Q 1253 2363 994 2081 
z
" transform="scale(0.015625)"/>
      <path id="TimesNewRomanPSMT-6c" d="M 1184 4444 
L 1184 647 
Q 1184 378 1223 290 
Q 1263 203 1344 158 
Q 1425 113 1647 113 
L 1647 0 
L 244 0 
L 244 113 
Q 441 113 512 153 
Q 584 194 625 287 
Q 666 381 666 647 
L 666 3247 
Q 666 3731 644 3842 
Q 622 3953 573 3993 
Q 525 4034 450 4034 
Q 369 4034 244 3984 
L 191 4094 
L 1044 4444 
L 1184 4444 
z
" transform="scale(0.015625)"/>
      <path id="TimesNewRomanPSMT-61" d="M 1822 413 
Q 1381 72 1269 19 
Q 1100 -59 909 -59 
Q 613 -59 420 144 
Q 228 347 228 678 
Q 228 888 322 1041 
Q 450 1253 767 1440 
Q 1084 1628 1822 1897 
L 1822 2009 
Q 1822 2438 1686 2597 
Q 1550 2756 1291 2756 
Q 1094 2756 978 2650 
Q 859 2544 859 2406 
L 866 2225 
Q 866 2081 792 2003 
Q 719 1925 600 1925 
Q 484 1925 411 2006 
Q 338 2088 338 2228 
Q 338 2497 613 2722 
Q 888 2947 1384 2947 
Q 1766 2947 2009 2819 
Q 2194 2722 2281 2516 
Q 2338 2381 2338 1966 
L 2338 994 
Q 2338 584 2353 492 
Q 2369 400 2405 369 
Q 2441 338 2488 338 
Q 2538 338 2575 359 
Q 2641 400 2828 588 
L 2828 413 
Q 2478 -56 2159 -56 
Q 2006 -56 1915 50 
Q 1825 156 1822 413 
z
M 1822 616 
L 1822 1706 
Q 1350 1519 1213 1441 
Q 966 1303 859 1153 
Q 753 1003 753 825 
Q 753 600 887 451 
Q 1022 303 1197 303 
Q 1434 303 1822 616 
z
" transform="scale(0.015625)"/>
      <path id="TimesNewRomanPSMT-74" d="M 1031 3803 
L 1031 2863 
L 1700 2863 
L 1700 2644 
L 1031 2644 
L 1031 788 
Q 1031 509 1111 412 
Q 1191 316 1316 316 
Q 1419 316 1516 380 
Q 1613 444 1666 569 
L 1788 569 
Q 1678 263 1478 108 
Q 1278 -47 1066 -47 
Q 922 -47 784 33 
Q 647 113 581 261 
Q 516 409 516 719 
L 516 2644 
L 63 2644 
L 63 2747 
Q 234 2816 414 2980 
Q 594 3144 734 3369 
Q 806 3488 934 3803 
L 1031 3803 
z
" transform="scale(0.015625)"/>
     </defs>
     <use xlink:href="#TimesNewRomanPSMT-56"/>
     <use xlink:href="#TimesNewRomanPSMT-49" x="72.216797"/>
     <use xlink:href="#TimesNewRomanPSMT-58" x="105.517578"/>
     <use xlink:href="#TimesNewRomanPSMT-20" x="177.734375"/>
     <use xlink:href="#TimesNewRomanPSMT-54" x="200.984375"/>
     <use xlink:href="#TimesNewRomanPSMT-65" x="255.068359"/>
     <use xlink:href="#TimesNewRomanPSMT-6d" x="299.453125"/>
     <use xlink:href="#TimesNewRomanPSMT-70" x="377.236328"/>
     <use xlink:href="#TimesNewRomanPSMT-6c" x="427.236328"/>
     <use xlink:href="#TimesNewRomanPSMT-61" x="455.019531"/>
     <use xlink:href="#TimesNewRomanPSMT-74" x="499.404297"/>
     <use xlink:href="#TimesNewRomanPSMT-65" x="527.1875"/>
     <use xlink:href="#TimesNewRomanPSMT-20" x="571.572266"/>
     <use xlink:href="#TimesNewRomanPSMT-31" x="596.572266"/>
    </g>
   </g>
  </g>
  <g id="axes_2">
   <g id="patch_7">
    <path d="M 394.363636 315 
L 648 315 
L 648 43.2 
L 394.363636 43.2 
z
" style="fill: #e5e5e5"/>
   </g>
   <g id="matplotlib.axis_3">
    <g id="xtick_8">
     <g id="line2d_38">
      <path d="M 405.892562 315 
L 405.892562 43.2 
" clip-path="url(#p961274fdd4)" style="fill: none; stroke: #ffffff; stroke-width: 0.8; stroke-linecap: square"/>
     </g>
     <g id="line2d_39">
      <g>
       <use xlink:href="#mfed38f07ef" x="405.892562" y="315" style="fill: #555555; stroke: #555555; stroke-width: 0.8"/>
      </g>
     </g>
     <g id="text_15">
      <!-- 0 -->
      <g style="fill: #555555" transform="translate(403.392562 328.94375)scale(0.1 -0.1)">
       <use xlink:href="#TimesNewRomanPSMT-30"/>
      </g>
     </g>
    </g>
    <g id="xtick_9">
     <g id="line2d_40">
      <path d="M 444.973666 315 
L 444.973666 43.2 
" clip-path="url(#p961274fdd4)" style="fill: none; stroke: #ffffff; stroke-width: 0.8; stroke-linecap: square"/>
     </g>
     <g id="line2d_41">
      <g>
       <use xlink:href="#mfed38f07ef" x="444.973666" y="315" style="fill: #555555; stroke: #555555; stroke-width: 0.8"/>
      </g>
     </g>
     <g id="text_16">
      <!-- 10 -->
      <g style="fill: #555555" transform="translate(439.973666 328.94375)scale(0.1 -0.1)">
       <use xlink:href="#TimesNewRomanPSMT-31"/>
       <use xlink:href="#TimesNewRomanPSMT-30" x="50"/>
      </g>
     </g>
    </g>
    <g id="xtick_10">
     <g id="line2d_42">
      <path d="M 484.05477 315 
L 484.05477 43.2 
" clip-path="url(#p961274fdd4)" style="fill: none; stroke: #ffffff; stroke-width: 0.8; stroke-linecap: square"/>
     </g>
     <g id="line2d_43">
      <g>
       <use xlink:href="#mfed38f07ef" x="484.05477" y="315" style="fill: #555555; stroke: #555555; stroke-width: 0.8"/>
      </g>
     </g>
     <g id="text_17">
      <!-- 20 -->
      <g style="fill: #555555" transform="translate(479.05477 328.94375)scale(0.1 -0.1)">
       <use xlink:href="#TimesNewRomanPSMT-32"/>
       <use xlink:href="#TimesNewRomanPSMT-30" x="50"/>
      </g>
     </g>
    </g>
    <g id="xtick_11">
     <g id="line2d_44">
      <path d="M 523.135873 315 
L 523.135873 43.2 
" clip-path="url(#p961274fdd4)" style="fill: none; stroke: #ffffff; stroke-width: 0.8; stroke-linecap: square"/>
     </g>
     <g id="line2d_45">
      <g>
       <use xlink:href="#mfed38f07ef" x="523.135873" y="315" style="fill: #555555; stroke: #555555; stroke-width: 0.8"/>
      </g>
     </g>
     <g id="text_18">
      <!-- 30 -->
      <g style="fill: #555555" transform="translate(518.135873 328.94375)scale(0.1 -0.1)">
       <use xlink:href="#TimesNewRomanPSMT-33"/>
       <use xlink:href="#TimesNewRomanPSMT-30" x="50"/>
      </g>
     </g>
    </g>
    <g id="xtick_12">
     <g id="line2d_46">
      <path d="M 562.216977 315 
L 562.216977 43.2 
" clip-path="url(#p961274fdd4)" style="fill: none; stroke: #ffffff; stroke-width: 0.8; stroke-linecap: square"/>
     </g>
     <g id="line2d_47">
      <g>
       <use xlink:href="#mfed38f07ef" x="562.216977" y="315" style="fill: #555555; stroke: #555555; stroke-width: 0.8"/>
      </g>
     </g>
     <g id="text_19">
      <!-- 40 -->
      <g style="fill: #555555" transform="translate(557.216977 328.94375)scale(0.1 -0.1)">
       <use xlink:href="#TimesNewRomanPSMT-34"/>
       <use xlink:href="#TimesNewRomanPSMT-30" x="50"/>
      </g>
     </g>
    </g>
    <g id="xtick_13">
     <g id="line2d_48">
      <path d="M 601.298081 315 
L 601.298081 43.2 
" clip-path="url(#p961274fdd4)" style="fill: none; stroke: #ffffff; stroke-width: 0.8; stroke-linecap: square"/>
     </g>
     <g id="line2d_49">
      <g>
       <use xlink:href="#mfed38f07ef" x="601.298081" y="315" style="fill: #555555; stroke: #555555; stroke-width: 0.8"/>
      </g>
     </g>
     <g id="text_20">
      <!-- 50 -->
      <g style="fill: #555555" transform="translate(596.298081 328.94375)scale(0.1 -0.1)">
       <use xlink:href="#TimesNewRomanPSMT-35"/>
       <use xlink:href="#TimesNewRomanPSMT-30" x="50"/>
      </g>
     </g>
    </g>
    <g id="xtick_14">
     <g id="line2d_50">
      <path d="M 640.379185 315 
L 640.379185 43.2 
" clip-path="url(#p961274fdd4)" style="fill: none; stroke: #ffffff; stroke-width: 0.8; stroke-linecap: square"/>
     </g>
     <g id="line2d_51">
      <g>
       <use xlink:href="#mfed38f07ef" x="640.379185" y="315" style="fill: #555555; stroke: #555555; stroke-width: 0.8"/>
      </g>
     </g>
     <g id="text_21">
      <!-- 60 -->
      <g style="fill: #555555" transform="translate(635.379185 328.94375)scale(0.1 -0.1)">
       <use xlink:href="#TimesNewRomanPSMT-36"/>
       <use xlink:href="#TimesNewRomanPSMT-30" x="50"/>
      </g>
     </g>
    </g>
   </g>
   <g id="matplotlib.axis_4">
    <g id="ytick_7">
     <g id="line2d_52">
      <path d="M 394.363636 302.645455 
L 648 302.645455 
" clip-path="url(#p961274fdd4)" style="fill: none; stroke: #ffffff; stroke-width: 0.8; stroke-linecap: square"/>
     </g>
     <g id="line2d_53">
      <g>
       <use xlink:href="#m5a56705b43" x="394.363636" y="302.645455" style="fill: #555555; stroke: #555555; stroke-width: 0.8"/>
      </g>
     </g>
     <g id="text_22">
      <!-- 0.0 -->
      <g style="fill: #555555" transform="translate(374.863636 306.11733)scale(0.1 -0.1)">
       <use xlink:href="#TimesNewRomanPSMT-30"/>
       <use xlink:href="#TimesNewRomanPSMT-2e" x="50"/>
       <use xlink:href="#TimesNewRomanPSMT-30" x="75"/>
      </g>
     </g>
    </g>
    <g id="ytick_8">
     <g id="line2d_54">
      <path d="M 394.363636 253.227273 
L 648 253.227273 
" clip-path="url(#p961274fdd4)" style="fill: none; stroke: #ffffff; stroke-width: 0.8; stroke-linecap: square"/>
     </g>
     <g id="line2d_55">
      <g>
       <use xlink:href="#m5a56705b43" x="394.363636" y="253.227273" style="fill: #555555; stroke: #555555; stroke-width: 0.8"/>
      </g>
     </g>
     <g id="text_23">
      <!-- 0.2 -->
      <g style="fill: #555555" transform="translate(374.863636 256.699148)scale(0.1 -0.1)">
       <use xlink:href="#TimesNewRomanPSMT-30"/>
       <use xlink:href="#TimesNewRomanPSMT-2e" x="50"/>
       <use xlink:href="#TimesNewRomanPSMT-32" x="75"/>
      </g>
     </g>
    </g>
    <g id="ytick_9">
     <g id="line2d_56">
      <path d="M 394.363636 203.809091 
L 648 203.809091 
" clip-path="url(#p961274fdd4)" style="fill: none; stroke: #ffffff; stroke-width: 0.8; stroke-linecap: square"/>
     </g>
     <g id="line2d_57">
      <g>
       <use xlink:href="#m5a56705b43" x="394.363636" y="203.809091" style="fill: #555555; stroke: #555555; stroke-width: 0.8"/>
      </g>
     </g>
     <g id="text_24">
      <!-- 0.4 -->
      <g style="fill: #555555" transform="translate(374.863636 207.280966)scale(0.1 -0.1)">
       <use xlink:href="#TimesNewRomanPSMT-30"/>
       <use xlink:href="#TimesNewRomanPSMT-2e" x="50"/>
       <use xlink:href="#TimesNewRomanPSMT-34" x="75"/>
      </g>
     </g>
    </g>
    <g id="ytick_10">
     <g id="line2d_58">
      <path d="M 394.363636 154.390909 
L 648 154.390909 
" clip-path="url(#p961274fdd4)" style="fill: none; stroke: #ffffff; stroke-width: 0.8; stroke-linecap: square"/>
     </g>
     <g id="line2d_59">
      <g>
       <use xlink:href="#m5a56705b43" x="394.363636" y="154.390909" style="fill: #555555; stroke: #555555; stroke-width: 0.8"/>
      </g>
     </g>
     <g id="text_25">
      <!-- 0.6 -->
      <g style="fill: #555555" transform="translate(374.863636 157.862784)scale(0.1 -0.1)">
       <use xlink:href="#TimesNewRomanPSMT-30"/>
       <use xlink:href="#TimesNewRomanPSMT-2e" x="50"/>
       <use xlink:href="#TimesNewRomanPSMT-36" x="75"/>
      </g>
     </g>
    </g>
    <g id="ytick_11">
     <g id="line2d_60">
      <path d="M 394.363636 104.972727 
L 648 104.972727 
" clip-path="url(#p961274fdd4)" style="fill: none; stroke: #ffffff; stroke-width: 0.8; stroke-linecap: square"/>
     </g>
     <g id="line2d_61">
      <g>
       <use xlink:href="#m5a56705b43" x="394.363636" y="104.972727" style="fill: #555555; stroke: #555555; stroke-width: 0.8"/>
      </g>
     </g>
     <g id="text_26">
      <!-- 0.8 -->
      <g style="fill: #555555" transform="translate(374.863636 108.444602)scale(0.1 -0.1)">
       <use xlink:href="#TimesNewRomanPSMT-30"/>
       <use xlink:href="#TimesNewRomanPSMT-2e" x="50"/>
       <use xlink:href="#TimesNewRomanPSMT-38" x="75"/>
      </g>
     </g>
    </g>
    <g id="ytick_12">
     <g id="line2d_62">
      <path d="M 394.363636 55.554545 
L 648 55.554545 
" clip-path="url(#p961274fdd4)" style="fill: none; stroke: #ffffff; stroke-width: 0.8; stroke-linecap: square"/>
     </g>
     <g id="line2d_63">
      <g>
       <use xlink:href="#m5a56705b43" x="394.363636" y="55.554545" style="fill: #555555; stroke: #555555; stroke-width: 0.8"/>
      </g>
     </g>
     <g id="text_27">
      <!-- 1.0 -->
      <g style="fill: #555555" transform="translate(374.863636 59.02642)scale(0.1 -0.1)">
       <use xlink:href="#TimesNewRomanPSMT-31"/>
       <use xlink:href="#TimesNewRomanPSMT-2e" x="50"/>
       <use xlink:href="#TimesNewRomanPSMT-30" x="75"/>
      </g>
     </g>
    </g>
   </g>
   <g id="line2d_64">
    <path d="M 405.892562 175.480504 
L 409.800672 176.204403 
L 413.708783 115.396875 
L 417.616893 149.178835 
L 421.525004 190.441087 
L 425.433114 207.090767 
L 429.341224 203.712571 
L 433.249335 185.132493 
L 437.157445 189.234588 
L 441.065555 164.139418 
L 444.973666 148.213636 
L 448.881776 147.972337 
L 452.789887 170.171911 
L 456.697997 134.700852 
L 460.606107 145.07674 
L 464.514218 90.784304 
L 468.422328 140.974645 
L 472.330438 110.570881 
L 476.238549 134.700852 
L 480.146659 122.394567 
L 484.05477 149.178835 
L 487.96288 104.779687 
L 491.87099 94.645099 
L 495.779101 95.127699 
L 499.687211 147.731037 
L 503.595321 162.691619 
L 507.503432 164.139418 
L 511.411542 86.440909 
L 515.319653 55.554545 
L 519.227763 87.647408 
L 523.135873 74.375923 
L 527.043984 140.250746 
L 530.952094 140.250746 
L 534.860205 110.570881 
L 538.768315 120.464169 
L 542.676425 120.705469 
L 546.584536 187.54549 
L 550.492646 179.1 
L 554.400756 173.308807 
L 558.308867 176.204403 
L 562.216977 141.939844 
L 566.125088 127.94446 
L 570.033198 113.225178 
L 573.941308 127.703161 
L 577.849419 212.399361 
L 581.757529 223.257848 
L 585.665639 228.083842 
L 589.57375 226.636044 
L 593.48186 229.290341 
L 597.389971 238.45973 
L 601.298081 196.47358 
L 605.206191 227.842543 
L 609.114302 206.849467 
L 613.022412 209.745064 
L 616.930522 244.009624 
L 620.838633 277.791584 
L 624.746743 302.645455 
L 628.654854 302.645455 
L 632.562964 252.696413 
L 636.471074 261.865803 
" clip-path="url(#p961274fdd4)" style="fill: none; stroke: #000000; stroke-opacity: 0.2; stroke-width: 1.5; stroke-linecap: square"/>
   </g>
   <g id="line2d_65">
    <path d="M 405.892562 126.923726 
L 409.800672 151.945591 
L 413.708783 130.620138 
L 417.616893 164.740862 
L 421.525004 157.063699 
L 425.433114 157.063699 
L 429.341224 126.070708 
L 433.249335 175.261419 
L 437.157445 196.018192 
L 441.065555 199.998943 
L 444.973666 196.302532 
L 448.881776 105.029595 
L 452.789887 137.159944 
L 456.697997 197.724228 
L 460.606107 196.87121 
L 464.514218 90.243948 
L 468.422328 73.752265 
L 472.330438 55.554545 
L 476.238549 83.419803 
L 480.146659 136.022586 
L 484.05477 178.104812 
L 487.96288 182.654242 
L 491.87099 204.548373 
L 495.779101 178.389152 
L 499.687211 161.32879 
L 503.595321 161.32879 
L 507.503432 102.75488 
L 511.411542 153.082948 
L 515.319653 120.66826 
L 519.227763 147.396161 
L 523.135873 176.398776 
L 527.043984 180.948206 
L 530.952094 186.350654 
L 534.860205 183.50726 
L 538.768315 229.854577 
L 542.676425 214.500251 
L 546.584536 220.187038 
L 550.492646 230.423256 
L 554.400756 227.579862 
L 558.308867 249.473993 
L 562.216977 233.266649 
L 566.125088 240.375133 
L 570.033198 244.071545 
L 573.941308 251.464369 
L 577.849419 273.642839 
L 581.757529 259.141532 
L 585.665639 281.035663 
L 589.57375 272.505482 
L 593.48186 281.320002 
L 597.389971 292.124898 
L 601.298081 271.936803 
L 605.206191 281.888681 
L 609.114302 294.115274 
L 613.022412 302.645455 
L 616.930522 302.645455 
L 620.838633 264.828319 
L 624.746743 252.601726 
L 628.654854 223.030432 
L 632.562964 234.972685 
L 636.471074 253.454744 
" clip-path="url(#p961274fdd4)" style="fill: none; stroke: #000000; stroke-opacity: 0.2; stroke-width: 1.5; stroke-linecap: square"/>
   </g>
   <g id="line2d_66">
    <path d="M 405.892562 171.87512 
L 409.800672 150.922967 
L 413.708783 147.310526 
L 417.616893 159.592823 
L 421.525004 159.592823 
L 425.433114 176.210048 
L 429.341224 138.64067 
L 433.249335 176.932536 
L 437.157445 198.607177 
L 441.065555 194.994737 
L 444.973666 194.994737 
L 448.881776 190.659809 
L 452.789887 153.090431 
L 456.697997 157.425359 
L 460.606107 176.932536 
L 464.514218 176.210048 
L 468.422328 177.655024 
L 472.330438 161.037799 
L 476.238549 126.358373 
L 480.146659 161.037799 
L 484.05477 183.434928 
L 487.96288 192.104785 
L 491.87099 207.999522 
L 495.779101 194.272249 
L 499.687211 221.726794 
L 503.595321 227.506699 
L 507.503432 250.626316 
L 511.411542 259.296172 
L 515.319653 279.525837 
L 519.227763 286.750718 
L 523.135873 302.645455 
L 527.043984 302.645455 
L 530.952094 236.899043 
L 534.860205 247.013876 
L 538.768315 274.468421 
L 542.676425 206.554545 
L 546.584536 153.812919 
L 550.492646 96.736364 
L 554.400756 103.961244 
L 558.308867 96.013876 
L 562.216977 132.860766 
L 566.125088 139.363158 
L 570.033198 158.147847 
L 573.941308 161.037799 
L 577.849419 206.554545 
L 581.757529 186.32488 
L 585.665639 215.94689 
L 589.57375 215.94689 
L 593.48186 213.056938 
L 597.389971 161.760287 
L 601.298081 114.798565 
L 605.206191 76.506699 
L 609.114302 55.554545 
L 613.022412 98.18134 
L 616.930522 142.975598 
L 620.838633 157.425359 
L 624.746743 157.425359 
L 628.654854 187.769856 
L 632.562964 244.846411 
L 636.471074 271.578469 
" clip-path="url(#p961274fdd4)" style="fill: none; stroke: #000000; stroke-opacity: 0.2; stroke-width: 1.5; stroke-linecap: square"/>
   </g>
   <g id="line2d_67">
    <path d="M 405.892562 143.912022 
L 409.800672 147.942363 
L 413.708783 159.72336 
L 417.616893 173.984567 
L 421.525004 128.255698 
L 425.433114 129.185776 
L 429.341224 99.888297 
L 433.249335 146.702258 
L 437.157445 133.37113 
L 441.065555 132.286039 
L 444.973666 72.295962 
L 448.881776 55.554545 
L 452.789887 155.538006 
L 456.697997 92.757694 
L 460.606107 142.671917 
L 464.514218 142.671917 
L 468.422328 156.468085 
L 472.330438 156.623098 
L 476.238549 151.042626 
L 480.146659 154.142888 
L 484.05477 156.778111 
L 487.96288 158.328242 
L 491.87099 203.747086 
L 495.779101 192.121102 
L 499.687211 195.53139 
L 503.595321 207.312387 
L 507.503432 207.777427 
L 511.411542 208.707505 
L 515.319653 201.731915 
L 519.227763 214.598004 
L 523.135873 191.656063 
L 527.043984 186.07559 
L 530.952094 202.196954 
L 534.860205 237.074906 
L 538.768315 239.555116 
L 542.676425 243.275431 
L 546.584536 237.539945 
L 550.492646 231.80446 
L 554.400756 241.26026 
L 558.308867 244.360522 
L 562.216977 251.646139 
L 566.125088 250.871073 
L 570.033198 241.570286 
L 573.941308 233.044565 
L 577.849419 262.65207 
L 581.757529 273.502988 
L 585.665639 262.342044 
L 589.57375 273.037949 
L 593.48186 249.475955 
L 597.389971 254.591388 
L 601.298081 254.436375 
L 605.206191 279.5485 
L 609.114302 276.603251 
L 613.022412 281.563671 
L 616.930522 302.645455 
L 620.838633 300.010232 
L 624.746743 291.639523 
L 628.654854 282.803776 
L 632.562964 267.147451 
L 636.471074 275.518159 
" clip-path="url(#p961274fdd4)" style="fill: none; stroke: #000000; stroke-opacity: 0.2; stroke-width: 1.5; stroke-linecap: square"/>
   </g>
   <g id="line2d_68">
    <path d="M 405.892562 225.041104 
L 409.800672 167.425752 
L 413.708783 222.857432 
L 417.616893 178.344113 
L 421.525004 175.824492 
L 425.433114 216.978314 
L 429.341224 150.796249 
L 433.249335 188.086651 
L 437.157445 211.267171 
L 441.065555 213.114894 
L 444.973666 128.623577 
L 448.881776 98.052166 
L 452.789887 127.111804 
L 456.697997 108.466603 
L 460.606107 58.242142 
L 464.514218 55.554545 
L 468.422328 69.664427 
L 472.330438 131.143199 
L 476.238549 149.284476 
L 480.146659 188.926525 
L 484.05477 193.461844 
L 487.96288 225.377053 
L 491.87099 191.782096 
L 495.779101 131.647123 
L 499.687211 173.472845 
L 503.595321 152.475997 
L 507.503432 180.69576 
L 511.411542 180.69576 
L 515.319653 190.774248 
L 519.227763 160.538786 
L 523.135873 170.449299 
L 527.043984 132.822947 
L 530.952094 113.505846 
L 534.860205 148.948526 
L 538.768315 154.155744 
L 542.676425 157.51524 
L 546.584536 154.827644 
L 550.492646 128.623577 
L 554.400756 231.59212 
L 558.308867 236.967314 
L 562.216977 229.912373 
L 566.125088 254.268716 
L 570.033198 248.053649 
L 573.941308 260.987708 
L 577.849419 277.281262 
L 581.757529 287.863673 
L 585.665639 271.066195 
L 589.57375 273.753791 
L 593.48186 262.83543 
L 597.389971 257.628212 
L 601.298081 263.675304 
L 605.206191 289.375447 
L 609.114302 280.136833 
L 613.022412 302.645455 
L 616.930522 293.406841 
L 620.838633 256.284414 
L 624.746743 275.601514 
L 628.654854 250.069347 
L 632.562964 237.135288 
L 636.471074 261.995557 
" clip-path="url(#p961274fdd4)" style="fill: none; stroke: #000000; stroke-opacity: 0.2; stroke-width: 1.5; stroke-linecap: square"/>
   </g>
   <g id="line2d_69">
    <path d="M 405.892562 184.384021 
L 409.800672 222.127032 
L 413.708783 232.695075 
L 417.616893 240.746917 
L 421.525004 269.431605 
L 425.433114 269.431605 
L 429.341224 254.334401 
L 433.249335 172.306258 
L 437.157445 208.036308 
L 441.065555 213.57195 
L 444.973666 236.217756 
L 448.881776 264.399204 
L 452.789887 230.178874 
L 456.697997 245.779319 
L 460.606107 247.792279 
L 464.514218 147.144251 
L 468.422328 242.759878 
L 472.330438 253.327921 
L 476.238549 237.224236 
L 480.146659 242.256638 
L 484.05477 237.727476 
L 487.96288 207.533068 
L 491.87099 224.139993 
L 495.779101 136.072968 
L 499.687211 55.554545 
L 503.595321 165.260896 
L 507.503432 221.623792 
L 511.411542 191.429383 
L 515.319653 221.623792 
L 519.227763 197.468265 
L 523.135873 192.939104 
L 527.043984 246.785799 
L 530.952094 200.990946 
L 534.860205 216.59139 
L 538.768315 227.159433 
L 542.676425 253.831161 
L 546.584536 293.083892 
L 550.492646 293.587132 
L 554.400756 279.496408 
L 558.308867 249.80524 
L 562.216977 168.783577 
L 566.125088 203.003907 
L 570.033198 256.850602 
L 573.941308 152.679893 
L 577.849419 95.310517 
L 581.757529 141.60861 
L 585.665639 166.770617 
L 589.57375 238.733957 
L 593.48186 279.999648 
L 597.389971 279.999648 
L 601.298081 285.53529 
L 605.206191 288.554731 
L 609.114302 284.528809 
L 613.022412 282.012609 
L 616.930522 244.772838 
L 620.838633 249.302 
L 624.746743 262.386243 
L 628.654854 277.483448 
L 632.562964 285.53529 
L 636.471074 302.645455 
" clip-path="url(#p961274fdd4)" style="fill: none; stroke: #000000; stroke-opacity: 0.2; stroke-width: 1.5; stroke-linecap: square"/>
   </g>
   <g id="line2d_70">
    <path d="M 405.892562 211.9862 
L 409.800672 145.324984 
L 413.708783 183.544081 
L 417.616893 179.988816 
L 421.525004 174.655919 
L 425.433114 55.554545 
L 429.341224 108.883519 
L 433.249335 229.762525 
L 437.157445 235.095422 
L 441.065555 276.869784 
L 444.973666 295.534925 
L 448.881776 288.424395 
L 452.789887 239.539503 
L 456.697997 266.20399 
L 460.606107 269.759254 
L 464.514218 245.761216 
L 468.422328 171.98947 
L 472.330438 171.98947 
L 476.238549 180.877632 
L 480.146659 235.984238 
L 484.05477 204.87567 
L 487.96288 154.213146 
L 491.87099 154.213146 
L 495.779101 154.213146 
L 499.687211 111.549967 
L 503.595321 158.657227 
L 507.503432 102.661805 
L 511.411542 115.105232 
L 515.319653 123.104578 
L 519.227763 162.212492 
L 523.135873 215.541465 
L 527.043984 279.536233 
L 530.952094 279.536233 
L 534.860205 227.096076 
L 538.768315 240.428319 
L 542.676425 217.319097 
L 546.584536 257.315827 
L 550.492646 224.429627 
L 554.400756 262.648725 
L 558.308867 302.645455 
L 562.216977 184.432897 
L 566.125088 192.432243 
L 570.033198 163.990124 
L 573.941308 207.542119 
L 577.849419 255.538195 
L 581.757529 265.315173 
L 585.665639 285.757946 
L 589.57375 243.983584 
L 593.48186 235.095422 
L 597.389971 264.426357 
L 601.298081 253.760562 
L 605.206191 195.098692 
L 609.114302 149.769065 
L 613.022412 262.648725 
L 616.930522 272.425703 
L 620.838633 273.314519 
L 624.746743 291.090844 
L 628.654854 291.090844 
L 632.562964 271.536887 
L 636.471074 275.092152 
" clip-path="url(#p961274fdd4)" style="fill: none; stroke: #000000; stroke-opacity: 0.2; stroke-width: 1.5; stroke-linecap: square"/>
   </g>
   <g id="line2d_71">
    <path d="M 405.892562 196.405978 
L 409.800672 181.503608 
L 413.708783 187.272267 
L 417.616893 178.138557 
L 421.525004 144.968765 
L 425.433114 148.814538 
L 429.341224 186.791546 
L 433.249335 200.251751 
L 437.157445 177.657835 
L 441.065555 97.858047 
L 444.973666 73.341245 
L 448.881776 88.243615 
L 452.789887 55.554545 
L 456.697997 79.590626 
L 460.606107 153.621755 
L 464.514218 188.714432 
L 468.422328 211.78907 
L 472.330438 211.78907 
L 476.238549 207.462575 
L 480.146659 185.830103 
L 484.05477 209.866183 
L 487.96288 192.560205 
L 491.87099 208.424018 
L 495.779101 170.447011 
L 499.687211 196.8867 
L 503.595321 144.488044 
L 507.503432 132.950725 
L 511.411542 187.752989 
L 515.319653 203.136081 
L 519.227763 163.716908 
L 523.135873 226.210718 
L 527.043984 243.035975 
L 530.952094 215.154121 
L 534.860205 202.655359 
L 538.768315 177.657835 
L 542.676425 199.290308 
L 546.584536 191.11804 
L 550.492646 191.11804 
L 554.400756 153.141033 
L 558.308867 170.447011 
L 562.216977 142.084436 
L 566.125088 111.798974 
L 570.033198 111.798974 
L 573.941308 116.125469 
L 577.849419 151.218146 
L 581.757529 187.752989 
L 585.665639 246.881747 
L 589.57375 241.59381 
L 593.48186 186.791546 
L 597.389971 183.426495 
L 601.298081 124.778458 
L 605.206191 186.791546 
L 609.114302 243.997418 
L 613.022412 270.917828 
L 616.930522 270.917828 
L 620.838633 260.822674 
L 624.746743 302.645455 
L 628.654854 284.858755 
L 632.562964 278.609374 
L 636.471074 292.550301 
" clip-path="url(#p961274fdd4)" style="fill: none; stroke: #000000; stroke-opacity: 0.2; stroke-width: 1.5; stroke-linecap: square"/>
   </g>
   <g id="line2d_72">
    <path d="M 405.892562 88.301533 
L 409.800672 92.554389 
L 413.708783 102.194195 
L 417.616893 128.987185 
L 421.525004 119.347379 
L 425.433114 55.554545 
L 429.341224 75.401205 
L 433.249335 101.768909 
L 437.157445 105.171194 
L 441.065555 138.343467 
L 444.973666 120.90676 
L 448.881776 128.5619 
L 452.789887 150.393225 
L 456.697997 183.281975 
L 460.606107 183.281975 
L 464.514218 165.136458 
L 468.422328 167.121123 
L 472.330438 188.385401 
L 476.238549 193.772352 
L 480.146659 219.998294 
L 484.05477 145.715084 
L 487.96288 174.634502 
L 491.87099 161.025364 
L 495.779101 174.49274 
L 499.687211 179.170881 
L 503.595321 157.906603 
L 507.503432 163.151792 
L 511.411542 189.661258 
L 515.319653 183.70726 
L 519.227763 200.718683 
L 523.135873 211.634345 
L 527.043984 228.220482 
L 530.952094 241.120811 
L 534.860205 227.086387 
L 538.768315 246.791285 
L 542.676425 235.166813 
L 546.584536 250.335331 
L 550.492646 224.109388 
L 554.400756 256.431091 
L 558.308867 231.622766 
L 562.216977 272.45018 
L 566.125088 292.863887 
L 570.033198 289.603364 
L 573.941308 256.714614 
L 577.849419 238.569097 
L 581.757529 238.569097 
L 585.665639 267.06323 
L 589.57375 242.396667 
L 593.48186 252.178235 
L 597.389971 291.162744 
L 601.298081 275.285417 
L 605.206191 281.097653 
L 609.114302 261.392755 
L 613.022412 273.300751 
L 616.930522 281.239415 
L 620.838633 279.112987 
L 624.746743 300.377265 
L 628.654854 297.68379 
L 632.562964 302.645455 
L 636.471074 302.078407 
" clip-path="url(#p961274fdd4)" style="fill: none; stroke: #000000; stroke-opacity: 0.2; stroke-width: 1.5; stroke-linecap: square"/>
   </g>
   <g id="line2d_73">
    <path d="M 405.892562 206.240917 
L 409.800672 219.702812 
L 413.708783 221.439831 
L 417.616893 134.588896 
L 421.525004 217.097284 
L 425.433114 226.216632 
L 429.341224 212.320483 
L 433.249335 216.663029 
L 437.157445 212.754737 
L 441.065555 186.699457 
L 444.973666 201.029861 
L 448.881776 125.035293 
L 452.789887 55.554545 
L 456.697997 150.222064 
L 460.606107 198.858588 
L 464.514218 172.803307 
L 468.422328 198.858588 
L 472.330438 178.014363 
L 476.238549 174.106071 
L 480.146659 220.571321 
L 484.05477 181.054146 
L 487.96288 194.516041 
L 491.87099 203.635389 
L 495.779101 226.650887 
L 499.687211 260.522751 
L 503.595321 260.957006 
L 507.503432 248.797875 
L 511.411542 223.176849 
L 515.319653 153.261847 
L 519.227763 182.791165 
L 523.135873 229.256415 
L 527.043984 139.365697 
L 530.952094 89.860665 
L 534.860205 129.812095 
L 538.768315 151.524828 
L 542.676425 213.623247 
L 546.584536 249.23213 
L 550.492646 249.23213 
L 554.400756 254.008931 
L 558.308867 256.614459 
L 562.216977 253.140422 
L 566.125088 250.969148 
L 570.033198 218.834303 
L 573.941308 222.742595 
L 577.849419 234.033216 
L 581.757529 247.060856 
L 585.665639 254.008931 
L 589.57375 268.77359 
L 593.48186 252.271912 
L 597.389971 230.124924 
L 601.298081 247.495111 
L 605.206191 246.192347 
L 609.114302 268.339335 
L 613.022412 298.302908 
L 616.930522 302.645455 
L 620.838633 300.908436 
L 624.746743 257.482969 
L 628.654854 289.18356 
L 632.562964 290.052069 
L 636.471074 266.602317 
" clip-path="url(#p961274fdd4)" style="fill: none; stroke: #000000; stroke-opacity: 0.2; stroke-width: 1.5; stroke-linecap: square"/>
   </g>
   <g id="line2d_74">
    <path d="M 405.892562 187.1577 
L 409.800672 114.107454 
L 413.708783 80.143423 
L 417.616893 157.7769 
L 421.525004 110.477475 
L 425.433114 181.481784 
L 429.341224 220.190592 
L 433.249335 248.248624 
L 437.157445 246.598768 
L 441.065555 246.595724 
L 444.973666 246.595724 
L 448.881776 246.595724 
L 452.789887 246.595724 
L 456.697997 246.595724 
L 460.606107 246.595724 
L 464.514218 246.595724 
L 468.422328 246.595724 
L 472.330438 246.595724 
L 476.238549 246.595724 
L 480.146659 246.595724 
L 484.05477 246.528061 
L 487.96288 257.149121 
L 491.87099 233.34111 
L 495.779101 251.834211 
L 499.687211 274.188485 
L 503.595321 246.925924 
L 507.503432 247.953813 
L 511.411542 249.163622 
L 515.319653 243.429575 
L 519.227763 252.288709 
L 523.135873 213.751662 
L 527.043984 144.829416 
L 530.952094 213.610824 
L 534.860205 253.182514 
L 538.768315 257.646441 
L 542.676425 256.102592 
L 546.584536 257.171033 
L 550.492646 243.722926 
L 554.400756 264.235402 
L 558.308867 258.308366 
L 562.216977 259.962488 
L 566.125088 260.023487 
L 570.033198 259.270261 
L 573.941308 272.069424 
L 577.849419 262.699034 
L 581.757529 287.480312 
L 585.665639 265.402297 
L 589.57375 244.75164 
L 593.48186 259.00522 
L 597.389971 271.350488 
L 601.298081 226.391394 
L 605.206191 175.461674 
L 609.114302 230.622957 
L 613.022412 241.06593 
L 616.930522 262.076284 
L 620.838633 277.710513 
L 624.746743 247.355005 
L 628.654854 258.243932 
L 632.562964 285.949291 
L 636.471074 226.11518 
" clip-path="url(#p961274fdd4)" style="fill: none; stroke: #ff0000; stroke-width: 2; stroke-linecap: square"/>
   </g>
   <g id="patch_8">
    <path d="M 394.363636 315 
L 394.363636 43.2 
" style="fill: none; stroke: #ffffff; stroke-linejoin: miter; stroke-linecap: square"/>
   </g>
   <g id="patch_9">
    <path d="M 648 315 
L 648 43.2 
" style="fill: none; stroke: #ffffff; stroke-linejoin: miter; stroke-linecap: square"/>
   </g>
   <g id="patch_10">
    <path d="M 394.363636 315 
L 648 315 
" style="fill: none; stroke: #ffffff; stroke-linejoin: miter; stroke-linecap: square"/>
   </g>
   <g id="patch_11">
    <path d="M 394.363636 43.2 
L 648 43.2 
" style="fill: none; stroke: #ffffff; stroke-linejoin: miter; stroke-linecap: square"/>
   </g>
   <g id="text_28">
    <!-- VIX Template 2 -->
    <g transform="translate(488.852912 37.2)scale(0.1 -0.1)">
     <use xlink:href="#TimesNewRomanPSMT-56"/>
     <use xlink:href="#TimesNewRomanPSMT-49" x="72.216797"/>
     <use xlink:href="#TimesNewRomanPSMT-58" x="105.517578"/>
     <use xlink:href="#TimesNewRomanPSMT-20" x="177.734375"/>
     <use xlink:href="#TimesNewRomanPSMT-54" x="200.984375"/>
     <use xlink:href="#TimesNewRomanPSMT-65" x="255.068359"/>
     <use xlink:href="#TimesNewRomanPSMT-6d" x="299.453125"/>
     <use xlink:href="#TimesNewRomanPSMT-70" x="377.236328"/>
     <use xlink:href="#TimesNewRomanPSMT-6c" x="427.236328"/>
     <use xlink:href="#TimesNewRomanPSMT-61" x="455.019531"/>
     <use xlink:href="#TimesNewRomanPSMT-74" x="499.404297"/>
     <use xlink:href="#TimesNewRomanPSMT-65" x="527.1875"/>
     <use xlink:href="#TimesNewRomanPSMT-20" x="571.572266"/>
     <use xlink:href="#TimesNewRomanPSMT-32" x="596.572266"/>
    </g>
   </g>
  </g>
 </g>
 <defs>
  <clipPath id="pbd6eee0fa2">
   <rect x="90" y="43.2" width="253.636364" height="271.8"/>
  </clipPath>
  <clipPath id="p961274fdd4">
   <rect x="394.363636" y="43.2" width="253.636364" height="271.8"/>
  </clipPath>
 </defs>
</svg>
