<?xml version="1.0" encoding="utf-8" standalone="no"?>
<!DOCTYPE svg PUBLIC "-//W3C//DTD SVG 1.1//EN"
  "http://www.w3.org/Graphics/SVG/1.1/DTD/svg11.dtd">
<svg xmlns:xlink="http://www.w3.org/1999/xlink" width="720pt" height="360pt" viewBox="0 0 720 360" xmlns="http://www.w3.org/2000/svg" version="1.1">
 <metadata>
  <rdf:RDF xmlns:dc="http://purl.org/dc/elements/1.1/" xmlns:cc="http://creativecommons.org/ns#" xmlns:rdf="http://www.w3.org/1999/02/22-rdf-syntax-ns#">
   <cc:Work>
    <dc:type rdf:resource="http://purl.org/dc/dcmitype/StillImage"/>
    <dc:date>2022-02-26T19:19:22.136772</dc:date>
    <dc:format>image/svg+xml</dc:format>
    <dc:creator>
     <cc:Agent>
      <dc:title>Matplotlib v3.5.0, https://matplotlib.org/</dc:title>
     </cc:Agent>
    </dc:creator>
   </cc:Work>
  </rdf:RDF>
 </metadata>
 <defs>
  <style type="text/css">*{stroke-linejoin: round; stroke-linecap: butt}</style>
 </defs>
 <g id="figure_1">
  <g id="patch_1">
   <path d="M 0 360 
L 720 360 
L 720 0 
L 0 0 
z
" style="fill: #ffffff"/>
  </g>
  <g id="axes_1">
   <g id="patch_2">
    <path d="M 90 315 
L 343.636364 315 
L 343.636364 43.2 
L 90 43.2 
z
" style="fill: #e5e5e5"/>
   </g>
   <g id="matplotlib.axis_1">
    <g id="xtick_1">
     <g id="line2d_1">
      <path d="M 101.528926 315 
L 101.528926 43.2 
" clip-path="url(#pdcf29a314e)" style="fill: none; stroke: #ffffff; stroke-width: 0.8; stroke-linecap: square"/>
     </g>
     <g id="line2d_2">
      <defs>
       <path id="m219f70a705" d="M 0 0 
L 0 3.5 
" style="stroke: #555555; stroke-width: 0.8"/>
      </defs>
      <g>
       <use xlink:href="#m219f70a705" x="101.528926" y="315" style="fill: #555555; stroke: #555555; stroke-width: 0.8"/>
      </g>
     </g>
     <g id="text_1">
      <!-- 0 -->
      <g style="fill: #555555" transform="translate(99.028926 328.94375)scale(0.1 -0.1)">
       <defs>
        <path id="TimesNewRomanPSMT-30" d="M 231 2094 
Q 231 2819 450 3342 
Q 669 3866 1031 4122 
Q 1313 4325 1613 4325 
Q 2100 4325 2488 3828 
Q 2972 3213 2972 2159 
Q 2972 1422 2759 906 
Q 2547 391 2217 158 
Q 1888 -75 1581 -75 
Q 975 -75 572 641 
Q 231 1244 231 2094 
z
M 844 2016 
Q 844 1141 1059 588 
Q 1238 122 1591 122 
Q 1759 122 1940 273 
Q 2122 425 2216 781 
Q 2359 1319 2359 2297 
Q 2359 3022 2209 3506 
Q 2097 3866 1919 4016 
Q 1791 4119 1609 4119 
Q 1397 4119 1231 3928 
Q 1006 3669 925 3112 
Q 844 2556 844 2016 
z
" transform="scale(0.015625)"/>
       </defs>
       <use xlink:href="#TimesNewRomanPSMT-30"/>
      </g>
     </g>
    </g>
    <g id="xtick_2">
     <g id="line2d_3">
      <path d="M 162.207482 315 
L 162.207482 43.2 
" clip-path="url(#pdcf29a314e)" style="fill: none; stroke: #ffffff; stroke-width: 0.8; stroke-linecap: square"/>
     </g>
     <g id="line2d_4">
      <g>
       <use xlink:href="#m219f70a705" x="162.207482" y="315" style="fill: #555555; stroke: #555555; stroke-width: 0.8"/>
      </g>
     </g>
     <g id="text_2">
      <!-- 5 -->
      <g style="fill: #555555" transform="translate(159.707482 328.94375)scale(0.1 -0.1)">
       <defs>
        <path id="TimesNewRomanPSMT-35" d="M 2778 4238 
L 2534 3706 
L 1259 3706 
L 981 3138 
Q 1809 3016 2294 2522 
Q 2709 2097 2709 1522 
Q 2709 1188 2573 903 
Q 2438 619 2231 419 
Q 2025 219 1772 97 
Q 1413 -75 1034 -75 
Q 653 -75 479 54 
Q 306 184 306 341 
Q 306 428 378 495 
Q 450 563 559 563 
Q 641 563 702 538 
Q 763 513 909 409 
Q 1144 247 1384 247 
Q 1750 247 2026 523 
Q 2303 800 2303 1197 
Q 2303 1581 2056 1914 
Q 1809 2247 1375 2428 
Q 1034 2569 447 2591 
L 1259 4238 
L 2778 4238 
z
" transform="scale(0.015625)"/>
       </defs>
       <use xlink:href="#TimesNewRomanPSMT-35"/>
      </g>
     </g>
    </g>
    <g id="xtick_3">
     <g id="line2d_5">
      <path d="M 222.886037 315 
L 222.886037 43.2 
" clip-path="url(#pdcf29a314e)" style="fill: none; stroke: #ffffff; stroke-width: 0.8; stroke-linecap: square"/>
     </g>
     <g id="line2d_6">
      <g>
       <use xlink:href="#m219f70a705" x="222.886037" y="315" style="fill: #555555; stroke: #555555; stroke-width: 0.8"/>
      </g>
     </g>
     <g id="text_3">
      <!-- 10 -->
      <g style="fill: #555555" transform="translate(217.886037 328.94375)scale(0.1 -0.1)">
       <defs>
        <path id="TimesNewRomanPSMT-31" d="M 750 3822 
L 1781 4325 
L 1884 4325 
L 1884 747 
Q 1884 391 1914 303 
Q 1944 216 2037 169 
Q 2131 122 2419 116 
L 2419 0 
L 825 0 
L 825 116 
Q 1125 122 1212 167 
Q 1300 213 1334 289 
Q 1369 366 1369 747 
L 1369 3034 
Q 1369 3497 1338 3628 
Q 1316 3728 1258 3775 
Q 1200 3822 1119 3822 
Q 1003 3822 797 3725 
L 750 3822 
z
" transform="scale(0.015625)"/>
       </defs>
       <use xlink:href="#TimesNewRomanPSMT-31"/>
       <use xlink:href="#TimesNewRomanPSMT-30" x="50"/>
      </g>
     </g>
    </g>
    <g id="xtick_4">
     <g id="line2d_7">
      <path d="M 283.564593 315 
L 283.564593 43.2 
" clip-path="url(#pdcf29a314e)" style="fill: none; stroke: #ffffff; stroke-width: 0.8; stroke-linecap: square"/>
     </g>
     <g id="line2d_8">
      <g>
       <use xlink:href="#m219f70a705" x="283.564593" y="315" style="fill: #555555; stroke: #555555; stroke-width: 0.8"/>
      </g>
     </g>
     <g id="text_4">
      <!-- 15 -->
      <g style="fill: #555555" transform="translate(278.564593 328.94375)scale(0.1 -0.1)">
       <use xlink:href="#TimesNewRomanPSMT-31"/>
       <use xlink:href="#TimesNewRomanPSMT-35" x="50"/>
      </g>
     </g>
    </g>
   </g>
   <g id="matplotlib.axis_2">
    <g id="ytick_1">
     <g id="line2d_9">
      <path d="M 90 302.645455 
L 343.636364 302.645455 
" clip-path="url(#pdcf29a314e)" style="fill: none; stroke: #ffffff; stroke-width: 0.8; stroke-linecap: square"/>
     </g>
     <g id="line2d_10">
      <defs>
       <path id="mc8db8f7fee" d="M 0 0 
L -3.5 0 
" style="stroke: #555555; stroke-width: 0.8"/>
      </defs>
      <g>
       <use xlink:href="#mc8db8f7fee" x="90" y="302.645455" style="fill: #555555; stroke: #555555; stroke-width: 0.8"/>
      </g>
     </g>
     <g id="text_5">
      <!-- 0.0 -->
      <g style="fill: #555555" transform="translate(70.5 306.11733)scale(0.1 -0.1)">
       <defs>
        <path id="TimesNewRomanPSMT-2e" d="M 800 606 
Q 947 606 1047 504 
Q 1147 403 1147 259 
Q 1147 116 1045 14 
Q 944 -88 800 -88 
Q 656 -88 554 14 
Q 453 116 453 259 
Q 453 406 554 506 
Q 656 606 800 606 
z
" transform="scale(0.015625)"/>
       </defs>
       <use xlink:href="#TimesNewRomanPSMT-30"/>
       <use xlink:href="#TimesNewRomanPSMT-2e" x="50"/>
       <use xlink:href="#TimesNewRomanPSMT-30" x="75"/>
      </g>
     </g>
    </g>
    <g id="ytick_2">
     <g id="line2d_11">
      <path d="M 90 253.227273 
L 343.636364 253.227273 
" clip-path="url(#pdcf29a314e)" style="fill: none; stroke: #ffffff; stroke-width: 0.8; stroke-linecap: square"/>
     </g>
     <g id="line2d_12">
      <g>
       <use xlink:href="#mc8db8f7fee" x="90" y="253.227273" style="fill: #555555; stroke: #555555; stroke-width: 0.8"/>
      </g>
     </g>
     <g id="text_6">
      <!-- 0.2 -->
      <g style="fill: #555555" transform="translate(70.5 256.699148)scale(0.1 -0.1)">
       <defs>
        <path id="TimesNewRomanPSMT-32" d="M 2934 816 
L 2638 0 
L 138 0 
L 138 116 
Q 1241 1122 1691 1759 
Q 2141 2397 2141 2925 
Q 2141 3328 1894 3587 
Q 1647 3847 1303 3847 
Q 991 3847 742 3664 
Q 494 3481 375 3128 
L 259 3128 
Q 338 3706 661 4015 
Q 984 4325 1469 4325 
Q 1984 4325 2329 3994 
Q 2675 3663 2675 3213 
Q 2675 2891 2525 2569 
Q 2294 2063 1775 1497 
Q 997 647 803 472 
L 1909 472 
Q 2247 472 2383 497 
Q 2519 522 2628 598 
Q 2738 675 2819 816 
L 2934 816 
z
" transform="scale(0.015625)"/>
       </defs>
       <use xlink:href="#TimesNewRomanPSMT-30"/>
       <use xlink:href="#TimesNewRomanPSMT-2e" x="50"/>
       <use xlink:href="#TimesNewRomanPSMT-32" x="75"/>
      </g>
     </g>
    </g>
    <g id="ytick_3">
     <g id="line2d_13">
      <path d="M 90 203.809091 
L 343.636364 203.809091 
" clip-path="url(#pdcf29a314e)" style="fill: none; stroke: #ffffff; stroke-width: 0.8; stroke-linecap: square"/>
     </g>
     <g id="line2d_14">
      <g>
       <use xlink:href="#mc8db8f7fee" x="90" y="203.809091" style="fill: #555555; stroke: #555555; stroke-width: 0.8"/>
      </g>
     </g>
     <g id="text_7">
      <!-- 0.4 -->
      <g style="fill: #555555" transform="translate(70.5 207.280966)scale(0.1 -0.1)">
       <defs>
        <path id="TimesNewRomanPSMT-34" d="M 2978 1563 
L 2978 1119 
L 2409 1119 
L 2409 0 
L 1894 0 
L 1894 1119 
L 100 1119 
L 100 1519 
L 2066 4325 
L 2409 4325 
L 2409 1563 
L 2978 1563 
z
M 1894 1563 
L 1894 3666 
L 406 1563 
L 1894 1563 
z
" transform="scale(0.015625)"/>
       </defs>
       <use xlink:href="#TimesNewRomanPSMT-30"/>
       <use xlink:href="#TimesNewRomanPSMT-2e" x="50"/>
       <use xlink:href="#TimesNewRomanPSMT-34" x="75"/>
      </g>
     </g>
    </g>
    <g id="ytick_4">
     <g id="line2d_15">
      <path d="M 90 154.390909 
L 343.636364 154.390909 
" clip-path="url(#pdcf29a314e)" style="fill: none; stroke: #ffffff; stroke-width: 0.8; stroke-linecap: square"/>
     </g>
     <g id="line2d_16">
      <g>
       <use xlink:href="#mc8db8f7fee" x="90" y="154.390909" style="fill: #555555; stroke: #555555; stroke-width: 0.8"/>
      </g>
     </g>
     <g id="text_8">
      <!-- 0.6 -->
      <g style="fill: #555555" transform="translate(70.5 157.862784)scale(0.1 -0.1)">
       <defs>
        <path id="TimesNewRomanPSMT-36" d="M 2869 4325 
L 2869 4209 
Q 2456 4169 2195 4045 
Q 1934 3922 1679 3669 
Q 1425 3416 1258 3105 
Q 1091 2794 978 2366 
Q 1428 2675 1881 2675 
Q 2316 2675 2634 2325 
Q 2953 1975 2953 1425 
Q 2953 894 2631 456 
Q 2244 -75 1606 -75 
Q 1172 -75 869 213 
Q 275 772 275 1663 
Q 275 2231 503 2743 
Q 731 3256 1154 3653 
Q 1578 4050 1965 4187 
Q 2353 4325 2688 4325 
L 2869 4325 
z
M 925 2138 
Q 869 1716 869 1456 
Q 869 1156 980 804 
Q 1091 453 1309 247 
Q 1469 100 1697 100 
Q 1969 100 2183 356 
Q 2397 613 2397 1088 
Q 2397 1622 2184 2012 
Q 1972 2403 1581 2403 
Q 1463 2403 1327 2353 
Q 1191 2303 925 2138 
z
" transform="scale(0.015625)"/>
       </defs>
       <use xlink:href="#TimesNewRomanPSMT-30"/>
       <use xlink:href="#TimesNewRomanPSMT-2e" x="50"/>
       <use xlink:href="#TimesNewRomanPSMT-36" x="75"/>
      </g>
     </g>
    </g>
    <g id="ytick_5">
     <g id="line2d_17">
      <path d="M 90 104.972727 
L 343.636364 104.972727 
" clip-path="url(#pdcf29a314e)" style="fill: none; stroke: #ffffff; stroke-width: 0.8; stroke-linecap: square"/>
     </g>
     <g id="line2d_18">
      <g>
       <use xlink:href="#mc8db8f7fee" x="90" y="104.972727" style="fill: #555555; stroke: #555555; stroke-width: 0.8"/>
      </g>
     </g>
     <g id="text_9">
      <!-- 0.8 -->
      <g style="fill: #555555" transform="translate(70.5 108.444602)scale(0.1 -0.1)">
       <defs>
        <path id="TimesNewRomanPSMT-38" d="M 1228 2134 
Q 725 2547 579 2797 
Q 434 3047 434 3316 
Q 434 3728 753 4026 
Q 1072 4325 1600 4325 
Q 2113 4325 2425 4047 
Q 2738 3769 2738 3413 
Q 2738 3175 2569 2928 
Q 2400 2681 1866 2347 
Q 2416 1922 2594 1678 
Q 2831 1359 2831 1006 
Q 2831 559 2490 242 
Q 2150 -75 1597 -75 
Q 994 -75 656 303 
Q 388 606 388 966 
Q 388 1247 577 1523 
Q 766 1800 1228 2134 
z
M 1719 2469 
Q 2094 2806 2194 3001 
Q 2294 3197 2294 3444 
Q 2294 3772 2109 3958 
Q 1925 4144 1606 4144 
Q 1288 4144 1088 3959 
Q 888 3775 888 3528 
Q 888 3366 970 3203 
Q 1053 3041 1206 2894 
L 1719 2469 
z
M 1375 2016 
Q 1116 1797 991 1539 
Q 866 1281 866 981 
Q 866 578 1086 336 
Q 1306 94 1647 94 
Q 1984 94 2187 284 
Q 2391 475 2391 747 
Q 2391 972 2272 1150 
Q 2050 1481 1375 2016 
z
" transform="scale(0.015625)"/>
       </defs>
       <use xlink:href="#TimesNewRomanPSMT-30"/>
       <use xlink:href="#TimesNewRomanPSMT-2e" x="50"/>
       <use xlink:href="#TimesNewRomanPSMT-38" x="75"/>
      </g>
     </g>
    </g>
    <g id="ytick_6">
     <g id="line2d_19">
      <path d="M 90 55.554545 
L 343.636364 55.554545 
" clip-path="url(#pdcf29a314e)" style="fill: none; stroke: #ffffff; stroke-width: 0.8; stroke-linecap: square"/>
     </g>
     <g id="line2d_20">
      <g>
       <use xlink:href="#mc8db8f7fee" x="90" y="55.554545" style="fill: #555555; stroke: #555555; stroke-width: 0.8"/>
      </g>
     </g>
     <g id="text_10">
      <!-- 1.0 -->
      <g style="fill: #555555" transform="translate(70.5 59.02642)scale(0.1 -0.1)">
       <use xlink:href="#TimesNewRomanPSMT-31"/>
       <use xlink:href="#TimesNewRomanPSMT-2e" x="50"/>
       <use xlink:href="#TimesNewRomanPSMT-30" x="75"/>
      </g>
     </g>
    </g>
   </g>
   <g id="line2d_21">
    <path d="M 101.528926 302.645455 
L 113.664637 148.706722 
L 125.800348 183.652831 
L 137.936059 229.882221 
L 150.07177 223.068144 
L 162.207482 269.190132 
L 174.343193 119.659692 
L 186.478904 159.930861 
L 198.614615 251.569956 
L 210.750326 146.38914 
L 222.886037 55.554545 
L 235.021749 157.067484 
L 247.15746 201.416471 
L 259.293171 141.002582 
L 271.428882 153.871009 
L 283.564593 201.440441 
L 295.700304 274.079816 
L 307.836016 251.142251 
L 319.971727 300.919115 
L 332.107438 179.977263 
" clip-path="url(#pdcf29a314e)" style="fill: none; stroke: #000000; stroke-opacity: 0.2; stroke-width: 1.5; stroke-linecap: square"/>
   </g>
   <g id="line2d_22">
    <path d="M 101.528926 243.394136 
L 113.664637 218.631556 
L 125.800348 262.249586 
L 137.936059 302.645455 
L 150.07177 229.325373 
L 162.207482 239.185196 
L 174.343193 172.471623 
L 186.478904 100.578371 
L 198.614615 133.200044 
L 210.750326 217.336681 
L 222.886037 191.238267 
L 235.021749 59.044943 
L 247.15746 84.443793 
L 259.293171 90.839755 
L 271.428882 191.771525 
L 283.564593 88.254393 
L 295.700304 64.093442 
L 307.836016 55.554545 
L 319.971727 185.524525 
L 332.107438 74.01304 
" clip-path="url(#pdcf29a314e)" style="fill: none; stroke: #000000; stroke-opacity: 0.2; stroke-width: 1.5; stroke-linecap: square"/>
   </g>
   <g id="line2d_23">
    <path d="M 101.528926 302.645455 
L 113.664637 260.349446 
L 125.800348 215.362895 
L 137.936059 214.149213 
L 150.07177 136.865099 
L 162.207482 157.848256 
L 174.343193 128.639651 
L 186.478904 104.62609 
L 198.614615 55.554545 
L 210.750326 83.451712 
L 222.886037 183.142595 
L 235.021749 155.243207 
L 247.15746 207.588113 
L 259.293171 246.397672 
L 271.428882 179.769941 
L 283.564593 221.988138 
L 295.700304 136.511 
L 307.836016 114.301584 
L 319.971727 86.579511 
L 332.107438 76.113601 
" clip-path="url(#pdcf29a314e)" style="fill: none; stroke: #000000; stroke-opacity: 0.2; stroke-width: 1.5; stroke-linecap: square"/>
   </g>
   <g id="line2d_24">
    <path d="M 101.528926 161.429369 
L 113.664637 302.645455 
L 125.800348 232.351573 
L 137.936059 183.837735 
L 150.07177 161.222953 
L 162.207482 152.165992 
L 174.343193 189.417803 
L 186.478904 97.518685 
L 198.614615 111.655205 
L 210.750326 125.80134 
L 222.886037 129.200884 
L 235.021749 149.823076 
L 247.15746 120.633166 
L 259.293171 55.554545 
L 271.428882 71.993401 
L 283.564593 69.33064 
L 295.700304 65.32458 
L 307.836016 138.806994 
L 319.971727 169.090425 
L 332.107438 129.313597 
" clip-path="url(#pdcf29a314e)" style="fill: none; stroke: #000000; stroke-opacity: 0.2; stroke-width: 1.5; stroke-linecap: square"/>
   </g>
   <g id="line2d_25">
    <path d="M 101.528926 280.421523 
L 113.664637 278.152425 
L 125.800348 295.036039 
L 137.936059 237.681426 
L 150.07177 215.601075 
L 162.207482 237.202828 
L 174.343193 233.011118 
L 186.478904 268.928288 
L 198.614615 275.435498 
L 210.750326 244.023437 
L 222.886037 302.645455 
L 235.021749 291.772369 
L 247.15746 165.589356 
L 259.293171 116.957005 
L 271.428882 78.178711 
L 283.564593 100.961062 
L 295.700304 114.609711 
L 307.836016 55.554545 
L 319.971727 103.666517 
L 332.107438 173.791759 
" clip-path="url(#pdcf29a314e)" style="fill: none; stroke: #000000; stroke-opacity: 0.2; stroke-width: 1.5; stroke-linecap: square"/>
   </g>
   <g id="line2d_26">
    <path d="M 101.528926 238.106181 
L 113.664637 301.02298 
L 125.800348 302.645455 
L 137.936059 156.38636 
L 150.07177 152.591645 
L 162.207482 159.645588 
L 174.343193 149.582533 
L 186.478904 100.808912 
L 198.614615 55.554545 
L 210.750326 214.712216 
L 222.886037 161.867565 
L 235.021749 195.395786 
L 247.15746 95.503209 
L 259.293171 118.180133 
L 271.428882 148.178904 
L 283.564593 143.757173 
L 295.700304 173.686251 
L 307.836016 76.654264 
L 319.971727 102.786679 
L 332.107438 162.25232 
" clip-path="url(#pdcf29a314e)" style="fill: none; stroke: #000000; stroke-opacity: 0.2; stroke-width: 1.5; stroke-linecap: square"/>
   </g>
   <g id="line2d_27">
    <path d="M 101.528926 203.690416 
L 113.664637 161.641098 
L 125.800348 94.121716 
L 137.936059 173.433226 
L 150.07177 112.795567 
L 162.207482 203.327182 
L 174.343193 218.377297 
L 186.478904 171.848143 
L 198.614615 227.279174 
L 210.750326 207.2048 
L 222.886037 208.07358 
L 235.021749 302.645455 
L 247.15746 167.096561 
L 259.293171 135.760491 
L 271.428882 96.795644 
L 283.564593 152.310025 
L 295.700304 55.554545 
L 307.836016 149.751165 
L 319.971727 165.145919 
L 332.107438 169.484953 
" clip-path="url(#pdcf29a314e)" style="fill: none; stroke: #000000; stroke-opacity: 0.2; stroke-width: 1.5; stroke-linecap: square"/>
   </g>
   <g id="line2d_28">
    <path d="M 101.528926 211.512084 
L 113.664637 223.046781 
L 125.800348 153.169005 
L 137.936059 113.636443 
L 150.07177 181.962425 
L 162.207482 302.645455 
L 174.343193 213.757273 
L 186.478904 288.43174 
L 198.614615 281.948845 
L 210.750326 265.446571 
L 222.886037 229.377673 
L 235.021749 192.061335 
L 247.15746 199.189548 
L 259.293171 105.446869 
L 271.428882 93.81486 
L 283.564593 55.554545 
L 295.700304 70.514267 
L 307.836016 70.759379 
L 319.971727 105.717096 
L 332.107438 69.045377 
" clip-path="url(#pdcf29a314e)" style="fill: none; stroke: #000000; stroke-opacity: 0.2; stroke-width: 1.5; stroke-linecap: square"/>
   </g>
   <g id="line2d_29">
    <path d="M 101.528926 245.085516 
L 113.664637 281.24641 
L 125.800348 259.354821 
L 137.936059 270.771084 
L 150.07177 302.645455 
L 162.207482 265.735624 
L 174.343193 241.838236 
L 186.478904 216.318483 
L 198.614615 230.775775 
L 210.750326 258.681125 
L 222.886037 226.859215 
L 235.021749 234.669837 
L 247.15746 168.617959 
L 259.293171 203.920428 
L 271.428882 118.927382 
L 283.564593 132.29098 
L 295.700304 224.302266 
L 307.836016 186.763097 
L 319.971727 171.780122 
L 332.107438 55.554545 
" clip-path="url(#pdcf29a314e)" style="fill: none; stroke: #000000; stroke-opacity: 0.2; stroke-width: 1.5; stroke-linecap: square"/>
   </g>
   <g id="line2d_30">
    <path d="M 101.528926 302.645455 
L 113.664637 285.78267 
L 125.800348 278.663636 
L 137.936059 229.005302 
L 150.07177 235.972191 
L 162.207482 213.599915 
L 174.343193 239.356225 
L 186.478904 94.692082 
L 198.614615 55.554545 
L 210.750326 63.811505 
L 222.886037 82.236945 
L 235.021749 74.679443 
L 247.15746 208.237526 
L 259.293171 180.575173 
L 271.428882 118.140036 
L 283.564593 84.592479 
L 295.700304 108.563292 
L 307.836016 62.945768 
L 319.971727 113.464051 
L 332.107438 140.093334 
" clip-path="url(#pdcf29a314e)" style="fill: none; stroke: #000000; stroke-opacity: 0.2; stroke-width: 1.5; stroke-linecap: square"/>
   </g>
   <g id="line2d_31">
    <path d="M 101.528926 256.253025 
L 113.664637 193.231681 
L 125.800348 200.852338 
L 137.936059 198.785828 
L 150.07177 199.082139 
L 162.207482 165.191405 
L 174.343193 214.84814 
L 186.478904 207.455193 
L 198.614615 209.173301 
L 210.750326 205.695392 
L 222.886037 260.809138 
L 235.021749 206.917576 
L 247.15746 173.042143 
L 259.293171 186.968673 
L 271.428882 113.016013 
L 283.564593 160.644618 
L 295.700304 101.841391 
L 307.836016 70.552559 
L 319.971727 104.031971 
L 332.107438 175.785732 
" clip-path="url(#pdcf29a314e)" style="fill: none; stroke: #ff0000; stroke-width: 2; stroke-linecap: square"/>
   </g>
   <g id="patch_3">
    <path d="M 90 315 
L 90 43.2 
" style="fill: none; stroke: #ffffff; stroke-linejoin: miter; stroke-linecap: square"/>
   </g>
   <g id="patch_4">
    <path d="M 343.636364 315 
L 343.636364 43.2 
" style="fill: none; stroke: #ffffff; stroke-linejoin: miter; stroke-linecap: square"/>
   </g>
   <g id="patch_5">
    <path d="M 90 315 
L 343.636364 315 
" style="fill: none; stroke: #ffffff; stroke-linejoin: miter; stroke-linecap: square"/>
   </g>
   <g id="patch_6">
    <path d="M 90 43.2 
L 343.636364 43.2 
" style="fill: none; stroke: #ffffff; stroke-linejoin: miter; stroke-linecap: square"/>
   </g>
   <g id="text_11">
    <!-- VNQ Template 1 -->
    <g transform="translate(182.543182 37.2)scale(0.1 -0.1)">
     <defs>
      <path id="TimesNewRomanPSMT-56" d="M 4544 4238 
L 4544 4122 
Q 4319 4081 4203 3978 
Q 4038 3825 3909 3509 
L 2431 -97 
L 2316 -97 
L 728 3556 
Q 606 3838 556 3900 
Q 478 3997 364 4051 
Q 250 4106 56 4122 
L 56 4238 
L 1788 4238 
L 1788 4122 
Q 1494 4094 1406 4022 
Q 1319 3950 1319 3838 
Q 1319 3681 1463 3350 
L 2541 866 
L 3541 3319 
Q 3688 3681 3688 3822 
Q 3688 3913 3597 3995 
Q 3506 4078 3291 4113 
Q 3275 4116 3238 4122 
L 3238 4238 
L 4544 4238 
z
" transform="scale(0.015625)"/>
      <path id="TimesNewRomanPSMT-4e" d="M -84 4238 
L 1066 4238 
L 3656 1059 
L 3656 3503 
Q 3656 3894 3569 3991 
Q 3453 4122 3203 4122 
L 3056 4122 
L 3056 4238 
L 4531 4238 
L 4531 4122 
L 4381 4122 
Q 4113 4122 4000 3959 
Q 3931 3859 3931 3503 
L 3931 -69 
L 3819 -69 
L 1025 3344 
L 1025 734 
Q 1025 344 1109 247 
Q 1228 116 1475 116 
L 1625 116 
L 1625 0 
L 150 0 
L 150 116 
L 297 116 
Q 569 116 681 278 
Q 750 378 750 734 
L 750 3681 
Q 566 3897 470 3965 
Q 375 4034 191 4094 
Q 100 4122 -84 4122 
L -84 4238 
z
" transform="scale(0.015625)"/>
      <path id="TimesNewRomanPSMT-51" d="M 2819 -47 
Q 3138 -597 3508 -856 
Q 3878 -1116 4350 -1153 
L 4350 -1253 
Q 3919 -1238 3428 -1080 
Q 2938 -922 2498 -642 
Q 2059 -363 1741 -47 
Q 1291 134 1028 338 
Q 647 641 436 1083 
Q 225 1525 225 2128 
Q 225 3078 840 3706 
Q 1456 4334 2331 4334 
Q 3163 4334 3770 3704 
Q 4378 3075 4378 2116 
Q 4378 1338 3945 750 
Q 3513 163 2819 -47 
z
M 2294 4094 
Q 1725 4094 1378 3688 
Q 941 3178 941 2128 
Q 941 1100 1384 544 
Q 1728 116 2294 116 
Q 2881 116 3241 544 
Q 3663 1050 3663 2038 
Q 3663 2797 3431 3316 
Q 3253 3716 2958 3905 
Q 2663 4094 2294 4094 
z
" transform="scale(0.015625)"/>
      <path id="TimesNewRomanPSMT-20" transform="scale(0.015625)"/>
      <path id="TimesNewRomanPSMT-54" d="M 3703 4238 
L 3750 3244 
L 3631 3244 
Q 3597 3506 3538 3619 
Q 3441 3800 3280 3886 
Q 3119 3972 2856 3972 
L 2259 3972 
L 2259 734 
Q 2259 344 2344 247 
Q 2463 116 2709 116 
L 2856 116 
L 2856 0 
L 1059 0 
L 1059 116 
L 1209 116 
Q 1478 116 1591 278 
Q 1659 378 1659 734 
L 1659 3972 
L 1150 3972 
Q 853 3972 728 3928 
Q 566 3869 450 3700 
Q 334 3531 313 3244 
L 194 3244 
L 244 4238 
L 3703 4238 
z
" transform="scale(0.015625)"/>
      <path id="TimesNewRomanPSMT-65" d="M 681 1784 
Q 678 1147 991 784 
Q 1303 422 1725 422 
Q 2006 422 2214 576 
Q 2422 731 2563 1106 
L 2659 1044 
Q 2594 616 2278 264 
Q 1963 -88 1488 -88 
Q 972 -88 605 314 
Q 238 716 238 1394 
Q 238 2128 614 2539 
Q 991 2950 1559 2950 
Q 2041 2950 2350 2633 
Q 2659 2316 2659 1784 
L 681 1784 
z
M 681 1966 
L 2006 1966 
Q 1991 2241 1941 2353 
Q 1863 2528 1708 2628 
Q 1553 2728 1384 2728 
Q 1125 2728 920 2526 
Q 716 2325 681 1966 
z
" transform="scale(0.015625)"/>
      <path id="TimesNewRomanPSMT-6d" d="M 1050 2338 
Q 1363 2650 1419 2697 
Q 1559 2816 1721 2881 
Q 1884 2947 2044 2947 
Q 2313 2947 2506 2790 
Q 2700 2634 2766 2338 
Q 3088 2713 3309 2830 
Q 3531 2947 3766 2947 
Q 3994 2947 4170 2830 
Q 4347 2713 4450 2447 
Q 4519 2266 4519 1878 
L 4519 647 
Q 4519 378 4559 278 
Q 4591 209 4675 161 
Q 4759 113 4950 113 
L 4950 0 
L 3538 0 
L 3538 113 
L 3597 113 
Q 3781 113 3884 184 
Q 3956 234 3988 344 
Q 4000 397 4000 647 
L 4000 1878 
Q 4000 2228 3916 2372 
Q 3794 2572 3525 2572 
Q 3359 2572 3192 2489 
Q 3025 2406 2788 2181 
L 2781 2147 
L 2788 2013 
L 2788 647 
Q 2788 353 2820 281 
Q 2853 209 2943 161 
Q 3034 113 3253 113 
L 3253 0 
L 1806 0 
L 1806 113 
Q 2044 113 2133 169 
Q 2222 225 2256 338 
Q 2272 391 2272 647 
L 2272 1878 
Q 2272 2228 2169 2381 
Q 2031 2581 1784 2581 
Q 1616 2581 1450 2491 
Q 1191 2353 1050 2181 
L 1050 647 
Q 1050 366 1089 281 
Q 1128 197 1204 155 
Q 1281 113 1516 113 
L 1516 0 
L 100 0 
L 100 113 
Q 297 113 375 155 
Q 453 197 493 289 
Q 534 381 534 647 
L 534 1741 
Q 534 2213 506 2350 
Q 484 2453 437 2492 
Q 391 2531 309 2531 
Q 222 2531 100 2484 
L 53 2597 
L 916 2947 
L 1050 2947 
L 1050 2338 
z
" transform="scale(0.015625)"/>
      <path id="TimesNewRomanPSMT-70" d="M -6 2578 
L 875 2934 
L 994 2934 
L 994 2266 
Q 1216 2644 1439 2795 
Q 1663 2947 1909 2947 
Q 2341 2947 2628 2609 
Q 2981 2197 2981 1534 
Q 2981 794 2556 309 
Q 2206 -88 1675 -88 
Q 1444 -88 1275 -22 
Q 1150 25 994 166 
L 994 -706 
Q 994 -1000 1030 -1079 
Q 1066 -1159 1155 -1206 
Q 1244 -1253 1478 -1253 
L 1478 -1369 
L -22 -1369 
L -22 -1253 
L 56 -1253 
Q 228 -1256 350 -1188 
Q 409 -1153 442 -1076 
Q 475 -1000 475 -688 
L 475 2019 
Q 475 2297 450 2372 
Q 425 2447 370 2484 
Q 316 2522 222 2522 
Q 147 2522 31 2478 
L -6 2578 
z
M 994 2081 
L 994 1013 
Q 994 666 1022 556 
Q 1066 375 1236 237 
Q 1406 100 1666 100 
Q 1978 100 2172 344 
Q 2425 663 2425 1241 
Q 2425 1897 2138 2250 
Q 1938 2494 1663 2494 
Q 1513 2494 1366 2419 
Q 1253 2363 994 2081 
z
" transform="scale(0.015625)"/>
      <path id="TimesNewRomanPSMT-6c" d="M 1184 4444 
L 1184 647 
Q 1184 378 1223 290 
Q 1263 203 1344 158 
Q 1425 113 1647 113 
L 1647 0 
L 244 0 
L 244 113 
Q 441 113 512 153 
Q 584 194 625 287 
Q 666 381 666 647 
L 666 3247 
Q 666 3731 644 3842 
Q 622 3953 573 3993 
Q 525 4034 450 4034 
Q 369 4034 244 3984 
L 191 4094 
L 1044 4444 
L 1184 4444 
z
" transform="scale(0.015625)"/>
      <path id="TimesNewRomanPSMT-61" d="M 1822 413 
Q 1381 72 1269 19 
Q 1100 -59 909 -59 
Q 613 -59 420 144 
Q 228 347 228 678 
Q 228 888 322 1041 
Q 450 1253 767 1440 
Q 1084 1628 1822 1897 
L 1822 2009 
Q 1822 2438 1686 2597 
Q 1550 2756 1291 2756 
Q 1094 2756 978 2650 
Q 859 2544 859 2406 
L 866 2225 
Q 866 2081 792 2003 
Q 719 1925 600 1925 
Q 484 1925 411 2006 
Q 338 2088 338 2228 
Q 338 2497 613 2722 
Q 888 2947 1384 2947 
Q 1766 2947 2009 2819 
Q 2194 2722 2281 2516 
Q 2338 2381 2338 1966 
L 2338 994 
Q 2338 584 2353 492 
Q 2369 400 2405 369 
Q 2441 338 2488 338 
Q 2538 338 2575 359 
Q 2641 400 2828 588 
L 2828 413 
Q 2478 -56 2159 -56 
Q 2006 -56 1915 50 
Q 1825 156 1822 413 
z
M 1822 616 
L 1822 1706 
Q 1350 1519 1213 1441 
Q 966 1303 859 1153 
Q 753 1003 753 825 
Q 753 600 887 451 
Q 1022 303 1197 303 
Q 1434 303 1822 616 
z
" transform="scale(0.015625)"/>
      <path id="TimesNewRomanPSMT-74" d="M 1031 3803 
L 1031 2863 
L 1700 2863 
L 1700 2644 
L 1031 2644 
L 1031 788 
Q 1031 509 1111 412 
Q 1191 316 1316 316 
Q 1419 316 1516 380 
Q 1613 444 1666 569 
L 1788 569 
Q 1678 263 1478 108 
Q 1278 -47 1066 -47 
Q 922 -47 784 33 
Q 647 113 581 261 
Q 516 409 516 719 
L 516 2644 
L 63 2644 
L 63 2747 
Q 234 2816 414 2980 
Q 594 3144 734 3369 
Q 806 3488 934 3803 
L 1031 3803 
z
" transform="scale(0.015625)"/>
     </defs>
     <use xlink:href="#TimesNewRomanPSMT-56"/>
     <use xlink:href="#TimesNewRomanPSMT-4e" x="72.216797"/>
     <use xlink:href="#TimesNewRomanPSMT-51" x="144.433594"/>
     <use xlink:href="#TimesNewRomanPSMT-20" x="216.650391"/>
     <use xlink:href="#TimesNewRomanPSMT-54" x="239.900391"/>
     <use xlink:href="#TimesNewRomanPSMT-65" x="293.984375"/>
     <use xlink:href="#TimesNewRomanPSMT-6d" x="338.369141"/>
     <use xlink:href="#TimesNewRomanPSMT-70" x="416.152344"/>
     <use xlink:href="#TimesNewRomanPSMT-6c" x="466.152344"/>
     <use xlink:href="#TimesNewRomanPSMT-61" x="493.935547"/>
     <use xlink:href="#TimesNewRomanPSMT-74" x="538.320312"/>
     <use xlink:href="#TimesNewRomanPSMT-65" x="566.103516"/>
     <use xlink:href="#TimesNewRomanPSMT-20" x="610.488281"/>
     <use xlink:href="#TimesNewRomanPSMT-31" x="635.488281"/>
    </g>
   </g>
  </g>
  <g id="axes_2">
   <g id="patch_7">
    <path d="M 394.363636 315 
L 648 315 
L 648 43.2 
L 394.363636 43.2 
z
" style="fill: #e5e5e5"/>
   </g>
   <g id="matplotlib.axis_3">
    <g id="xtick_5">
     <g id="line2d_32">
      <path d="M 405.892562 315 
L 405.892562 43.2 
" clip-path="url(#p8cf5abab25)" style="fill: none; stroke: #ffffff; stroke-width: 0.8; stroke-linecap: square"/>
     </g>
     <g id="line2d_33">
      <g>
       <use xlink:href="#m219f70a705" x="405.892562" y="315" style="fill: #555555; stroke: #555555; stroke-width: 0.8"/>
      </g>
     </g>
     <g id="text_12">
      <!-- 0 -->
      <g style="fill: #555555" transform="translate(403.392562 328.94375)scale(0.1 -0.1)">
       <use xlink:href="#TimesNewRomanPSMT-30"/>
      </g>
     </g>
    </g>
    <g id="xtick_6">
     <g id="line2d_34">
      <path d="M 466.571118 315 
L 466.571118 43.2 
" clip-path="url(#p8cf5abab25)" style="fill: none; stroke: #ffffff; stroke-width: 0.8; stroke-linecap: square"/>
     </g>
     <g id="line2d_35">
      <g>
       <use xlink:href="#m219f70a705" x="466.571118" y="315" style="fill: #555555; stroke: #555555; stroke-width: 0.8"/>
      </g>
     </g>
     <g id="text_13">
      <!-- 5 -->
      <g style="fill: #555555" transform="translate(464.071118 328.94375)scale(0.1 -0.1)">
       <use xlink:href="#TimesNewRomanPSMT-35"/>
      </g>
     </g>
    </g>
    <g id="xtick_7">
     <g id="line2d_36">
      <path d="M 527.249674 315 
L 527.249674 43.2 
" clip-path="url(#p8cf5abab25)" style="fill: none; stroke: #ffffff; stroke-width: 0.8; stroke-linecap: square"/>
     </g>
     <g id="line2d_37">
      <g>
       <use xlink:href="#m219f70a705" x="527.249674" y="315" style="fill: #555555; stroke: #555555; stroke-width: 0.8"/>
      </g>
     </g>
     <g id="text_14">
      <!-- 10 -->
      <g style="fill: #555555" transform="translate(522.249674 328.94375)scale(0.1 -0.1)">
       <use xlink:href="#TimesNewRomanPSMT-31"/>
       <use xlink:href="#TimesNewRomanPSMT-30" x="50"/>
      </g>
     </g>
    </g>
    <g id="xtick_8">
     <g id="line2d_38">
      <path d="M 587.92823 315 
L 587.92823 43.2 
" clip-path="url(#p8cf5abab25)" style="fill: none; stroke: #ffffff; stroke-width: 0.8; stroke-linecap: square"/>
     </g>
     <g id="line2d_39">
      <g>
       <use xlink:href="#m219f70a705" x="587.92823" y="315" style="fill: #555555; stroke: #555555; stroke-width: 0.8"/>
      </g>
     </g>
     <g id="text_15">
      <!-- 15 -->
      <g style="fill: #555555" transform="translate(582.92823 328.94375)scale(0.1 -0.1)">
       <use xlink:href="#TimesNewRomanPSMT-31"/>
       <use xlink:href="#TimesNewRomanPSMT-35" x="50"/>
      </g>
     </g>
    </g>
   </g>
   <g id="matplotlib.axis_4">
    <g id="ytick_7">
     <g id="line2d_40">
      <path d="M 394.363636 302.645455 
L 648 302.645455 
" clip-path="url(#p8cf5abab25)" style="fill: none; stroke: #ffffff; stroke-width: 0.8; stroke-linecap: square"/>
     </g>
     <g id="line2d_41">
      <g>
       <use xlink:href="#mc8db8f7fee" x="394.363636" y="302.645455" style="fill: #555555; stroke: #555555; stroke-width: 0.8"/>
      </g>
     </g>
     <g id="text_16">
      <!-- 0.0 -->
      <g style="fill: #555555" transform="translate(374.863636 306.11733)scale(0.1 -0.1)">
       <use xlink:href="#TimesNewRomanPSMT-30"/>
       <use xlink:href="#TimesNewRomanPSMT-2e" x="50"/>
       <use xlink:href="#TimesNewRomanPSMT-30" x="75"/>
      </g>
     </g>
    </g>
    <g id="ytick_8">
     <g id="line2d_42">
      <path d="M 394.363636 253.227273 
L 648 253.227273 
" clip-path="url(#p8cf5abab25)" style="fill: none; stroke: #ffffff; stroke-width: 0.8; stroke-linecap: square"/>
     </g>
     <g id="line2d_43">
      <g>
       <use xlink:href="#mc8db8f7fee" x="394.363636" y="253.227273" style="fill: #555555; stroke: #555555; stroke-width: 0.8"/>
      </g>
     </g>
     <g id="text_17">
      <!-- 0.2 -->
      <g style="fill: #555555" transform="translate(374.863636 256.699148)scale(0.1 -0.1)">
       <use xlink:href="#TimesNewRomanPSMT-30"/>
       <use xlink:href="#TimesNewRomanPSMT-2e" x="50"/>
       <use xlink:href="#TimesNewRomanPSMT-32" x="75"/>
      </g>
     </g>
    </g>
    <g id="ytick_9">
     <g id="line2d_44">
      <path d="M 394.363636 203.809091 
L 648 203.809091 
" clip-path="url(#p8cf5abab25)" style="fill: none; stroke: #ffffff; stroke-width: 0.8; stroke-linecap: square"/>
     </g>
     <g id="line2d_45">
      <g>
       <use xlink:href="#mc8db8f7fee" x="394.363636" y="203.809091" style="fill: #555555; stroke: #555555; stroke-width: 0.8"/>
      </g>
     </g>
     <g id="text_18">
      <!-- 0.4 -->
      <g style="fill: #555555" transform="translate(374.863636 207.280966)scale(0.1 -0.1)">
       <use xlink:href="#TimesNewRomanPSMT-30"/>
       <use xlink:href="#TimesNewRomanPSMT-2e" x="50"/>
       <use xlink:href="#TimesNewRomanPSMT-34" x="75"/>
      </g>
     </g>
    </g>
    <g id="ytick_10">
     <g id="line2d_46">
      <path d="M 394.363636 154.390909 
L 648 154.390909 
" clip-path="url(#p8cf5abab25)" style="fill: none; stroke: #ffffff; stroke-width: 0.8; stroke-linecap: square"/>
     </g>
     <g id="line2d_47">
      <g>
       <use xlink:href="#mc8db8f7fee" x="394.363636" y="154.390909" style="fill: #555555; stroke: #555555; stroke-width: 0.8"/>
      </g>
     </g>
     <g id="text_19">
      <!-- 0.6 -->
      <g style="fill: #555555" transform="translate(374.863636 157.862784)scale(0.1 -0.1)">
       <use xlink:href="#TimesNewRomanPSMT-30"/>
       <use xlink:href="#TimesNewRomanPSMT-2e" x="50"/>
       <use xlink:href="#TimesNewRomanPSMT-36" x="75"/>
      </g>
     </g>
    </g>
    <g id="ytick_11">
     <g id="line2d_48">
      <path d="M 394.363636 104.972727 
L 648 104.972727 
" clip-path="url(#p8cf5abab25)" style="fill: none; stroke: #ffffff; stroke-width: 0.8; stroke-linecap: square"/>
     </g>
     <g id="line2d_49">
      <g>
       <use xlink:href="#mc8db8f7fee" x="394.363636" y="104.972727" style="fill: #555555; stroke: #555555; stroke-width: 0.8"/>
      </g>
     </g>
     <g id="text_20">
      <!-- 0.8 -->
      <g style="fill: #555555" transform="translate(374.863636 108.444602)scale(0.1 -0.1)">
       <use xlink:href="#TimesNewRomanPSMT-30"/>
       <use xlink:href="#TimesNewRomanPSMT-2e" x="50"/>
       <use xlink:href="#TimesNewRomanPSMT-38" x="75"/>
      </g>
     </g>
    </g>
    <g id="ytick_12">
     <g id="line2d_50">
      <path d="M 394.363636 55.554545 
L 648 55.554545 
" clip-path="url(#p8cf5abab25)" style="fill: none; stroke: #ffffff; stroke-width: 0.8; stroke-linecap: square"/>
     </g>
     <g id="line2d_51">
      <g>
       <use xlink:href="#mc8db8f7fee" x="394.363636" y="55.554545" style="fill: #555555; stroke: #555555; stroke-width: 0.8"/>
      </g>
     </g>
     <g id="text_21">
      <!-- 1.0 -->
      <g style="fill: #555555" transform="translate(374.863636 59.02642)scale(0.1 -0.1)">
       <use xlink:href="#TimesNewRomanPSMT-31"/>
       <use xlink:href="#TimesNewRomanPSMT-2e" x="50"/>
       <use xlink:href="#TimesNewRomanPSMT-30" x="75"/>
      </g>
     </g>
    </g>
   </g>
   <g id="line2d_52">
    <path d="M 405.892562 156.517899 
L 418.028273 197.403827 
L 430.163984 151.435692 
L 442.299696 110.858067 
L 454.435407 285.261927 
L 466.571118 224.672713 
L 478.706829 195.908773 
L 490.84254 148.019389 
L 502.978251 123.408526 
L 515.113963 129.672541 
L 527.249674 110.202334 
L 539.385385 55.554545 
L 551.521096 244.535381 
L 563.656807 213.060382 
L 575.792518 121.077343 
L 587.92823 255.743944 
L 600.063941 260.958472 
L 612.199652 302.645455 
L 624.335363 285.647376 
L 636.471074 158.483607 
" clip-path="url(#p8cf5abab25)" style="fill: none; stroke: #000000; stroke-opacity: 0.2; stroke-width: 1.5; stroke-linecap: square"/>
   </g>
   <g id="line2d_53">
    <path d="M 405.892562 129.200373 
L 418.028273 163.175306 
L 430.163984 146.080641 
L 442.299696 170.096036 
L 454.435407 123.715334 
L 466.571118 179.524645 
L 478.706829 120.378494 
L 490.84254 148.46863 
L 502.978251 203.257123 
L 515.113963 236.748632 
L 527.249674 285.878183 
L 539.385385 302.645455 
L 551.521096 271.667318 
L 563.656807 212.521277 
L 575.792518 245.481726 
L 587.92823 300.000487 
L 600.063941 264.892399 
L 612.199652 261.647389 
L 624.335363 131.639295 
L 636.471074 55.554545 
" clip-path="url(#p8cf5abab25)" style="fill: none; stroke: #000000; stroke-opacity: 0.2; stroke-width: 1.5; stroke-linecap: square"/>
   </g>
   <g id="line2d_54">
    <path d="M 405.892562 84.71681 
L 418.028273 109.52659 
L 430.163984 189.988016 
L 442.299696 176.857906 
L 454.435407 230.357928 
L 466.571118 200.70253 
L 478.706829 133.927197 
L 490.84254 166.666547 
L 502.978251 133.374299 
L 515.113963 167.785838 
L 527.249674 156.46571 
L 539.385385 55.554545 
L 551.521096 146.200868 
L 563.656807 204.615158 
L 575.792518 302.645455 
L 587.92823 198.378755 
L 600.063941 259.21247 
L 612.199652 233.375216 
L 624.335363 267.360595 
L 636.471074 248.239502 
" clip-path="url(#p8cf5abab25)" style="fill: none; stroke: #000000; stroke-opacity: 0.2; stroke-width: 1.5; stroke-linecap: square"/>
   </g>
   <g id="line2d_55">
    <path d="M 405.892562 98.949498 
L 418.028273 122.482427 
L 430.163984 113.037672 
L 442.299696 198.545197 
L 454.435407 302.645455 
L 466.571118 290.772368 
L 478.706829 82.603908 
L 490.84254 55.554545 
L 502.978251 85.205794 
L 515.113963 70.203159 
L 527.249674 108.804695 
L 539.385385 149.193748 
L 551.521096 146.543652 
L 563.656807 116.659211 
L 575.792518 76.544638 
L 587.92823 97.603515 
L 600.063941 254.050983 
L 612.199652 229.255951 
L 624.335363 90.016523 
L 636.471074 64.442537 
" clip-path="url(#p8cf5abab25)" style="fill: none; stroke: #000000; stroke-opacity: 0.2; stroke-width: 1.5; stroke-linecap: square"/>
   </g>
   <g id="line2d_56">
    <path d="M 405.892562 92.862765 
L 418.028273 99.151755 
L 430.163984 71.54568 
L 442.299696 55.554545 
L 454.435407 112.268888 
L 466.571118 261.778683 
L 478.706829 185.310782 
L 490.84254 302.645455 
L 502.978251 263.013975 
L 515.113963 238.989279 
L 527.249674 233.089799 
L 539.385385 195.816968 
L 551.521096 205.022637 
L 563.656807 155.87606 
L 575.792518 96.70436 
L 587.92823 101.18988 
L 600.063941 101.064008 
L 612.199652 148.781838 
L 624.335363 113.08157 
L 636.471074 170.342109 
" clip-path="url(#p8cf5abab25)" style="fill: none; stroke: #000000; stroke-opacity: 0.2; stroke-width: 1.5; stroke-linecap: square"/>
   </g>
   <g id="line2d_57">
    <path d="M 405.892562 154.757255 
L 418.028273 200.350703 
L 430.163984 138.241561 
L 442.299696 151.471085 
L 454.435407 200.375345 
L 466.571118 275.053028 
L 478.706829 251.47182 
L 490.84254 302.645455 
L 502.978251 178.309897 
L 515.113963 292.529383 
L 527.249674 238.44969 
L 539.385385 207.145815 
L 551.521096 129.385555 
L 563.656807 170.719685 
L 575.792518 173.200933 
L 587.92823 153.807638 
L 600.063941 106.755778 
L 612.199652 215.912094 
L 624.335363 202.388405 
L 636.471074 55.554545 
" clip-path="url(#p8cf5abab25)" style="fill: none; stroke: #000000; stroke-opacity: 0.2; stroke-width: 1.5; stroke-linecap: square"/>
   </g>
   <g id="line2d_58">
    <path d="M 405.892562 132.689859 
L 418.028273 69.177642 
L 430.163984 72.468065 
L 442.299696 107.418537 
L 454.435407 94.763087 
L 466.571118 55.554545 
L 478.706829 154.539772 
L 490.84254 161.928195 
L 502.978251 123.002213 
L 515.113963 136.868799 
L 527.249674 181.540111 
L 539.385385 204.265868 
L 551.521096 262.726314 
L 563.656807 302.645455 
L 575.792518 126.715052 
L 587.92823 176.533372 
L 600.063941 139.19953 
L 612.199652 206.349151 
L 624.335363 293.296176 
L 636.471074 170.952482 
" clip-path="url(#p8cf5abab25)" style="fill: none; stroke: #000000; stroke-opacity: 0.2; stroke-width: 1.5; stroke-linecap: square"/>
   </g>
   <g id="line2d_59">
    <path d="M 405.892562 127.628548 
L 418.028273 118.782331 
L 430.163984 158.904426 
L 442.299696 182.936725 
L 454.435407 172.792557 
L 466.571118 158.470555 
L 478.706829 141.090203 
L 490.84254 183.652533 
L 502.978251 241.996154 
L 515.113963 234.329026 
L 527.249674 207.196366 
L 539.385385 167.026599 
L 551.521096 174.454466 
L 563.656807 138.365204 
L 575.792518 133.794168 
L 587.92823 141.665665 
L 600.063941 95.516129 
L 612.199652 55.554545 
L 624.335363 239.11522 
L 636.471074 302.645455 
" clip-path="url(#p8cf5abab25)" style="fill: none; stroke: #000000; stroke-opacity: 0.2; stroke-width: 1.5; stroke-linecap: square"/>
   </g>
   <g id="line2d_60">
    <path d="M 405.892562 122.620285 
L 418.028273 204.209863 
L 430.163984 219.691424 
L 442.299696 74.084773 
L 454.435407 81.154711 
L 466.571118 55.554545 
L 478.706829 102.310601 
L 490.84254 168.827831 
L 502.978251 153.490433 
L 515.113963 202.332854 
L 527.249674 208.756888 
L 539.385385 302.645455 
L 551.521096 213.75731 
L 563.656807 259.234577 
L 575.792518 233.105212 
L 587.92823 234.805508 
L 600.063941 125.411527 
L 612.199652 170.154746 
L 624.335363 171.455694 
L 636.471074 214.673221 
" clip-path="url(#p8cf5abab25)" style="fill: none; stroke: #000000; stroke-opacity: 0.2; stroke-width: 1.5; stroke-linecap: square"/>
   </g>
   <g id="line2d_61">
    <path d="M 405.892562 133.279514 
L 418.028273 55.554545 
L 430.163984 80.492569 
L 442.299696 167.197988 
L 454.435407 228.428483 
L 466.571118 247.254811 
L 478.706829 174.151483 
L 490.84254 225.992533 
L 502.978251 72.009707 
L 515.113963 99.861153 
L 527.249674 186.273054 
L 539.385385 135.967326 
L 551.521096 145.583164 
L 563.656807 285.728684 
L 575.792518 198.292385 
L 587.92823 171.683427 
L 600.063941 302.645455 
L 612.199652 232.281346 
L 624.335363 236.681045 
L 636.471074 231.509757 
" clip-path="url(#p8cf5abab25)" style="fill: none; stroke: #000000; stroke-opacity: 0.2; stroke-width: 1.5; stroke-linecap: square"/>
   </g>
   <g id="line2d_62">
    <path d="M 405.892562 105.789701 
L 418.028273 132.786907 
L 430.163984 143.854001 
L 442.299696 97.73647 
L 454.435407 107.777816 
L 466.571118 110.049273 
L 478.706829 82.887384 
L 490.84254 156.740569 
L 502.978251 195.644557 
L 515.113963 158.670152 
L 527.249674 166.860972 
L 539.385385 124.304914 
L 551.521096 208.10867 
L 563.656807 283.002464 
L 575.792518 292.174723 
L 587.92823 265.147237 
L 600.063941 214.7563 
L 612.199652 261.953709 
L 624.335363 226.327102 
L 636.471074 152.147181 
" clip-path="url(#p8cf5abab25)" style="fill: none; stroke: #ff0000; stroke-width: 2; stroke-linecap: square"/>
   </g>
   <g id="patch_8">
    <path d="M 394.363636 315 
L 394.363636 43.2 
" style="fill: none; stroke: #ffffff; stroke-linejoin: miter; stroke-linecap: square"/>
   </g>
   <g id="patch_9">
    <path d="M 648 315 
L 648 43.2 
" style="fill: none; stroke: #ffffff; stroke-linejoin: miter; stroke-linecap: square"/>
   </g>
   <g id="patch_10">
    <path d="M 394.363636 315 
L 648 315 
" style="fill: none; stroke: #ffffff; stroke-linejoin: miter; stroke-linecap: square"/>
   </g>
   <g id="patch_11">
    <path d="M 394.363636 43.2 
L 648 43.2 
" style="fill: none; stroke: #ffffff; stroke-linejoin: miter; stroke-linecap: square"/>
   </g>
   <g id="text_22">
    <!-- VNQ Template 2 -->
    <g transform="translate(486.906818 37.2)scale(0.1 -0.1)">
     <use xlink:href="#TimesNewRomanPSMT-56"/>
     <use xlink:href="#TimesNewRomanPSMT-4e" x="72.216797"/>
     <use xlink:href="#TimesNewRomanPSMT-51" x="144.433594"/>
     <use xlink:href="#TimesNewRomanPSMT-20" x="216.650391"/>
     <use xlink:href="#TimesNewRomanPSMT-54" x="239.900391"/>
     <use xlink:href="#TimesNewRomanPSMT-65" x="293.984375"/>
     <use xlink:href="#TimesNewRomanPSMT-6d" x="338.369141"/>
     <use xlink:href="#TimesNewRomanPSMT-70" x="416.152344"/>
     <use xlink:href="#TimesNewRomanPSMT-6c" x="466.152344"/>
     <use xlink:href="#TimesNewRomanPSMT-61" x="493.935547"/>
     <use xlink:href="#TimesNewRomanPSMT-74" x="538.320312"/>
     <use xlink:href="#TimesNewRomanPSMT-65" x="566.103516"/>
     <use xlink:href="#TimesNewRomanPSMT-20" x="610.488281"/>
     <use xlink:href="#TimesNewRomanPSMT-32" x="635.488281"/>
    </g>
   </g>
  </g>
 </g>
 <defs>
  <clipPath id="pdcf29a314e">
   <rect x="90" y="43.2" width="253.636364" height="271.8"/>
  </clipPath>
  <clipPath id="p8cf5abab25">
   <rect x="394.363636" y="43.2" width="253.636364" height="271.8"/>
  </clipPath>
 </defs>
</svg>
