<?xml version="1.0" encoding="utf-8" standalone="no"?>
<!DOCTYPE svg PUBLIC "-//W3C//DTD SVG 1.1//EN"
  "http://www.w3.org/Graphics/SVG/1.1/DTD/svg11.dtd">
<svg xmlns:xlink="http://www.w3.org/1999/xlink" width="720pt" height="360pt" viewBox="0 0 720 360" xmlns="http://www.w3.org/2000/svg" version="1.1">
 <metadata>
  <rdf:RDF xmlns:dc="http://purl.org/dc/elements/1.1/" xmlns:cc="http://creativecommons.org/ns#" xmlns:rdf="http://www.w3.org/1999/02/22-rdf-syntax-ns#">
   <cc:Work>
    <dc:type rdf:resource="http://purl.org/dc/dcmitype/StillImage"/>
    <dc:date>2022-02-26T19:19:18.988893</dc:date>
    <dc:format>image/svg+xml</dc:format>
    <dc:creator>
     <cc:Agent>
      <dc:title>Matplotlib v3.5.0, https://matplotlib.org/</dc:title>
     </cc:Agent>
    </dc:creator>
   </cc:Work>
  </rdf:RDF>
 </metadata>
 <defs>
  <style type="text/css">*{stroke-linejoin: round; stroke-linecap: butt}</style>
 </defs>
 <g id="figure_1">
  <g id="patch_1">
   <path d="M 0 360 
L 720 360 
L 720 0 
L 0 0 
z
" style="fill: #ffffff"/>
  </g>
  <g id="axes_1">
   <g id="patch_2">
    <path d="M 90 315 
L 343.636364 315 
L 343.636364 43.2 
L 90 43.2 
z
" style="fill: #e5e5e5"/>
   </g>
   <g id="matplotlib.axis_1">
    <g id="xtick_1">
     <g id="line2d_1">
      <path d="M 101.528926 315 
L 101.528926 43.2 
" clip-path="url(#pa54bbfd4e1)" style="fill: none; stroke: #ffffff; stroke-width: 0.8; stroke-linecap: square"/>
     </g>
     <g id="line2d_2">
      <defs>
       <path id="md69aa8a9a8" d="M 0 0 
L 0 3.5 
" style="stroke: #555555; stroke-width: 0.8"/>
      </defs>
      <g>
       <use xlink:href="#md69aa8a9a8" x="101.528926" y="315" style="fill: #555555; stroke: #555555; stroke-width: 0.8"/>
      </g>
     </g>
     <g id="text_1">
      <!-- 0 -->
      <g style="fill: #555555" transform="translate(99.028926 328.94375)scale(0.1 -0.1)">
       <defs>
        <path id="TimesNewRomanPSMT-30" d="M 231 2094 
Q 231 2819 450 3342 
Q 669 3866 1031 4122 
Q 1313 4325 1613 4325 
Q 2100 4325 2488 3828 
Q 2972 3213 2972 2159 
Q 2972 1422 2759 906 
Q 2547 391 2217 158 
Q 1888 -75 1581 -75 
Q 975 -75 572 641 
Q 231 1244 231 2094 
z
M 844 2016 
Q 844 1141 1059 588 
Q 1238 122 1591 122 
Q 1759 122 1940 273 
Q 2122 425 2216 781 
Q 2359 1319 2359 2297 
Q 2359 3022 2209 3506 
Q 2097 3866 1919 4016 
Q 1791 4119 1609 4119 
Q 1397 4119 1231 3928 
Q 1006 3669 925 3112 
Q 844 2556 844 2016 
z
" transform="scale(0.015625)"/>
       </defs>
       <use xlink:href="#TimesNewRomanPSMT-30"/>
      </g>
     </g>
    </g>
    <g id="xtick_2">
     <g id="line2d_3">
      <path d="M 162.207482 315 
L 162.207482 43.2 
" clip-path="url(#pa54bbfd4e1)" style="fill: none; stroke: #ffffff; stroke-width: 0.8; stroke-linecap: square"/>
     </g>
     <g id="line2d_4">
      <g>
       <use xlink:href="#md69aa8a9a8" x="162.207482" y="315" style="fill: #555555; stroke: #555555; stroke-width: 0.8"/>
      </g>
     </g>
     <g id="text_2">
      <!-- 5 -->
      <g style="fill: #555555" transform="translate(159.707482 328.94375)scale(0.1 -0.1)">
       <defs>
        <path id="TimesNewRomanPSMT-35" d="M 2778 4238 
L 2534 3706 
L 1259 3706 
L 981 3138 
Q 1809 3016 2294 2522 
Q 2709 2097 2709 1522 
Q 2709 1188 2573 903 
Q 2438 619 2231 419 
Q 2025 219 1772 97 
Q 1413 -75 1034 -75 
Q 653 -75 479 54 
Q 306 184 306 341 
Q 306 428 378 495 
Q 450 563 559 563 
Q 641 563 702 538 
Q 763 513 909 409 
Q 1144 247 1384 247 
Q 1750 247 2026 523 
Q 2303 800 2303 1197 
Q 2303 1581 2056 1914 
Q 1809 2247 1375 2428 
Q 1034 2569 447 2591 
L 1259 4238 
L 2778 4238 
z
" transform="scale(0.015625)"/>
       </defs>
       <use xlink:href="#TimesNewRomanPSMT-35"/>
      </g>
     </g>
    </g>
    <g id="xtick_3">
     <g id="line2d_5">
      <path d="M 222.886037 315 
L 222.886037 43.2 
" clip-path="url(#pa54bbfd4e1)" style="fill: none; stroke: #ffffff; stroke-width: 0.8; stroke-linecap: square"/>
     </g>
     <g id="line2d_6">
      <g>
       <use xlink:href="#md69aa8a9a8" x="222.886037" y="315" style="fill: #555555; stroke: #555555; stroke-width: 0.8"/>
      </g>
     </g>
     <g id="text_3">
      <!-- 10 -->
      <g style="fill: #555555" transform="translate(217.886037 328.94375)scale(0.1 -0.1)">
       <defs>
        <path id="TimesNewRomanPSMT-31" d="M 750 3822 
L 1781 4325 
L 1884 4325 
L 1884 747 
Q 1884 391 1914 303 
Q 1944 216 2037 169 
Q 2131 122 2419 116 
L 2419 0 
L 825 0 
L 825 116 
Q 1125 122 1212 167 
Q 1300 213 1334 289 
Q 1369 366 1369 747 
L 1369 3034 
Q 1369 3497 1338 3628 
Q 1316 3728 1258 3775 
Q 1200 3822 1119 3822 
Q 1003 3822 797 3725 
L 750 3822 
z
" transform="scale(0.015625)"/>
       </defs>
       <use xlink:href="#TimesNewRomanPSMT-31"/>
       <use xlink:href="#TimesNewRomanPSMT-30" x="50"/>
      </g>
     </g>
    </g>
    <g id="xtick_4">
     <g id="line2d_7">
      <path d="M 283.564593 315 
L 283.564593 43.2 
" clip-path="url(#pa54bbfd4e1)" style="fill: none; stroke: #ffffff; stroke-width: 0.8; stroke-linecap: square"/>
     </g>
     <g id="line2d_8">
      <g>
       <use xlink:href="#md69aa8a9a8" x="283.564593" y="315" style="fill: #555555; stroke: #555555; stroke-width: 0.8"/>
      </g>
     </g>
     <g id="text_4">
      <!-- 15 -->
      <g style="fill: #555555" transform="translate(278.564593 328.94375)scale(0.1 -0.1)">
       <use xlink:href="#TimesNewRomanPSMT-31"/>
       <use xlink:href="#TimesNewRomanPSMT-35" x="50"/>
      </g>
     </g>
    </g>
   </g>
   <g id="matplotlib.axis_2">
    <g id="ytick_1">
     <g id="line2d_9">
      <path d="M 90 302.645455 
L 343.636364 302.645455 
" clip-path="url(#pa54bbfd4e1)" style="fill: none; stroke: #ffffff; stroke-width: 0.8; stroke-linecap: square"/>
     </g>
     <g id="line2d_10">
      <defs>
       <path id="mf35b8d17dc" d="M 0 0 
L -3.5 0 
" style="stroke: #555555; stroke-width: 0.8"/>
      </defs>
      <g>
       <use xlink:href="#mf35b8d17dc" x="90" y="302.645455" style="fill: #555555; stroke: #555555; stroke-width: 0.8"/>
      </g>
     </g>
     <g id="text_5">
      <!-- 0.0 -->
      <g style="fill: #555555" transform="translate(70.5 306.11733)scale(0.1 -0.1)">
       <defs>
        <path id="TimesNewRomanPSMT-2e" d="M 800 606 
Q 947 606 1047 504 
Q 1147 403 1147 259 
Q 1147 116 1045 14 
Q 944 -88 800 -88 
Q 656 -88 554 14 
Q 453 116 453 259 
Q 453 406 554 506 
Q 656 606 800 606 
z
" transform="scale(0.015625)"/>
       </defs>
       <use xlink:href="#TimesNewRomanPSMT-30"/>
       <use xlink:href="#TimesNewRomanPSMT-2e" x="50"/>
       <use xlink:href="#TimesNewRomanPSMT-30" x="75"/>
      </g>
     </g>
    </g>
    <g id="ytick_2">
     <g id="line2d_11">
      <path d="M 90 253.227273 
L 343.636364 253.227273 
" clip-path="url(#pa54bbfd4e1)" style="fill: none; stroke: #ffffff; stroke-width: 0.8; stroke-linecap: square"/>
     </g>
     <g id="line2d_12">
      <g>
       <use xlink:href="#mf35b8d17dc" x="90" y="253.227273" style="fill: #555555; stroke: #555555; stroke-width: 0.8"/>
      </g>
     </g>
     <g id="text_6">
      <!-- 0.2 -->
      <g style="fill: #555555" transform="translate(70.5 256.699148)scale(0.1 -0.1)">
       <defs>
        <path id="TimesNewRomanPSMT-32" d="M 2934 816 
L 2638 0 
L 138 0 
L 138 116 
Q 1241 1122 1691 1759 
Q 2141 2397 2141 2925 
Q 2141 3328 1894 3587 
Q 1647 3847 1303 3847 
Q 991 3847 742 3664 
Q 494 3481 375 3128 
L 259 3128 
Q 338 3706 661 4015 
Q 984 4325 1469 4325 
Q 1984 4325 2329 3994 
Q 2675 3663 2675 3213 
Q 2675 2891 2525 2569 
Q 2294 2063 1775 1497 
Q 997 647 803 472 
L 1909 472 
Q 2247 472 2383 497 
Q 2519 522 2628 598 
Q 2738 675 2819 816 
L 2934 816 
z
" transform="scale(0.015625)"/>
       </defs>
       <use xlink:href="#TimesNewRomanPSMT-30"/>
       <use xlink:href="#TimesNewRomanPSMT-2e" x="50"/>
       <use xlink:href="#TimesNewRomanPSMT-32" x="75"/>
      </g>
     </g>
    </g>
    <g id="ytick_3">
     <g id="line2d_13">
      <path d="M 90 203.809091 
L 343.636364 203.809091 
" clip-path="url(#pa54bbfd4e1)" style="fill: none; stroke: #ffffff; stroke-width: 0.8; stroke-linecap: square"/>
     </g>
     <g id="line2d_14">
      <g>
       <use xlink:href="#mf35b8d17dc" x="90" y="203.809091" style="fill: #555555; stroke: #555555; stroke-width: 0.8"/>
      </g>
     </g>
     <g id="text_7">
      <!-- 0.4 -->
      <g style="fill: #555555" transform="translate(70.5 207.280966)scale(0.1 -0.1)">
       <defs>
        <path id="TimesNewRomanPSMT-34" d="M 2978 1563 
L 2978 1119 
L 2409 1119 
L 2409 0 
L 1894 0 
L 1894 1119 
L 100 1119 
L 100 1519 
L 2066 4325 
L 2409 4325 
L 2409 1563 
L 2978 1563 
z
M 1894 1563 
L 1894 3666 
L 406 1563 
L 1894 1563 
z
" transform="scale(0.015625)"/>
       </defs>
       <use xlink:href="#TimesNewRomanPSMT-30"/>
       <use xlink:href="#TimesNewRomanPSMT-2e" x="50"/>
       <use xlink:href="#TimesNewRomanPSMT-34" x="75"/>
      </g>
     </g>
    </g>
    <g id="ytick_4">
     <g id="line2d_15">
      <path d="M 90 154.390909 
L 343.636364 154.390909 
" clip-path="url(#pa54bbfd4e1)" style="fill: none; stroke: #ffffff; stroke-width: 0.8; stroke-linecap: square"/>
     </g>
     <g id="line2d_16">
      <g>
       <use xlink:href="#mf35b8d17dc" x="90" y="154.390909" style="fill: #555555; stroke: #555555; stroke-width: 0.8"/>
      </g>
     </g>
     <g id="text_8">
      <!-- 0.6 -->
      <g style="fill: #555555" transform="translate(70.5 157.862784)scale(0.1 -0.1)">
       <defs>
        <path id="TimesNewRomanPSMT-36" d="M 2869 4325 
L 2869 4209 
Q 2456 4169 2195 4045 
Q 1934 3922 1679 3669 
Q 1425 3416 1258 3105 
Q 1091 2794 978 2366 
Q 1428 2675 1881 2675 
Q 2316 2675 2634 2325 
Q 2953 1975 2953 1425 
Q 2953 894 2631 456 
Q 2244 -75 1606 -75 
Q 1172 -75 869 213 
Q 275 772 275 1663 
Q 275 2231 503 2743 
Q 731 3256 1154 3653 
Q 1578 4050 1965 4187 
Q 2353 4325 2688 4325 
L 2869 4325 
z
M 925 2138 
Q 869 1716 869 1456 
Q 869 1156 980 804 
Q 1091 453 1309 247 
Q 1469 100 1697 100 
Q 1969 100 2183 356 
Q 2397 613 2397 1088 
Q 2397 1622 2184 2012 
Q 1972 2403 1581 2403 
Q 1463 2403 1327 2353 
Q 1191 2303 925 2138 
z
" transform="scale(0.015625)"/>
       </defs>
       <use xlink:href="#TimesNewRomanPSMT-30"/>
       <use xlink:href="#TimesNewRomanPSMT-2e" x="50"/>
       <use xlink:href="#TimesNewRomanPSMT-36" x="75"/>
      </g>
     </g>
    </g>
    <g id="ytick_5">
     <g id="line2d_17">
      <path d="M 90 104.972727 
L 343.636364 104.972727 
" clip-path="url(#pa54bbfd4e1)" style="fill: none; stroke: #ffffff; stroke-width: 0.8; stroke-linecap: square"/>
     </g>
     <g id="line2d_18">
      <g>
       <use xlink:href="#mf35b8d17dc" x="90" y="104.972727" style="fill: #555555; stroke: #555555; stroke-width: 0.8"/>
      </g>
     </g>
     <g id="text_9">
      <!-- 0.8 -->
      <g style="fill: #555555" transform="translate(70.5 108.444602)scale(0.1 -0.1)">
       <defs>
        <path id="TimesNewRomanPSMT-38" d="M 1228 2134 
Q 725 2547 579 2797 
Q 434 3047 434 3316 
Q 434 3728 753 4026 
Q 1072 4325 1600 4325 
Q 2113 4325 2425 4047 
Q 2738 3769 2738 3413 
Q 2738 3175 2569 2928 
Q 2400 2681 1866 2347 
Q 2416 1922 2594 1678 
Q 2831 1359 2831 1006 
Q 2831 559 2490 242 
Q 2150 -75 1597 -75 
Q 994 -75 656 303 
Q 388 606 388 966 
Q 388 1247 577 1523 
Q 766 1800 1228 2134 
z
M 1719 2469 
Q 2094 2806 2194 3001 
Q 2294 3197 2294 3444 
Q 2294 3772 2109 3958 
Q 1925 4144 1606 4144 
Q 1288 4144 1088 3959 
Q 888 3775 888 3528 
Q 888 3366 970 3203 
Q 1053 3041 1206 2894 
L 1719 2469 
z
M 1375 2016 
Q 1116 1797 991 1539 
Q 866 1281 866 981 
Q 866 578 1086 336 
Q 1306 94 1647 94 
Q 1984 94 2187 284 
Q 2391 475 2391 747 
Q 2391 972 2272 1150 
Q 2050 1481 1375 2016 
z
" transform="scale(0.015625)"/>
       </defs>
       <use xlink:href="#TimesNewRomanPSMT-30"/>
       <use xlink:href="#TimesNewRomanPSMT-2e" x="50"/>
       <use xlink:href="#TimesNewRomanPSMT-38" x="75"/>
      </g>
     </g>
    </g>
    <g id="ytick_6">
     <g id="line2d_19">
      <path d="M 90 55.554545 
L 343.636364 55.554545 
" clip-path="url(#pa54bbfd4e1)" style="fill: none; stroke: #ffffff; stroke-width: 0.8; stroke-linecap: square"/>
     </g>
     <g id="line2d_20">
      <g>
       <use xlink:href="#mf35b8d17dc" x="90" y="55.554545" style="fill: #555555; stroke: #555555; stroke-width: 0.8"/>
      </g>
     </g>
     <g id="text_10">
      <!-- 1.0 -->
      <g style="fill: #555555" transform="translate(70.5 59.02642)scale(0.1 -0.1)">
       <use xlink:href="#TimesNewRomanPSMT-31"/>
       <use xlink:href="#TimesNewRomanPSMT-2e" x="50"/>
       <use xlink:href="#TimesNewRomanPSMT-30" x="75"/>
      </g>
     </g>
    </g>
   </g>
   <g id="line2d_21">
    <path d="M 101.528926 281.643411 
L 113.664637 302.645455 
L 125.800348 272.068772 
L 137.936059 249.42185 
L 150.07177 281.331231 
L 162.207482 196.813808 
L 174.343193 79.739524 
L 186.478904 92.754675 
L 198.614615 104.965976 
L 210.750326 186.643678 
L 222.886037 55.554545 
L 235.021749 96.062203 
L 247.15746 105.118117 
L 259.293171 170.515507 
L 271.428882 85.521987 
L 283.564593 73.201911 
L 295.700304 73.124202 
L 307.836016 140.566961 
L 319.971727 134.491886 
L 332.107438 162.745623 
" clip-path="url(#pa54bbfd4e1)" style="fill: none; stroke: #000000; stroke-opacity: 0.2; stroke-width: 1.5; stroke-linecap: square"/>
   </g>
   <g id="line2d_22">
    <path d="M 101.528926 107.804182 
L 113.664637 55.554545 
L 125.800348 100.381785 
L 137.936059 142.411714 
L 150.07177 302.645455 
L 162.207482 220.679529 
L 174.343193 298.927183 
L 186.478904 106.297145 
L 198.614615 229.731625 
L 210.750326 234.581235 
L 222.886037 138.718229 
L 235.021749 190.192738 
L 247.15746 110.32205 
L 259.293171 193.001183 
L 271.428882 137.156316 
L 283.564593 68.253499 
L 295.700304 196.627768 
L 307.836016 61.740854 
L 319.971727 119.646405 
L 332.107438 104.436064 
" clip-path="url(#pa54bbfd4e1)" style="fill: none; stroke: #000000; stroke-opacity: 0.2; stroke-width: 1.5; stroke-linecap: square"/>
   </g>
   <g id="line2d_23">
    <path d="M 101.528926 225.314246 
L 113.664637 188.753893 
L 125.800348 139.202522 
L 137.936059 154.175495 
L 150.07177 186.125881 
L 162.207482 123.218626 
L 174.343193 163.180406 
L 186.478904 302.645455 
L 198.614615 187.28381 
L 210.750326 199.970508 
L 222.886037 265.349313 
L 235.021749 80.428715 
L 247.15746 150.47472 
L 259.293171 81.591588 
L 271.428882 92.910528 
L 283.564593 84.289061 
L 295.700304 55.554545 
L 307.836016 90.47369 
L 319.971727 59.694314 
L 332.107438 84.852584 
" clip-path="url(#pa54bbfd4e1)" style="fill: none; stroke: #000000; stroke-opacity: 0.2; stroke-width: 1.5; stroke-linecap: square"/>
   </g>
   <g id="line2d_24">
    <path d="M 101.528926 117.774554 
L 113.664637 188.476332 
L 125.800348 159.173064 
L 137.936059 209.507205 
L 150.07177 128.72588 
L 162.207482 235.211161 
L 174.343193 215.086612 
L 186.478904 300.767209 
L 198.614615 249.35286 
L 210.750326 243.539678 
L 222.886037 215.158439 
L 235.021749 240.255014 
L 247.15746 302.645455 
L 259.293171 188.067286 
L 271.428882 225.810037 
L 283.564593 129.715883 
L 295.700304 105.694012 
L 307.836016 55.554545 
L 319.971727 58.618734 
L 332.107438 192.02467 
" clip-path="url(#pa54bbfd4e1)" style="fill: none; stroke: #000000; stroke-opacity: 0.2; stroke-width: 1.5; stroke-linecap: square"/>
   </g>
   <g id="line2d_25">
    <path d="M 101.528926 131.250542 
L 113.664637 255.569551 
L 125.800348 193.087732 
L 137.936059 239.430967 
L 150.07177 227.214272 
L 162.207482 302.645455 
L 174.343193 234.930003 
L 186.478904 193.774589 
L 198.614615 176.907756 
L 210.750326 191.95813 
L 222.886037 121.802652 
L 235.021749 85.981868 
L 247.15746 147.080676 
L 259.293171 186.1752 
L 271.428882 155.320211 
L 283.564593 152.745006 
L 295.700304 134.065012 
L 307.836016 57.010862 
L 319.971727 60.876009 
L 332.107438 55.554545 
" clip-path="url(#pa54bbfd4e1)" style="fill: none; stroke: #000000; stroke-opacity: 0.2; stroke-width: 1.5; stroke-linecap: square"/>
   </g>
   <g id="line2d_26">
    <path d="M 101.528926 281.873656 
L 113.664637 289.323477 
L 125.800348 199.188754 
L 137.936059 194.042837 
L 150.07177 260.906941 
L 162.207482 248.766204 
L 174.343193 246.137227 
L 186.478904 120.609928 
L 198.614615 163.623993 
L 210.750326 259.928434 
L 222.886037 278.579028 
L 235.021749 302.645455 
L 247.15746 216.981672 
L 259.293171 200.077757 
L 271.428882 208.075694 
L 283.564593 230.153955 
L 295.700304 159.429375 
L 307.836016 55.554545 
L 319.971727 67.270328 
L 332.107438 61.050046 
" clip-path="url(#pa54bbfd4e1)" style="fill: none; stroke: #000000; stroke-opacity: 0.2; stroke-width: 1.5; stroke-linecap: square"/>
   </g>
   <g id="line2d_27">
    <path d="M 101.528926 55.554545 
L 113.664637 194.883047 
L 125.800348 130.448659 
L 137.936059 95.10203 
L 150.07177 117.479563 
L 162.207482 302.645455 
L 174.343193 57.317498 
L 186.478904 143.588306 
L 198.614615 135.805846 
L 210.750326 160.402433 
L 222.886037 184.015007 
L 235.021749 176.011257 
L 247.15746 151.089329 
L 259.293171 150.005746 
L 271.428882 180.668264 
L 283.564593 147.123693 
L 295.700304 80.520196 
L 307.836016 129.027398 
L 319.971727 141.108015 
L 332.107438 162.758795 
" clip-path="url(#pa54bbfd4e1)" style="fill: none; stroke: #000000; stroke-opacity: 0.2; stroke-width: 1.5; stroke-linecap: square"/>
   </g>
   <g id="line2d_28">
    <path d="M 101.528926 231.17406 
L 113.664637 295.643517 
L 125.800348 291.471025 
L 137.936059 259.020405 
L 150.07177 229.991276 
L 162.207482 302.645455 
L 174.343193 296.091698 
L 186.478904 211.159692 
L 198.614615 195.133116 
L 210.750326 192.661675 
L 222.886037 225.86029 
L 235.021749 213.624357 
L 247.15746 146.113274 
L 259.293171 155.474071 
L 271.428882 167.587381 
L 283.564593 55.554545 
L 295.700304 110.049247 
L 307.836016 156.924349 
L 319.971727 88.328304 
L 332.107438 145.806969 
" clip-path="url(#pa54bbfd4e1)" style="fill: none; stroke: #000000; stroke-opacity: 0.2; stroke-width: 1.5; stroke-linecap: square"/>
   </g>
   <g id="line2d_29">
    <path d="M 101.528926 110.679821 
L 113.664637 87.175189 
L 125.800348 169.683078 
L 137.936059 302.645455 
L 150.07177 227.552458 
L 162.207482 208.058323 
L 174.343193 217.077875 
L 186.478904 122.556419 
L 198.614615 137.590459 
L 210.750326 173.985668 
L 222.886037 165.733784 
L 235.021749 162.150902 
L 247.15746 159.598798 
L 259.293171 170.899678 
L 271.428882 95.224887 
L 283.564593 120.648177 
L 295.700304 55.554545 
L 307.836016 60.65473 
L 319.971727 94.515202 
L 332.107438 96.928799 
" clip-path="url(#pa54bbfd4e1)" style="fill: none; stroke: #000000; stroke-opacity: 0.2; stroke-width: 1.5; stroke-linecap: square"/>
   </g>
   <g id="line2d_30">
    <path d="M 101.528926 103.880684 
L 113.664637 231.084351 
L 125.800348 292.639775 
L 137.936059 227.956444 
L 150.07177 213.413337 
L 162.207482 172.88276 
L 174.343193 299.61529 
L 186.478904 251.564207 
L 198.614615 148.413436 
L 210.750326 214.72817 
L 222.886037 148.822906 
L 235.021749 209.203853 
L 247.15746 196.19204 
L 259.293171 302.645455 
L 271.428882 216.415526 
L 283.564593 153.516758 
L 295.700304 55.554545 
L 307.836016 87.118098 
L 319.971727 104.086465 
L 332.107438 114.009709 
" clip-path="url(#pa54bbfd4e1)" style="fill: none; stroke: #000000; stroke-opacity: 0.2; stroke-width: 1.5; stroke-linecap: square"/>
   </g>
   <g id="line2d_31">
    <path d="M 101.528926 204.246456 
L 113.664637 280.23296 
L 125.800348 238.539498 
L 137.936059 277.902797 
L 150.07177 262.358712 
L 162.207482 204.890126 
L 174.343193 150.406835 
L 186.478904 98.960389 
L 198.614615 183.636097 
L 210.750326 163.213455 
L 222.886037 166.302314 
L 235.021749 166.908095 
L 247.15746 166.908095 
L 259.293171 166.908095 
L 271.428882 167.570241 
L 283.564593 171.020431 
L 295.700304 146.752016 
L 307.836016 215.562208 
L 319.971727 181.223021 
L 332.107438 106.529228 
" clip-path="url(#pa54bbfd4e1)" style="fill: none; stroke: #ff0000; stroke-width: 2; stroke-linecap: square"/>
   </g>
   <g id="patch_3">
    <path d="M 90 315 
L 90 43.2 
" style="fill: none; stroke: #ffffff; stroke-linejoin: miter; stroke-linecap: square"/>
   </g>
   <g id="patch_4">
    <path d="M 343.636364 315 
L 343.636364 43.2 
" style="fill: none; stroke: #ffffff; stroke-linejoin: miter; stroke-linecap: square"/>
   </g>
   <g id="patch_5">
    <path d="M 90 315 
L 343.636364 315 
" style="fill: none; stroke: #ffffff; stroke-linejoin: miter; stroke-linecap: square"/>
   </g>
   <g id="patch_6">
    <path d="M 90 43.2 
L 343.636364 43.2 
" style="fill: none; stroke: #ffffff; stroke-linejoin: miter; stroke-linecap: square"/>
   </g>
   <g id="text_11">
    <!-- XAG Template 1 -->
    <g transform="translate(182.543182 37.2)scale(0.1 -0.1)">
     <defs>
      <path id="TimesNewRomanPSMT-58" d="M 2613 2347 
L 3522 991 
Q 3900 428 4083 279 
Q 4266 131 4547 116 
L 4547 0 
L 2728 0 
L 2728 116 
Q 2909 119 2997 153 
Q 3063 181 3105 239 
Q 3147 297 3147 356 
Q 3147 428 3119 500 
Q 3097 553 2947 775 
L 2228 1863 
L 1341 725 
Q 1200 544 1172 483 
Q 1144 422 1144 356 
Q 1144 256 1228 190 
Q 1313 125 1550 116 
L 1550 0 
L 47 0 
L 47 116 
Q 206 131 322 181 
Q 516 263 691 400 
Q 866 538 1091 822 
L 2091 2084 
L 1256 3306 
Q 916 3803 678 3958 
Q 441 4113 131 4122 
L 131 4238 
L 2091 4238 
L 2091 4122 
Q 1841 4113 1748 4041 
Q 1656 3969 1656 3881 
Q 1656 3766 1806 3544 
L 2456 2572 
L 3209 3525 
Q 3341 3694 3370 3756 
Q 3400 3819 3400 3884 
Q 3400 3950 3363 4000 
Q 3316 4066 3244 4092 
Q 3172 4119 2947 4122 
L 2947 4238 
L 4450 4238 
L 4450 4122 
Q 4272 4113 4159 4066 
Q 3991 3994 3850 3872 
Q 3709 3750 3453 3422 
L 2613 2347 
z
" transform="scale(0.015625)"/>
      <path id="TimesNewRomanPSMT-41" d="M 2928 1419 
L 1288 1419 
L 1000 750 
Q 894 503 894 381 
Q 894 284 986 211 
Q 1078 138 1384 116 
L 1384 0 
L 50 0 
L 50 116 
Q 316 163 394 238 
Q 553 388 747 847 
L 2238 4334 
L 2347 4334 
L 3822 809 
Q 4000 384 4145 257 
Q 4291 131 4550 116 
L 4550 0 
L 2878 0 
L 2878 116 
Q 3131 128 3220 200 
Q 3309 272 3309 375 
Q 3309 513 3184 809 
L 2928 1419 
z
M 2841 1650 
L 2122 3363 
L 1384 1650 
L 2841 1650 
z
" transform="scale(0.015625)"/>
      <path id="TimesNewRomanPSMT-47" d="M 3928 4334 
L 4038 2997 
L 3928 2997 
Q 3763 3497 3500 3750 
Q 3122 4116 2528 4116 
Q 1719 4116 1297 3475 
Q 944 2934 944 2188 
Q 944 1581 1178 1081 
Q 1413 581 1792 348 
Q 2172 116 2572 116 
Q 2806 116 3025 175 
Q 3244 234 3447 350 
L 3447 1575 
Q 3447 1894 3398 1992 
Q 3350 2091 3248 2142 
Q 3147 2194 2891 2194 
L 2891 2313 
L 4531 2313 
L 4531 2194 
L 4453 2194 
Q 4209 2194 4119 2031 
Q 4056 1916 4056 1575 
L 4056 278 
Q 3697 84 3347 -6 
Q 2997 -97 2569 -97 
Q 1341 -97 703 691 
Q 225 1281 225 2053 
Q 225 2613 494 3125 
Q 813 3734 1369 4063 
Q 1834 4334 2469 4334 
Q 2700 4334 2889 4296 
Q 3078 4259 3425 4131 
Q 3600 4066 3659 4066 
Q 3719 4066 3761 4120 
Q 3803 4175 3813 4334 
L 3928 4334 
z
" transform="scale(0.015625)"/>
      <path id="TimesNewRomanPSMT-20" transform="scale(0.015625)"/>
      <path id="TimesNewRomanPSMT-54" d="M 3703 4238 
L 3750 3244 
L 3631 3244 
Q 3597 3506 3538 3619 
Q 3441 3800 3280 3886 
Q 3119 3972 2856 3972 
L 2259 3972 
L 2259 734 
Q 2259 344 2344 247 
Q 2463 116 2709 116 
L 2856 116 
L 2856 0 
L 1059 0 
L 1059 116 
L 1209 116 
Q 1478 116 1591 278 
Q 1659 378 1659 734 
L 1659 3972 
L 1150 3972 
Q 853 3972 728 3928 
Q 566 3869 450 3700 
Q 334 3531 313 3244 
L 194 3244 
L 244 4238 
L 3703 4238 
z
" transform="scale(0.015625)"/>
      <path id="TimesNewRomanPSMT-65" d="M 681 1784 
Q 678 1147 991 784 
Q 1303 422 1725 422 
Q 2006 422 2214 576 
Q 2422 731 2563 1106 
L 2659 1044 
Q 2594 616 2278 264 
Q 1963 -88 1488 -88 
Q 972 -88 605 314 
Q 238 716 238 1394 
Q 238 2128 614 2539 
Q 991 2950 1559 2950 
Q 2041 2950 2350 2633 
Q 2659 2316 2659 1784 
L 681 1784 
z
M 681 1966 
L 2006 1966 
Q 1991 2241 1941 2353 
Q 1863 2528 1708 2628 
Q 1553 2728 1384 2728 
Q 1125 2728 920 2526 
Q 716 2325 681 1966 
z
" transform="scale(0.015625)"/>
      <path id="TimesNewRomanPSMT-6d" d="M 1050 2338 
Q 1363 2650 1419 2697 
Q 1559 2816 1721 2881 
Q 1884 2947 2044 2947 
Q 2313 2947 2506 2790 
Q 2700 2634 2766 2338 
Q 3088 2713 3309 2830 
Q 3531 2947 3766 2947 
Q 3994 2947 4170 2830 
Q 4347 2713 4450 2447 
Q 4519 2266 4519 1878 
L 4519 647 
Q 4519 378 4559 278 
Q 4591 209 4675 161 
Q 4759 113 4950 113 
L 4950 0 
L 3538 0 
L 3538 113 
L 3597 113 
Q 3781 113 3884 184 
Q 3956 234 3988 344 
Q 4000 397 4000 647 
L 4000 1878 
Q 4000 2228 3916 2372 
Q 3794 2572 3525 2572 
Q 3359 2572 3192 2489 
Q 3025 2406 2788 2181 
L 2781 2147 
L 2788 2013 
L 2788 647 
Q 2788 353 2820 281 
Q 2853 209 2943 161 
Q 3034 113 3253 113 
L 3253 0 
L 1806 0 
L 1806 113 
Q 2044 113 2133 169 
Q 2222 225 2256 338 
Q 2272 391 2272 647 
L 2272 1878 
Q 2272 2228 2169 2381 
Q 2031 2581 1784 2581 
Q 1616 2581 1450 2491 
Q 1191 2353 1050 2181 
L 1050 647 
Q 1050 366 1089 281 
Q 1128 197 1204 155 
Q 1281 113 1516 113 
L 1516 0 
L 100 0 
L 100 113 
Q 297 113 375 155 
Q 453 197 493 289 
Q 534 381 534 647 
L 534 1741 
Q 534 2213 506 2350 
Q 484 2453 437 2492 
Q 391 2531 309 2531 
Q 222 2531 100 2484 
L 53 2597 
L 916 2947 
L 1050 2947 
L 1050 2338 
z
" transform="scale(0.015625)"/>
      <path id="TimesNewRomanPSMT-70" d="M -6 2578 
L 875 2934 
L 994 2934 
L 994 2266 
Q 1216 2644 1439 2795 
Q 1663 2947 1909 2947 
Q 2341 2947 2628 2609 
Q 2981 2197 2981 1534 
Q 2981 794 2556 309 
Q 2206 -88 1675 -88 
Q 1444 -88 1275 -22 
Q 1150 25 994 166 
L 994 -706 
Q 994 -1000 1030 -1079 
Q 1066 -1159 1155 -1206 
Q 1244 -1253 1478 -1253 
L 1478 -1369 
L -22 -1369 
L -22 -1253 
L 56 -1253 
Q 228 -1256 350 -1188 
Q 409 -1153 442 -1076 
Q 475 -1000 475 -688 
L 475 2019 
Q 475 2297 450 2372 
Q 425 2447 370 2484 
Q 316 2522 222 2522 
Q 147 2522 31 2478 
L -6 2578 
z
M 994 2081 
L 994 1013 
Q 994 666 1022 556 
Q 1066 375 1236 237 
Q 1406 100 1666 100 
Q 1978 100 2172 344 
Q 2425 663 2425 1241 
Q 2425 1897 2138 2250 
Q 1938 2494 1663 2494 
Q 1513 2494 1366 2419 
Q 1253 2363 994 2081 
z
" transform="scale(0.015625)"/>
      <path id="TimesNewRomanPSMT-6c" d="M 1184 4444 
L 1184 647 
Q 1184 378 1223 290 
Q 1263 203 1344 158 
Q 1425 113 1647 113 
L 1647 0 
L 244 0 
L 244 113 
Q 441 113 512 153 
Q 584 194 625 287 
Q 666 381 666 647 
L 666 3247 
Q 666 3731 644 3842 
Q 622 3953 573 3993 
Q 525 4034 450 4034 
Q 369 4034 244 3984 
L 191 4094 
L 1044 4444 
L 1184 4444 
z
" transform="scale(0.015625)"/>
      <path id="TimesNewRomanPSMT-61" d="M 1822 413 
Q 1381 72 1269 19 
Q 1100 -59 909 -59 
Q 613 -59 420 144 
Q 228 347 228 678 
Q 228 888 322 1041 
Q 450 1253 767 1440 
Q 1084 1628 1822 1897 
L 1822 2009 
Q 1822 2438 1686 2597 
Q 1550 2756 1291 2756 
Q 1094 2756 978 2650 
Q 859 2544 859 2406 
L 866 2225 
Q 866 2081 792 2003 
Q 719 1925 600 1925 
Q 484 1925 411 2006 
Q 338 2088 338 2228 
Q 338 2497 613 2722 
Q 888 2947 1384 2947 
Q 1766 2947 2009 2819 
Q 2194 2722 2281 2516 
Q 2338 2381 2338 1966 
L 2338 994 
Q 2338 584 2353 492 
Q 2369 400 2405 369 
Q 2441 338 2488 338 
Q 2538 338 2575 359 
Q 2641 400 2828 588 
L 2828 413 
Q 2478 -56 2159 -56 
Q 2006 -56 1915 50 
Q 1825 156 1822 413 
z
M 1822 616 
L 1822 1706 
Q 1350 1519 1213 1441 
Q 966 1303 859 1153 
Q 753 1003 753 825 
Q 753 600 887 451 
Q 1022 303 1197 303 
Q 1434 303 1822 616 
z
" transform="scale(0.015625)"/>
      <path id="TimesNewRomanPSMT-74" d="M 1031 3803 
L 1031 2863 
L 1700 2863 
L 1700 2644 
L 1031 2644 
L 1031 788 
Q 1031 509 1111 412 
Q 1191 316 1316 316 
Q 1419 316 1516 380 
Q 1613 444 1666 569 
L 1788 569 
Q 1678 263 1478 108 
Q 1278 -47 1066 -47 
Q 922 -47 784 33 
Q 647 113 581 261 
Q 516 409 516 719 
L 516 2644 
L 63 2644 
L 63 2747 
Q 234 2816 414 2980 
Q 594 3144 734 3369 
Q 806 3488 934 3803 
L 1031 3803 
z
" transform="scale(0.015625)"/>
     </defs>
     <use xlink:href="#TimesNewRomanPSMT-58"/>
     <use xlink:href="#TimesNewRomanPSMT-41" x="72.216797"/>
     <use xlink:href="#TimesNewRomanPSMT-47" x="144.433594"/>
     <use xlink:href="#TimesNewRomanPSMT-20" x="216.650391"/>
     <use xlink:href="#TimesNewRomanPSMT-54" x="239.900391"/>
     <use xlink:href="#TimesNewRomanPSMT-65" x="293.984375"/>
     <use xlink:href="#TimesNewRomanPSMT-6d" x="338.369141"/>
     <use xlink:href="#TimesNewRomanPSMT-70" x="416.152344"/>
     <use xlink:href="#TimesNewRomanPSMT-6c" x="466.152344"/>
     <use xlink:href="#TimesNewRomanPSMT-61" x="493.935547"/>
     <use xlink:href="#TimesNewRomanPSMT-74" x="538.320312"/>
     <use xlink:href="#TimesNewRomanPSMT-65" x="566.103516"/>
     <use xlink:href="#TimesNewRomanPSMT-20" x="610.488281"/>
     <use xlink:href="#TimesNewRomanPSMT-31" x="635.488281"/>
    </g>
   </g>
  </g>
  <g id="axes_2">
   <g id="patch_7">
    <path d="M 394.363636 315 
L 648 315 
L 648 43.2 
L 394.363636 43.2 
z
" style="fill: #e5e5e5"/>
   </g>
   <g id="matplotlib.axis_3">
    <g id="xtick_5">
     <g id="line2d_32">
      <path d="M 405.892562 315 
L 405.892562 43.2 
" clip-path="url(#p428458aafb)" style="fill: none; stroke: #ffffff; stroke-width: 0.8; stroke-linecap: square"/>
     </g>
     <g id="line2d_33">
      <g>
       <use xlink:href="#md69aa8a9a8" x="405.892562" y="315" style="fill: #555555; stroke: #555555; stroke-width: 0.8"/>
      </g>
     </g>
     <g id="text_12">
      <!-- 0 -->
      <g style="fill: #555555" transform="translate(403.392562 328.94375)scale(0.1 -0.1)">
       <use xlink:href="#TimesNewRomanPSMT-30"/>
      </g>
     </g>
    </g>
    <g id="xtick_6">
     <g id="line2d_34">
      <path d="M 466.571118 315 
L 466.571118 43.2 
" clip-path="url(#p428458aafb)" style="fill: none; stroke: #ffffff; stroke-width: 0.8; stroke-linecap: square"/>
     </g>
     <g id="line2d_35">
      <g>
       <use xlink:href="#md69aa8a9a8" x="466.571118" y="315" style="fill: #555555; stroke: #555555; stroke-width: 0.8"/>
      </g>
     </g>
     <g id="text_13">
      <!-- 5 -->
      <g style="fill: #555555" transform="translate(464.071118 328.94375)scale(0.1 -0.1)">
       <use xlink:href="#TimesNewRomanPSMT-35"/>
      </g>
     </g>
    </g>
    <g id="xtick_7">
     <g id="line2d_36">
      <path d="M 527.249674 315 
L 527.249674 43.2 
" clip-path="url(#p428458aafb)" style="fill: none; stroke: #ffffff; stroke-width: 0.8; stroke-linecap: square"/>
     </g>
     <g id="line2d_37">
      <g>
       <use xlink:href="#md69aa8a9a8" x="527.249674" y="315" style="fill: #555555; stroke: #555555; stroke-width: 0.8"/>
      </g>
     </g>
     <g id="text_14">
      <!-- 10 -->
      <g style="fill: #555555" transform="translate(522.249674 328.94375)scale(0.1 -0.1)">
       <use xlink:href="#TimesNewRomanPSMT-31"/>
       <use xlink:href="#TimesNewRomanPSMT-30" x="50"/>
      </g>
     </g>
    </g>
    <g id="xtick_8">
     <g id="line2d_38">
      <path d="M 587.92823 315 
L 587.92823 43.2 
" clip-path="url(#p428458aafb)" style="fill: none; stroke: #ffffff; stroke-width: 0.8; stroke-linecap: square"/>
     </g>
     <g id="line2d_39">
      <g>
       <use xlink:href="#md69aa8a9a8" x="587.92823" y="315" style="fill: #555555; stroke: #555555; stroke-width: 0.8"/>
      </g>
     </g>
     <g id="text_15">
      <!-- 15 -->
      <g style="fill: #555555" transform="translate(582.92823 328.94375)scale(0.1 -0.1)">
       <use xlink:href="#TimesNewRomanPSMT-31"/>
       <use xlink:href="#TimesNewRomanPSMT-35" x="50"/>
      </g>
     </g>
    </g>
   </g>
   <g id="matplotlib.axis_4">
    <g id="ytick_7">
     <g id="line2d_40">
      <path d="M 394.363636 302.645455 
L 648 302.645455 
" clip-path="url(#p428458aafb)" style="fill: none; stroke: #ffffff; stroke-width: 0.8; stroke-linecap: square"/>
     </g>
     <g id="line2d_41">
      <g>
       <use xlink:href="#mf35b8d17dc" x="394.363636" y="302.645455" style="fill: #555555; stroke: #555555; stroke-width: 0.8"/>
      </g>
     </g>
     <g id="text_16">
      <!-- 0.0 -->
      <g style="fill: #555555" transform="translate(374.863636 306.11733)scale(0.1 -0.1)">
       <use xlink:href="#TimesNewRomanPSMT-30"/>
       <use xlink:href="#TimesNewRomanPSMT-2e" x="50"/>
       <use xlink:href="#TimesNewRomanPSMT-30" x="75"/>
      </g>
     </g>
    </g>
    <g id="ytick_8">
     <g id="line2d_42">
      <path d="M 394.363636 253.227273 
L 648 253.227273 
" clip-path="url(#p428458aafb)" style="fill: none; stroke: #ffffff; stroke-width: 0.8; stroke-linecap: square"/>
     </g>
     <g id="line2d_43">
      <g>
       <use xlink:href="#mf35b8d17dc" x="394.363636" y="253.227273" style="fill: #555555; stroke: #555555; stroke-width: 0.8"/>
      </g>
     </g>
     <g id="text_17">
      <!-- 0.2 -->
      <g style="fill: #555555" transform="translate(374.863636 256.699148)scale(0.1 -0.1)">
       <use xlink:href="#TimesNewRomanPSMT-30"/>
       <use xlink:href="#TimesNewRomanPSMT-2e" x="50"/>
       <use xlink:href="#TimesNewRomanPSMT-32" x="75"/>
      </g>
     </g>
    </g>
    <g id="ytick_9">
     <g id="line2d_44">
      <path d="M 394.363636 203.809091 
L 648 203.809091 
" clip-path="url(#p428458aafb)" style="fill: none; stroke: #ffffff; stroke-width: 0.8; stroke-linecap: square"/>
     </g>
     <g id="line2d_45">
      <g>
       <use xlink:href="#mf35b8d17dc" x="394.363636" y="203.809091" style="fill: #555555; stroke: #555555; stroke-width: 0.8"/>
      </g>
     </g>
     <g id="text_18">
      <!-- 0.4 -->
      <g style="fill: #555555" transform="translate(374.863636 207.280966)scale(0.1 -0.1)">
       <use xlink:href="#TimesNewRomanPSMT-30"/>
       <use xlink:href="#TimesNewRomanPSMT-2e" x="50"/>
       <use xlink:href="#TimesNewRomanPSMT-34" x="75"/>
      </g>
     </g>
    </g>
    <g id="ytick_10">
     <g id="line2d_46">
      <path d="M 394.363636 154.390909 
L 648 154.390909 
" clip-path="url(#p428458aafb)" style="fill: none; stroke: #ffffff; stroke-width: 0.8; stroke-linecap: square"/>
     </g>
     <g id="line2d_47">
      <g>
       <use xlink:href="#mf35b8d17dc" x="394.363636" y="154.390909" style="fill: #555555; stroke: #555555; stroke-width: 0.8"/>
      </g>
     </g>
     <g id="text_19">
      <!-- 0.6 -->
      <g style="fill: #555555" transform="translate(374.863636 157.862784)scale(0.1 -0.1)">
       <use xlink:href="#TimesNewRomanPSMT-30"/>
       <use xlink:href="#TimesNewRomanPSMT-2e" x="50"/>
       <use xlink:href="#TimesNewRomanPSMT-36" x="75"/>
      </g>
     </g>
    </g>
    <g id="ytick_11">
     <g id="line2d_48">
      <path d="M 394.363636 104.972727 
L 648 104.972727 
" clip-path="url(#p428458aafb)" style="fill: none; stroke: #ffffff; stroke-width: 0.8; stroke-linecap: square"/>
     </g>
     <g id="line2d_49">
      <g>
       <use xlink:href="#mf35b8d17dc" x="394.363636" y="104.972727" style="fill: #555555; stroke: #555555; stroke-width: 0.8"/>
      </g>
     </g>
     <g id="text_20">
      <!-- 0.8 -->
      <g style="fill: #555555" transform="translate(374.863636 108.444602)scale(0.1 -0.1)">
       <use xlink:href="#TimesNewRomanPSMT-30"/>
       <use xlink:href="#TimesNewRomanPSMT-2e" x="50"/>
       <use xlink:href="#TimesNewRomanPSMT-38" x="75"/>
      </g>
     </g>
    </g>
    <g id="ytick_12">
     <g id="line2d_50">
      <path d="M 394.363636 55.554545 
L 648 55.554545 
" clip-path="url(#p428458aafb)" style="fill: none; stroke: #ffffff; stroke-width: 0.8; stroke-linecap: square"/>
     </g>
     <g id="line2d_51">
      <g>
       <use xlink:href="#mf35b8d17dc" x="394.363636" y="55.554545" style="fill: #555555; stroke: #555555; stroke-width: 0.8"/>
      </g>
     </g>
     <g id="text_21">
      <!-- 1.0 -->
      <g style="fill: #555555" transform="translate(374.863636 59.02642)scale(0.1 -0.1)">
       <use xlink:href="#TimesNewRomanPSMT-31"/>
       <use xlink:href="#TimesNewRomanPSMT-2e" x="50"/>
       <use xlink:href="#TimesNewRomanPSMT-30" x="75"/>
      </g>
     </g>
    </g>
   </g>
   <g id="line2d_52">
    <path d="M 405.892562 55.554545 
L 418.028273 59.063623 
L 430.163984 89.378374 
L 442.299696 145.354846 
L 454.435407 148.381819 
L 466.571118 99.262295 
L 478.706829 107.49124 
L 490.84254 81.668093 
L 502.978251 90.461151 
L 515.113963 73.807147 
L 527.249674 92.3875 
L 539.385385 71.256468 
L 551.521096 70.069963 
L 563.656807 168.856173 
L 575.792518 104.52029 
L 587.92823 119.752888 
L 600.063941 134.735694 
L 612.199652 171.567217 
L 624.335363 302.645455 
L 636.471074 274.750926 
" clip-path="url(#p428458aafb)" style="fill: none; stroke: #000000; stroke-opacity: 0.2; stroke-width: 1.5; stroke-linecap: square"/>
   </g>
   <g id="line2d_53">
    <path d="M 405.892562 219.248663 
L 418.028273 191.742456 
L 430.163984 181.666794 
L 442.299696 187.690653 
L 454.435407 185.42882 
L 466.571118 202.269942 
L 478.706829 159.887992 
L 490.84254 122.846646 
L 502.978251 55.554545 
L 515.113963 118.393327 
L 527.249674 197.81951 
L 539.385385 181.295327 
L 551.521096 149.119665 
L 563.656807 224.557421 
L 575.792518 230.028055 
L 587.92823 302.645455 
L 600.063941 276.420441 
L 612.199652 232.163207 
L 624.335363 249.823526 
L 636.471074 276.070773 
" clip-path="url(#p428458aafb)" style="fill: none; stroke: #000000; stroke-opacity: 0.2; stroke-width: 1.5; stroke-linecap: square"/>
   </g>
   <g id="line2d_54">
    <path d="M 405.892562 69.91694 
L 418.028273 55.554545 
L 430.163984 127.419907 
L 442.299696 143.041633 
L 454.435407 149.749688 
L 466.571118 75.536081 
L 478.706829 99.825665 
L 490.84254 193.711437 
L 502.978251 195.347181 
L 515.113963 205.172182 
L 527.249674 220.859305 
L 539.385385 196.647217 
L 551.521096 302.645455 
L 563.656807 249.902267 
L 575.792518 250.164846 
L 587.92823 240.112251 
L 600.063941 271.869072 
L 612.199652 251.474309 
L 624.335363 278.201633 
L 636.471074 244.332675 
" clip-path="url(#p428458aafb)" style="fill: none; stroke: #000000; stroke-opacity: 0.2; stroke-width: 1.5; stroke-linecap: square"/>
   </g>
   <g id="line2d_55">
    <path d="M 405.892562 225.368557 
L 418.028273 236.257436 
L 430.163984 214.118645 
L 442.299696 55.554545 
L 454.435407 144.243885 
L 466.571118 112.058588 
L 478.706829 104.186943 
L 490.84254 79.917152 
L 502.978251 147.011107 
L 515.113963 158.070889 
L 527.249674 302.645455 
L 539.385385 261.456739 
L 551.521096 225.298786 
L 563.656807 161.714132 
L 575.792518 220.652658 
L 587.92823 274.098025 
L 600.063941 235.695037 
L 612.199652 244.296968 
L 624.335363 263.646169 
L 636.471074 245.459406 
" clip-path="url(#p428458aafb)" style="fill: none; stroke: #000000; stroke-opacity: 0.2; stroke-width: 1.5; stroke-linecap: square"/>
   </g>
   <g id="line2d_56">
    <path d="M 405.892562 55.554545 
L 418.028273 88.886068 
L 430.163984 105.690338 
L 442.299696 266.324948 
L 454.435407 302.645455 
L 466.571118 273.530763 
L 478.706829 239.866595 
L 490.84254 248.167343 
L 502.978251 212.580311 
L 515.113963 249.647429 
L 527.249674 215.694541 
L 539.385385 204.753266 
L 551.521096 189.034533 
L 563.656807 212.033309 
L 575.792518 190.729151 
L 587.92823 193.257811 
L 600.063941 170.902936 
L 612.199652 169.842355 
L 624.335363 218.763331 
L 636.471074 211.965449 
" clip-path="url(#p428458aafb)" style="fill: none; stroke: #000000; stroke-opacity: 0.2; stroke-width: 1.5; stroke-linecap: square"/>
   </g>
   <g id="line2d_57">
    <path d="M 405.892562 121.068839 
L 418.028273 99.511913 
L 430.163984 81.840683 
L 442.299696 95.764707 
L 454.435407 106.993775 
L 466.571118 55.554545 
L 478.706829 111.74558 
L 490.84254 149.435288 
L 502.978251 119.290649 
L 515.113963 156.389251 
L 527.249674 145.797941 
L 539.385385 194.653877 
L 551.521096 270.866744 
L 563.656807 220.204484 
L 575.792518 247.227121 
L 587.92823 286.961398 
L 600.063941 260.07859 
L 612.199652 211.087719 
L 624.335363 302.645455 
L 636.471074 292.751619 
" clip-path="url(#p428458aafb)" style="fill: none; stroke: #000000; stroke-opacity: 0.2; stroke-width: 1.5; stroke-linecap: square"/>
   </g>
   <g id="line2d_58">
    <path d="M 405.892562 114.776333 
L 418.028273 77.952545 
L 430.163984 116.071146 
L 442.299696 90.324284 
L 454.435407 58.557152 
L 466.571118 117.743156 
L 478.706829 55.554545 
L 490.84254 82.25147 
L 502.978251 75.238855 
L 515.113963 64.735994 
L 527.249674 168.416029 
L 539.385385 114.010738 
L 551.521096 136.218193 
L 563.656807 111.313441 
L 575.792518 101.730616 
L 587.92823 75.892924 
L 600.063941 102.095139 
L 612.199652 116.366385 
L 624.335363 136.05015 
L 636.471074 302.645455 
" clip-path="url(#p428458aafb)" style="fill: none; stroke: #000000; stroke-opacity: 0.2; stroke-width: 1.5; stroke-linecap: square"/>
   </g>
   <g id="line2d_59">
    <path d="M 405.892562 95.137561 
L 418.028273 78.034003 
L 430.163984 76.823255 
L 442.299696 143.517054 
L 454.435407 122.370866 
L 466.571118 132.198698 
L 478.706829 98.143211 
L 490.84254 122.109533 
L 502.978251 119.209835 
L 515.113963 167.286427 
L 527.249674 166.870854 
L 539.385385 138.63393 
L 551.521096 55.554545 
L 563.656807 68.653124 
L 575.792518 261.557404 
L 587.92823 302.645455 
L 600.063941 245.192126 
L 612.199652 112.660202 
L 624.335363 234.754382 
L 636.471074 203.371877 
" clip-path="url(#p428458aafb)" style="fill: none; stroke: #000000; stroke-opacity: 0.2; stroke-width: 1.5; stroke-linecap: square"/>
   </g>
   <g id="line2d_60">
    <path d="M 405.892562 164.441543 
L 418.028273 150.204 
L 430.163984 169.55097 
L 442.299696 109.824777 
L 454.435407 55.554545 
L 466.571118 172.327597 
L 478.706829 200.714109 
L 490.84254 240.540858 
L 502.978251 219.238136 
L 515.113963 209.588209 
L 527.249674 147.243029 
L 539.385385 302.645455 
L 551.521096 249.433879 
L 563.656807 295.544309 
L 575.792518 290.400944 
L 587.92823 263.663019 
L 600.063941 223.417324 
L 612.199652 220.38314 
L 624.335363 236.538581 
L 636.471074 218.67753 
" clip-path="url(#p428458aafb)" style="fill: none; stroke: #000000; stroke-opacity: 0.2; stroke-width: 1.5; stroke-linecap: square"/>
   </g>
   <g id="line2d_61">
    <path d="M 405.892562 106.033704 
L 418.028273 93.84445 
L 430.163984 90.805726 
L 442.299696 93.562386 
L 454.435407 55.554545 
L 466.571118 73.21431 
L 478.706829 98.242813 
L 490.84254 105.726918 
L 502.978251 84.970333 
L 515.113963 108.891287 
L 527.249674 132.372462 
L 539.385385 108.584505 
L 551.521096 116.221191 
L 563.656807 134.879089 
L 575.792518 109.676363 
L 587.92823 135.857313 
L 600.063941 127.1807 
L 612.199652 128.473391 
L 624.335363 216.151313 
L 636.471074 302.645455 
" clip-path="url(#p428458aafb)" style="fill: none; stroke: #000000; stroke-opacity: 0.2; stroke-width: 1.5; stroke-linecap: square"/>
   </g>
   <g id="line2d_62">
    <path d="M 405.892562 140.110924 
L 418.028273 77.449537 
L 430.163984 101.960238 
L 442.299696 97.281679 
L 454.435407 82.203365 
L 466.571118 181.723557 
L 478.706829 120.545376 
L 490.84254 131.453152 
L 502.978251 103.807838 
L 515.113963 127.765562 
L 527.249674 122.251009 
L 539.385385 180.072559 
L 551.521096 266.026659 
L 563.656807 226.718786 
L 575.792518 198.143329 
L 587.92823 271.928776 
L 600.063941 258.037633 
L 612.199652 277.480786 
L 624.335363 261.688349 
L 636.471074 200.629236 
" clip-path="url(#p428458aafb)" style="fill: none; stroke: #ff0000; stroke-width: 2; stroke-linecap: square"/>
   </g>
   <g id="patch_8">
    <path d="M 394.363636 315 
L 394.363636 43.2 
" style="fill: none; stroke: #ffffff; stroke-linejoin: miter; stroke-linecap: square"/>
   </g>
   <g id="patch_9">
    <path d="M 648 315 
L 648 43.2 
" style="fill: none; stroke: #ffffff; stroke-linejoin: miter; stroke-linecap: square"/>
   </g>
   <g id="patch_10">
    <path d="M 394.363636 315 
L 648 315 
" style="fill: none; stroke: #ffffff; stroke-linejoin: miter; stroke-linecap: square"/>
   </g>
   <g id="patch_11">
    <path d="M 394.363636 43.2 
L 648 43.2 
" style="fill: none; stroke: #ffffff; stroke-linejoin: miter; stroke-linecap: square"/>
   </g>
   <g id="text_22">
    <!-- XAG Template 2 -->
    <g transform="translate(486.906818 37.2)scale(0.1 -0.1)">
     <use xlink:href="#TimesNewRomanPSMT-58"/>
     <use xlink:href="#TimesNewRomanPSMT-41" x="72.216797"/>
     <use xlink:href="#TimesNewRomanPSMT-47" x="144.433594"/>
     <use xlink:href="#TimesNewRomanPSMT-20" x="216.650391"/>
     <use xlink:href="#TimesNewRomanPSMT-54" x="239.900391"/>
     <use xlink:href="#TimesNewRomanPSMT-65" x="293.984375"/>
     <use xlink:href="#TimesNewRomanPSMT-6d" x="338.369141"/>
     <use xlink:href="#TimesNewRomanPSMT-70" x="416.152344"/>
     <use xlink:href="#TimesNewRomanPSMT-6c" x="466.152344"/>
     <use xlink:href="#TimesNewRomanPSMT-61" x="493.935547"/>
     <use xlink:href="#TimesNewRomanPSMT-74" x="538.320312"/>
     <use xlink:href="#TimesNewRomanPSMT-65" x="566.103516"/>
     <use xlink:href="#TimesNewRomanPSMT-20" x="610.488281"/>
     <use xlink:href="#TimesNewRomanPSMT-32" x="635.488281"/>
    </g>
   </g>
  </g>
 </g>
 <defs>
  <clipPath id="pa54bbfd4e1">
   <rect x="90" y="43.2" width="253.636364" height="271.8"/>
  </clipPath>
  <clipPath id="p428458aafb">
   <rect x="394.363636" y="43.2" width="253.636364" height="271.8"/>
  </clipPath>
 </defs>
</svg>
